<svg xmlns="http://www.w3.org/2000/svg" xmlns:xlink="http://www.w3.org/1999/xlink" width="184.589" height="184.714" viewBox="0 0 184.589 184.714">
  <defs>
    <clipPath id="clip-path">
      <rect id="Rectángulo_377629" data-name="Rectángulo 377629" width="184.589" height="184.714" fill="none"/>
    </clipPath>
  </defs>
  <g id="Grupo_1072057" data-name="Grupo 1072057" clip-path="url(#clip-path)">
    <path id="Trazado_609157" data-name="Trazado 609157" d="M24.789,173.647c-.283,8.688.031,7.965-8.542,7.973-4.1,0-8.207-.039-12.309.014C1.26,181.669,0,180.491,0,177.767Q.037,144.685,0,111.6c0-2.722,1.255-3.891,3.937-3.866,5.538.052,11.079.07,16.617-.007,2.834-.039,4.1,1.15,4.113,4.022.03,5.233.149,5.671,5.2,5.148,13.408-1.388,25.484,3.7,37.9,7.2,6.064,1.708,12.1,3.534,18.415,5.387,0-11.037-.03-21.788.032-32.538.009-1.605-.848-1.519-1.929-1.51-2.872.027-5.744.009-8.616.009q-35.389,0-70.778,0C.769,95.443.016,94.714.015,90.7q-.006-32.16,0-64.319c0-4.081.724-4.8,4.813-4.8,26.157,0,52.314-.042,78.47.063,2.494.01,3.026-.723,2.939-3.04-.177-4.712-.065-9.435-.049-14.154.014-3.514.86-4.463,4.277-4.4C102.721.289,99.229-2,104.719,8.824c1.309,2.582,2.614,3.636,5.682,3.613,23.079-.169,46.158-.094,69.239-.091,5.044,0,6.062,1.646,3.829,6.177-1.441,2.927-3.033,5.788-4.307,8.784-1.109,2.608-2.734,3.662-5.643,3.57-6.23-.2-6.307-.034-4.771,5.876,2.507,9.653,5.595,19.136,8.476,28.679,6.932,22.955-13.754,45.753-37.534,41.905-22.973-3.718-35.289-27.405-25.473-48.445,3.23-6.923,4.173-14.669,6.309-22,.559-1.917,1.41-3.822,1.3-6.08-5.173,0-10.295.034-15.414-.025-1.268-.015-1.979.246-1.761,1.67a6.137,6.137,0,0,1,.007.922V159.9c5.884-1.725,11.521-3.394,17.167-5.03q13.651-3.955,27.31-7.873a8.1,8.1,0,0,1,7.214,1.606c3.971,2.871,4.088,7.137,3.608,11.389a8.661,8.661,0,0,1-6.018,7.494c-15.836,5.63-31.7,11.169-47.545,16.785a9.588,9.588,0,0,1-3.313.426c-14.361,0-28.721.051-43.082-.025-5-.026-9.389-2.566-14.04-3.982-7.084-2.158-14.064-4.66-21.163-7.041M46.165,27.841v-.1c-12.4,0-24.8.067-37.205-.06-2.312-.023-2.861.564-2.844,2.856q.2,27.978.111,55.958c0,2.086.423,2.752,2.648,2.744q37.36-.128,74.718-.009c2.018.006,2.539-.539,2.531-2.541q-.115-28.135.011-56.272c.012-2.262-.724-2.636-2.772-2.621-12.4.094-24.8.047-37.2.047M81.44,178.54c6.766,0,13.533.01,20.3-.01a9.538,9.538,0,0,0,3.316-.37c15.261-5.432,30.553-10.782,45.816-16.208,2.874-1.022,3.957-3.682,2.853-6.731-1.019-2.813-3.254-2.333-5.379-1.716-6.36,1.848-12.724,3.688-19.046,5.66-22.579,7.045-22.573,7.065-46.2,7.064-.41,0-.823-.034-1.23.006A8.152,8.152,0,0,1,76.934,165c-8.189-4.611-16.426-9.134-24.651-13.679-1.752-.968-3.578-1.959-2.89-4.408.636-2.266,2.564-2.252,4.486-2.247,11.175.03,22.35,0,33.523.03,2.289.007,4.441-.1,4.9-2.948.449-2.808-.849-4.288-3.6-5.068-10.588-3-21.253-5.791-31.651-9.356a76.992,76.992,0,0,0-30.079-4.224c-1.494.092-2.391.044-2.377,2.051.1,13.327.068,26.656.025,39.984a2.18,2.18,0,0,0,1.885,2.553c3.818,1.094,7.563,2.449,11.319,3.753,20.433,7.089,20.431,7.1,42.088,7.1ZM144.6,46.2a27.669,27.669,0,1,0,27.719,27.488A27.853,27.853,0,0,0,144.6,46.2m31.51-27.7h-3.443c-21.847,0-43.694-.059-65.54.065-3.182.018-5.194-.748-6.357-3.894a82.5,82.5,0,0,0-3.7-7.4c-.894-1.827-2.5-1.012-3.793-1.01-1.484,0-.909,1.362-.91,2.137q-.043,60.465-.01,120.93c0,.767-.394,1.826.546,2.224,2.34.991,3.742,2.949,5.59,5.6V133.1q0-51.542,0-103.083c0-4.9.472-5.359,5.49-5.359h64c5.832,0,5.833,0,8.12-5.428a3.654,3.654,0,0,0,0-.722M18.478,144.838c0-9.435-.075-18.871.055-28.305.03-2.217-.637-2.834-2.753-2.662a40.035,40.035,0,0,1-6.761,0c-2.26-.2-2.925.46-2.908,2.823.114,16.409.051,32.818.069,49.227,0,3.059-1.048,7.169.5,8.9,1.783,1.989,5.98.357,9.1.673,2.122.214,2.777-.445,2.747-2.655-.13-9.331-.055-18.665-.055-28M164.889,46.57c-1.313-5.084-2.481-9.61-3.65-14.135a1.9,1.9,0,0,0-2.13-1.652q-14.451.087-28.9.007c-1.088,0-1.76.307-2.031,1.355-1.214,4.672-2.421,9.346-3.737,14.433,13.618-8.715,26.842-8.7,40.449-.009M65.377,150.843c-.057.172-.115.344-.172.517,4.96,2.748,9.852,5.628,14.9,8.2,3.994,2.037,6.079.635,6.079-3.727a24.559,24.559,0,0,1,.018-2.761c.187-1.635-.248-2.314-2.1-2.278-6.238.121-12.482.046-18.724.046m33.116-6.4c-1.393,1.882-1.925,3.578-3.339,4.178-2.852,1.211-3.058,3.408-2.829,5.978a22.026,22.026,0,0,1,0,3.684c-.207,2.587,1.724,1.818,2.909,1.728,1.213-.092,3.324,1.2,3.275-1.681-.073-4.374-.018-8.75-.018-13.888" transform="translate(0 0)" fill="#080808"/>
    <path id="Trazado_609158" data-name="Trazado 609158" d="M49.978,45.1c12.4,0,24.8.047,37.2-.046,2.048-.015,2.784.358,2.772,2.621q-.149,28.135-.01,56.271c.008,2-.514,2.547-2.532,2.542q-37.359-.105-74.718.008c-2.226.008-2.653-.658-2.648-2.744q.072-27.979-.113-55.959c-.017-2.292.533-2.88,2.844-2.856,12.4.127,24.8.06,37.205.06v.1M53.5,60.383a13.26,13.26,0,0,1-2.454-.021C44.576,59.123,40,61.42,37.41,67.537c-.73,1.722-2.047,2.119-3.9,2.155-2.553.05-5.377-1.033-7.609,1.168q-3.827,3.773-7.6,7.6c-.44.448-1.415.925-.727,1.723A12.826,12.826,0,0,0,21.1,83.552c1.237.615,1.9-1.138,2.751-1.9a48.952,48.952,0,0,0,4.126-4.119,4.321,4.321,0,0,1,4.273-1.749c5.215.969,8.87-.953,10.973-5.832.16-.37.486-.664.671-1.025a4.11,4.11,0,0,1,4.364-2.443c4.292.209,8.623-.215,12.895.142,4.067.339,7.151-.885,9.567-4.064,2.869-3.776,6.294-6.281,11.406-5.178.7.151,1.539.257,1.842-.98.952-3.89-.092-5.514-3.977-5.306-3.027.162-6.449-1-8.8,2.147-4.444,5.951-10.024,9.142-17.688,7.142M77.688,81.616h-.1c0,5.629.113,11.261-.049,16.886-.078,2.72,1.715,2.045,3.049,1.946,1.318-.1,3.426,1.138,3.4-1.894C83.9,87.5,83.876,76.446,84,65.394c.031-2.687-1.643-2.093-3.015-1.993-1.331.1-3.429-1.085-3.343,1.944.152,5.42.042,10.846.042,16.271M62.3,85h-.1c0,4.4.174,8.813-.063,13.2-.148,2.745,1.484,2.367,3.076,2.285,1.528-.079,3.491.858,3.416-2.251q-.321-13.2-.1-26.409c.049-2.838-1.615-2.214-3.131-2.193-1.478.02-3.307-.719-3.156,2.161.23,4.391.06,8.8.06,13.205M46.913,88.083h-.1c0,3.479.134,6.964-.042,10.433-.139,2.738,1.736,2.015,3.058,1.931s3.448,1.12,3.383-1.912c-.148-6.956-.2-13.918-.093-20.874.042-2.814-1.861-1.841-3.115-1.832s-3.249-1.014-3.124,1.816c.153,3.474.036,6.959.036,10.439m-15.388,2.88h-.1c0,2.454.19,4.926-.052,7.356-.259,2.6,1.383,2.336,2.866,2.14,1.388-.184,3.707,1.235,3.584-2.029-.179-4.8-.26-9.617-.078-14.416.1-2.637-1.514-2.185-2.93-2.048-1.32.128-3.532-1.115-3.322,1.939.161,2.342.032,4.7.032,7.057M16.137,94.258h-.1c0,1.327-.068,2.659.025,3.979.056.793-.515,1.819.86,2.252,3.533,1.11,5.477-.232,5.387-3.8a37.5,37.5,0,0,1,.031-5.513c.317-2.571-.586-3.193-3.134-3.2-2.588-.012-3.49.7-3.095,3.224a19.977,19.977,0,0,1,.026,3.062" transform="translate(-3.814 -17.261)" fill="#3eb3c5"/>
    <path id="Trazado_609159" data-name="Trazado 609159" d="M96.775,255.229H95.237c-21.658,0-21.656-.006-42.089-7.094-3.756-1.3-7.5-2.658-11.319-3.753a2.182,2.182,0,0,1-1.885-2.553c.042-13.328.072-26.656-.025-39.984-.015-2.007.883-1.959,2.377-2.05a76.985,76.985,0,0,1,30.079,4.224c10.4,3.565,21.064,6.362,31.652,9.356,2.757.78,4.054,2.259,3.605,5.068-.455,2.845-2.607,2.954-4.9,2.948-11.174-.035-22.349,0-33.523-.03-1.923-.006-3.851-.02-4.487,2.246-.687,2.449,1.139,3.44,2.89,4.408,8.225,4.546,16.463,9.068,24.652,13.68a8.151,8.151,0,0,0,4.935,1.231c.406-.04.82-.006,1.23-.006,23.628,0,23.621-.02,46.2-7.064,6.322-1.972,12.685-3.812,19.046-5.66,2.125-.617,4.359-1.1,5.378,1.716,1.1,3.05.022,5.71-2.852,6.731-15.264,5.427-30.555,10.776-45.817,16.208a9.507,9.507,0,0,1-3.316.37c-6.766.02-13.532.01-20.3.01" transform="translate(-15.334 -76.688)" fill="#ffce98"/>
    <path id="Trazado_609160" data-name="Trazado 609160" d="M217.549,75.022a27.669,27.669,0,1,1-27.632,27.859,27.912,27.912,0,0,1,27.632-27.859M214.6,111.951c-1.538,0-3.076-.015-4.613.007-.574.009-1.45-.193-1.516.59a13.3,13.3,0,0,0,.058,4.88c.43,1.386,2.175.73,3.245.614,2.393-.261,3.055.637,2.778,2.9-.126,1.035-.632,2.776.4,3.1a9.843,9.843,0,0,0,5.135.091c1.308-.328.323-1.985.645-2.984.342-1.06-.9-2.484,1.235-3.171,4-1.287,4.885-2.927,4.874-7.4-.025-9.992-.45-10.432-10.411-10.959-.714-.038-1.57.37-1.915-.894-.979-3.587.145-5.247,3.743-5.247a49.049,49.049,0,0,1,5.837.046c2.424.291,3.006-.682,2.783-2.9-.178-1.766.508-3.95-2.62-3.311-2.927.6-4.19-.554-3.57-3.54.552-2.656-1.029-2.675-2.977-2.654-1.974.021-3.743-.137-3.2,2.752.387,2.068.009,3.591-2.564,4.084-1.631.312-2.621,1.817-3.206,3.458-3.16,8.871.393,14.183,9.637,14.371a7.2,7.2,0,0,0,.922,0c1.092-.121,1.308.421,1.414,1.429.481,4.583.389,4.728-4.272,4.728H214.6" transform="translate(-72.949 -28.817)" fill="#ffc804"/>
    <path id="Trazado_609161" data-name="Trazado 609161" d="M233.651,22.3a3.654,3.654,0,0,1,0,.722c-2.287,5.429-2.287,5.428-8.119,5.428h-64c-5.017,0-5.49.461-5.49,5.359q0,51.542,0,103.083v4.058c-1.847-2.653-3.249-4.611-5.589-5.6-.94-.4-.546-1.457-.546-2.224q-.026-60.465.011-120.93c0-.775-.575-2.135.91-2.137,1.29,0,2.9-.817,3.793,1.01a82.5,82.5,0,0,1,3.7,7.4c1.162,3.147,3.174,3.912,6.357,3.894,21.846-.123,43.693-.065,65.539-.065Z" transform="translate(-57.54 -3.792)" fill="#b69b7e"/>
    <path id="Trazado_609162" data-name="Trazado 609162" d="M22.117,215.833c0,9.333-.075,18.666.055,28,.031,2.21-.625,2.869-2.747,2.655-3.124-.316-7.321,1.317-9.1-.673-1.55-1.731-.5-5.84-.5-8.9-.019-16.409.045-32.818-.07-49.227-.017-2.363.647-3.024,2.908-2.823a40.046,40.046,0,0,0,6.761,0c2.116-.172,2.783.445,2.753,2.662-.13,9.434-.055,18.87-.055,28.305" transform="translate(-3.64 -70.995)" fill="#b69b7e"/>
    <path id="Trazado_609164" data-name="Trazado 609164" d="M106.044,244.89c6.241,0,12.485.075,18.724-.046,1.854-.036,2.289.642,2.1,2.278a24.425,24.425,0,0,0-.018,2.762c0,4.362-2.085,5.764-6.079,3.727-5.048-2.574-9.941-5.454-14.9-8.2l.172-.517" transform="translate(-40.667 -94.047)" fill="#f5f5f5"/>
    <path id="Trazado_609165" data-name="Trazado 609165" d="M156.031,234.523c0,5.138-.055,9.514.018,13.888.049,2.882-2.063,1.588-3.275,1.681-1.185.09-3.116.859-2.909-1.728a22.025,22.025,0,0,0,0-3.684c-.229-2.57-.023-4.767,2.829-5.978,1.415-.6,1.947-2.3,3.339-4.178" transform="translate(-57.537 -90.083)" fill="#b69b7e"/>
    <path id="Trazado_609166" data-name="Trazado 609166" d="M58.127,64.172c7.665,2,13.244-1.191,17.688-7.142,2.351-3.148,5.773-1.985,8.8-2.147,3.885-.208,4.93,1.416,3.977,5.306-.3,1.238-1.142,1.131-1.842.98-5.112-1.1-8.537,1.4-11.406,5.178-2.416,3.179-5.5,4.4-9.567,4.064-4.272-.357-8.6.067-12.895-.142a4.11,4.11,0,0,0-4.364,2.443c-.185.362-.511.656-.671,1.025-2.1,4.88-5.758,6.8-10.973,5.832A4.322,4.322,0,0,0,32.6,81.318a49.038,49.038,0,0,1-4.126,4.119c-.847.766-1.514,2.518-2.752,1.9A12.846,12.846,0,0,1,22.2,83.975c-.687-.8.288-1.274.727-1.723q3.759-3.84,7.6-7.6c2.232-2.2,5.056-1.118,7.609-1.168,1.849-.036,3.166-.433,3.9-2.155,2.594-6.116,7.166-8.414,13.638-7.174a13.315,13.315,0,0,0,2.454.02" transform="translate(-8.438 -21.05)" fill="#080808"/>
    <path id="Trazado_609167" data-name="Trazado 609167" d="M119.852,93.039c0-5.424.11-10.851-.043-16.27-.085-3.03,2.012-1.847,3.344-1.945,1.372-.1,3.046-.694,3.014,1.994-.127,11.052-.108,22.106-.018,33.159.025,3.033-2.082,1.8-3.4,1.894s-3.126.775-3.048-1.946c.161-5.624.049-11.257.049-16.886h.1" transform="translate(-45.977 -28.684)" fill="#080808"/>
    <path id="Trazado_609168" data-name="Trazado 609168" d="M94.853,100.352c0-4.4.169-8.815-.06-13.205-.15-2.881,1.678-2.141,3.156-2.161,1.516-.021,3.18-.645,3.131,2.193q-.23,13.2.1,26.41c.075,3.109-1.888,2.172-3.416,2.251-1.592.082-3.225.459-3.076-2.286.238-4.389.063-8.8.063-13.2h.1" transform="translate(-36.366 -32.616)" fill="#080808"/>
    <path id="Trazado_609169" data-name="Trazado 609169" d="M69.884,107.241c0-3.48.116-6.965-.036-10.439-.124-2.83,1.879-1.808,3.124-1.816s3.158-.981,3.115,1.833c-.1,6.956-.055,13.918.093,20.874.065,3.032-2.06,1.828-3.383,1.912s-3.2.807-3.058-1.931c.176-3.469.043-6.955.043-10.433h.1" transform="translate(-26.785 -36.419)" fill="#080808"/>
    <path id="Trazado_609170" data-name="Trazado 609170" d="M44.881,113.967c0-2.353.129-4.715-.032-7.056-.21-3.055,2-1.812,3.322-1.94,1.415-.137,3.03-.589,2.929,2.048-.182,4.8-.1,9.615.078,14.416.123,3.264-2.2,1.845-3.584,2.029-1.484.2-3.126.459-2.866-2.14.242-2.43.052-4.9.052-7.356h.1" transform="translate(-17.17 -40.265)" fill="#080808"/>
    <path id="Trazado_609171" data-name="Trazado 609171" d="M19.917,121.1a19.977,19.977,0,0,0-.026-3.062c-.395-2.525.507-3.235,3.095-3.224,2.547.01,3.451.633,3.134,3.2a37.5,37.5,0,0,0-.031,5.513c.09,3.567-1.854,4.909-5.387,3.8-1.376-.432-.8-1.458-.86-2.252-.094-1.32-.025-2.652-.025-3.979h.1" transform="translate(-7.594 -44.101)" fill="#080808"/>
    <path id="Trazado_609172" data-name="Trazado 609172" d="M225.635,115.758h1.845c4.661,0,4.753-.145,4.272-4.728-.106-1.008-.322-1.55-1.414-1.429a7.193,7.193,0,0,1-.922,0c-9.244-.187-12.8-5.5-9.637-14.371.585-1.641,1.574-3.147,3.206-3.458,2.573-.493,2.951-2.016,2.564-4.084-.541-2.889,1.228-2.731,3.2-2.752,1.949-.021,3.529,0,2.977,2.654-.62,2.985.642,4.137,3.57,3.54,3.128-.639,2.442,1.545,2.62,3.311.223,2.215-.359,3.188-2.783,2.9a49.048,49.048,0,0,0-5.837-.046c-3.6,0-4.723,1.66-3.743,5.247.345,1.264,1.2.856,1.915.894,9.961.527,10.386.967,10.411,10.959.011,4.471-.876,6.111-4.874,7.4-2.135.687-.893,2.111-1.235,3.171-.322,1,.663,2.656-.645,2.984a9.843,9.843,0,0,1-5.135-.091c-1.037-.328-.531-2.068-.4-3.1.277-2.263-.385-3.161-2.778-2.9-1.07.116-2.815.772-3.244-.614a13.3,13.3,0,0,1-.058-4.88c.066-.783.942-.581,1.516-.59,1.537-.022,3.075-.007,4.613-.008" transform="translate(-83.986 -32.625)" fill="#080808"/>
  </g>
</svg>
