<svg xmlns="http://www.w3.org/2000/svg" xmlns:xlink="http://www.w3.org/1999/xlink" width="184.586" height="184.775" viewBox="0 0 184.586 184.775">
  <defs>
    <clipPath id="clip-path">
      <rect id="Rectángulo_377630" data-name="Rectángulo 377630" width="184.586" height="184.775" fill="none"/>
    </clipPath>
  </defs>
  <g id="Grupo_1072062" data-name="Grupo 1072062" transform="translate(9)">
    <g id="Grupo_1072061" data-name="Grupo 1072061" transform="translate(-9)" clip-path="url(#clip-path)">
      <path id="Trazado_609173" data-name="Trazado 609173" d="M92.137,184.41q42.2,0,84.39-.021c2.541,0,6.013,1.13,7.368-.469,1.287-1.52.357-4.883.479-7.433.284-5.946-1.046-11.383-5.023-15.964-.79-.909-.548-1.8-.438-2.774,1.234-10.906,2.622-21.8,2.489-32.813a29.03,29.03,0,0,0-7.578-19.7,4.991,4.991,0,0,1-1.374-3.687c.051-9.509.026-19.018.026-28.527,0-4.112,0-4.12-4.08-4.545-1.629-.17-2.845-.841-3.183-2.563a3.142,3.142,0,0,1,2.119-3.771,6.487,6.487,0,0,1,1.362-.553c2.295-.415,2.059-1.671,1.328-3.362-2.108-4.878-4.1-9.806-6.15-14.71-.606-1.451-.884-3.318-1.962-4.222-1.322-1.11-2.756.727-4.211,1.047a3.233,3.233,0,0,1-3.64-1.307,2.81,2.81,0,0,1,.214-3.788,11.468,11.468,0,0,1,1.665-1.69c1.284-1.026,1.3-1.812.043-3.027-4.348-4.189-8.673-8.412-12.786-12.828-1.93-2.072-3.269-2.675-5.171-.075-1.031,1.41-2.578,2.2-4.4.946-1.842-1.272-1.775-2.908-.981-4.712a3.118,3.118,0,0,1,.236-.539c1.428-2.038.544-2.938-1.516-3.729-5.142-1.977-10.207-4.154-15.3-6.256-3.738-1.543-3.755-1.557-5.7,2.1a3.223,3.223,0,0,1-3.618,1.948c-1.746-.281-2.467-1.491-2.62-3.116a8.791,8.791,0,0,1,0-2.077c.247-1.7-.43-2.15-2.1-2.12-5.644.1-11.291.03-16.937.045-1.473,0-3.241-.4-4.335.269s-.263,2.546-.431,3.882c-.2,1.622-.906,2.826-2.64,3.122a3.081,3.081,0,0,1-3.6-1.949,15.458,15.458,0,0,1-.9-2.179c-.4-1.393-.961-1.511-2.335-.918C64.8,4.954,58.7,7.468,52.547,9.835c-1.952.751-2.045,1.663-1.162,3.234a7.931,7.931,0,0,1,.863,2.191,3.034,3.034,0,0,1-1.432,3.313,2.743,2.743,0,0,1-3.547-.141,4.748,4.748,0,0,1-1.09-.995c-1.634-2.406-2.97-1.8-4.714.072-3.712,3.979-7.522,7.885-11.537,11.553-2.3,2.1-3.169,3.639-.183,5.8a2.768,2.768,0,0,1,.612,4.19,3.1,3.1,0,0,1-4.182,1.039c-.448-.2-.92-.358-1.344-.6-1.626-.923-2.487-.553-3.2,1.29-2.343,6.057-4.821,12.064-7.386,18.032-.609,1.417-.608,2.108.976,2.56a11.155,11.155,0,0,1,2.671,1.241,2.993,2.993,0,0,1,1.326,3.352,2.872,2.872,0,0,1-2.364,2.367,7.237,7.237,0,0,1-2.653.114c-1.839-.255-2.31.41-2.286,2.254.109,8.319.026,16.64.07,24.96a3.978,3.978,0,0,1-1.391,3.319,13.362,13.362,0,0,0-3.416,15.661,4.01,4.01,0,0,1,.034,3.348c-2.873,6.984-.429,13.774,6.24,17.347a3.077,3.077,0,0,1,1.978,2.3,15.924,15.924,0,0,0,5.522,9.534,2.848,2.848,0,0,1,.906,3.362c-.5,1.976-2.035,2.109-3.556,2.424C9.671,154.75,3.679,159.624.921,168.1c-1.373,4.22-.617,8.644-.9,12.971-.167,2.579.443,3.425,3.265,3.413,29.615-.121,59.231-.075,88.847-.075" transform="translate(0 0)" fill="#f5f5f4"/>
      <path id="Trazado_609174" data-name="Trazado 609174" d="M92.137,184.411c-29.616,0-59.232-.047-88.847.075-2.822.011-3.431-.834-3.265-3.414.28-4.327-.477-8.75.9-12.971,2.758-8.477,8.75-13.35,17.381-15.136,1.522-.315,3.058-.448,3.556-2.424a2.847,2.847,0,0,0-.905-3.362,15.924,15.924,0,0,1-5.523-9.534,3.076,3.076,0,0,0-1.978-2.3c-6.669-3.573-9.112-10.363-6.24-17.347a4.01,4.01,0,0,0-.034-3.348,13.363,13.363,0,0,1,3.416-15.661,3.978,3.978,0,0,0,1.391-3.318c-.044-8.32.04-16.641-.07-24.961-.024-1.844.447-2.509,2.286-2.254a7.236,7.236,0,0,0,2.653-.114,2.87,2.87,0,0,0,2.364-2.367,2.993,2.993,0,0,0-1.326-3.352,11.13,11.13,0,0,0-2.671-1.24c-1.584-.452-1.585-1.144-.976-2.561,2.565-5.967,5.043-11.975,7.387-18.032.713-1.842,1.574-2.213,3.2-1.29.425.241.9.4,1.344.6a3.1,3.1,0,0,0,4.183-1.039,2.769,2.769,0,0,0-.613-4.191c-2.986-2.164-2.119-3.7.183-5.8,4.015-3.669,7.825-7.575,11.537-11.554,1.743-1.868,3.08-2.477,4.714-.072a4.747,4.747,0,0,0,1.09.995,2.743,2.743,0,0,0,3.547.141,3.033,3.033,0,0,0,1.432-3.312,7.935,7.935,0,0,0-.863-2.191c-.883-1.57-.79-2.483,1.162-3.233C58.7,7.469,64.8,4.954,70.849,2.344c1.374-.592,1.938-.474,2.335.919a15.491,15.491,0,0,0,.9,2.178,3.081,3.081,0,0,0,3.6,1.949c1.733-.3,2.436-1.5,2.64-3.121.168-1.336-.657-3.218.431-3.882S83.616.121,85.089.117C90.735.1,96.382.174,102.026.072c1.672-.03,2.349.424,2.1,2.12a8.786,8.786,0,0,0,0,2.076c.154,1.626.874,2.835,2.621,3.116a3.222,3.222,0,0,0,3.618-1.948c1.942-3.66,1.959-3.646,5.7-2.1,5.094,2.1,10.159,4.28,15.3,6.256,2.059.792,2.943,1.692,1.516,3.73a3.057,3.057,0,0,0-.237.539c-.793,1.8-.86,3.44.981,4.711,1.818,1.256,3.365.464,4.4-.945,1.9-2.6,3.241-2,5.171.075,4.113,4.416,8.438,8.64,12.786,12.828,1.26,1.214,1.241,2-.043,3.027a11.46,11.46,0,0,0-1.664,1.689,2.811,2.811,0,0,0-.215,3.788,3.234,3.234,0,0,0,3.64,1.307c1.455-.32,2.888-2.157,4.211-1.048,1.077.9,1.356,2.771,1.962,4.223,2.049,4.9,4.042,9.832,6.15,14.71.732,1.692.967,2.947-1.327,3.362a6.493,6.493,0,0,0-1.362.554,3.142,3.142,0,0,0-2.119,3.77c.338,1.723,1.555,2.393,3.183,2.563,4.081.425,4.08.434,4.08,4.545,0,9.509.024,19.018-.026,28.527a4.994,4.994,0,0,0,1.373,3.687,29.029,29.029,0,0,1,7.578,19.7c.133,11.013-1.256,21.906-2.489,32.813-.111.977-.352,1.864.438,2.774,3.978,4.58,5.308,10.018,5.023,15.964-.122,2.549.808,5.912-.479,7.432-1.354,1.6-4.827.467-7.368.47q-42.2.051-84.39.021M59.593,107.084V67.094C45.827,73.118,32.5,78.945,19.186,84.791c-.492.215-1.249.241-1.252,1.042q-.019,4.3.014,8.608c0,.258.22.733.347.736,1.677.042,3.446.338,5.005-.1,1.2-.334.3-1.928.558-2.92.247-.946-.664-2.261.723-2.828,2.982-1.219,5.194.24,5.22,3.365,0,.3.015.594,0,.89-.155,2.848,2.01,1.474,3.145,1.568,1.088.09,2.956.961,2.827-1.608-.133-2.665.167-5.361-.081-8.009-.284-3.029,1.77-2.051,3.235-2.2,1.715-.173,3.045-.164,2.821,2.32-.247,2.749-.057,5.536-.055,8.308,0,.865-.185,1.748,1.032,2.109,1.576.467,3.1,1.1,4.909,1.757,0-6.3.143-12.326-.064-18.335-.1-2.788,1.618-2.081,3.043-2.084s3.144-.694,3.034,2.095c-.219,5.533.178,11.094-.141,16.618-.258,4.449.527,8.334,3.617,11.627,2.913,6.515,3.5,13.231.612,19.792-3.133,7.119-8.669,12.763-12.745,19.325a1.264,1.264,0,0,1-.218.2c-2.181,2.11-1.562,5.089,1.4,5.651,6.79,1.285,12.4,4.308,16.33,10.45,3.919-6.079,9.384-9.225,16.127-10.352a3.19,3.19,0,0,0,2.794-2.553,2.836,2.836,0,0,0-1.253-3.279,11.945,11.945,0,0,1-3.731-4.914A22.7,22.7,0,0,0,71.7,135.06c-6.915-7.751-8.82-21.083-3.3-29.245,2.718-4.02,3.069-7.843,3-12.159-.038-2.476.126-4.962-.046-7.427-.153-2.183.315-3.249,2.807-2.955a59.989,59.989,0,0,0,6.235.055c2.854.037,6.71-.989,8.3.459,1.836,1.673.375,5.583.569,8.515a3.71,3.71,0,0,1,0,.89c-.457,2.559,1.391,2.116,2.75,1.98,1.263-.126,3.4,1.124,3.2-1.865-.175-2.664.045-5.35-.068-8.02-.064-1.522.351-2.04,1.952-2,4.653.109,9.313.132,13.964-.008,1.85-.056,2.047.7,2.019,2.239-.086,4.654-.024,9.311-.036,13.967a4.139,4.139,0,0,0,.875,2.987c5.745,6.847,6.187,14.727,3.959,22.915-2.313,8.5-9.244,14.2-13.62,21.474-1.641,2.728-1.693,5.3,1.448,5.9,6.39,1.217,11.75,3.961,15.544,9.38.365.521.7,1.156,1.221.279.855-1.442,2.322-2.389,2.038-4.628-.978-7.742-1.922-15.492-2.373-23.3-.542-9.387-.588-18.61,5.18-26.744,3.2-2.6,3.82-5.983,3.624-9.959-.3-6.024-.09-12.075-.061-18.113,0-.745-.4-1.992.43-2.137a11.473,11.473,0,0,1,5,.026c1.118.323.466,1.944.475,2.963.058,6.068.029,12.137.029,18.588a13.317,13.317,0,0,1,2.554-1.2c3.055-.589,3.741-2.473,3.441-5.326-.258-2.448.071-4.952-.087-7.417-.175-2.733,1.781-1.789,2.99-1.772,1.19.017,3.169-1.018,3.023,1.737s-.053,5.542-.015,8.314c.008.618-.358,1.642.579,1.723A12.859,12.859,0,0,0,154.255,95c.921-.3.458-2.009.335-3.02-.273-2.239.535-2.713,2.733-2.8,2.759-.1,3.534.754,3.346,3.415-.1,1.388-1.034,3.285.858,4.272,1.53.8,3.195,1.34,5,2.076,0-3.776-.163-7.248.058-10.7.142-2.2-.55-3.278-2.6-4.142-9.346-3.935-18.616-8.049-27.914-12.1-3.641-1.586-7.28-3.174-11.223-4.893v39.967c-.594.014-1.187.038-1.781.04-4.114.014-4.114.012-4.114-4.213q0-26.143.014-52.288c0-1.488.173-2.609-2.1-2.246-16.364,2.611-32.74,5.156-49.14,7.527-2.075.3-2.272,1.038-2.266,2.741.05,14.26.029,28.52.029,42.781,0,5.788,0,5.788-5.895,5.658M18.132,78.573a22.327,22.327,0,0,1,2.439-.959c6.648-1.774,11.42-5.169,11.323-12.872a3.565,3.565,0,0,1,.255-.845c8.8-33.778,45.878-54.158,78.866-42.934,24.181,8.228,38.3,25.462,42.982,50.5.178.954.024,1.9,1.256,2.4,3.706,1.511,7.361,3.15,11.092,4.763.459-2.618.346-4.262-2.5-5.514-4.72-2.074-6.713-8.422-3.4-12.27,3.02-3.507,1.766-6.013.308-9.087a15.723,15.723,0,0,1-1.229-3c-.439-1.842-1.422-2.33-3.324-2.363-5.32-.092-10.169-5.3-8.446-10.159,1.6-4.523-.887-6.2-3.217-8.547a22.946,22.946,0,0,1-2.078-2.118c-1.169-1.538-2.389-1.759-4.268-1.073-5.163,1.883-11.336-1.221-11.676-6.576-.261-4.1-2.468-4.94-5.34-5.951a23.712,23.712,0,0,1-3.8-1.615c-1.522-.859-2.471-.612-3.8.636-4.18,3.927-11.117,3.476-13.554-1.459C98.2,5.847,95.8,5.942,92.776,6.048c-1.483.052-2.975.077-4.454-.01-1.441-.086-2.145.28-2.788,1.821-2.211,5.3-8.651,7.7-12.972,4.209-3.261-2.637-5.624-1.815-8.552-.434a27.49,27.49,0,0,1-3.54,1.487c-1.594.494-2.21,1.276-2.236,3.109-.076,5.5-5.327,10.3-10.316,8.613-4.118-1.39-5.883.538-8.067,2.892a24.361,24.361,0,0,1-2.327,2.289c-1.518,1.248-1.937,2.453-1.168,4.519,1.876,5.035-1.176,11.109-6.441,11.48-4.2.3-5.125,2.527-6.149,5.522a25.637,25.637,0,0,1-1.6,3.812c-.75,1.4-.616,2.288.571,3.551,4.322,4.6,3.321,11.643-2.209,14.264-2.7,1.278-3.009,2.859-2.391,5.4m154.8,76.355c1.692-9.462,2.162-19,2.487-28.546a24.1,24.1,0,0,0-20.391-24.872c-12.094-1.847-24.721,7.047-26.618,19.039-1.147,7.253.123,14.407.3,21.6.094,3.821.948,7.625,1.495,11.432.071.492,0,1.6.74,1.235,2.966-1.485,6.793-1.016,9.09-3.925.712-.9,1.595-2.016.288-3.117-5.813-4.9-6.761-11.38-6.593-18.515.15-6.355,2.62-11.036,8.048-14.172,1.133-.654,1.584-1.25,1.147-2.57a13.73,13.73,0,0,1-.2-2.649c-.218-1.881.19-3.041,2.481-2.793,1.774.193,3.684-.569,3.6,2.64-.115,4.444,2.521,6.935,7.049,7.6,2.049.3,4.083.705,6.124,1.063a8.655,8.655,0,0,1,7.524,8.566c.071,2.374,0,4.753.017,7.129a17.226,17.226,0,0,1-5.067,12.285c-2.671,2.823-2.056,5.266,1.77,6.544,2.145.717,4.33,1.317,6.7,2.032M117.31,30.448c-18.118-9.014-36.055-8.83-53.422,1.293C49.156,40.327,40.232,53.29,36.677,70.551c7.593-3.318,14.6-6.426,21.664-9.425C59.571,60.6,59.533,59.8,59.53,58.8c-.018-5.053-.008-10.106-.008-15.159,0-4.326,0-4.344,4.1-5.09,1.455-.264,2.933-.4,4.4-.619q15.077-2.282,30.151-4.577l19.146-2.9m-6.928,97.134c1.791-2.235,2.12-4.924,2.517-7.521,1.653-10.815-5.321-18.859-16.266-18.879-3.268-.006-6.539-.079-9.805.017-6.223.182-11.148,2.7-13.817,8.535-2.773,6.062-1.929,12.01,1.058,18.353,1.322-7.033,2.677-9.162,8.239-12.972a4.64,4.64,0,0,0,1.6-2.373,8.466,8.466,0,0,1,8.294-5.6c1.316-.011,3.264-.695,2.991,1.9-.189,1.8,1.089,4.454-2.667,4.089a2.758,2.758,0,0,0-3.16,2.836c-.024,1.988,1.372,2.977,3.321,3.024,2.079.05,4.16.016,6.24.017,7.17,0,9.465,1.7,11.46,8.572m-59.545-.057c6.518-9.189.7-23.674-10.429-25.747-6.962-1.3-14.024-.593-21.032-.465-3.826.07-6.524,3-7.268,6.746-.694,3.5,2.025,7.778,5.749,9.051,1.973.675,5.344-1.692,6.659-4.578a8.468,8.468,0,0,1,8.155-5.376c1.265,0,3.332-.823,3.05,1.807-.185,1.731,1.251,4.474-2.567,4.165a2.8,2.8,0,0,0-3.239,3.055c.074,1.805,1.417,2.769,3.24,2.807,2.277.048,4.556.018,6.834.019,6.632,0,9.214,2.031,10.847,8.516m112.72,3.73c0-6.824,0-6.8-6.709-7.586-2.947-.346-6.025-.659-8.317-2.712-1.855-1.661-3.348-1.093-4.926.059a8.386,8.386,0,0,0-3.352,4.727,24.447,24.447,0,0,0-.283,9.724,11.639,11.639,0,0,0,14.789,9.77q8.786-2.256,8.8-13.981m-118.895.42c0-.738,0-1.233,0-1.729-.012-4.262-.728-4.979-4.994-4.988-2.278,0-4.556-.017-6.834,0s-4.513-.548-5.91-2.279c-2.2-2.724-3.4-1.1-4.482.76-2.455,4.221-1.975,8.825-1.022,13.262a11.491,11.491,0,0,0,15.943,8.046c5.745-2.563,7.628-7.364,7.3-13.076m59.448-.086c0-.594,0-1.188,0-1.783-.016-4.035-.811-4.835-4.836-4.847q-3.566-.011-7.132,0a8.648,8.648,0,0,1-5.709-2.126c-2.4-2-3.238-1.9-4.793.97-2.1,3.885-1.675,8.145-.966,12.184,1.276,7.277,8.182,11.259,15.182,9.174,5.329-1.588,8.252-6.393,8.255-13.569m20.81-97.038c0,8.673.012,16.828-.017,24.983a1.422,1.422,0,0,0,1.071,1.487c7.091,3.076,14.167,6.189,21.754,9.513C144.737,55.4,137.2,43.828,124.919,34.552M65.535,47.2c-.6,2.76.488,3.138,3,2.533,3.149-.759,6.417-1.024,9.633-1.5,12.472-1.865,24.925-3.885,37.43-5.494,3.315-.426,3.581-1.881,3.443-4.546-.089-1.726-.667-1.96-2.121-1.695q-4.94.9-9.9,1.664c-12.954,1.971-25.9,4.009-38.879,5.781-2.4.328-3.108,1.089-2.6,3.261m72.818,111.778c1.56,3.76,4.109,5.025,7.977,4.71,4.412-.359,8.877-.076,13.318-.086,1.706,0,5.143-2.525,5.108-4.054s-1.975-1.062-2.8-1.911a7.019,7.019,0,0,0-1.222-.82c-2.1-1.383-2.655-4.741-4.587-5.337-2.187-.673-4.983.539-7.543-.028-.193-.042-.379-.111-.572-.151-.826-.172-1.384-.147-1.813.877-1.462,3.483-4.258,5.571-7.865,6.8M26.637,178.46c-4.452-5.723-8.571-10.963-12.618-16.259-1.025-1.341-1.7-.365-2.383.2-4.711,3.87-5.94,9.069-5.628,14.861.047.875.355,1.21,1.225,1.208,6.276-.017,12.551-.01,19.4-.01m59.382-.035c-4.368-5.618-8.388-10.714-12.309-15.884-.937-1.235-1.588-1-2.583-.167-4.685,3.905-5.934,9.064-5.639,14.861.074,1.448,1.006,1.182,1.842,1.184,6.014.011,12.028.006,18.689.006m12.412,0c6.589,0,12.513.02,18.437-.024.746-.005,1.727.5,2.085-.917,1.176-4.666-1.777-12.353-5.909-15.333-.921-.664-1.439-.709-2.147.211-4.011,5.213-8.062,10.4-12.466,16.063m-59.516.035c6.859,0,13.136-.008,19.413.01.884,0,1.163-.362,1.209-1.224.305-5.79-.925-10.986-5.636-14.856-.708-.581-1.371-1.5-2.383-.172-4.043,5.294-8.161,10.532-12.6,16.244m106.447-.073c-4.362-5.6-8.421-10.784-12.434-16-.964-1.252-1.672-.479-2.426.15-4.6,3.841-5.79,8.955-5.53,14.648.054,1.168.679,1.208,1.537,1.207,6.1-.011,12.2-.006,18.854-.006m12.612,0c6.68,0,12.788-.008,18.9.009.9,0,1.447-.119,1.494-1.253.233-5.573-.917-10.584-5.318-14.46-1.185-1.044-1.955-1.274-3.056.188-3.806,5.054-7.738,10.013-12.017,15.516m-119.615-9.2c-.106-.927-5.281-4.741-5.831-4.376-1.794,1.19-3.844,2.276-5.074,3.936-.831,1.121,1.138,2.251,1.905,3.291,3.368,4.566,3.42,4.532,6.855.042.766-1,1.5-2.025,2.145-2.893M98,168.928c-1.385-1.068-2.736-1.986-3.936-3.07s-2.159-1.184-3.554-.136c-4.164,3.128-4.215,3.06-.935,7.261a6.439,6.439,0,0,1,.726.925c1.381,2.676,2.567,2.12,3.946-.075,1.032-1.643,2.357-3.1,3.753-4.905M77.368,97.073c1.13-.366,1.95-.652,2.782-.9.927-.272,2.339-.215,2.706-.813,1-1.636.553-3.648.31-5.433-.17-1.252-1.652-.45-2.53-.623-2.645-.518-3.7.534-3.3,3.245a33.982,33.982,0,0,1,.034,4.519m29.7-.13V93.294c0-4.142,0-4.16-4-3.98-.759.034-2.128-.458-1.87,1.03.31,1.784-1.294,4.086.977,5.294,1.4.746,3.139.864,4.892,1.3M38.119,152.715c-.107-.99-.429-1.659-1.308-1.461a20.029,20.029,0,0,1-7.941.058,1.217,1.217,0,0,0-1.133,2.1,15.933,15.933,0,0,0,4.6,3.193c1.318.619,2.247-.849,3.234-1.521s2.511-.932,2.548-2.372m50.6-1.367c-.717-.193-1.416-.252-1.708.626a1.675,1.675,0,0,0,.446,1.867c2.963,3.1,6.458,3.108,9.491.032a1.7,1.7,0,0,0,.5-1.855c-.268-.874-.949-.892-1.683-.7a15.306,15.306,0,0,1-7.051.033M146.458,169.7c1.554,2.033,2.91,3.8,4.253,5.571.564.745,1.084,1.113,1.808.136,1.373-1.852,2.8-3.666,4.361-5.707Zm-126.8-10.42c3.926,5.475,2.875,5.6,7.367,1.41-3.724-3.007-4.027-3.064-7.367-1.41m18.709,1.53c4.409,3.712,4.409,3.712,7.527-1.68-3.073-1.989-5.327-.354-7.527,1.68m40.767-1.563c4,5.719,3.047,5.185,7.387,1.5-2.192-1.911-4.385-3.581-7.387-1.5m26.185-.011c-3.009-2.084-5.2-.4-7.4,1.508,4.332,3.642,3.378,4.273,7.4-1.508M14.684,128.858c.311-1.8.559-3.252.815-4.7.356-2.015-1.32-2.477-2.515-2.548-1.41-.084-1.065,1.468-.933,2.311a6.684,6.684,0,0,0,2.633,4.939" transform="translate(0 0)" fill="#0a0a09"/>
      <path id="Trazado_609175" data-name="Trazado 609175" d="M156.924,140.652c-5.768,8.135-5.722,17.357-5.18,26.744.45,7.807,1.4,15.557,2.373,23.3.283,2.239-1.183,3.187-2.038,4.629-.52.877-.855.242-1.221-.28-3.795-5.419-9.155-8.163-15.544-9.38-3.141-.6-3.089-3.167-1.448-5.9,4.375-7.274,11.307-12.972,13.62-21.474,2.228-8.188,1.786-16.067-3.959-22.915a4.138,4.138,0,0,1-.875-2.986c.012-4.656-.049-9.313.036-13.967.028-1.538-.168-2.295-2.018-2.239-4.651.14-9.312.117-13.965.008-1.6-.037-2.016.481-1.951,2,.113,2.669-.108,5.357.068,8.02.2,2.989-1.938,1.739-3.2,1.865-1.359.136-3.207.579-2.75-1.98a3.74,3.74,0,0,0,0-.89c-.193-2.932,1.267-6.843-.569-8.516-1.588-1.447-5.445-.421-8.3-.458a59.989,59.989,0,0,1-6.235-.055c-2.492-.3-2.96.772-2.807,2.955.173,2.464.008,4.951.047,7.427.067,4.316-.284,8.139-3,12.158-5.519,8.161-3.613,21.494,3.3,29.245a22.7,22.7,0,0,1,4.739,7.013,11.951,11.951,0,0,0,3.732,4.914,2.836,2.836,0,0,1,1.252,3.279,3.189,3.189,0,0,1-2.793,2.552C101.5,186.854,96.034,190,92.115,196.08c-3.93-6.143-9.54-9.164-16.329-10.45-2.966-.562-3.585-3.541-1.4-5.651a1.306,1.306,0,0,0,.218-.2c4.076-6.561,9.613-12.205,12.745-19.325,2.888-6.561,2.3-13.277-.612-19.792.639-.905,1.621-.543,2.471-.671,5.895.13,5.895.13,5.895-5.657,0-14.26.021-28.521-.028-42.781-.006-1.7.191-2.441,2.266-2.741,16.4-2.37,32.776-4.916,49.14-7.527,2.275-.363,2.1.759,2.1,2.246q-.031,26.144-.013,52.288c0,4.225,0,4.227,4.113,4.212.594,0,1.187-.026,1.781-.04.846.13,1.825-.239,2.465.66M118.878,101.61c0-2.665-.092-4.843.03-7.01.09-1.589-.274-2.241-2.052-2.192-4.639.13-9.285.111-13.925.007-1.575-.036-1.991.45-1.959,1.984.1,4.542.162,9.092-.022,13.628-.086,2.109.737,2.442,2.523,2.327,2.066-.131,4.147-.012,6.221-.035,2.948-.032,6.9,1.044,8.583-.439,1.946-1.71.31-5.749.6-8.271m15.6-9.158c-2.941,0-5.414.073-7.879-.029-1.391-.058-1.874.329-1.847,1.791.089,4.74.109,9.484-.008,14.222-.041,1.648.563,1.941,2.027,1.916q6.961-.119,13.926,0c1.507.029,2.087-.337,2-1.944-.137-2.462-.014-4.937-.042-7.406-.032-2.748.95-6.451-.443-7.992-1.615-1.789-5.381-.322-7.731-.562" transform="translate(-29.611 -32.909)" fill="#f5f5f4"/>
      <path id="Trazado_609176" data-name="Trazado 609176" d="M30.3,82.668c-.618-2.541-.305-4.123,2.391-5.4C38.223,74.648,39.224,67.6,34.9,63c-1.187-1.263-1.321-2.151-.571-3.551a25.637,25.637,0,0,0,1.6-3.812c1.024-2.995,1.948-5.225,6.15-5.522,5.265-.371,8.317-6.445,6.441-11.48-.77-2.066-.351-3.271,1.167-4.519a24.228,24.228,0,0,0,2.328-2.289c2.184-2.353,3.949-4.282,8.067-2.891,4.989,1.684,10.239-3.113,10.316-8.613.026-1.833.641-2.615,2.235-3.109a27.578,27.578,0,0,0,3.54-1.488c2.928-1.381,5.291-2.2,8.552.434,4.321,3.494,10.761,1.089,12.972-4.209.643-1.541,1.347-1.907,2.788-1.821,1.48.088,2.971.062,4.454.011,3.02-.106,5.424-.2,7.241,3.479,2.437,4.935,9.374,5.386,13.554,1.458,1.328-1.248,2.278-1.495,3.8-.636a23.773,23.773,0,0,0,3.806,1.616c2.872,1.011,5.079,1.848,5.339,5.95.34,5.356,6.513,8.459,11.676,6.576,1.88-.685,3.1-.465,4.268,1.074a23.012,23.012,0,0,0,2.078,2.117c2.33,2.35,4.822,4.024,3.218,8.547-1.723,4.858,3.125,10.067,8.445,10.159,1.9.033,2.885.521,3.324,2.363a15.746,15.746,0,0,0,1.229,3c1.458,3.074,2.712,5.581-.308,9.088-3.314,3.848-1.321,10.2,3.4,12.27,2.848,1.251,2.96,2.9,2.5,5.514-3.731-1.614-7.385-3.252-11.092-4.764-1.232-.5-1.078-1.449-1.256-2.4-4.686-25.035-18.8-42.27-42.982-50.5C90.2,13.835,53.118,34.215,44.319,67.993a3.552,3.552,0,0,0-.255.844c.1,7.7-4.674,11.1-11.323,12.872a22.329,22.329,0,0,0-2.439.959" transform="translate(-12.169 -4.096)" fill="#ffca57"/>
      <path id="Trazado_609177" data-name="Trazado 609177" d="M260.078,223.912c-2.374-.715-4.558-1.315-6.7-2.032-3.825-1.278-4.44-3.721-1.77-6.544a17.22,17.22,0,0,0,5.067-12.285c-.015-2.376.054-4.754-.017-7.128a8.655,8.655,0,0,0-7.524-8.566c-2.041-.357-4.074-.764-6.124-1.063-4.527-.661-7.164-3.152-7.048-7.6.083-3.208-1.827-2.447-3.6-2.64-2.291-.248-2.7.912-2.48,2.793a13.683,13.683,0,0,0,.2,2.649c.437,1.32-.015,1.916-1.147,2.57-5.428,3.136-7.9,7.816-8.048,14.172-.168,7.135.779,13.614,6.592,18.516,1.307,1.1.424,2.216-.288,3.117-2.3,2.909-6.125,2.44-9.09,3.925-.736.368-.67-.743-.741-1.235-.547-3.806-1.4-7.611-1.495-11.432-.178-7.192-1.448-14.347-.3-21.6,1.9-11.992,14.523-20.885,26.618-19.039a24.1,24.1,0,0,1,20.391,24.872c-.325,9.548-.8,19.084-2.487,28.546" transform="translate(-87.15 -68.985)" fill="#515964"/>
      <path id="Trazado_609178" data-name="Trazado 609178" d="M142.3,46.734l-19.146,2.9Q108.075,51.927,93,54.216c-1.463.221-2.941.355-4.4.619-4.1.745-4.1.764-4.1,5.09,0,5.053-.01,10.106.008,15.159,0,1.005.042,1.806-1.189,2.329-7.059,3-14.071,6.107-21.663,9.425,3.555-17.261,12.478-30.224,27.211-38.81,17.368-10.122,35.3-10.306,53.422-1.293" transform="translate(-24.986 -16.286)" fill="#f5f5f4"/>
      <path id="Trazado_609179" data-name="Trazado 609179" d="M212.361,153.465c-.64-.9-1.619-.531-2.465-.661V112.837c3.942,1.719,7.582,3.308,11.223,4.893,9.3,4.051,18.568,8.165,27.914,12.1,2.053.864,2.744,1.937,2.6,4.142-.221,3.447-.058,6.919-.058,10.7-1.805-.737-3.469-1.278-5-2.076-1.893-.987-.956-2.884-.858-4.272.187-2.661-.588-3.519-3.346-3.414-2.2.083-3.006.557-2.733,2.8.123,1.011.586,2.717-.335,3.019a12.869,12.869,0,0,1-4.962.174c-.937-.081-.571-1.105-.579-1.723-.038-2.772-.131-5.55.015-8.314s-1.833-1.72-3.023-1.737c-1.207-.017-3.165-.961-2.989,1.772.158,2.465-.171,4.97.087,7.417.3,2.853-.386,4.737-3.441,5.326a13.272,13.272,0,0,0-2.554,1.2c0-6.451.029-12.52-.029-18.588-.01-1.018.642-2.639-.476-2.963a11.473,11.473,0,0,0-5-.026c-.832.145-.426,1.392-.43,2.137-.029,6.039-.236,12.089.062,18.113.2,3.976-.426,7.359-3.625,9.959" transform="translate(-85.049 -45.721)" fill="#bec5cf"/>
      <path id="Trazado_609180" data-name="Trazado 609180" d="M71.8,152.788c-.85.128-1.833-.234-2.471.67-3.089-3.292-3.874-7.178-3.617-11.627.319-5.523-.078-11.085.141-16.618.111-2.788-1.6-2.1-3.034-2.094s-3.139-.7-3.042,2.084c.207,6.009.064,12.03.064,18.335-1.807-.656-3.333-1.29-4.908-1.757-1.218-.36-1.032-1.243-1.033-2.109,0-2.771-.192-5.559.056-8.307.223-2.484-1.106-2.493-2.822-2.32-1.465.148-3.519-.83-3.235,2.2.248,2.649-.052,5.344.081,8.009.128,2.569-1.739,1.7-2.827,1.608-1.135-.094-3.3,1.281-3.145-1.568.016-.3,0-.594,0-.89-.026-3.125-2.237-4.584-5.219-3.365-1.387.567-.476,1.881-.723,2.828-.259.992.642,2.587-.557,2.921-1.56.435-3.329.138-5.006.1-.127,0-.345-.479-.347-.736q-.039-4.3-.014-8.609c0-.8.76-.826,1.252-1.042,13.316-5.846,26.641-11.674,40.407-17.7Z" transform="translate(-12.212 -45.705)" fill="#bec5cf"/>
      <path id="Trazado_609181" data-name="Trazado 609181" d="M158.968,196.487c-2-6.869-4.29-8.571-11.46-8.572-2.08,0-4.161.033-6.24-.017-1.95-.046-3.345-1.036-3.321-3.024a2.758,2.758,0,0,1,3.16-2.836c3.756.365,2.478-2.294,2.667-4.089.273-2.593-1.674-1.909-2.991-1.9a8.465,8.465,0,0,0-8.294,5.6,4.64,4.64,0,0,1-1.6,2.373c-5.561,3.81-6.918,5.939-8.239,12.971-2.987-6.343-3.831-12.292-1.058-18.354,2.669-5.835,7.594-8.352,13.817-8.535,3.266-.1,6.537-.023,9.805-.017,10.946.02,17.919,8.064,16.266,18.88-.4,2.6-.726,5.285-2.517,7.521" transform="translate(-48.586 -68.905)" fill="#515964"/>
      <path id="Trazado_609182" data-name="Trazado 609182" d="M59.011,196.335c-1.634-6.485-4.215-8.512-10.847-8.516-2.278,0-4.557.029-6.834-.019-1.824-.039-3.166-1-3.24-2.807a2.8,2.8,0,0,1,3.239-3.055c3.819.308,2.382-2.435,2.567-4.165.281-2.63-1.785-1.812-3.05-1.807a8.468,8.468,0,0,0-8.155,5.376c-1.315,2.886-4.686,5.253-6.659,4.578-3.723-1.273-6.443-5.554-5.749-9.051.745-3.749,3.443-6.677,7.269-6.746,7.008-.128,14.07-.832,21.032.465,11.132,2.073,16.947,16.558,10.429,25.747" transform="translate(-8.174 -68.809)" fill="#515964"/>
      <path id="Trazado_609183" data-name="Trazado 609183" d="M258.668,212.946q0,11.708-8.8,13.981a11.638,11.638,0,0,1-14.789-9.769,24.435,24.435,0,0,1,.283-9.724,8.382,8.382,0,0,1,3.352-4.728c1.579-1.152,3.072-1.721,4.926-.059,2.292,2.053,5.37,2.366,8.317,2.712,6.707.788,6.71.763,6.709,7.586" transform="translate(-95.112 -81.691)" fill="#edc3a3"/>
      <path id="Trazado_609184" data-name="Trazado 609184" d="M58.725,214.263c.329,5.712-1.555,10.513-7.3,13.076a11.491,11.491,0,0,1-15.943-8.046c-.953-4.437-1.433-9.041,1.022-13.261,1.085-1.865,2.282-3.484,4.482-.761,1.4,1.73,3.628,2.3,5.91,2.279s4.556-.007,6.834,0c4.266.009,4.982.727,4.994,4.989,0,.495,0,.99,0,1.728" transform="translate(-14.063 -82.588)" fill="#edc3a3"/>
      <path id="Trazado_609185" data-name="Trazado 609185" d="M158.669,214.336c0,7.176-2.926,11.982-8.254,13.569-7,2.085-13.906-1.9-15.182-9.174-.708-4.039-1.138-8.3.966-12.184,1.556-2.871,2.392-2.973,4.794-.97A8.646,8.646,0,0,0,146.7,207.7q3.565-.01,7.131,0c4.026.012,4.821.812,4.836,4.848,0,.594,0,1.188,0,1.783" transform="translate(-54.56 -82.746)" fill="#edc3a3"/>
      <path id="Trazado_609186" data-name="Trazado 609186" d="M210.006,58.089c12.285,9.276,19.817,20.85,22.807,35.983-7.587-3.324-14.663-6.437-21.754-9.514a1.421,1.421,0,0,1-1.07-1.486c.029-8.155.018-16.31.018-24.983" transform="translate(-85.086 -23.537)" fill="#f5f5f4"/>
      <path id="Trazado_609187" data-name="Trazado 609187" d="M110.068,71.989c-.508-2.172.2-2.934,2.6-3.261,12.981-1.772,25.926-3.81,38.879-5.781q4.964-.756,9.9-1.664c1.454-.266,2.032-.031,2.121,1.695.138,2.665-.127,4.12-3.443,4.546-12.505,1.61-24.958,3.629-37.43,5.494-3.216.481-6.484.745-9.633,1.5-2.511.606-3.6.228-3-2.533" transform="translate(-44.533 -24.794)" fill="#bec5cf"/>
      <path id="Trazado_609188" data-name="Trazado 609188" d="M232.6,261.983c3.607-1.229,6.4-3.317,7.865-6.8.429-1.024.987-1.049,1.813-.877.193.04.379.108.572.151,2.559.567,5.356-.645,7.543.028,1.933.595,2.487,3.954,4.587,5.337a7,7,0,0,1,1.222.82c.826.849,2.765.374,2.8,1.911s-3.4,4.05-5.108,4.054c-4.442.01-8.906-.272-13.319.086-3.868.315-6.417-.951-7.977-4.71" transform="translate(-94.25 -103.011)" fill="#edc3a3"/>
      <path id="Trazado_609189" data-name="Trazado 609189" d="M30.7,288.494c-6.853,0-13.129-.008-19.4.009-.871,0-1.178-.333-1.225-1.209-.312-5.792.917-10.991,5.628-14.861.686-.564,1.358-1.541,2.383-.2,4.047,5.3,8.167,10.536,12.618,16.259" transform="translate(-4.062 -110.035)" fill="#ffca57"/>
      <path id="Trazado_609190" data-name="Trazado 609190" d="M130.6,288.567c-6.662,0-12.675.005-18.689-.006-.836,0-1.768.264-1.842-1.184-.3-5.8.955-10.956,5.639-14.861,1-.829,1.646-1.068,2.583.167,3.921,5.171,7.941,10.266,12.309,15.884" transform="translate(-44.584 -110.142)" fill="#ffca57"/>
      <path id="Trazado_609191" data-name="Trazado 609191" d="M165.485,288.551c4.4-5.666,8.455-10.85,12.467-16.064.707-.92,1.226-.875,2.147-.211,4.132,2.981,7.085,10.668,5.909,15.333-.357,1.419-1.339.911-2.085.917-5.924.044-11.848.024-18.437.024" transform="translate(-67.054 -110.127)" fill="#ffca57"/>
      <path id="Trazado_609192" data-name="Trazado 609192" d="M65.425,288.5c4.442-5.711,8.56-10.949,12.6-16.243,1.012-1.325,1.675-.409,2.382.172,4.711,3.87,5.941,9.067,5.636,14.856-.045.862-.325,1.226-1.209,1.224-6.278-.018-12.555-.01-19.413-.01" transform="translate(-26.51 -110.041)" fill="#ffca57"/>
      <path id="Trazado_609193" data-name="Trazado 609193" d="M230.474,288.552c-6.65,0-12.752-.005-18.854.006-.858,0-1.483-.039-1.537-1.206-.259-5.692.932-10.808,5.531-14.648.754-.629,1.463-1.4,2.426-.15,4.013,5.215,8.071,10.394,12.434,16" transform="translate(-85.111 -110.166)" fill="#edc3a3"/>
      <path id="Trazado_609194" data-name="Trazado 609194" d="M265.59,288.633c4.279-5.5,8.212-10.462,12.017-15.516,1.1-1.462,1.87-1.232,3.056-.188,4.4,3.877,5.551,8.888,5.318,14.46-.048,1.134-.6,1.255-1.494,1.253-6.108-.017-12.216-.009-18.9-.009" transform="translate(-107.616 -110.247)" fill="#edc3a3"/>
      <path id="Trazado_609195" data-name="Trazado 609195" d="M56.925,281.446c-.642.868-1.379,1.892-2.145,2.893-3.434,4.49-3.486,4.524-6.855-.042-.767-1.039-2.736-2.169-1.905-3.29,1.229-1.661,3.28-2.747,5.074-3.936.551-.365,5.726,3.449,5.831,4.376" transform="translate(-18.566 -112.258)" fill="#ffca57"/>
      <path id="Trazado_609196" data-name="Trazado 609196" d="M157.431,281.318c-1.4,1.8-2.722,3.262-3.754,4.905-1.379,2.195-2.565,2.751-3.947.075a6.47,6.47,0,0,0-.724-.925c-3.28-4.2-3.229-4.133.934-7.261,1.4-1.048,2.339-.961,3.553.136s2.552,2,3.937,3.07" transform="translate(-59.43 -112.39)" fill="#edc3a3"/>
      <path id="Trazado_609197" data-name="Trazado 609197" d="M129.995,157.824a33.98,33.98,0,0,0-.034-4.519c-.4-2.711.657-3.763,3.3-3.245.879.172,2.36-.629,2.53.623.242,1.784.692,3.8-.311,5.432-.366.6-1.779.541-2.706.813-.832.244-1.652.53-2.782.9" transform="translate(-52.627 -60.752)" fill="#bec5cf"/>
      <path id="Trazado_609198" data-name="Trazado 609198" d="M175.835,157.747c-1.752-.441-3.489-.559-4.892-1.305-2.271-1.208-.667-3.51-.977-5.294-.259-1.488,1.111-1,1.87-1.03,4-.18,4-.162,4,3.98v3.649" transform="translate(-68.763 -60.805)" fill="#bec5cf"/>
      <path id="Trazado_609199" data-name="Trazado 609199" d="M56.734,255.729c-.037,1.439-1.564,1.7-2.547,2.371s-1.916,2.14-3.235,1.521a15.922,15.922,0,0,1-4.6-3.193c-.786-.808-.469-2.38,1.131-2.1a20.02,20.02,0,0,0,7.942-.058c.879-.2,1.2.471,1.308,1.461" transform="translate(-18.615 -103.014)" fill="#edc3a3"/>
      <path id="Trazado_609200" data-name="Trazado 609200" d="M147.914,254.359a15.306,15.306,0,0,0,7.051-.032c.734-.19,1.415-.173,1.683.7a1.7,1.7,0,0,1-.5,1.855c-3.034,3.077-6.527,3.064-9.491-.031a1.674,1.674,0,0,1-.446-1.866c.291-.878.991-.82,1.708-.627" transform="translate(-59.196 -103.013)" fill="#edc3a3"/>
      <path id="Trazado_609201" data-name="Trazado 609201" d="M246.229,285.311H256.65c-1.563,2.04-2.987,3.854-4.36,5.707-.724.977-1.245.61-1.809-.136-1.342-1.775-2.7-3.538-4.252-5.571" transform="translate(-99.771 -115.607)" fill="#ffca57"/>
      <path id="Trazado_609202" data-name="Trazado 609202" d="M33.046,267.052c3.34-1.654,3.643-1.6,7.368,1.41-4.492,4.193-3.442,4.065-7.368-1.41" transform="translate(-13.39 -107.768)" fill="#ffca57"/>
      <path id="Trazado_609203" data-name="Trazado 609203" d="M64.5,268.606c2.2-2.034,4.454-3.67,7.527-1.681-3.119,5.392-3.119,5.392-7.527,1.681" transform="translate(-26.135 -107.791)" fill="#ffca57"/>
      <path id="Trazado_609204" data-name="Trazado 609204" d="M133.038,267.081c3-2.084,5.2-.414,7.387,1.5-4.34,3.688-3.392,4.222-7.387-1.5" transform="translate(-53.906 -107.83)" fill="#ffca57"/>
      <path id="Trazado_609205" data-name="Trazado 609205" d="M172.021,267.066c-4.02,5.781-3.066,5.15-7.4,1.508,2.2-1.905,4.388-3.592,7.4-1.508" transform="translate(-66.704 -107.825)" fill="#ffca57"/>
      <path id="Trazado_609206" data-name="Trazado 609206" d="M22.8,211.7a6.684,6.684,0,0,1-2.633-4.939c-.131-.843-.476-2.4.933-2.311,1.195.071,2.871.533,2.515,2.548-.256,1.451-.5,2.9-.815,4.7" transform="translate(-8.118 -82.839)" fill="#515964"/>
      <path id="Trazado_609207" data-name="Trazado 609207" d="M137.86,109.232c-.29,2.523,1.345,6.562-.6,8.272-1.687,1.483-5.635.407-8.583.439-2.074.022-4.155-.1-6.221.034-1.786.114-2.609-.219-2.523-2.327.184-4.536.118-9.086.022-13.628-.032-1.533.384-2.019,1.959-1.984,4.64.1,9.286.123,13.925-.007,1.778-.049,2.142.6,2.052,2.192-.123,2.166-.03,4.344-.03,7.009m-9.121,2.671c2.3.512,3.364-.074,3.234-2.734-.1-2.148-.125-3.409-2.894-3.214-2.136.149-3.461.132-3.2,2.9.194,2.027-.109,3.919,2.856,3.045" transform="translate(-48.593 -40.531)" fill="#0a0a09"/>
      <path id="Trazado_609208" data-name="Trazado 609208" d="M169.672,99.876c2.349.24,6.115-1.226,7.731.561,1.392,1.542.411,5.244.443,7.992.028,2.47-.1,4.945.042,7.407.09,1.607-.49,1.974-2,1.944q-6.961-.133-13.926,0c-1.463.024-2.067-.269-2.027-1.917.118-4.738.1-9.482.008-14.222-.027-1.462.456-1.849,1.847-1.791,2.465.1,4.937.029,7.879.029M168.73,111.7c2.3.512,3.364-.074,3.234-2.734-.1-2.148-.125-3.409-2.894-3.214-2.136.149-3.461.132-3.2,2.9.194,2.027-.109,3.919,2.856,3.045" transform="translate(-64.805 -40.331)" fill="#0a0a09"/>
      <path id="Trazado_609209" data-name="Trazado 609209" d="M132.774,115.926c-2.965.874-2.662-1.018-2.856-3.045-.265-2.772,1.06-2.755,3.2-2.9,2.769-.195,2.79,1.066,2.894,3.214.13,2.66-.935,3.246-3.234,2.734" transform="translate(-52.629 -44.554)" fill="#bec5cf"/>
      <path id="Trazado_609210" data-name="Trazado 609210" d="M172.752,115.926c-2.965.874-2.662-1.018-2.856-3.045-.265-2.772,1.06-2.755,3.2-2.9,2.769-.195,2.79,1.066,2.894,3.214.13,2.66-.935,3.246-3.234,2.734" transform="translate(-68.827 -44.554)" fill="#bec5cf"/>
    </g>
  </g>
</svg>
