<svg xmlns="http://www.w3.org/2000/svg" xmlns:xlink="http://www.w3.org/1999/xlink" width="190" height="171.74" viewBox="0 0 190 171.74">
  <defs>
    <clipPath id="clip-path">
      <rect id="Rectángulo_296542" data-name="Rectángulo 296542" width="190" height="171.74" fill="none"/>
    </clipPath>
  </defs>
  <g id="Grupo_878991" data-name="Grupo 878991" clip-path="url(#clip-path)">
    <path id="Trazado_591695" data-name="Trazado 591695" d="M189.963,143.661a5.9,5.9,0,0,1-1.882,4.6q-10.9,10.725-21.649,21.605a5.928,5.928,0,0,1-4.614,1.872q-73.246-.063-146.491-.033c-3.2,0-3.28-.085-3.283-3.242,0-.967,0-1.934-.007-2.9-1.354-.025-2.708-.088-4.062-.066-1.559.026-2.266-.686-2.167-2.236.033-.513,0-1.031,0-1.546q0-43.493.025-86.986c0-1.292-.207-1.982-1.623-2.451A6.267,6.267,0,0,1,.1,65.225a6.462,6.462,0,0,1,6.6-5.374q22.757-.05,45.514-.022c1.743,0,3.487-.033,5.229.013.832.022,1.2-.257,1.119-1.1-.041-.447-.007-.9-.007-1.352q0-25.709,0-51.418C58.551,1.662,60.194,0,64.487,0q56.36,0,112.721,0c4.964,0,6.329,1.275,6.586,6.149,3.549-.413,6.218,1.91,6.207,6.2q-.174,65.657-.038,131.314" transform="translate(0 0)" fill="#fefefe"/>
    <path id="Trazado_591696" data-name="Trazado 591696" d="M155.76,165.523A5.433,5.433,0,0,0,160,163.784q11.088-11.216,22.321-22.287a4.352,4.352,0,0,0,1.435-3.38q-.062-34.219-.022-68.438c0-1.262.1-2.522-1.562-2.856-1.625.364-1.554,1.607-1.553,2.875.011,21.962-.019,43.924.056,65.885.007,1.892-.485,2.334-2.327,2.288-5.352-.132-10.71-.051-16.066-.045-4.675,0-6.18,1.483-6.181,6.079,0,5.6-.029,11.207.049,16.809.019,1.346-.355,1.729-1.719,1.727q-34.846-.061-69.692-.044c-.456,0-1.048.3-1.369-.339h0l-.011-2.728c-.029-8.7-.034-17.4-.111-26.1-.013-1.508.927-1.238,1.8-1.239q12.886-.006,25.771,0,28.484,0,56.967-.009c1.233,0,2.973.382,2.987-1.5.014-1.832-1.676-1.585-2.95-1.586q-41.175-.006-82.35.034c-1.719,0-2.346-.359-2.243-2.188.167-2.956.075-5.929.028-8.893-.016-.983.273-1.455,1.311-1.341a12.481,12.481,0,0,0,1.356.008q40.884,0,81.769-.013c1.272,0,3.128.453,3.069-1.591-.053-1.806-1.784-1.485-3.04-1.485q-41.176-.012-82.351.033c-1.668,0-2.244-.342-2.141-2.1.165-2.827.122-5.673.012-8.505-.056-1.43.332-1.86,1.815-1.849,9.752.069,19.505.035,29.258.035q26.74,0,53.479-.009c1.233,0,2.973.377,2.979-1.505.005-1.83-1.686-1.577-2.958-1.577q-41.176-.007-82.351.035c-1.737,0-2.33-.388-2.233-2.2.161-3.021.131-6.061.007-9.085-.061-1.494.436-1.8,1.848-1.794,16.082.049,32.165.031,48.248.031q16.567,0,33.134,0a9.146,9.146,0,0,0,1.735-.083,1.431,1.431,0,0,0,1.282-1.649,1.333,1.333,0,0,0-1.394-1.322,14.448,14.448,0,0,0-2.515-.017c-1.557.2-1.942-.418-1.935-1.932.057-13.214.034-26.429.033-39.644,0-4.2,0-4.2-4.253-4.2-3.617,0-7.234-.011-10.851,0-2.309.01-2.672.375-2.673,2.725q-.012,20.306-.024,40.612c0,.778.488,2.011-.437,2.26a8.711,8.711,0,0,1-3.82-.02c-.695-.136-.37-1.131-.371-1.738q-.026-15.955-.013-31.909c0-3.164-.041-3.2-3.288-3.2q-5.716,0-11.433,0c-2.878,0-3.015.141-3.015,3.1q0,15.858-.021,31.716c0,.71.455,1.809-.453,2.067a6.589,6.589,0,0,1-3.809-.038c-.713-.238-.364-1.15-.365-1.754q-.027-17.5-.007-35c.009-5.169-.2-4.368-4.442-4.4-3.487-.023-6.976-.007-10.463,0-2.722,0-2.874.144-2.875,2.818q-.006,18.179-.022,36.357c0,.7.455,1.794-.5,2.034a6.572,6.572,0,0,1-3.805-.068c-.67-.245-.323-1.164-.324-1.773q-.029-13.731-.014-27.461c0-3.071-.215-3.282-3.3-3.283-4,0-8.01.052-12.013-.022-1.848-.034-2.564.7-2.49,2.529.092,2.252-.025,4.513.041,6.767.032,1.1-.343,1.448-1.441,1.437q-7.072-.073-14.144,0c-1.1.012-1.423-.311-1.421-1.414q.047-26.591.009-53.182c0-1.751.925-2.185,2.456-2.175,4.973.032,9.947.011,14.92.011h98.433c3.028,0,3.183.155,3.183,3.155q0,16.825-.012,33.649c0,1.244.064,2.35,1.558,2.682,1.5-.314,1.569-1.418,1.567-2.661q-.032-15.826-.009-31.652c0-.706.04-1.412.061-2.119C183.536,1.276,182.172,0,177.208,0Q120.848,0,64.487,0c-4.293,0-5.937,1.66-5.937,5.968q0,25.709,0,51.418c0,.451-.034.905.007,1.352.078.846-.286,1.125-1.119,1.1-1.742-.047-3.486-.013-5.229-.013q-22.757,0-45.514.022A6.463,6.463,0,0,0,.1,65.225,6.267,6.267,0,0,0,4.214,72.28c1.415.469,1.625,1.159,1.623,2.451q-.049,43.493-.025,86.985c0,.516.028,1.033,0,1.546-.1,1.55.608,2.262,2.167,2.236,1.353-.022,2.708.041,4.062.066.773-.025,1.546-.071,2.318-.071q70.7,0,141.4.03m5.4-24.617c5.585-.017,11.172-.007,16.944-.007L159.412,159.54c-.276-.081-.185-.446-.186-.739-.007-5.209.018-10.419-.023-15.629-.011-1.4.472-2.262,1.952-2.266m-9.93-101.777c2.576.134,5.166.074,7.748.017,1.109-.025,1.611.225,1.607,1.483q-.058,19.917,0,39.835c0,1.119-.391,1.446-1.466,1.425-2.776-.056-5.557-.094-8.33.012-1.475.056-1.862-.455-1.847-1.88.069-6.445.03-12.892.03-19.338s.072-12.893-.045-19.337c-.034-1.849.574-2.307,2.306-2.217M126.654,64.747c0-4.953.045-9.908-.028-14.86-.022-1.432.264-2.077,1.884-1.993,2.636.138,5.285.087,7.926.015,1.212-.033,1.686.279,1.68,1.6q-.075,15.343,0,30.686c.007,1.381-.462,1.766-1.78,1.723-2.576-.084-5.159-.1-7.733,0-1.49.061-2.016-.353-1.985-1.926.1-5.08.037-10.164.037-15.246M105.757,43.6c2.771.057,5.546.079,8.316-.008,1.307-.041,1.621.445,1.61,1.671-.054,5.855-.024,11.711-.024,17.567,0,5.728-.04,11.455.029,17.181.017,1.394-.31,1.954-1.814,1.889-2.7-.115-5.415-.072-8.122-.013-1.122.025-1.6-.257-1.6-1.494q.058-17.664,0-35.328c0-1.263.506-1.488,1.6-1.466M41.441,162.426c-2.445-.106-4.9-.069-7.346-.012-1.023.024-1.5-.177-1.484-1.355.062-5.4-.061-10.809.067-16.21A11.724,11.724,0,0,1,40.848,134c2.116-.689,2.146-.671,2.147,1.486q0,6.272,0,12.545c0,4.246-.039,8.492.025,12.737.018,1.21-.247,1.715-1.58,1.657m13.621-.017c-2.513-.04-5.03-.088-7.539.017-1.3.054-1.459-.493-1.447-1.58.049-4.309.02-8.619.02-12.93s.054-8.621-.032-12.929c-.027-1.352.419-1.462,1.554-1.178,4.484,1.123,8.409,5.442,8.582,10.073.217,5.781.076,11.576.132,17.364.009.973-.4,1.177-1.27,1.163M81.718,56.656c.067-4.431.021-4.432,4.434-4.432,1.742,0,3.49.087,5.224-.026,1.5-.1,2.037.372,2,1.937-.1,4.248-.034,8.5-.034,12.749,0,4.443-.033,8.887.021,13.329.015,1.236-.363,1.74-1.653,1.7-2.321-.076-4.646-.061-6.967,0-1.073.026-1.508-.314-1.467-1.431a53.382,53.382,0,0,0-.012-5.6,2.21,2.21,0,0,1,1.7-2.647A6.12,6.12,0,0,0,89.026,66.4,6.564,6.564,0,0,0,84.8,60.256c-.179-.071-.368-.22-.538-.2-2.8.306-2.577-1.525-2.549-3.4M6.445,69.684a3.345,3.345,0,0,1-3.31-3.341A3.38,3.38,0,0,1,6.6,62.954c.515-.026,1.032-.012,1.548-.012q36.4,0,72.79,0c3.359,0,5.05,1.183,4.977,3.464-.071,2.217-1.689,3.308-4.941,3.309q-18.294,0-36.588,0-17.907,0-35.814,0c-.71,0-1.422.023-2.128-.032m4.367,92.754c-1.535.025-1.934-.409-1.928-1.927.057-14.306.034-28.611.034-42.917,0-14.242.033-28.483-.042-42.724-.009-1.727.463-2.126,2.153-2.121q33.51.088,67.019,0c1.689,0,2.178.416,2.175,2.144q-.082,42.724,0,85.448c0,1.76-.509,2.127-2.168,2.1-5.68-.1-11.363-.077-17.044-.011-1.284.015-1.652-.373-1.637-1.633q.09-7.635.013-15.272c-.076-8.672-6.524-15.216-14.921-15.2-8.363.013-14.862,6.639-14.931,15.271-.039,4.962-.06,9.925.022,14.885.024,1.467-.312,1.991-1.9,1.962q-8.423-.152-16.851,0" transform="translate(0 0)" fill="#3a2c60"/>
    <path id="Trazado_591697" data-name="Trazado 591697" d="M195.04,11.852a3.819,3.819,0,0,1,.555,2.582q.016,15.223-.006,30.445c0,1.614.053,3.329-2.135,3.729l-.032-.006v3.038c1.225.262,1.58,1.067,1.569,2.248q-.057,6.322,0,12.645c.011,1.185-.356,1.979-1.57,2.252v3.438c1.334.105,1.886.991,2.071,2.219a16.8,16.8,0,0,1,.084,2.509c0,21.774-.033,43.548.044,65.322a8.576,8.576,0,0,1-2.78,6.658q-10.379,10.138-20.548,20.489a7.646,7.646,0,0,1-5.835,2.434q-70.1-.057-140.2-.036c-1.018,0-2.085.156-2.981-.551q0,1.451.007,2.9c0,3.157.086,3.242,3.283,3.242q73.246,0,146.491.033a5.927,5.927,0,0,0,4.614-1.872q10.747-10.879,21.649-21.6a5.9,5.9,0,0,0,1.882-4.6q-.065-65.657.038-131.314c.011-4.288-2.658-6.61-6.207-6.2" transform="translate(-11.247 -5.703)" fill="#e5e6e7"/>
    <path id="Trazado_591698" data-name="Trazado 591698" d="M353.979,45.667c0,1.243-.064,2.347-1.567,2.66v.318c.011,0,.02,0,.032.005,2.188-.4,2.131-2.114,2.135-3.728q.039-15.223.006-30.445a3.822,3.822,0,0,0-.555-2.582c-.021.706-.061,1.412-.061,2.119q-.006,15.826.009,31.652" transform="translate(-170.237 -5.747)" fill="#e5e6e7"/>
    <path id="Trazado_591699" data-name="Trazado 591699" d="M26.265,228.274q70.1.012,140.2.036a7.646,7.646,0,0,0,5.835-2.434q10.2-10.318,20.547-20.489a8.573,8.573,0,0,0,2.78-6.658c-.076-21.774-.042-43.548-.044-65.323a16.728,16.728,0,0,0-.085-2.509c-.185-1.227-.737-2.113-2.071-2.219v.3c1.657.334,1.562,1.594,1.562,2.856q-.015,34.219.022,68.438a4.352,4.352,0,0,1-1.434,3.38q-11.212,11.091-22.321,22.287a5.433,5.433,0,0,1-4.244,1.739q-70.7-.062-141.4-.03c-.773,0-1.546.047-2.318.071.9.706,1.962.551,2.981.551" transform="translate(-11.248 -62.16)" fill="#e5e6e7"/>
    <path id="Trazado_591700" data-name="Trazado 591700" d="M238.277,44.013A18.76,18.76,0,0,1,238.2,41.5q0-15.471-.006-30.942c0-3.222-.2-3.419-3.379-3.419q-55.418-.006-110.834,0a16.911,16.911,0,0,0-1.933.089,1.532,1.532,0,0,0-1.488,1.492,16.949,16.949,0,0,0-.086,2.124q0,24.367,0,48.734c0,.515.023,1.031.025,1.546,0,1.142.6,1.6,1.7,1.608q6.1.028,12.206,0c1.314-.008,1.834-.667,1.855-1.919.03-1.8-.032-3.61.04-5.414.1-2.542.893-3.394,3.4-3.447q5.908-.125,11.819,0c2.629.052,3.731,1.147,3.8,3.838.112,4.51.029,9.024.038,13.536.009,4.448,0,8.9,0,13.344,0,1.242.246,2.189,1.815,2.061.9-.074,1.44-.444,1.521-1.394.06-.709.061-1.416.061-2.125q0-16.438,0-32.876c0-.773-.029-1.549.043-2.319.169-1.791.743-2.478,2.532-2.534,4.518-.142,9.04-.109,13.56-.016a2.557,2.557,0,0,1,2.637,2.336,18.625,18.625,0,0,1,.3,3.847q0,15.858,0,31.716a21.135,21.135,0,0,0,.063,2.125c.1,1,.75,1.253,1.623,1.242s1.513-.263,1.628-1.257a20.293,20.293,0,0,0,.082-2.317q0-14.311,0-28.621c0-.773,0-1.547.042-2.32a2.25,2.25,0,0,1,2.245-2.431c4.71-.207,9.424-.226,14.134.012a2.214,2.214,0,0,1,2.2,2.268c.073.837.065,1.674.066,2.512q0,14.311,0,28.621a17.092,17.092,0,0,0,.1,2.316c.136,1,.831,1.205,1.669,1.226.88.021,1.507-.258,1.578-1.27.05-.709.051-1.417.051-2.126q0-18.275,0-36.55c0-.838-.029-1.678.051-2.513.212-2.213,1.226-3.344,3.429-3.436,4.129-.173,8.266-.153,12.4-.011,2.279.078,3.128,1,3.169,3.283.085,4.7.026,9.411.029,14.117.006,8.509-.007,17.018.007,25.527,0,2.851.027,2.855,2.882,3.057,1.268.09,2.541.207,2.7,1.856.12,1.231-.865,2.132-2.542,2.374a21.565,21.565,0,0,1-3.1.093q-38.269,0-76.537,0c-3.632,0-3.633,0-3.636,3.607,0,1.805-.016,3.61,0,5.415.026,2.331.165,2.456,2.575,2.49.582.008,1.163,0,1.744,0q38.849,0,77.7,0a11.259,11.259,0,0,1,3.275.211c1.062.318,1.92.959,1.892,2.154-.029,1.258-1,1.7-2.1,1.876a18.759,18.759,0,0,1-2.9.1q-38.946,0-77.893,0c-.646,0-1.292-.012-1.937.006-2.1.058-2.311.24-2.345,2.357-.036,2.256.007,4.513-.011,6.768-.01,1.362.535,2.046,1.946,1.992.709-.027,1.421,0,2.131,0q38.85,0,77.7,0a16.355,16.355,0,0,1,3.093.124c1.235.237,2.3.839,2.307,2.205,0,1.473-1.2,1.831-2.429,1.958a26.475,26.475,0,0,1-2.71.053H146.9c-.517,0-1.033,0-1.55,0-3.167.01-3.172.01-3.173,3.262q0,3,.008,5.995c0,1.3.608,1.879,1.89,1.859.71-.011,1.421.011,2.131.011q38.947,0,77.893,0a13.755,13.755,0,0,1,3.09.149c1.222.28,2.255.912,2.181,2.3-.071,1.354-1.189,1.713-2.351,1.833a26.21,26.21,0,0,1-2.712.055l-78.474,0c-3.656,0-3.65,0-3.661,3.576-.024,7.618.058,15.237-.038,22.852.005.135,0,.271,0,.408q34.836,0,69.671.018c.682,0,1.537-.372,2.045.39,0-.18,0-.37-.007-.582-.134-5.412-.078-10.826-.034-16.238.026-3.194,1.6-4.973,4.757-5.636a14.938,14.938,0,0,1,3.084-.233c4.521,0,9.04.006,13.56,0,2.871-.006,2.97-.1,2.984-2.894.016-2.771,0-5.543,0-8.313q0-27.164,0-54.328a21.061,21.061,0,0,1,.078-2.7,2.3,2.3,0,0,1,1.905-2.292,4.27,4.27,0,0,1-.058-3.478c.008-.009.014-.018.022-.026-1.035-.335-1.35-1.113-1.339-2.222q.06-6.278,0-12.558c-.01-1.1.3-1.882,1.329-2.22a3.6,3.6,0,0,1,.049-3.143c-1.262-.2-1.75-1.112-1.91-2.3M217.2,29.681a5.991,5.991,0,0,1-7.643.52,1.934,1.934,0,0,0-2.382-.14c-3,1.614-6.043,3.166-9.1,4.686-1,.5-1.858.966-1.362,2.145a6.193,6.193,0,0,1-5.453,6.364,6.018,6.018,0,0,1-6.739-5.212,2.113,2.113,0,0,0-1.752-2.091c-2.654-.781-5.3-1.61-7.911-2.513a2.093,2.093,0,0,0-2.542.52,5.832,5.832,0,0,1-7.617.624,1.619,1.619,0,0,0-2.035-.028q-4.833,2.833-9.714,5.583a1.764,1.764,0,0,0-1.144,2.06,6.017,6.017,0,0,1-4.393,6.283,6.173,6.173,0,0,1-6.177-10.221,5.805,5.805,0,0,1,7.419-1.033c1.352.923,2.2.629,3.375-.088,2.86-1.74,5.779-3.386,8.7-5.014a1.99,1.99,0,0,0,1.306-2.207,5.935,5.935,0,0,1,5.419-6.547,6.029,6.029,0,0,1,6.713,5.25,2,2,0,0,0,1.688,1.916c2.841.831,5.653,1.762,8.453,2.719a1.535,1.535,0,0,0,1.837-.4c2.522-2.37,5.276-2.608,8.06-.675a1.519,1.519,0,0,0,1.871.154q4.869-2.567,9.784-5.043a1.5,1.5,0,0,0,1.009-1.745,5.954,5.954,0,0,1,4.541-6.342,6.159,6.159,0,0,1,5.78,10.476" transform="translate(-58.195 -3.448)" fill="#d3fafe"/>
    <path id="Trazado_591701" data-name="Trazado 591701" d="M257.993,130.963a21.069,21.069,0,0,0-.078,2.7q0,27.164,0,54.328c0,2.771.011,5.543,0,8.313-.015,2.793-.114,2.888-2.985,2.894-4.52.01-9.04,0-13.56,0a14.944,14.944,0,0,0-3.085.233c-3.153.662-4.73,2.442-4.756,5.636-.044,5.412-.1,10.826.034,16.238.005.212.007.4.006.582.019.028.039.055.057.087a1.445,1.445,0,0,1-1.317,2.209c-2.128.033-4.257.01-6.386.01l-64.638.013h0c.321.639.912.339,1.368.339q34.846.026,69.692.044c1.364,0,1.738-.381,1.719-1.727-.078-5.6-.049-11.206-.049-16.809,0-4.6,1.505-6.074,6.18-6.079,5.356-.005,10.714-.087,16.067.046,1.842.046,2.333-.4,2.327-2.289-.076-21.962-.046-43.923-.056-65.885,0-1.268-.071-2.511,1.553-2.875a3.268,3.268,0,0,1-.185-.309,2.3,2.3,0,0,0-1.905,2.292" transform="translate(-77.909 -62.156)" fill="#d3fafe"/>
    <path id="Trazado_591702" data-name="Trazado 591702" d="M141.529,161.8c.1-7.616.013-15.234.038-22.852.011-3.573.005-3.576,3.661-3.576q39.238,0,78.475,0a26.348,26.348,0,0,0,2.711-.054c1.162-.12,2.28-.479,2.352-1.833.074-1.391-.96-2.023-2.182-2.3a13.725,13.725,0,0,0-3.09-.15q-38.946,0-77.893,0c-.71,0-1.422-.022-2.131-.011-1.283.02-1.887-.559-1.89-1.859q-.009-3-.009-5.995c0-3.252.006-3.252,3.173-3.262.517,0,1.033,0,1.55,0h77.312a26.483,26.483,0,0,0,2.711-.053c1.23-.127,2.433-.485,2.429-1.958,0-1.366-1.072-1.969-2.307-2.2a16.311,16.311,0,0,0-3.093-.125q-38.85,0-77.7,0c-.71,0-1.423-.032-2.131,0-1.412.054-1.957-.63-1.946-1.992.018-2.256-.025-4.513.011-6.768.034-2.117.239-2.3,2.345-2.357.646-.018,1.292-.006,1.937-.006q38.946,0,77.893,0a18.689,18.689,0,0,0,2.9-.1c1.1-.171,2.071-.618,2.1-1.876.027-1.194-.83-1.836-1.893-2.154a11.238,11.238,0,0,0-3.275-.212q-38.849-.006-77.7,0c-.582,0-1.163.006-1.744,0-2.409-.034-2.549-.159-2.575-2.49-.021-1.8-.006-3.61,0-5.415,0-3.6,0-3.607,3.636-3.607q38.269,0,76.537,0a21.712,21.712,0,0,0,3.1-.093c1.676-.242,2.662-1.143,2.542-2.375-.16-1.649-1.433-1.766-2.7-1.855-2.855-.2-2.878-.206-2.882-3.057-.013-8.509,0-17.018-.006-25.527,0-4.706.056-9.412-.029-14.117-.042-2.287-.89-3.205-3.169-3.283-4.13-.142-8.268-.161-12.4.011-2.2.092-3.216,1.223-3.429,3.437-.081.835-.051,1.674-.051,2.512q0,18.276,0,36.55c0,.709,0,1.416-.051,2.126-.071,1.012-.7,1.292-1.578,1.27-.837-.021-1.532-.222-1.669-1.226a17.174,17.174,0,0,1-.1-2.316q0-14.31,0-28.621c0-.838.007-1.675-.066-2.512a2.214,2.214,0,0,0-2.2-2.268c-4.709-.238-9.424-.22-14.134-.013a2.251,2.251,0,0,0-2.246,2.431c-.04.773-.042,1.546-.042,2.319q0,14.311,0,28.621a20.175,20.175,0,0,1-.083,2.317c-.115.995-.762,1.247-1.628,1.258s-1.521-.242-1.623-1.243a21.131,21.131,0,0,1-.063-2.125q0-15.858,0-31.715a18.627,18.627,0,0,0-.305-3.847,2.558,2.558,0,0,0-2.637-2.336c-4.52-.092-9.042-.126-13.56.016-1.789.056-2.363.743-2.532,2.535-.073.77-.043,1.546-.043,2.319q0,16.438,0,32.876c0,.708,0,1.416-.061,2.125-.081.951-.616,1.32-1.521,1.395-1.569.128-1.815-.819-1.815-2.061,0-4.448.007-8.9,0-13.344-.009-4.512.074-9.026-.038-13.537-.067-2.691-1.17-3.787-3.8-3.838q-5.909-.116-11.819,0c-2.509.053-3.3.9-3.4,3.447-.071,1.8-.01,3.609-.04,5.414-.021,1.252-.541,1.911-1.854,1.919q-6.1.037-12.206,0c-1.1-.005-1.692-.467-1.7-1.609,0-.515-.025-1.031-.025-1.546q0-24.367,0-48.733a17.059,17.059,0,0,1,.087-2.124,1.532,1.532,0,0,1,1.488-1.492,16.906,16.906,0,0,1,1.933-.089q55.417,0,110.834,0c3.178,0,3.376.2,3.379,3.419q.018,15.471.006,30.942a18.753,18.753,0,0,0,.078,2.511c.16,1.191.648,2.1,1.911,2.3a2.991,2.991,0,0,1,.183-.287c-1.494-.332-1.56-1.438-1.558-2.681q.032-16.825.012-33.65c0-3-.155-3.155-3.183-3.155H136.6c-4.973,0-9.946.02-14.92-.011-1.531-.009-2.458.423-2.456,2.175q.033,26.591-.009,53.182c0,1.1.322,1.427,1.421,1.414q7.072-.081,14.144,0c1.1.011,1.473-.34,1.441-1.436-.066-2.254.051-4.515-.041-6.767-.074-1.826.642-2.563,2.49-2.529,4,.074,8.009.022,12.013.023,3.087,0,3.3.211,3.3,3.283q0,13.73.014,27.461c0,.609-.346,1.528.324,1.773a6.572,6.572,0,0,0,3.805.068c.952-.24.5-1.333.5-2.034q.041-18.178.022-36.357c0-2.674.154-2.816,2.875-2.818,3.488,0,6.976-.02,10.463,0,4.239.028,4.45-.773,4.442,4.4q-.03,17.5.007,35c0,.6-.348,1.516.365,1.754a6.589,6.589,0,0,0,3.809.038c.908-.257.451-1.356.453-2.067q.042-15.858.021-31.716c0-2.959.138-3.1,3.015-3.1q5.716-.005,11.433,0c3.247,0,3.288.039,3.289,3.2q0,15.955.013,31.909c0,.607-.324,1.6.371,1.738a8.711,8.711,0,0,0,3.82.02c.925-.249.435-1.482.437-2.26q.043-20.306.024-40.612c0-2.349.364-2.714,2.673-2.724,3.617-.016,7.234,0,10.851,0,4.253,0,4.253,0,4.253,4.2,0,13.214.024,26.429-.033,39.644-.007,1.514.378,2.13,1.935,1.931a14.4,14.4,0,0,1,2.515.018,1.333,1.333,0,0,1,1.394,1.321,1.43,1.43,0,0,1-1.282,1.649,9.145,9.145,0,0,1-1.735.083q-16.567.006-33.134,0c-16.083,0-32.165.018-48.248-.031-1.411,0-1.909.3-1.848,1.794.124,3.025.155,6.064-.007,9.085-.1,1.81.5,2.2,2.233,2.2q41.176-.082,82.351-.035c1.272,0,2.964-.253,2.958,1.577-.006,1.883-1.745,1.5-2.979,1.505q-26.739.019-53.479.009c-9.753,0-19.506.034-29.258-.035-1.483-.01-1.871.419-1.815,1.849.11,2.832.153,5.679-.012,8.505-.1,1.755.473,2.1,2.141,2.1q41.176-.081,82.351-.033c1.255,0,2.987-.321,3.04,1.485.059,2.044-1.8,1.59-3.069,1.591q-40.884.025-81.769.012a12.471,12.471,0,0,1-1.355-.008c-1.039-.114-1.327.358-1.311,1.341.048,2.964.139,5.937-.028,8.893-.1,1.829.524,2.191,2.243,2.188q41.176-.079,82.35-.034c1.274,0,2.965-.246,2.95,1.585-.014,1.879-1.754,1.5-2.987,1.5q-28.483.019-56.967.009-12.885,0-25.771,0c-.868,0-1.809-.27-1.8,1.239.077,8.7.082,17.4.111,26.1h.578c0-.136.005-.273,0-.408" transform="translate(-57.589 -2.88)" fill="#d3fafe"/>
    <path id="Trazado_591703" data-name="Trazado 591703" d="M351.62,121.919a4.27,4.27,0,0,0,.059,3.478c.018,0,.032-.009.05-.012.049,0,.088.012.135.016v-3.438c-.081-.019-.148-.047-.222-.07-.008.009-.014.018-.022.026" transform="translate(-169.689 -58.882)" fill="#d3fafe"/>
    <path id="Trazado_591704" data-name="Trazado 591704" d="M351.647,86.07c.077-.025.148-.054.233-.074V82.958c-.066-.006-.122-.021-.184-.031a3.6,3.6,0,0,0-.049,3.143" transform="translate(-169.704 -40.059)" fill="#d3fafe"/>
    <path id="Trazado_591705" data-name="Trazado 591705" d="M352.057,82.659c.062.01.118.025.183.031v-.318a2.963,2.963,0,0,0-.183.287" transform="translate(-170.065 -39.791)" fill="#d3fafe"/>
    <path id="Trazado_591706" data-name="Trazado 591706" d="M352.054,128.659a3.227,3.227,0,0,0,.185.309v-.3c-.047,0-.087-.014-.135-.016-.018,0-.032.009-.05.012" transform="translate(-170.064 -62.144)" fill="#d3fafe"/>
    <path id="Trazado_591707" data-name="Trazado 591707" d="M35.956,230.421c1.586.028,1.923-.5,1.9-1.963-.082-4.961-.061-9.923-.022-14.885.069-8.632,6.568-15.257,14.931-15.271,8.4-.014,14.845,6.53,14.921,15.2q.067,7.636-.013,15.272c-.015,1.26.353,1.648,1.637,1.633,5.681-.067,11.365-.092,17.044.011,1.659.03,2.171-.338,2.168-2.1q-.091-42.724,0-85.448c0-1.729-.486-2.148-2.175-2.144q-33.51.082-67.019,0c-1.69,0-2.162.394-2.153,2.121.074,14.241.042,28.482.042,42.724,0,14.306.023,28.611-.034,42.917-.006,1.518.393,1.952,1.928,1.927q8.423-.14,16.85,0M82.743,186.2c.012,1.459-.638,2.124-2.1,2.1-1.739-.034-3.48-.008-5.22-.007-1.675,0-3.352-.048-5.025.015-1.551.058-2.28-.626-2.277-2.154,0-3.409,0-6.817,0-10.225a1.832,1.832,0,0,1,2.126-2.1c3.479.047,6.959.03,10.439.009,1.477-.009,2.071.694,2.056,2.139-.037,3.408-.032,6.817,0,10.225M68.128,153.24c.007-1.424.754-2.1,2.188-2.092,3.421.018,6.842.025,10.262,0,1.569-.012,2.21.725,2.168,2.256-.049,1.738-.011,3.478-.011,5.217,0,1.61-.054,3.223.014,4.831.072,1.683-.741,2.321-2.332,2.309-3.291-.024-6.584-.04-9.875.008-1.622.024-2.416-.682-2.418-2.285,0-3.414-.011-6.828,0-10.242m-8,33.1a1.77,1.77,0,0,1-2.076,1.954c-1.738-.041-3.479-.01-5.218-.011q-2.706,0-5.412,0a1.666,1.666,0,0,1-1.893-1.9c0-3.537.011-7.074,0-10.61-.005-1.268.587-1.93,1.858-1.933,3.608-.01,7.216.01,10.824-.012a1.7,1.7,0,0,1,1.915,1.9q.05,5.3.005,10.61m-14.6-28.068c0-1.61.051-3.222-.014-4.829-.069-1.683.745-2.312,2.339-2.3,3.355.029,6.711.024,10.066,0,1.553-.01,2.23.76,2.226,2.256-.007,3.349,0,6.7,0,10.046,0,1.584-.751,2.34-2.389,2.317-3.29-.046-6.581-.04-9.871,0-1.728.02-2.46-.732-2.371-2.467.085-1.67.018-3.348.019-5.022m-22.6-5.047c-.011-1.473.692-2.089,2.131-2.08q5.122.035,10.246,0c1.451-.01,2.136.635,2.109,2.1-.033,1.736-.008,3.473-.007,5.209,0,1.672-.047,3.346.014,5.016.056,1.538-.606,2.284-2.149,2.281-3.415-.006-6.831-.011-10.246,0-1.444.007-2.115-.647-2.1-2.111q.047-5.209,0-10.419m.01,33.288c0-3.61.008-7.219-.006-10.829-.005-1.3.63-1.859,1.91-1.853q5.328.028,10.656,0c1.269,0,1.915.561,1.91,1.863q-.019,5.318,0,10.635c.006,1.384-.667,1.98-2.03,1.957-1.743-.031-3.487-.008-5.231-.009-1.808,0-3.616-.007-5.425,0a1.558,1.558,0,0,1-1.786-1.769" transform="translate(-8.294 -67.981)" fill="#f9759d"/>
    <path id="Trazado_591708" data-name="Trazado 591708" d="M83.905,128.529c3.252,0,4.87-1.092,4.941-3.309.073-2.281-1.618-3.463-4.977-3.464q-36.394,0-72.79,0c-.516,0-1.033-.014-1.548.012a3.38,3.38,0,0,0-3.468,3.389,3.345,3.345,0,0,0,3.31,3.341c.706.055,1.418.032,2.128.032q17.907,0,35.814,0,18.295,0,36.589,0" transform="translate(-2.929 -58.813)" fill="#f9759d"/>
    <path id="Trazado_591709" data-name="Trazado 591709" d="M288.125,97.237c0,6.446.038,12.892-.03,19.338-.015,1.425.371,1.936,1.846,1.88,2.773-.105,5.554-.068,8.33-.012,1.074.021,1.468-.307,1.466-1.425q-.046-19.917,0-39.835c0-1.257-.5-1.507-1.608-1.483-2.582.058-5.171.118-7.748-.017-1.732-.09-2.34.368-2.306,2.217.117,6.444.045,12.891.045,19.337" transform="translate(-139.16 -36.554)" fill="#6cc8f6"/>
    <path id="Trazado_591710" data-name="Trazado 591710" d="M201.483,121.128c0,1.237.475,1.519,1.6,1.494,2.707-.059,5.419-.1,8.122.013,1.5.064,1.831-.5,1.814-1.889-.069-5.727-.029-11.454-.029-17.181,0-5.856-.03-11.712.024-17.568.011-1.226-.3-1.711-1.61-1.67-2.77.087-5.545.064-8.316.007-1.1-.022-1.609.2-1.6,1.466q.064,17.665,0,35.329" transform="translate(-97.328 -40.734)" fill="#6dc8f6"/>
    <path id="Trazado_591711" data-name="Trazado 591711" d="M246.919,126.666c2.574-.105,5.158-.089,7.733,0,1.319.043,1.787-.341,1.78-1.723q-.077-15.342,0-30.686c.006-1.317-.468-1.629-1.679-1.6-2.641.071-5.29.122-7.926-.016-1.62-.084-1.9.561-1.884,1.993.073,4.953.028,9.907.028,14.86,0,5.083.062,10.166-.037,15.246-.031,1.573.5,1.987,1.985,1.926" transform="translate(-118.318 -44.748)" fill="#08e"/>
    <path id="Trazado_591712" data-name="Trazado 591712" d="M73.469,272.875q0-6.272,0-12.545c0-2.157-.031-2.175-2.147-1.486a11.725,11.725,0,0,0-8.171,10.847c-.128,5.4,0,10.807-.067,16.21-.013,1.179.461,1.379,1.484,1.355,2.448-.057,4.9-.094,7.346.012,1.334.057,1.6-.448,1.58-1.658-.064-4.245-.025-8.491-.025-12.737" transform="translate(-30.473 -124.844)" fill="#fed6e4"/>
    <path id="Trazado_591713" data-name="Trazado 591713" d="M99.245,268.8c-.174-4.631-4.1-8.949-8.582-10.073-1.135-.284-1.581-.174-1.554,1.178.086,4.308.032,8.619.032,12.929s.028,8.62-.02,12.93c-.012,1.087.151,1.634,1.447,1.58,2.509-.105,5.026-.057,7.54-.017.867.014,1.279-.19,1.27-1.163-.056-5.789.085-11.583-.132-17.364" transform="translate(-43.045 -124.922)" fill="#fed6e4"/>
    <path id="Trazado_591714" data-name="Trazado 591714" d="M160.615,108.819c.17-.019.359.13.538.2a6.564,6.564,0,0,1,4.221,6.148,6.12,6.12,0,0,1-4.058,5.825,2.21,2.21,0,0,0-1.7,2.647,53.378,53.378,0,0,1,.012,5.6c-.042,1.116.394,1.457,1.467,1.431,2.322-.057,4.647-.072,6.967,0,1.29.042,1.668-.461,1.653-1.7-.053-4.443-.021-8.886-.021-13.33,0-4.25-.065-8.5.034-12.749.036-1.564-.5-2.035-2-1.937-1.734.113-3.482.026-5.224.026-4.413,0-4.367,0-4.434,4.432-.028,1.873-.249,3.7,2.548,3.4" transform="translate(-76.349 -48.765)" fill="#08e"/>
    <path id="Trazado_591715" data-name="Trazado 591715" d="M165.329,310.637q32.435-.023,64.871-.014a9.8,9.8,0,0,0,2.5-.152c.26-.068.494-.19.535-.481.055-.394-.2-.573-.537-.662a9.714,9.714,0,0,0-2.5-.153q-32.436-.005-64.872-.014a6.865,6.865,0,0,1-2.967-.268,2.46,2.46,0,0,0,.471,1.814c.012.009.024.014.036.024a9.862,9.862,0,0,1,2.462-.094" transform="translate(-78.428 -149.215)" fill="#fdfdfd"/>
    <path id="Trazado_591716" data-name="Trazado 591716" d="M162.3,310.381a2.46,2.46,0,0,1-.471-1.814,2.6,2.6,0,0,1-.57-.348q.005,1.364.011,2.728h0a2.614,2.614,0,0,1,1.066-.542c-.012-.009-.024-.014-.036-.024" transform="translate(-77.899 -148.889)" fill="#fdfdfd"/>
    <path id="Trazado_591717" data-name="Trazado 591717" d="M232.043,308.169q-34.836-.033-69.672-.018c0,.116-.005.232-.008.348a6.865,6.865,0,0,0,2.967.268q32.436.023,64.872.014a9.708,9.708,0,0,1,2.5.153c.337.088.592.268.537.662-.041.291-.274.414-.535.481a9.781,9.781,0,0,1-2.5.152q-32.435.005-64.871.014a9.862,9.862,0,0,0-2.462.094,3.363,3.363,0,0,0,2.21.357q33.222.011,66.444,0c2.178,0,2.56-.242,2.565-2.137-.509-.763-1.363-.39-2.045-.391" transform="translate(-78.431 -148.821)" fill="#fdfdfd"/>
    <path id="Trazado_591718" data-name="Trazado 591718" d="M161.838,308.219h-.578a2.6,2.6,0,0,0,.57.348c0-.116.006-.232.008-.348" transform="translate(-77.899 -148.889)" fill="#fdfdfd"/>
    <path id="Trazado_591719" data-name="Trazado 591719" d="M232.306,311.306a1.445,1.445,0,0,0,1.317-2.209c-.018-.032-.038-.058-.056-.087,0,1.9-.387,2.137-2.565,2.137q-33.222.007-66.444,0a3.363,3.363,0,0,1-2.21-.357,2.607,2.607,0,0,0-1.066.542l64.637-.013c2.129,0,4.258.023,6.386-.01" transform="translate(-77.909 -149.271)" fill="#fdfdfd"/>
    <path id="Trazado_591720" data-name="Trazado 591720" d="M308,290.463c0,.294-.09.659.186.739l18.688-18.641c-5.773,0-11.358-.01-16.944.007-1.48,0-1.963.862-1.952,2.267.04,5.209.015,10.419.023,15.629" transform="translate(-148.77 -131.662)" fill="#6cc8f6"/>
    <path id="Trazado_591721" data-name="Trazado 591721" d="M350.482,93.287q.092,4.341,0,8.685a7.408,7.408,0,0,0,.882,4.032,4.959,4.959,0,0,0,1.116-3.546q-.09-4.808,0-9.618a4.9,4.9,0,0,0-1.119-3.575,7.413,7.413,0,0,0-.877,4.022" transform="translate(-169.303 -43.121)" fill="#3a2c60"/>
    <path id="Trazado_591722" data-name="Trazado 591722" d="M353.3,92.646q-.084,4.808,0,9.618a4.961,4.961,0,0,1-1.116,3.546c.039.066.072.133.114.2,1.213-.272,1.581-1.067,1.57-2.252q-.06-6.322,0-12.645c.011-1.181-.344-1.986-1.569-2.248-.044.069-.079.139-.119.208a4.9,4.9,0,0,1,1.119,3.575" transform="translate(-170.126 -42.926)" fill="#3a2c60"/>
    <path id="Trazado_591723" data-name="Trazado 591723" d="M349.391,91.227q.058,6.278,0,12.557c-.011,1.109.3,1.887,1.34,2.222.039-.041.071-.085.108-.128a7.4,7.4,0,0,1-.882-4.032q.092-4.341,0-8.685a7.42,7.42,0,0,1,.877-4.023c-.039-.043-.071-.088-.113-.131v0c-1.026.338-1.339,1.118-1.329,2.22" transform="translate(-168.777 -42.996)" fill="#3a2c60"/>
    <path id="Trazado_591724" data-name="Trazado 591724" d="M351.983,121.773c.073.024.141.051.222.07-.042-.065-.075-.132-.114-.2-.037.042-.069.086-.108.128" transform="translate(-170.03 -58.762)" fill="#3a2c60"/>
    <path id="Trazado_591725" data-name="Trazado 591725" d="M351.963,88.94c.041.042.073.088.112.131.04-.069.075-.139.119-.207-.085.02-.156.049-.232.074v0" transform="translate(-170.02 -42.926)" fill="#3a2c60"/>
    <path id="Trazado_591726" data-name="Trazado 591726" d="M229.195,30.27a5.954,5.954,0,0,0-4.541,6.342,1.5,1.5,0,0,1-1.01,1.745q-4.91,2.487-9.784,5.043a1.519,1.519,0,0,1-1.871-.154c-2.784-1.933-5.539-1.695-8.06.675a1.536,1.536,0,0,1-1.838.4c-2.8-.956-5.613-1.888-8.453-2.719a2,2,0,0,1-1.687-1.916,6.03,6.03,0,0,0-6.714-5.25,5.935,5.935,0,0,0-5.419,6.547,1.99,1.99,0,0,1-1.306,2.207c-2.925,1.629-5.844,3.274-8.7,5.014-1.179.718-2.022,1.011-3.375.088a5.8,5.8,0,0,0-7.419,1.033,6.173,6.173,0,0,0,6.177,10.221,6.017,6.017,0,0,0,4.393-6.283,1.765,1.765,0,0,1,1.145-2.061q4.884-2.744,9.714-5.583a1.619,1.619,0,0,1,2.035.028,5.832,5.832,0,0,0,7.617-.623,2.093,2.093,0,0,1,2.542-.52c2.615.9,5.257,1.732,7.911,2.513a2.113,2.113,0,0,1,1.752,2.091,6.019,6.019,0,0,0,6.74,5.212,6.2,6.2,0,0,0,5.452-6.364c-.5-1.179.36-1.646,1.362-2.145,3.054-1.52,6.093-3.072,9.1-4.686a1.934,1.934,0,0,1,2.381.14,5.991,5.991,0,0,0,7.643-.52,6.159,6.159,0,0,0-5.78-10.476M163.343,56.652a2.916,2.916,0,0,1-2.906-3.149,3.054,3.054,0,0,1,3.142-2.988,3.3,3.3,0,0,1,3,3.229,3.084,3.084,0,0,1-3.233,2.907m22.54-13.072a3.01,3.01,0,1,1,3.026-3,2.872,2.872,0,0,1-3.026,3m22.45,7.65a2.931,2.931,0,0,1-2.982-3.062,2.994,2.994,0,1,1,5.985,0,2.958,2.958,0,0,1-3,3.057m22.5-11.974a3.05,3.05,0,0,1-3.141-2.988,3.182,3.182,0,0,1,3.032-3.153,3.079,3.079,0,0,1,3.088,3.044,2.944,2.944,0,0,1-2.979,3.1" transform="translate(-75.975 -14.514)" fill="#3a2c60"/>
    <path id="Trazado_591727" data-name="Trazado 591727" d="M118.152,175.5c3.291-.049,6.583-.032,9.875-.008,1.592.012,2.4-.626,2.333-2.309-.068-1.608-.015-3.22-.015-4.83,0-1.74-.038-3.48.011-5.217.043-1.531-.6-2.269-2.168-2.256-3.421.028-6.841.02-10.262,0-1.434-.007-2.181.668-2.188,2.092-.015,3.414-.008,6.828,0,10.242,0,1.6.8,2.309,2.417,2.285m5.177-11.515c3.917,0,3.917,0,3.917,4.063,0,4.337,0,4.337-4.42,4.337-3.971,0-3.971,0-3.971-3.877,0-4.523,0-4.523,4.474-4.523" transform="translate(-55.905 -77.715)" fill="#3a2c60"/>
    <path id="Trazado_591728" data-name="Trazado 591728" d="M74.357,175.5c3.29-.037,6.582-.042,9.871,0,1.638.023,2.387-.733,2.388-2.317,0-3.349,0-6.7,0-10.046,0-1.5-.674-2.266-2.226-2.256-3.355.022-6.711.027-10.066,0-1.593-.014-2.407.615-2.339,2.3.066,1.607.014,3.219.014,4.829,0,1.674.067,3.352-.018,5.022-.089,1.734.643,2.486,2.371,2.467m4.824-11.511c4.315,0,4.315,0,4.315,4.3,0,4.1,0,4.1-4.13,4.1-4.262,0-4.262,0-4.262-4.3,0-4.1,0-4.1,4.078-4.1" transform="translate(-34.77 -77.714)" fill="#3a2c60"/>
    <path id="Trazado_591729" data-name="Trazado 591729" d="M30.413,175.491c3.415-.016,6.831-.011,10.246,0,1.543,0,2.2-.742,2.148-2.281-.06-1.67-.013-3.344-.014-5.016,0-1.736-.025-3.474.007-5.21.027-1.463-.658-2.108-2.109-2.1q-5.122.035-10.246,0c-1.438-.01-2.141.607-2.131,2.08q.037,5.209,0,10.419c-.013,1.465.658,2.118,2.1,2.112m5.173-11.5c4.114,0,4.114,0,4.114,4.265,0,4.131,0,4.131-4.063,4.131-4.244,0-4.244,0-4.244-4.177,0-4.218,0-4.218,4.193-4.218" transform="translate(-13.676 -77.715)" fill="#3a2c60"/>
    <path id="Trazado_591730" data-name="Trazado 591730" d="M84.7,204.766c-3.608.022-7.216,0-10.824.012-1.271,0-1.863.665-1.858,1.933.014,3.537.008,7.074,0,10.61a1.666,1.666,0,0,0,1.893,1.9c1.8,0,3.608,0,5.412,0,1.74,0,3.48-.03,5.218.011a1.77,1.77,0,0,0,2.076-1.953q.041-5.3-.005-10.61a1.7,1.7,0,0,0-1.915-1.9M79.608,216.13h-.193c-4.289,0-4.289,0-4.289-4.257,0-4.032,0-4.032,3.948-4.032,4.437,0,4.437,0,4.437,4.372,0,3.916,0,3.916-3.9,3.916" transform="translate(-34.791 -98.915)" fill="#3b2c60"/>
    <path id="Trazado_591731" data-name="Trazado 591731" d="M128.3,204.755c-3.48.021-6.96.037-10.439-.01a1.832,1.832,0,0,0-2.126,2.1c-.009,3.409,0,6.817,0,10.226,0,1.528.726,2.211,2.277,2.154,1.673-.062,3.35-.014,5.025-.014,1.74,0,3.48-.026,5.22.007,1.462.028,2.113-.637,2.1-2.1-.028-3.408-.034-6.817,0-10.225.016-1.445-.578-2.148-2.056-2.139M123.03,216.12c-4.169,0-4.169,0-4.169-4.229,0-4.06,0-4.06,4.17-4.06,4.214,0,4.214,0,4.214,4.152,0,4.137,0,4.137-4.215,4.137" transform="translate(-55.906 -98.905)" fill="#3b2c60"/>
    <path id="Trazado_591732" data-name="Trazado 591732" d="M40.774,219.225c1.363.024,2.036-.572,2.03-1.956q-.022-5.318,0-10.635c0-1.3-.641-1.867-1.91-1.863-3.552.01-7.1.016-10.656,0-1.279-.007-1.915.549-1.91,1.853.014,3.61.009,7.219.006,10.829a1.559,1.559,0,0,0,1.786,1.769c1.808-.009,3.616,0,5.425,0,1.744,0,3.488-.022,5.231.008M31.4,212.154c0-4.312,0-4.312,4.3-4.312,4.006,0,4.006,0,4.006,4,0,4.294,0,4.294-4.272,4.294-4.033,0-4.033,0-4.033-3.977" transform="translate(-13.684 -98.915)" fill="#3a2c60"/>
    <path id="Trazado_591733" data-name="Trazado 591733" d="M166.531,69.643a3.054,3.054,0,0,0-3.142,2.988A2.916,2.916,0,0,0,166.3,75.78a3.084,3.084,0,0,0,3.233-2.907,3.3,3.3,0,0,0-3-3.229" transform="translate(-78.926 -33.641)" fill="#0188ed"/>
    <path id="Trazado_591734" data-name="Trazado 591734" d="M296.519,35.985a3.182,3.182,0,0,0-3.031,3.153,3.049,3.049,0,0,0,3.141,2.988,2.943,2.943,0,0,0,2.979-3.1,3.078,3.078,0,0,0-3.088-3.045" transform="translate(-141.772 -17.383)" fill="#6cc7f5"/>
    <path id="Trazado_591735" data-name="Trazado 591735" d="M253.271,59.127a3.017,3.017,0,0,0-3,3.09,2.993,2.993,0,1,0,5.985,0,3.023,3.023,0,0,0-2.989-3.094" transform="translate(-120.898 -28.562)" fill="#0088ed"/>
    <path id="Trazado_591736" data-name="Trazado 591736" d="M209.818,44.584a3.01,3.01,0,1,0,3.012,3.018,2.874,2.874,0,0,0-3.012-3.018" transform="translate(-99.896 -21.537)" fill="#6cc8f5"/>
    <path id="Trazado_591737" data-name="Trazado 591737" d="M125.746,175.288c4.42,0,4.42,0,4.42-4.337,0-4.063,0-4.063-3.917-4.063-4.474,0-4.474,0-4.474,4.523,0,3.877,0,3.877,3.971,3.877" transform="translate(-58.825 -80.617)" fill="#fcd4e3"/>
    <path id="Trazado_591738" data-name="Trazado 591738" d="M82.285,175.288c4.13,0,4.13,0,4.13-4.1,0-4.3,0-4.3-4.315-4.3-4.078,0-4.078,0-4.078,4.1,0,4.3,0,4.3,4.262,4.3" transform="translate(-37.69 -80.617)" fill="#fcd4e3"/>
    <path id="Trazado_591739" data-name="Trazado 591739" d="M38.517,175.288c4.063,0,4.063,0,4.063-4.13,0-4.265,0-4.265-4.114-4.265-4.193,0-4.193,0-4.193,4.218,0,4.177,0,4.177,4.244,4.177" transform="translate(-16.556 -80.619)" fill="#fdd6e4"/>
    <path id="Trazado_591740" data-name="Trazado 591740" d="M81.976,210.717c-3.948,0-3.948,0-3.948,4.032,0,4.257,0,4.257,4.289,4.257h.193c3.9,0,3.9,0,3.9-3.916,0-4.372,0-4.372-4.437-4.372" transform="translate(-37.692 -101.789)" fill="#fed6e4"/>
    <path id="Trazado_591741" data-name="Trazado 591741" d="M125.954,210.717c-4.17,0-4.17,0-4.17,4.06,0,4.229,0,4.229,4.169,4.229,4.215,0,4.215,0,4.215-4.137s0-4.152-4.214-4.152" transform="translate(-58.829 -101.789)" fill="#fed6e4"/>
    <path id="Trazado_591742" data-name="Trazado 591742" d="M42.58,214.711c0-4,0-4-4.006-4-4.3,0-4.3,0-4.3,4.312,0,3.977,0,3.977,4.034,3.977,4.272,0,4.272,0,4.272-4.294" transform="translate(-16.556 -101.788)" fill="#fed6e4"/>
  </g>
</svg>
