<svg xmlns="http://www.w3.org/2000/svg" xmlns:xlink="http://www.w3.org/1999/xlink" width="138.992" height="138.992" viewBox="0 0 138.992 138.992">
  <defs>
    <clipPath id="clip-path">
      <rect id="Rectángulo_291123" data-name="Rectángulo 291123" width="58.553" height="70.533" fill="#fff"/>
    </clipPath>
  </defs>
  <g id="Grupo_1072234" data-name="Grupo 1072234" transform="translate(-728.004 -10876)">
    <g id="Trazado_609213" data-name="Trazado 609213" transform="translate(728.004 10876)" fill="#0c5e46">
      <path d="M 69.49609375 136.9921875 C 60.38329315185547 136.9921875 51.54415512084961 135.2079010009766 43.22419357299805 131.6888275146484 C 39.22519302368164 129.9974212646484 35.36801528930664 127.9037704467773 31.75979423522949 125.4661102294922 C 28.1853141784668 123.0512542724609 24.82399368286133 120.2778701782227 21.7691535949707 117.2230529785156 C 18.71431350708008 114.168212890625 15.94095420837402 110.8068771362305 13.52609348297119 107.2324142456055 C 11.08841419219971 103.6241760253906 8.994793891906738 99.76699066162109 7.303353786468506 95.76801300048828 C 3.784293651580811 87.44803619384766 1.999993801116943 78.60889434814453 1.999993801116943 69.49609375 C 1.999993801116943 60.38329315185547 3.784293651580811 51.54415512084961 7.303353786468506 43.22419357299805 C 8.994793891906738 39.22519302368164 11.08841419219971 35.36801528930664 13.52609348297119 31.75979423522949 C 15.94095420837402 28.1853141784668 18.71431350708008 24.82399368286133 21.7691535949707 21.7691535949707 C 24.82399368286133 18.71431350708008 28.1853141784668 15.94095420837402 31.75979423522949 13.52609348297119 C 35.36801528930664 11.08841419219971 39.22519302368164 8.994793891906738 43.22419357299805 7.303353786468506 C 51.54415512084961 3.784293651580811 60.38329315185547 1.999993801116943 69.49609375 1.999993801116943 C 78.60889434814453 1.999993801116943 87.44803619384766 3.784293651580811 95.76801300048828 7.303353786468506 C 99.76699066162109 8.994793891906738 103.6241760253906 11.08841419219971 107.2324142456055 13.52609348297119 C 110.8068771362305 15.94095420837402 114.168212890625 18.71431350708008 117.2230529785156 21.7691535949707 C 120.2778701782227 24.82399368286133 123.0512542724609 28.1853141784668 125.4661102294922 31.75979423522949 C 127.9037704467773 35.36801528930664 129.9974212646484 39.22519302368164 131.6888275146484 43.22419357299805 C 135.2079010009766 51.54415512084961 136.9921875 60.38329315185547 136.9921875 69.49609375 C 136.9921875 78.60889434814453 135.2079010009766 87.44803619384766 131.6888275146484 95.76801300048828 C 129.9974212646484 99.76699066162109 127.9037704467773 103.6241760253906 125.4661102294922 107.2324142456055 C 123.0512542724609 110.8068771362305 120.2778701782227 114.168212890625 117.2230529785156 117.2230529785156 C 114.168212890625 120.2778701782227 110.8068771362305 123.0512542724609 107.2324142456055 125.4661102294922 C 103.6241760253906 127.9037704467773 99.76699066162109 129.9974212646484 95.76801300048828 131.6888275146484 C 87.44803619384766 135.2079010009766 78.60889434814453 136.9921875 69.49609375 136.9921875 Z" stroke="none"/>
      <path d="M 69.49609375 3.999984741210938 C 60.65242767333984 3.999984741210938 52.07540893554688 5.73114013671875 44.00328063964844 9.145370483398438 C 40.12323760986328 10.78648376464844 36.380615234375 12.81794738769531 32.87938690185547 15.18332672119141 C 29.41040802001953 17.52692413330078 26.14817810058594 20.21852874755859 23.18336486816406 23.18336486816406 C 20.21852874755859 26.14817810058594 17.52692413330078 29.41040802001953 15.18332672119141 32.87938690185547 C 12.81794738769531 36.380615234375 10.78648376464844 40.12323760986328 9.145370483398438 44.00328063964844 C 5.73114013671875 52.07540893554688 3.999984741210938 60.65242767333984 3.999984741210938 69.49609375 C 3.999984741210938 78.33975982666016 5.73114013671875 86.91677856445312 9.145370483398438 94.98890686035156 C 10.78648376464844 98.86894226074219 12.81794738769531 102.611572265625 15.18332672119141 106.1127777099609 C 17.52692413330078 109.5817794799805 20.21852874755859 112.843994140625 23.18336486816406 115.8088226318359 C 26.14817810058594 118.7736358642578 29.41040802001953 121.4652404785156 32.87938690185547 123.8088455200195 C 36.380615234375 126.1742172241211 40.12323760986328 128.2057037353516 44.00328063964844 129.8468017578125 C 52.07540893554688 133.2610321044922 60.65240478515625 134.9921722412109 69.49609375 134.9921722412109 C 78.33975982666016 134.9921722412109 86.91677856445312 133.2610321044922 94.98890686035156 129.8468017578125 C 98.86894226074219 128.2057037353516 102.611572265625 126.1742172241211 106.1127777099609 123.8088455200195 C 109.5817794799805 121.4652404785156 112.843994140625 118.7736358642578 115.8088226318359 115.8088226318359 C 118.7736358642578 112.843994140625 121.4652404785156 109.5817794799805 123.8088455200195 106.1127777099609 C 126.1742172241211 102.611572265625 128.2057037353516 98.86894226074219 129.8468017578125 94.98890686035156 C 133.2610321044922 86.91677856445312 134.9921722412109 78.33975982666016 134.9921722412109 69.49609375 C 134.9921722412109 60.65240478515625 133.2610321044922 52.07540893554688 129.8468017578125 44.00328063964844 C 128.2057037353516 40.12323760986328 126.1742172241211 36.380615234375 123.8088455200195 32.87938690185547 C 121.4652404785156 29.41040802001953 118.7736358642578 26.14817810058594 115.8088226318359 23.18336486816406 C 112.843994140625 20.21852874755859 109.5817794799805 17.52692413330078 106.1127777099609 15.18332672119141 C 102.611572265625 12.81794738769531 98.86894226074219 10.78648376464844 94.98890686035156 9.145370483398438 C 86.91677856445312 5.73114013671875 78.33975982666016 3.999984741210938 69.49609375 3.999984741210938 M 69.49609375 -1.52587890625e-05 C 107.8777160644531 -1.52587890625e-05 138.9921722412109 31.11447143554688 138.9921722412109 69.49609375 C 138.9921722412109 107.8777160644531 107.8777160644531 138.9921722412109 69.49609375 138.9921722412109 C 31.11447143554688 138.9921722412109 -1.52587890625e-05 107.8777160644531 -1.52587890625e-05 69.49609375 C -1.52587890625e-05 31.11447143554688 31.11447143554688 -1.52587890625e-05 69.49609375 -1.52587890625e-05 Z" stroke="none" fill="#fff"/>
    </g>
    <g id="Grupo_870482" data-name="Grupo 870482" transform="translate(768.595 10910.44)">
      <g id="Grupo_870481" data-name="Grupo 870481" transform="translate(0)" clip-path="url(#clip-path)">
        <path id="Trazado_255253" data-name="Trazado 255253" d="M150.2,14.115a1.289,1.289,0,0,1-1.289-1.289V1.289a1.288,1.288,0,0,1,2.2-.91l11.536,11.537a1.287,1.287,0,0,1-.91,2.2Zm1.288-2.429,7.495-.148L151.484,4.39Z" transform="translate(-107.872 0)" fill="#fff"/>
        <path id="Trazado_255254" data-name="Trazado 255254" d="M1.289,70.537A1.289,1.289,0,0,1,0,69.248V1.293A1.289,1.289,0,0,1,1.289.005H42.324a1.294,1.294,0,0,1,.912.378L54.771,11.92a1.273,1.273,0,0,1,.378.91V59.783a1.288,1.288,0,1,1-2.577,0V13.3L41.747,2.538,2.431,2.582l.148,65.526L52.72,67.96l-.147-.723a1.288,1.288,0,0,1,2.577,0v2.011a1.289,1.289,0,0,1-1.287,1.289Z" transform="translate(0 -0.004)" fill="#fff"/>
        <path id="Trazado_255255" data-name="Trazado 255255" d="M48.642,104.7A19.891,19.891,0,1,1,68.533,84.81,19.913,19.913,0,0,1,48.642,104.7m0-37.2A17.314,17.314,0,1,0,65.956,84.81,17.334,17.334,0,0,0,48.642,67.5" transform="translate(-20.828 -47.029)" fill="#fff"/>
        <path id="Trazado_255256" data-name="Trazado 255256" d="M153.167,195a4.039,4.039,0,0,1-2.879-1.194l-13.651-13.651a1.289,1.289,0,0,1,.912-2.2,1.274,1.274,0,0,1,.91.378l13.651,13.651a1.519,1.519,0,0,0,2.577-1.081,1.479,1.479,0,0,0-.438-1.056L141.195,176.8a1.288,1.288,0,1,1,1.822-1.822l13.053,13.055a4.1,4.1,0,0,1-2.9,6.975" transform="translate(-98.71 -126.482)" fill="#fff"/>
        <path id="Trazado_255257" data-name="Trazado 255257" d="M54.532,156.283a1.288,1.288,0,1,1,0-2.577h23.7a1.288,1.288,0,1,1,0,2.577Z" transform="translate(-38.571 -111.348)" fill="#fff"/>
        <path id="Trazado_255258" data-name="Trazado 255258" d="M63.135,141.441a1.289,1.289,0,0,1-1.288-1.289v-5.644a1.289,1.289,0,0,1,1.288-1.289h6.321a1.289,1.289,0,0,1,1.289,1.289v5.644a1.289,1.289,0,0,1-1.289,1.289Zm1.289-2.429,3.892-.147-.147-3.215-3.744.143Z" transform="translate(-44.803 -96.507)" fill="#fff"/>
        <path id="Trazado_255259" data-name="Trazado 255259" d="M86.074,131.473a1.289,1.289,0,0,1-1.288-1.289v-9.436a1.289,1.289,0,0,1,1.288-1.289h6.321a1.289,1.289,0,0,1,1.289,1.289v9.436a1.289,1.289,0,0,1-1.289,1.289Zm1.289-2.429,3.892-.147-.147-7.009-3.745.143Z" transform="translate(-61.421 -86.538)" fill="#fff"/>
        <path id="Trazado_255260" data-name="Trazado 255260" d="M109.012,121.5a1.289,1.289,0,0,1-1.288-1.289v-13.23a1.289,1.289,0,0,1,1.288-1.288h6.321a1.289,1.289,0,0,1,1.288,1.288v13.23a1.289,1.289,0,0,1-1.288,1.289Zm1.289-2.429,3.891-.147-.148-10.8-3.743.142Z" transform="translate(-78.038 -76.569)" fill="#fff"/>
      </g>
    </g>
  </g>
</svg>
