<svg id="Grupo_877498" data-name="Grupo 877498" xmlns="http://www.w3.org/2000/svg" xmlns:xlink="http://www.w3.org/1999/xlink" width="45.578" height="48.931" viewBox="0 0 45.578 48.931">
  <defs>
    <clipPath id="clip-path">
      <rect id="Rectángulo_291070" data-name="Rectángulo 291070" width="45.578" height="48.93" fill="#94be9c"/>
    </clipPath>
  </defs>
  <g id="Grupo_870280" data-name="Grupo 870280" transform="translate(0 0)" clip-path="url(#clip-path)">
    <path id="Trazado_255144" data-name="Trazado 255144" d="M40.579,46.7H5a5,5,0,0,1-5-5V19.061a5,5,0,0,1,5-5H6.031a.882.882,0,1,1,0,1.764H5a3.238,3.238,0,0,0-3.233,3.235V41.7A3.238,3.238,0,0,0,5,44.932H40.579A3.237,3.237,0,0,0,43.813,41.7V19.061a3.237,3.237,0,0,0-3.233-3.235H39.546a.882.882,0,1,1,0-1.764h1.034a5,5,0,0,1,5,5V41.7a5,5,0,0,1-5,5" transform="translate(0 2.235)" fill="#94be9c"/>
    <path id="Trazado_255145" data-name="Trazado 255145" d="M39.837,41.389H4.568a.882.882,0,0,1-.882-.882V18.972a.882.882,0,0,1,.882-.882H5.5a.882.882,0,0,1,0,1.764c-.045,0-.045,19.771-.045,19.771H38.955V19.854a.892.892,0,0,1-.926-.882.882.882,0,0,1,.882-.882h.926a.882.882,0,0,1,.882.882V40.507a.882.882,0,0,1-.882.882" transform="translate(0.586 2.875)" fill="#94be9c"/>
    <path id="Trazado_255146" data-name="Trazado 255146" d="M7.862,35a.882.882,0,0,1-.882-.882V12.408a.882.882,0,0,1,1.764,0V34.114A.882.882,0,0,1,7.862,35" transform="translate(1.109 1.832)" fill="#94be9c"/>
    <path id="Trazado_255147" data-name="Trazado 255147" d="M10.906,35a.882.882,0,0,1-.882-.882V12.408a.882.882,0,1,1,1.764,0V34.114a.882.882,0,0,1-.882.882" transform="translate(1.593 1.832)" fill="#94be9c"/>
    <path id="Trazado_255148" data-name="Trazado 255148" d="M14.8,35.258a.882.882,0,0,1-.882-.882V10.759a.882.882,0,0,1,1.764,0V34.376a.882.882,0,0,1-.882.882" transform="translate(2.211 1.57)" fill="#94be9c"/>
    <path id="Trazado_255149" data-name="Trazado 255149" d="M17.84,35.258a.882.882,0,0,1-.882-.882V10.759a.882.882,0,1,1,1.764,0V34.376a.882.882,0,0,1-.882.882" transform="translate(2.695 1.57)" fill="#94be9c"/>
    <path id="Trazado_255150" data-name="Trazado 255150" d="M21.73,35.49a.882.882,0,0,1-.882-.882V9.3a.882.882,0,0,1,1.764,0V34.608a.882.882,0,0,1-.882.882" transform="translate(3.313 1.338)" fill="#94be9c"/>
    <path id="Trazado_255151" data-name="Trazado 255151" d="M24.774,35.49a.882.882,0,0,1-.882-.882V9.3a.882.882,0,1,1,1.764,0V34.608a.882.882,0,0,1-.882.882" transform="translate(3.797 1.338)" fill="#94be9c"/>
    <path id="Trazado_255152" data-name="Trazado 255152" d="M28.663,35.782a.882.882,0,0,1-.882-.882V7.462a.882.882,0,0,1,1.764,0V34.9a.882.882,0,0,1-.882.882" transform="translate(4.415 1.046)" fill="#94be9c"/>
    <path id="Trazado_255153" data-name="Trazado 255153" d="M31.707,35.782a.882.882,0,0,1-.882-.882V7.462a.882.882,0,0,1,1.764,0V34.9a.882.882,0,0,1-.882.882" transform="translate(4.899 1.046)" fill="#94be9c"/>
    <path id="Trazado_255154" data-name="Trazado 255154" d="M34.624,6.891H32.218a.882.882,0,1,1,0-1.764h.6L30.606,2.3,28.4,5.127h.6a.882.882,0,1,1,0,1.764H26.588a.882.882,0,0,1-.7-1.425L29.909.321a.915.915,0,0,1,1.392,0l4.017,5.144a.882.882,0,0,1-.694,1.425" transform="translate(4.085 0)" fill="#94be9c"/>
    <path id="Trazado_255155" data-name="Trazado 255155" d="M36.806,32.02H6.869a.882.882,0,1,1,0-1.764H36.806a.882.882,0,0,1,0,1.764" transform="translate(0.951 4.808)" fill="#94be9c"/>
  </g>
</svg>
