<svg id="Grupo_877500" data-name="Grupo 877500" xmlns="http://www.w3.org/2000/svg" xmlns:xlink="http://www.w3.org/1999/xlink" width="43.617" height="48.93" viewBox="0 0 43.617 48.93">
  <defs>
    <clipPath id="clip-path">
      <rect id="Rectángulo_291068" data-name="Rectángulo 291068" width="43.617" height="48.93" fill="#94be9c"/>
    </clipPath>
  </defs>
  <g id="Grupo_870275" data-name="Grupo 870275" transform="translate(0 0)" clip-path="url(#clip-path)">
    <path id="Trazado_255104" data-name="Trazado 255104" d="M23.934,20.674H16.7a.847.847,0,0,1-.847-.847V18.558a2.363,2.363,0,0,0-.69-1.625,7.066,7.066,0,0,1-1.972-5.346,7.193,7.193,0,0,1,6.839-6.719,7.136,7.136,0,0,1,5.441,12.071,2.35,2.35,0,0,0-.686,1.62v1.268a.847.847,0,0,1-.847.847m-6.391-1.695h5.543v-.421a4.03,4.03,0,0,1,1.158-2.793,5.442,5.442,0,0,0-4.152-9.2,5.482,5.482,0,0,0-5.214,5.121,5.394,5.394,0,0,0,1.5,4.078,4.048,4.048,0,0,1,1.162,2.8Z" transform="translate(1.493 0.551)" fill="#94be9c"/>
    <path id="Trazado_255105" data-name="Trazado 255105" d="M23.44,24.975H16.87A2.281,2.281,0,0,1,15.1,21.258a2.281,2.281,0,0,1,1.774-3.716h6.57a2.281,2.281,0,0,1,1.774,3.716,2.281,2.281,0,0,1-1.774,3.716m-6.57-2.869a.587.587,0,0,0,0,1.175h6.57a.587.587,0,0,0,0-1.175.847.847,0,0,1,0-1.695.587.587,0,0,0,0-1.175H16.87a.587.587,0,0,0,0,1.175.847.847,0,1,1,0,1.695" transform="translate(1.654 1.988)" fill="#94be9c"/>
    <path id="Trazado_255106" data-name="Trazado 255106" d="M19.947,33.42a3.526,3.526,0,1,1,3.526-3.526,3.53,3.53,0,0,1-3.526,3.526m0-5.357a1.831,1.831,0,1,0,1.831,1.831,1.834,1.834,0,0,0-1.831-1.831" transform="translate(1.861 2.989)" fill="#94be9c"/>
    <path id="Trazado_255107" data-name="Trazado 255107" d="M26.269,39.479H14.3a.848.848,0,0,1-.847-.847V37.585a6.862,6.862,0,0,1,5.4-6.679.836.836,0,0,1,.577.081,1.744,1.744,0,0,0,1.712,0,.836.836,0,0,1,.577-.081,6.862,6.862,0,0,1,5.4,6.679v1.047a.848.848,0,0,1-.847.847M15.146,37.784H25.422v-.2a5.163,5.163,0,0,0-3.789-4.957,3.408,3.408,0,0,1-2.7,0,5.163,5.163,0,0,0-3.789,4.957Z" transform="translate(1.525 3.501)" fill="#94be9c"/>
    <path id="Trazado_255108" data-name="Trazado 255108" d="M33.4,23.1a3.526,3.526,0,1,1,3.526-3.526A3.53,3.53,0,0,1,33.4,23.1m0-5.357a1.831,1.831,0,1,0,1.831,1.831A1.834,1.834,0,0,0,33.4,17.744" transform="translate(3.386 1.819)" fill="#94be9c"/>
    <path id="Trazado_255109" data-name="Trazado 255109" d="M39.721,29.16H27.75a.848.848,0,0,1-.847-.847V27.266a6.862,6.862,0,0,1,5.4-6.679.838.838,0,0,1,.577.081,1.742,1.742,0,0,0,1.711,0,.846.846,0,0,1,.578-.081,6.862,6.862,0,0,1,5.4,6.679v1.047a.848.848,0,0,1-.847.847M28.6,27.465H38.874v-.2a5.163,5.163,0,0,0-3.79-4.957,3.41,3.41,0,0,1-2.7,0A5.163,5.163,0,0,0,28.6,27.266Z" transform="translate(3.049 2.331)" fill="#94be9c"/>
    <path id="Trazado_255110" data-name="Trazado 255110" d="M6.5,23.1a3.526,3.526,0,1,1,3.526-3.526A3.53,3.53,0,0,1,6.5,23.1m0-5.357a1.831,1.831,0,1,0,1.831,1.831A1.834,1.834,0,0,0,6.5,17.744" transform="translate(0.337 1.819)" fill="#94be9c"/>
    <path id="Trazado_255111" data-name="Trazado 255111" d="M12.818,29.16H.847A.848.848,0,0,1,0,28.312V27.266a6.862,6.862,0,0,1,5.4-6.679.837.837,0,0,1,.577.081,1.742,1.742,0,0,0,1.711,0,.846.846,0,0,1,.578-.081,6.862,6.862,0,0,1,5.4,6.679v1.047a.848.848,0,0,1-.847.847M1.695,27.465H11.971v-.2a5.163,5.163,0,0,0-3.79-4.957,3.41,3.41,0,0,1-2.7,0,5.163,5.163,0,0,0-3.789,4.957Z" transform="translate(0 2.331)" fill="#94be9c"/>
    <path id="Trazado_255112" data-name="Trazado 255112" d="M19.674,44.727a.848.848,0,0,1-.847-.847V37.929a.847.847,0,0,1,1.695,0V43.88a.848.848,0,0,1-.847.847" transform="translate(2.134 4.203)" fill="#94be9c"/>
    <path id="Trazado_255113" data-name="Trazado 255113" d="M37.421,45.264H5.209a.847.847,0,0,1-.847-.847V33.19a.847.847,0,0,1,1.695,0V43.57H36.573V33.685a.847.847,0,0,1,1.695,0V44.417a.848.848,0,0,1-.847.847" transform="translate(0.494 3.666)" fill="#94be9c"/>
    <path id="Trazado_255114" data-name="Trazado 255114" d="M19.674,4.19a.848.848,0,0,1-.847-.847V.847a.847.847,0,0,1,1.695,0v2.5a.848.848,0,0,1-.847.847" transform="translate(2.134 0)" fill="#94be9c"/>
    <path id="Trazado_255115" data-name="Trazado 255115" d="M19.674,4.19a.848.848,0,0,1-.847-.847V.847a.847.847,0,0,1,1.695,0v2.5a.848.848,0,0,1-.847.847" transform="translate(2.134 0)" fill="#94be9c"/>
    <path id="Trazado_255116" data-name="Trazado 255116" d="M23.829,5.27A.847.847,0,0,1,23.1,4l1.247-2.161a.847.847,0,0,1,1.467.847L24.564,4.845a.848.848,0,0,1-.735.424" transform="translate(2.605 0.16)" fill="#94be9c"/>
    <path id="Trazado_255117" data-name="Trazado 255117" d="M23.829,5.27A.847.847,0,0,1,23.1,4l1.247-2.161a.847.847,0,0,1,1.467.847L24.564,4.845a.848.848,0,0,1-.735.424" transform="translate(2.605 0.16)" fill="#94be9c"/>
    <path id="Trazado_255118" data-name="Trazado 255118" d="M26.873,8.219a.847.847,0,0,1-.424-1.581l2.16-1.248a.847.847,0,1,1,.847,1.467L27.3,8.1a.847.847,0,0,1-.423.114" transform="translate(2.95 0.598)" fill="#94be9c"/>
    <path id="Trazado_255119" data-name="Trazado 255119" d="M26.873,8.219a.847.847,0,0,1-.424-1.581l2.16-1.248a.847.847,0,1,1,.847,1.467L27.3,8.1a.847.847,0,0,1-.423.114" transform="translate(2.95 0.598)" fill="#94be9c"/>
    <path id="Trazado_255120" data-name="Trazado 255120" d="M30.481,12.247h-2.5a.847.847,0,1,1,0-1.695h2.5a.847.847,0,1,1,0,1.695" transform="translate(3.076 1.196)" fill="#94be9c"/>
    <path id="Trazado_255121" data-name="Trazado 255121" d="M30.481,12.247h-2.5a.847.847,0,1,1,0-1.695h2.5a.847.847,0,1,1,0,1.695" transform="translate(3.076 1.196)" fill="#94be9c"/>
    <path id="Trazado_255122" data-name="Trazado 255122" d="M29.032,17.651a.847.847,0,0,1-.423-.114l-2.16-1.248a.847.847,0,1,1,.847-1.467l2.16,1.248a.847.847,0,0,1-.424,1.581" transform="translate(2.95 1.667)" fill="#94be9c"/>
    <path id="Trazado_255123" data-name="Trazado 255123" d="M29.032,17.651a.847.847,0,0,1-.423-.114l-2.16-1.248a.847.847,0,1,1,.847-1.467l2.16,1.248a.847.847,0,0,1-.424,1.581" transform="translate(2.95 1.667)" fill="#94be9c"/>
    <path id="Trazado_255124" data-name="Trazado 255124" d="M19.636,4.19a.848.848,0,0,1-.847-.847V.847a.847.847,0,0,1,1.695,0v2.5a.848.848,0,0,1-.847.847" transform="translate(2.13 0)" fill="#94be9c"/>
    <path id="Trazado_255125" data-name="Trazado 255125" d="M15.608,5.27a.846.846,0,0,1-.735-.424L13.627,2.684a.847.847,0,0,1,1.467-.847L16.341,4a.847.847,0,0,1-.733,1.271" transform="translate(1.532 0.16)" fill="#94be9c"/>
    <path id="Trazado_255126" data-name="Trazado 255126" d="M15.608,5.27a.846.846,0,0,1-.735-.424L13.627,2.684a.847.847,0,0,1,1.467-.847L16.341,4a.847.847,0,0,1-.733,1.271" transform="translate(1.532 0.16)" fill="#94be9c"/>
    <path id="Trazado_255127" data-name="Trazado 255127" d="M12.658,8.219a.847.847,0,0,1-.423-.114l-2.16-1.248a.847.847,0,1,1,.847-1.467l2.16,1.248a.847.847,0,0,1-.424,1.581" transform="translate(1.094 0.598)" fill="#94be9c"/>
    <path id="Trazado_255128" data-name="Trazado 255128" d="M12.658,8.219a.847.847,0,0,1-.423-.114l-2.16-1.248a.847.847,0,1,1,.847-1.467l2.16,1.248a.847.847,0,0,1-.424,1.581" transform="translate(1.094 0.598)" fill="#94be9c"/>
    <path id="Trazado_255129" data-name="Trazado 255129" d="M11.579,12.247h-2.5a.847.847,0,0,1,0-1.695h2.5a.847.847,0,1,1,0,1.695" transform="translate(0.934 1.196)" fill="#94be9c"/>
    <path id="Trazado_255130" data-name="Trazado 255130" d="M11.579,12.247h-2.5a.847.847,0,0,1,0-1.695h2.5a.847.847,0,1,1,0,1.695" transform="translate(0.934 1.196)" fill="#94be9c"/>
    <path id="Trazado_255131" data-name="Trazado 255131" d="M10.5,17.651a.847.847,0,0,1-.425-1.581l2.161-1.248a.847.847,0,1,1,.847,1.467l-2.161,1.248a.843.843,0,0,1-.422.114" transform="translate(1.094 1.667)" fill="#94be9c"/>
    <path id="Trazado_255132" data-name="Trazado 255132" d="M10.5,17.651a.847.847,0,0,1-.425-1.581l2.161-1.248a.847.847,0,1,1,.847,1.467l-2.161,1.248a.843.843,0,0,1-.422.114" transform="translate(1.094 1.667)" fill="#94be9c"/>
  </g>
</svg>
