<svg id="Grupo_877499" data-name="Grupo 877499" xmlns="http://www.w3.org/2000/svg" xmlns:xlink="http://www.w3.org/1999/xlink" width="49.96" height="48.93" viewBox="0 0 49.96 48.93">
  <defs>
    <clipPath id="clip-path">
      <rect id="Rectángulo_291069" data-name="Rectángulo 291069" width="49.96" height="48.93" fill="#94be9c"/>
    </clipPath>
  </defs>
  <g id="Grupo_870277" data-name="Grupo 870277" transform="translate(0 0)" clip-path="url(#clip-path)">
    <path id="Trazado_255133" data-name="Trazado 255133" d="M27.47,32.262a6.819,6.819,0,1,1,6.818-6.819,6.826,6.826,0,0,1-6.818,6.819m0-11.793a4.974,4.974,0,1,0,4.974,4.974,4.98,4.98,0,0,0-4.974-4.974" transform="translate(4.371 3.942)" fill="#94be9c"/>
    <path id="Trazado_255134" data-name="Trazado 255134" d="M27.466,44.667a18.053,18.053,0,0,1-6.187-1.084.922.922,0,1,1,.629-1.733,16.277,16.277,0,0,0,17-26.871.922.922,0,1,1,1.3-1.311,18.118,18.118,0,0,1-12.743,31" transform="translate(4.375 2.836)" fill="#94be9c"/>
    <path id="Trazado_255135" data-name="Trazado 255135" d="M23.537,11.5a.922.922,0,0,1-.187-1.825,18.041,18.041,0,0,1,2.566-.344.922.922,0,0,1,.115,1.841,16.126,16.126,0,0,0-2.306.309.919.919,0,0,1-.189.019" transform="translate(4.787 1.974)" fill="#94be9c"/>
    <path id="Trazado_255136" data-name="Trazado 255136" d="M32.687,12.478a.936.936,0,0,1-.362-.074,16.2,16.2,0,0,0-3.631-1.071A.922.922,0,1,1,29,9.515a18,18,0,0,1,4.045,1.192.922.922,0,0,1-.362,1.77" transform="translate(5.911 2.011)" fill="#94be9c"/>
    <path id="Trazado_255137" data-name="Trazado 255137" d="M36.748,15.526a.917.917,0,0,1-.648-.267,16.405,16.405,0,0,0-1.765-1.513.922.922,0,1,1,1.1-1.482A18.306,18.306,0,0,1,37.4,13.948a.922.922,0,0,1-.648,1.578" transform="translate(7.188 2.557)" fill="#94be9c"/>
    <path id="Trazado_255138" data-name="Trazado 255138" d="M19.359,10.483A5.242,5.242,0,1,1,24.6,5.242a5.248,5.248,0,0,1-5.242,5.242m0-8.639a3.4,3.4,0,1,0,3.4,3.4,3.4,3.4,0,0,0-3.4-3.4" transform="translate(2.988 0)" fill="#94be9c"/>
    <path id="Trazado_255139" data-name="Trazado 255139" d="M5.242,24.323a5.242,5.242,0,1,1,5.242-5.242,5.248,5.248,0,0,1-5.242,5.242m0-8.639a3.4,3.4,0,1,0,3.4,3.4,3.4,3.4,0,0,0-3.4-3.4" transform="translate(0 2.929)" fill="#94be9c"/>
    <path id="Trazado_255140" data-name="Trazado 255140" d="M16.551,42.215a5.242,5.242,0,1,1,5.242-5.242,5.248,5.248,0,0,1-5.242,5.242m0-8.639a3.4,3.4,0,1,0,3.4,3.4,3.4,3.4,0,0,0-3.4-3.4" transform="translate(2.394 6.716)" fill="#94be9c"/>
    <path id="Trazado_255141" data-name="Trazado 255141" d="M25.238,23.559a.923.923,0,0,1-.868-.609L19.03,8.118a.922.922,0,0,1,1.735-.624l5.341,14.829a.924.924,0,0,1-.555,1.18.939.939,0,0,1-.313.055" transform="translate(4.016 1.457)" fill="#94be9c"/>
    <path id="Trazado_255142" data-name="Trazado 255142" d="M24.505,25.9a.9.9,0,0,1-.286-.046L7.548,20.423a.922.922,0,1,1,.571-1.753L24.79,24.1a.922.922,0,0,1-.285,1.8" transform="translate(1.463 3.941)" fill="#94be9c"/>
    <path id="Trazado_255143" data-name="Trazado 255143" d="M18.6,36.159a.922.922,0,0,1-.7-1.524l5.98-6.925a.922.922,0,0,1,1.395,1.206L19.3,35.839a.921.921,0,0,1-.7.32" transform="translate(3.743 5.797)" fill="#94be9c"/>
  </g>
</svg>
