<svg id="Grupo_877497" data-name="Grupo 877497" xmlns="http://www.w3.org/2000/svg" xmlns:xlink="http://www.w3.org/1999/xlink" width="41.291" height="48.931" viewBox="0 0 41.291 48.931">
  <defs>
    <clipPath id="clip-path">
      <rect id="Rectángulo_291071" data-name="Rectángulo 291071" width="41.291" height="48.93" fill="#94be9c"/>
    </clipPath>
  </defs>
  <g id="Grupo_870282" data-name="Grupo 870282" transform="translate(0 0)" clip-path="url(#clip-path)">
    <path id="Trazado_255156" data-name="Trazado 255156" d="M16.306,47.688H4.971a.85.85,0,0,1-.85-.85V30.068H2.113A2.114,2.114,0,0,1,0,27.955V16.8a6.163,6.163,0,0,1,6.156-6.157H7.663a.85.85,0,1,1,0,1.7H6.156A4.461,4.461,0,0,0,1.7,16.8V27.955a.414.414,0,0,0,.413.413H4.971a.85.85,0,0,1,.85.85v16.77h9.635V29.218a.85.85,0,0,1,.85-.85h2.859a.414.414,0,0,0,.413-.413V16.8a4.461,4.461,0,0,0-4.457-4.457H13.613a.85.85,0,1,1,0-1.7h1.508A6.163,6.163,0,0,1,21.277,16.8V27.955a2.115,2.115,0,0,1-2.113,2.113H17.156v16.77a.85.85,0,0,1-.85.85" transform="translate(0 1.243)" fill="#94be9c"/>
    <path id="Trazado_255157" data-name="Trazado 255157" d="M9.615,45.544a.85.85,0,0,1-.85-.85V29.859a.85.85,0,1,1,1.7,0V44.694a.85.85,0,0,1-.85.85" transform="translate(1.023 3.387)" fill="#94be9c"/>
    <path id="Trazado_255158" data-name="Trazado 255158" d="M4.541,29.193a.85.85,0,0,1-.85-.85V18.983a.85.85,0,0,1,1.7,0v9.361a.85.85,0,0,1-.85.85" transform="translate(0.431 2.117)" fill="#94be9c"/>
    <path id="Trazado_255159" data-name="Trazado 255159" d="M14.69,29.193a.85.85,0,0,1-.85-.85V18.983a.85.85,0,0,1,1.7,0v9.361a.85.85,0,0,1-.85.85" transform="translate(1.616 2.117)" fill="#94be9c"/>
    <path id="Trazado_255160" data-name="Trazado 255160" d="M10.084,10.673a5.336,5.336,0,1,1,5.337-5.336,5.343,5.343,0,0,1-5.337,5.336m0-8.973a3.637,3.637,0,1,0,3.637,3.637A3.641,3.641,0,0,0,10.084,1.7" transform="translate(0.554 0)" fill="#94be9c"/>
    <path id="Trazado_255161" data-name="Trazado 255161" d="M18.677,44.8c-.37,0-.736-.01-1.1-.029a.85.85,0,0,1,.088-1.7q.5.027,1.013.027a19.164,19.164,0,0,0,0-38.328,19.383,19.383,0,0,0-2.715.191.85.85,0,0,1-.24-1.683,21.131,21.131,0,0,1,2.955-.208,20.864,20.864,0,0,1,0,41.727" transform="translate(1.75 0.359)" fill="#94be9c"/>
    <path id="Trazado_255162" data-name="Trazado 255162" d="M18.677,44.8c-.37,0-.736-.01-1.1-.029a.85.85,0,0,1,.088-1.7,19.4,19.4,0,0,0,4.665-.323c3.05-3.524,5.009-10.859,5.009-18.815S25.379,8.65,22.329,5.124a19.405,19.405,0,0,0-6.367-.156.85.85,0,0,1-.24-1.683,21.113,21.113,0,0,1,7.225.23.86.86,0,0,1,.453.258c3.476,3.795,5.636,11.522,5.636,20.166S26.878,40.312,23.4,44.106a.86.86,0,0,1-.453.258,21.036,21.036,0,0,1-4.27.439" transform="translate(1.75 0.36)" fill="#94be9c"/>
    <path id="Trazado_255163" data-name="Trazado 255163" d="M18.381,43.7a.85.85,0,0,1-.85-.85V32.35a.85.85,0,0,1,.85-.85c7.956,0,15.289-1.96,18.815-5.01a19.311,19.311,0,0,0,0-7.3c-3.281-2.839-9.832-4.742-17.208-4.982a.85.85,0,0,1,.056-1.7c7.92.258,15.01,2.408,18.5,5.609a.838.838,0,0,1,.258.452,21,21,0,0,1,0,8.541.841.841,0,0,1-.258.453c-3.67,3.364-11.018,5.493-19.316,5.63v9.661a.85.85,0,0,1-.85.85" transform="translate(2.047 1.46)" fill="#94be9c"/>
    <path id="Trazado_255164" data-name="Trazado 255164" d="M18.381,12.1a.85.85,0,0,1-.85-.85V3.926a.85.85,0,0,1,1.7,0v7.325a.85.85,0,0,1-.85.85" transform="translate(2.047 0.359)" fill="#94be9c"/>
    <path id="Trazado_255165" data-name="Trazado 255165" d="M38.1,22.7H20.858a.85.85,0,0,1,0-1.7H38.1a.85.85,0,0,1,0,1.7" transform="translate(2.336 2.452)" fill="#94be9c"/>
    <path id="Trazado_255166" data-name="Trazado 255166" d="M9.616,24.932a.85.85,0,0,1-.85-.85V15.39a.85.85,0,0,1,1.7,0v8.693a.85.85,0,0,1-.85.85" transform="translate(1.023 1.698)" fill="#94be9c"/>
    <path id="Trazado_255167" data-name="Trazado 255167" d="M35.779,43.993H1.642a.85.85,0,1,1,0-1.7H35.779a.85.85,0,1,1,0,1.7" transform="translate(0.092 4.938)" fill="#94be9c"/>
  </g>
</svg>
