<svg id="Grupo_877505" data-name="Grupo 877505" xmlns="http://www.w3.org/2000/svg" xmlns:xlink="http://www.w3.org/1999/xlink" width="37.72" height="48.93" viewBox="0 0 37.72 48.93">
  <defs>
    <clipPath id="clip-path">
      <rect id="Rectángulo_291067" data-name="Rectángulo 291067" width="37.72" height="48.93" fill="#94be9c"/>
    </clipPath>
  </defs>
  <g id="Grupo_870273" data-name="Grupo 870273" transform="translate(0 0)" clip-path="url(#clip-path)">
    <path id="Trazado_255097" data-name="Trazado 255097" d="M22.317,48.822H4.269a.856.856,0,0,1-.757-1.254,21.074,21.074,0,0,0,1.843-5.46A23.736,23.736,0,0,0,2.643,25.889,16.919,16.919,0,0,1,.574,16.784a16.473,16.473,0,0,1,.268-2.206.856.856,0,0,1,1.682.318A15.248,15.248,0,0,0,4.142,25.063,25.448,25.448,0,0,1,7.031,42.456,24.963,24.963,0,0,1,5.62,47.11H21.461v-6.4a.856.856,0,0,1,.856-.856h3.311a6,6,0,0,0,5.992-5.992V27.207a.856.856,0,0,1,.856-.856h3.092a.372.372,0,0,0,.31-.577c-.016-.024-.029-.047-.043-.072l-2.113-4.019a8.437,8.437,0,0,1-.954-3.925A15.24,15.24,0,0,0,19.245,2.574a.856.856,0,0,1,.191-1.7,16.945,16.945,0,0,1,15.046,16.86,6.748,6.748,0,0,0,.757,3.154l2.1,3.987a2.083,2.083,0,0,1-1.766,3.19H33.332v5.8a7.713,7.713,0,0,1-7.7,7.7H23.173v6.4a.856.856,0,0,1-.856.856" transform="translate(0.068 0.109)" fill="#94be9c"/>
    <path id="Trazado_255098" data-name="Trazado 255098" d="M23.355,37.241H16.05a.856.856,0,1,1,0-1.712h7.305a.856.856,0,1,1,0,1.712" transform="translate(1.898 4.438)" fill="#94be9c"/>
    <path id="Trazado_255099" data-name="Trazado 255099" d="M18.936,26.817h-4.4a.856.856,0,0,1-.856-.856V24.175l-1.263,1.263a.856.856,0,0,1-1.21,0L8.1,22.329a.856.856,0,0,1,0-1.21l1.263-1.262H7.578A.856.856,0,0,1,6.722,19V14.6a.856.856,0,0,1,.856-.856H9.364L8.1,12.485a.858.858,0,0,1,0-1.212L11.21,8.165a.856.856,0,0,1,1.21,0l1.263,1.263V7.642a.856.856,0,0,1,.856-.856h4.4a.855.855,0,0,1,.856.856V9.427l1.263-1.262a.856.856,0,0,1,1.21,0l3.109,3.108a.857.857,0,0,1,0,1.212l-1.263,1.262H25.9a.856.856,0,0,1,.856.856V19a.856.856,0,0,1-.856.856H24.112l1.263,1.262a.855.855,0,0,1,0,1.21l-3.109,3.109a.856.856,0,0,1-1.21,0l-1.263-1.262v1.785a.856.856,0,0,1-.856.856M15.4,25.105H18.08V24.016a1.508,1.508,0,0,1,.949-1.411l.183-.076a1.5,1.5,0,0,1,1.676.322l.772.772,1.9-1.9-.771-.771a1.508,1.508,0,0,1-.322-1.678c.026-.06.052-.12.075-.181a1.509,1.509,0,0,1,1.411-.949h1.09V15.459h-1.09a1.507,1.507,0,0,1-1.41-.949c-.025-.061-.051-.121-.076-.181a1.508,1.508,0,0,1,.322-1.678l.771-.771-1.9-1.9-.772.772a1.508,1.508,0,0,1-1.678.322c-.061-.027-.121-.053-.182-.076a1.509,1.509,0,0,1-.948-1.411V8.5H15.4V9.587A1.508,1.508,0,0,1,14.447,11l-.182.076a1.509,1.509,0,0,1-1.677-.322l-.772-.772-1.9,1.9.771.771a1.506,1.506,0,0,1,.322,1.678c-.026.06-.051.12-.075.181a1.508,1.508,0,0,1-1.411.949H8.435v2.685H9.524a1.508,1.508,0,0,1,1.411.949c.025.061.049.121.075.18a1.507,1.507,0,0,1-.322,1.679l-.771.771,1.9,1.9.772-.772a1.5,1.5,0,0,1,1.679-.321c.057.025.118.051.179.074a1.51,1.51,0,0,1,.951,1.412Z" transform="translate(0.84 0.848)" fill="#94be9c"/>
    <path id="Trazado_255100" data-name="Trazado 255100" d="M16.185,21.281a5.033,5.033,0,1,1,5.034-5.033,5.038,5.038,0,0,1-5.034,5.033m0-8.354a3.321,3.321,0,1,0,3.321,3.321,3.324,3.324,0,0,0-3.321-3.321" transform="translate(1.393 1.401)" fill="#94be9c"/>
    <path id="Trazado_255101" data-name="Trazado 255101" d="M5.2,15.5a.852.852,0,0,1-.605-.251L2.845,13.494a.855.855,0,0,1,0-1.21l.866-.866H2.486a.856.856,0,0,1-.856-.856V6.8a.856.856,0,0,1,.856-.856H3.711l-.866-.866a.857.857,0,0,1,0-1.212L5.5,1.215a.855.855,0,0,1,1.21,0l.866.866V.856A.856.856,0,0,1,8.435,0h3.757a.856.856,0,0,1,.856.856V2.081l.866-.866a.858.858,0,0,1,1.212,0l2.656,2.656a.855.855,0,0,1,0,1.212L16.7,6.164a.856.856,0,1,1-1.21-1.21l.477-.477L14.519,3.031,14,3.555a1.573,1.573,0,0,1-2.66-1.1v-.74H9.291v.74a1.573,1.573,0,0,1-2.66,1.1l-.523-.524L4.661,4.477,5.185,5a1.572,1.572,0,0,1-1.1,2.66h-.74V9.706h.74a1.572,1.572,0,0,1,1.1,2.66l-.523.523,1.149,1.149A.856.856,0,0,1,5.2,15.5" transform="translate(0.204 0)" fill="#94be9c"/>
    <path id="Trazado_255102" data-name="Trazado 255102" d="M6.711,10.782a.859.859,0,0,1-.753-.444,4.426,4.426,0,0,1,7.267-4.979.856.856,0,1,1-1.309,1.1A2.714,2.714,0,0,0,7.46,9.514a.857.857,0,0,1-.34,1.162.845.845,0,0,1-.409.106" transform="translate(0.676 0.473)" fill="#94be9c"/>
    <path id="Trazado_255103" data-name="Trazado 255103" d="M32.64,43.687H.856a.856.856,0,0,1,0-1.712H32.64a.856.856,0,0,1,0,1.712" transform="translate(0 5.243)" fill="#94be9c"/>
  </g>
</svg>
