<svg xmlns="http://www.w3.org/2000/svg" xmlns:xlink="http://www.w3.org/1999/xlink" width="65" height="65" viewBox="0 0 65 65">
  <defs>
    <clipPath id="clip-path">
      <rect id="Rectángulo_291068" data-name="Rectángulo 291068" width="42.194" height="47.334" fill="#12263f"/>
    </clipPath>
  </defs>
  <g id="Grupo_1072215" data-name="Grupo 1072215" transform="translate(-527 -6967)">
    <circle id="Elipse_4750" data-name="Elipse 4750" cx="32.5" cy="32.5" r="32.5" transform="translate(527 6967)" fill="#eba325"/>
    <g id="Grupo_877500" data-name="Grupo 877500" transform="translate(537.806 6974.667)">
      <g id="Grupo_870275" data-name="Grupo 870275" transform="translate(0 0)" clip-path="url(#clip-path)">
        <path id="Trazado_255104" data-name="Trazado 255104" d="M23.583,20.158h-7a.819.819,0,0,1-.82-.82V18.111a2.286,2.286,0,0,0-.668-1.572,6.835,6.835,0,0,1-1.907-5.172,6.959,6.959,0,0,1,6.616-6.5,6.9,6.9,0,0,1,5.263,11.677,2.273,2.273,0,0,0-.663,1.567v1.227a.819.819,0,0,1-.82.82M17.4,18.519h5.362v-.407a3.9,3.9,0,0,1,1.12-2.7,5.265,5.265,0,0,0-4.016-8.9,5.3,5.3,0,0,0-5.044,4.954A5.218,5.218,0,0,0,16.277,15.4,3.916,3.916,0,0,1,17.4,18.111Z" transform="translate(1.015 0.374)" fill="#12263f"/>
        <path id="Trazado_255105" data-name="Trazado 255105" d="M23.151,24.732H16.8a2.207,2.207,0,0,1-1.716-3.6,2.207,2.207,0,0,1,1.716-3.6h6.355a2.207,2.207,0,0,1,1.716,3.6,2.207,2.207,0,0,1-1.716,3.6M16.8,21.957a.568.568,0,0,0,0,1.136h6.355a.568.568,0,0,0,0-1.136.82.82,0,0,1,0-1.639.568.568,0,0,0,0-1.136H16.8a.568.568,0,0,0,0,1.136.82.82,0,1,1,0,1.639" transform="translate(1.124 1.351)" fill="#12263f"/>
        <path id="Trazado_255106" data-name="Trazado 255106" d="M19.832,33.19a3.411,3.411,0,1,1,3.411-3.411,3.415,3.415,0,0,1-3.411,3.411m0-5.183A1.772,1.772,0,1,0,21.6,29.779a1.774,1.774,0,0,0-1.772-1.772" transform="translate(1.265 2.031)" fill="#12263f"/>
        <path id="Trazado_255107" data-name="Trazado 255107" d="M25.851,39.2H14.271a.82.82,0,0,1-.82-.82V37.366a6.638,6.638,0,0,1,5.224-6.461.809.809,0,0,1,.558.079,1.687,1.687,0,0,0,1.656,0,.809.809,0,0,1,.558-.079,6.638,6.638,0,0,1,5.224,6.461v1.012a.82.82,0,0,1-.82.82M15.09,37.559h9.941v-.193a4.994,4.994,0,0,0-3.665-4.795,3.3,3.3,0,0,1-2.611,0,4.994,4.994,0,0,0-3.665,4.795Z" transform="translate(1.036 2.379)" fill="#12263f"/>
        <path id="Trazado_255108" data-name="Trazado 255108" d="M33.284,22.871a3.411,3.411,0,1,1,3.411-3.411,3.414,3.414,0,0,1-3.411,3.411m0-5.183a1.772,1.772,0,1,0,1.772,1.772,1.774,1.774,0,0,0-1.772-1.772" transform="translate(2.301 1.236)" fill="#12263f"/>
        <path id="Trazado_255109" data-name="Trazado 255109" d="M39.3,28.879H27.723a.82.82,0,0,1-.82-.82V27.047a6.638,6.638,0,0,1,5.224-6.461.81.81,0,0,1,.558.079,1.685,1.685,0,0,0,1.655,0,.818.818,0,0,1,.559-.079,6.638,6.638,0,0,1,5.224,6.461V28.06a.82.82,0,0,1-.82.82M28.542,27.24h9.941v-.193a5,5,0,0,0-3.666-4.795,3.3,3.3,0,0,1-2.61,0,4.994,4.994,0,0,0-3.665,4.795Z" transform="translate(2.072 1.584)" fill="#12263f"/>
        <path id="Trazado_255110" data-name="Trazado 255110" d="M6.381,22.871A3.411,3.411,0,1,1,9.792,19.46a3.415,3.415,0,0,1-3.411,3.411m0-5.183A1.772,1.772,0,1,0,8.153,19.46a1.774,1.774,0,0,0-1.772-1.772" transform="translate(0.229 1.236)" fill="#12263f"/>
        <path id="Trazado_255111" data-name="Trazado 255111" d="M12.4,28.879H.82A.82.82,0,0,1,0,28.06V27.047a6.638,6.638,0,0,1,5.224-6.461.809.809,0,0,1,.558.079,1.685,1.685,0,0,0,1.655,0A.818.818,0,0,1,8,20.586a6.638,6.638,0,0,1,5.224,6.461V28.06a.82.82,0,0,1-.82.82M1.639,27.24H11.58v-.193a5,5,0,0,0-3.666-4.795,3.3,3.3,0,0,1-2.61,0,4.994,4.994,0,0,0-3.665,4.795Z" transform="translate(0 1.584)" fill="#12263f"/>
        <path id="Trazado_255112" data-name="Trazado 255112" d="M19.647,44.478a.82.82,0,0,1-.82-.82V37.9a.82.82,0,0,1,1.639,0v5.757a.82.82,0,0,1-.82.82" transform="translate(1.45 2.856)" fill="#12263f"/>
        <path id="Trazado_255113" data-name="Trazado 255113" d="M36.342,44.843H5.182a.819.819,0,0,1-.82-.82V33.163a.82.82,0,1,1,1.639,0V43.2H35.522V33.641a.82.82,0,0,1,1.639,0V44.023a.82.82,0,0,1-.82.82" transform="translate(0.336 2.491)" fill="#12263f"/>
        <path id="Trazado_255114" data-name="Trazado 255114" d="M19.647,4.053a.82.82,0,0,1-.82-.82V.82a.82.82,0,0,1,1.639,0V3.233a.82.82,0,0,1-.82.82" transform="translate(1.45 0)" fill="#12263f"/>
        <path id="Trazado_255115" data-name="Trazado 255115" d="M19.647,4.053a.82.82,0,0,1-.82-.82V.82a.82.82,0,0,1,1.639,0V3.233a.82.82,0,0,1-.82.82" transform="translate(1.45 0)" fill="#12263f"/>
        <path id="Trazado_255116" data-name="Trazado 255116" d="M23.8,5.144a.819.819,0,0,1-.709-1.23L24.3,1.823a.82.82,0,0,1,1.42.82l-1.206,2.09a.82.82,0,0,1-.711.41" transform="translate(1.77 0.109)" fill="#12263f"/>
        <path id="Trazado_255117" data-name="Trazado 255117" d="M23.8,5.144a.819.819,0,0,1-.709-1.23L24.3,1.823a.82.82,0,0,1,1.42.82l-1.206,2.09a.82.82,0,0,1-.711.41" transform="translate(1.77 0.109)" fill="#12263f"/>
        <path id="Trazado_255118" data-name="Trazado 255118" d="M26.846,8.123a.82.82,0,0,1-.41-1.529l2.089-1.207a.82.82,0,1,1,.82,1.42L27.255,8.013a.819.819,0,0,1-.409.11" transform="translate(2.004 0.406)" fill="#12263f"/>
        <path id="Trazado_255119" data-name="Trazado 255119" d="M26.846,8.123a.82.82,0,0,1-.41-1.529l2.089-1.207a.82.82,0,1,1,.82,1.42L27.255,8.013a.819.819,0,0,1-.409.11" transform="translate(2.004 0.406)" fill="#12263f"/>
        <path id="Trazado_255120" data-name="Trazado 255120" d="M30.372,12.191H27.959a.82.82,0,1,1,0-1.639h2.414a.82.82,0,1,1,0,1.639" transform="translate(2.09 0.813)" fill="#12263f"/>
        <path id="Trazado_255121" data-name="Trazado 255121" d="M30.372,12.191H27.959a.82.82,0,1,1,0-1.639h2.414a.82.82,0,1,1,0,1.639" transform="translate(2.09 0.813)" fill="#12263f"/>
        <path id="Trazado_255122" data-name="Trazado 255122" d="M28.934,17.555a.819.819,0,0,1-.409-.11l-2.089-1.207a.82.82,0,1,1,.82-1.42l2.089,1.207a.82.82,0,0,1-.41,1.529" transform="translate(2.004 1.133)" fill="#12263f"/>
        <path id="Trazado_255123" data-name="Trazado 255123" d="M28.934,17.555a.819.819,0,0,1-.409-.11l-2.089-1.207a.82.82,0,1,1,.82-1.42l2.089,1.207a.82.82,0,0,1-.41,1.529" transform="translate(2.004 1.133)" fill="#12263f"/>
        <path id="Trazado_255124" data-name="Trazado 255124" d="M19.609,4.053a.82.82,0,0,1-.82-.82V.82a.82.82,0,0,1,1.639,0V3.233a.82.82,0,0,1-.82.82" transform="translate(1.447 0)" fill="#12263f"/>
        <path id="Trazado_255125" data-name="Trazado 255125" d="M15.54,5.144a.818.818,0,0,1-.711-.41l-1.206-2.09a.82.82,0,0,1,1.42-.82l1.206,2.09a.819.819,0,0,1-.709,1.23" transform="translate(1.041 0.109)" fill="#12263f"/>
        <path id="Trazado_255126" data-name="Trazado 255126" d="M15.54,5.144a.818.818,0,0,1-.711-.41l-1.206-2.09a.82.82,0,0,1,1.42-.82l1.206,2.09a.819.819,0,0,1-.709,1.23" transform="translate(1.041 0.109)" fill="#12263f"/>
        <path id="Trazado_255127" data-name="Trazado 255127" d="M12.56,8.123a.819.819,0,0,1-.409-.11L10.061,6.805a.82.82,0,1,1,.82-1.42L12.97,6.593a.82.82,0,0,1-.41,1.529" transform="translate(0.743 0.406)" fill="#12263f"/>
        <path id="Trazado_255128" data-name="Trazado 255128" d="M12.56,8.123a.819.819,0,0,1-.409-.11L10.061,6.805a.82.82,0,1,1,.82-1.42L12.97,6.593a.82.82,0,0,1-.41,1.529" transform="translate(0.743 0.406)" fill="#12263f"/>
        <path id="Trazado_255129" data-name="Trazado 255129" d="M11.47,12.191H9.057a.82.82,0,0,1,0-1.639H11.47a.82.82,0,0,1,0,1.639" transform="translate(0.634 0.813)" fill="#12263f"/>
        <path id="Trazado_255130" data-name="Trazado 255130" d="M11.47,12.191H9.057a.82.82,0,0,1,0-1.639H11.47a.82.82,0,0,1,0,1.639" transform="translate(0.634 0.813)" fill="#12263f"/>
        <path id="Trazado_255131" data-name="Trazado 255131" d="M10.472,17.555a.82.82,0,0,1-.411-1.529l2.09-1.207a.82.82,0,1,1,.82,1.42l-2.09,1.207a.816.816,0,0,1-.408.11" transform="translate(0.743 1.133)" fill="#12263f"/>
        <path id="Trazado_255132" data-name="Trazado 255132" d="M10.472,17.555a.82.82,0,0,1-.411-1.529l2.09-1.207a.82.82,0,1,1,.82,1.42l-2.09,1.207a.816.816,0,0,1-.408.11" transform="translate(0.743 1.133)" fill="#12263f"/>
      </g>
    </g>
  </g>
</svg>
