<svg xmlns="http://www.w3.org/2000/svg" xmlns:xlink="http://www.w3.org/1999/xlink" width="65" height="65" viewBox="0 0 65 65">
  <defs>
    <clipPath id="clip-path">
      <rect id="Rectángulo_291069" data-name="Rectángulo 291069" width="46.13" height="45.179" fill="#12263f"/>
    </clipPath>
  </defs>
  <g id="Grupo_1072214" data-name="Grupo 1072214" transform="translate(-770 -6967)">
    <circle id="Elipse_4751" data-name="Elipse 4751" cx="32.5" cy="32.5" r="32.5" transform="translate(770 6967)" fill="#eba325"/>
    <g id="Grupo_877499" data-name="Grupo 877499" transform="translate(778.8 6974.751)">
      <g id="Grupo_870277" data-name="Grupo 870277" transform="translate(0 0)" clip-path="url(#clip-path)">
        <path id="Trazado_255133" data-name="Trazado 255133" d="M26.947,31.217a6.3,6.3,0,1,1,6.3-6.3,6.3,6.3,0,0,1-6.3,6.3m0-10.889A4.593,4.593,0,1,0,31.54,24.92a4.6,4.6,0,0,0-4.593-4.593" transform="translate(2.453 2.212)" fill="#12263f"/>
        <path id="Trazado_255134" data-name="Trazado 255134" d="M26.945,42.271a16.669,16.669,0,0,1-5.712-1,.851.851,0,1,1,.581-1.6,15.029,15.029,0,0,0,15.7-24.811.852.852,0,1,1,1.2-1.211A16.729,16.729,0,0,1,26.945,42.271" transform="translate(2.455 1.591)" fill="#12263f"/>
        <path id="Trazado_255135" data-name="Trazado 255135" d="M23.466,11.331a.851.851,0,0,1-.172-1.685,16.658,16.658,0,0,1,2.37-.318.851.851,0,0,1,.106,1.7,14.889,14.889,0,0,0-2.129.285.848.848,0,0,1-.175.018" transform="translate(2.686 1.107)" fill="#12263f"/>
        <path id="Trazado_255136" data-name="Trazado 255136" d="M32.322,12.25a.864.864,0,0,1-.335-.068,14.959,14.959,0,0,0-3.353-.989.851.851,0,1,1,.288-1.678,16.619,16.619,0,0,1,3.734,1.1.851.851,0,0,1-.335,1.635" transform="translate(3.317 1.128)" fill="#12263f"/>
        <path id="Trazado_255137" data-name="Trazado 255137" d="M36.534,15.262a.847.847,0,0,1-.6-.246,15.147,15.147,0,0,0-1.63-1.4A.852.852,0,0,1,35.32,12.25,16.9,16.9,0,0,1,37.133,13.8a.851.851,0,0,1-.6,1.457" transform="translate(4.034 1.434)" fill="#12263f"/>
        <path id="Trazado_255138" data-name="Trazado 255138" d="M18.957,9.68A4.84,4.84,0,1,1,23.8,4.84a4.846,4.846,0,0,1-4.84,4.84m0-7.977A3.137,3.137,0,1,0,22.094,4.84,3.141,3.141,0,0,0,18.957,1.7" transform="translate(1.677 0)" fill="#12263f"/>
        <path id="Trazado_255139" data-name="Trazado 255139" d="M4.84,23.52a4.84,4.84,0,1,1,4.84-4.84,4.846,4.846,0,0,1-4.84,4.84m0-7.977A3.137,3.137,0,1,0,7.977,18.68,3.141,3.141,0,0,0,4.84,15.543" transform="translate(0 1.643)" fill="#12263f"/>
        <path id="Trazado_255140" data-name="Trazado 255140" d="M16.149,41.412a4.84,4.84,0,1,1,4.84-4.84,4.846,4.846,0,0,1-4.84,4.84m0-7.977a3.137,3.137,0,1,0,3.137,3.137,3.141,3.141,0,0,0-3.137-3.137" transform="translate(1.343 3.768)" fill="#12263f"/>
        <path id="Trazado_255141" data-name="Trazado 255141" d="M24.758,22.28a.852.852,0,0,1-.8-.563L19.025,8.024a.851.851,0,0,1,1.6-.576L25.559,21.14a.853.853,0,0,1-.512,1.09.867.867,0,0,1-.289.05" transform="translate(2.254 0.817)" fill="#12263f"/>
        <path id="Trazado_255142" data-name="Trazado 255142" d="M23.157,25.341a.835.835,0,0,1-.264-.043L7.5,20.285a.851.851,0,1,1,.527-1.619L23.419,23.68a.852.852,0,0,1-.263,1.661" transform="translate(0.821 2.212)" fill="#12263f"/>
        <path id="Trazado_255143" data-name="Trazado 255143" d="M18.533,35.486a.851.851,0,0,1-.644-1.407l5.521-6.394A.851.851,0,0,1,24.7,28.8l-5.52,6.393a.85.85,0,0,1-.644.3" transform="translate(2.1 3.253)" fill="#12263f"/>
      </g>
    </g>
  </g>
</svg>
