<svg xmlns="http://www.w3.org/2000/svg" xmlns:xlink="http://www.w3.org/1999/xlink" width="74.656" height="98.683" viewBox="0 0 74.656 98.683"><defs><clipPath id="a"><rect width="74.656" height="98.683" fill="none"/></clipPath></defs><g transform="translate(0 0)" clip-path="url(#a)"><path d="M72.876,98.683a1.78,1.78,0,0,0,1.78-1.78V19.719a1.735,1.735,0,0,0-.509-1.227L56.164.509A1.735,1.735,0,0,0,54.936,0H1.78A1.78,1.78,0,0,0,0,1.78V96.9a1.78,1.78,0,0,0,1.78,1.78Z" transform="translate(0 0)" fill="#e8edf0"/><path d="M63.35,0V14.73A4.27,4.27,0,0,0,67.621,19h14.73Z" transform="translate(-7.695 0)" fill="#cfdbe6"/><path d="M0,80.816v25.9a1.78,1.78,0,0,0,1.78,1.78h71.1a1.78,1.78,0,0,0,1.78-1.78v-25.9Z" transform="translate(0 -9.817)" fill="#fc2132"/><path d="M20.768,98.425v6.251H17.113V86.936h6.92a8.015,8.015,0,0,1,3.514.731,5.384,5.384,0,0,1,2.333,2.077,5.79,5.79,0,0,1,.816,3.064,5.093,5.093,0,0,1-1.785,4.112,7.436,7.436,0,0,1-4.939,1.5Zm0-2.961h3.265a3.211,3.211,0,0,0,2.211-.682,2.482,2.482,0,0,0,.762-1.949,2.926,2.926,0,0,0-.768-2.108,2.868,2.868,0,0,0-2.121-.828h-3.35Z" transform="translate(-2.079 -10.56)" fill="#fff"/><path d="M35.432,104.675V86.936H40.89a8.282,8.282,0,0,1,4.184,1.054,7.343,7.343,0,0,1,2.882,3A9.25,9.25,0,0,1,48.992,95.4v.816a9.283,9.283,0,0,1-1.017,4.4A7.285,7.285,0,0,1,45.1,103.6a8.343,8.343,0,0,1-4.178,1.073ZM39.087,89.9v11.842h1.767a3.967,3.967,0,0,0,3.277-1.4,6.333,6.333,0,0,0,1.157-4.007v-.939a6.433,6.433,0,0,0-1.12-4.1,3.957,3.957,0,0,0-3.277-1.4Z" transform="translate(-4.304 -10.56)" fill="#fff"/><path d="M64.562,97.426H57.545v7.25H53.89V86.935H65.44V89.9H57.545v4.58h7.017Z" transform="translate(-6.546 -10.56)" fill="#fff"/><path d="M19.832,64.091A4.3,4.3,0,0,1,16.2,62.336a4.681,4.681,0,0,1-.3-4.489,9.047,9.047,0,0,1,2.408-3.07,35.5,35.5,0,0,1,11.949-6.563,70.983,70.983,0,0,0,5.79-14.129A31.51,31.51,0,0,1,32.57,21.526a7.556,7.556,0,0,1,.622-3.607,3.966,3.966,0,0,1,3.684-2.3A4.011,4.011,0,0,1,40.2,18.237a8.349,8.349,0,0,1,.438,3.463,53.822,53.822,0,0,1-1.172,9.666q-.26,1.216-.585,2.452.463.925.93,1.807a42.726,42.726,0,0,0,5.4,8.261,38.885,38.885,0,0,1,11.444-.7,9.219,9.219,0,0,1,3.967,1.141,4.6,4.6,0,0,1,2.311,4.189A4.491,4.491,0,0,1,60.425,52a7.476,7.476,0,0,1-3.685.713,18.132,18.132,0,0,1-11.928-5.393c-.177-.17-.354-.344-.526-.519-3.046.678-6.053,1.592-8.979,2.527-1.078.344-2.147.693-3.2,1.058a90.088,90.088,0,0,1-6.059,9.532,10.539,10.539,0,0,1-3.9,3.67,5.547,5.547,0,0,1-2.316.5m8.35-12.217a28.824,28.824,0,0,0-8.1,4.891,6.492,6.492,0,0,0-1.732,2.13,2.055,2.055,0,0,0,.038,1.917,2.243,2.243,0,0,0,2.637.362,8.363,8.363,0,0,0,2.872-2.823c1.537-2.117,2.971-4.284,4.287-6.477M47.521,46.18A15.052,15.052,0,0,0,56.8,50.052a5.112,5.112,0,0,0,2.414-.421,1.874,1.874,0,0,0,1.067-1.35,2,2,0,0,0-1.054-1.686,6.777,6.777,0,0,0-2.841-.759,34.419,34.419,0,0,0-8.86.344m-9.732-8.686a74.412,74.412,0,0,1-3.914,9.5l.622-.2c2.54-.812,5.141-1.608,7.786-2.257a46.9,46.9,0,0,1-4.495-7.041M36.66,18.271a1.408,1.408,0,0,0-1.086.838,5.093,5.093,0,0,0-.344,2.342,25.162,25.162,0,0,0,1.841,8.316,51.151,51.151,0,0,0,.9-8.147,6.08,6.08,0,0,0-.247-2.391,1.432,1.432,0,0,0-1.03-.957l-.039,0" transform="translate(-1.879 -1.896)" fill="#fc2132"/><rect width="74.656" height="0.585" transform="translate(0 70.414)" fill="#f8f9fa"/></g></svg>