<svg id="Grupo_1072049" data-name="Grupo 1072049" xmlns="http://www.w3.org/2000/svg" xmlns:xlink="http://www.w3.org/1999/xlink" width="86.322" height="85.8" viewBox="0 0 86.322 85.8">
  <defs>
    <clipPath id="clip-path">
      <rect id="Rectángulo_295751" data-name="Rectángulo 295751" width="86.322" height="85.8" fill="#fff"/>
    </clipPath>
  </defs>
  <g id="Grupo_875510" data-name="Grupo 875510">
    <path id="Trazado_262835" data-name="Trazado 262835" d="M39.93,98.419v26.724H50.413V93.84l-1.918-1.347Z" transform="translate(-26.082 -60.416)" fill="#fff"/>
    <path id="Trazado_262836" data-name="Trazado 262836" d="M82.9,103.777l-1.868-1.145-2.82-1.982v29.343H88.69V99.919L84.832,102.6Z" transform="translate(-51.086 -65.267)" fill="#fff"/>
    <path id="Trazado_262837" data-name="Trazado 262837" d="M116.475,112.654h10.482V73.374l-10.482,7.272Z" transform="translate(-76.081 -47.928)" fill="#fff"/>
    <path id="Trazado_262838" data-name="Trazado 262838" d="M154.747,54.095V95.31h10.485V46.822Z" transform="translate(-101.08 -30.584)" fill="#fff"/>
    <path id="Trazado_262839" data-name="Trazado 262839" d="M88.81.9l1.914,2.769L56.638,27.316l-8.231-5.784-1.125-.8-1.2.8L39.93,25.783V30.72l7.3-5.051,8.233,5.783,1.164.713,1.159-.705L93.031,7.009l2.107,3.049L99.9,0Z" transform="translate(-26.082)" fill="#fff"/>
    <path id="Trazado_262840" data-name="Trazado 262840" d="M0,10.391V84.149H81.844V77.381H6.768V10.391Z" transform="translate(0 -6.787)" fill="#fff"/>
  </g>
</svg>
