<svg xmlns="http://www.w3.org/2000/svg" xmlns:xlink="http://www.w3.org/1999/xlink" width="190" height="162" viewBox="0 0 190 162">
  <defs>
    <clipPath id="clip-path">
      <rect id="Rect치ngulo_295759" data-name="Rect치ngulo 295759" width="190" height="162" transform="translate(180 505)" fill="#fff" stroke="#707070" stroke-width="1"/>
    </clipPath>
    <clipPath id="clip-path-2">
      <rect id="Rect치ngulo_294475" data-name="Rect치ngulo 294475" width="189.801" height="193.785" fill="none"/>
    </clipPath>
  </defs>
  <g id="Enmascarar_grupo_154275" data-name="Enmascarar grupo 154275" transform="translate(-180 -505)" clip-path="url(#clip-path)">
    <g id="Grupo_872057" data-name="Grupo 872057" transform="translate(180.199 505.414)">
      <g id="Grupo_872057-2" data-name="Grupo 872057" clip-path="url(#clip-path-2)">
        <path id="Trazado_260165" data-name="Trazado 260165" d="M183.325,187.428c-8.792.207-39.158.724-64.755.724-24.6,0-94.9,7.375-107.225-34.813C-.7,112.1-16,25.084,41.154,8.846c48.921-13.9,144.5-6.624,148.12,54,1.967,32.978-3.06,118.753-3.37,121.1s-.933,3.442-2.579,3.482" transform="translate(0 -1.97)" fill="#35b0c1"/>
        <path id="Trazado_260166" data-name="Trazado 260166" d="M31.222,33.353a4.6,4.6,0,0,1,2.287-4.067c.73-.414,4.252-2.74,5.173-2.677L155.433,40.67a5.313,5.313,0,0,1,4.8,5.293l-1.657,119.9c0,1.862.16,13.77,1.178,17.163-.785.22-12.783,7.126-13.63,7.067l-106.1,5.382H36.239a5.533,5.533,0,0,1-5.017-5.319Z" transform="translate(-21.56 -18.374)" fill="#177e9d"/>
        <path id="Trazado_260167" data-name="Trazado 260167" d="M44.814,31.377a4.444,4.444,0,0,1,4.7-4.625l115.233,8.2a5.273,5.273,0,0,1,4.7,5.293l1.408,150.069a4.444,4.444,0,0,1-4.7,4.624l-116.64.631a5.275,5.275,0,0,1-4.7-5.293Z" transform="translate(-30.946 -18.466)" fill="#fff"/>
        <path id="Trazado_260168" data-name="Trazado 260168" d="M203.932,10.452c.687-4.179,2.735-8.972-7.089-10.112C196.561.307,193.06.128,192.761.1c-10.074-.888-8.767,4.208-8.573,9.347.007.18-.365.431-.7.4s-18.665-1.268-18.665-1.268l.013,7.393c0,3.732,2.757,6.883,7.99,7.483l43.589,3c4.3.237,7.424-1.683,7.318-6.224l-.071-7.657s-18.9-1.283-19.171-1.3a.636.636,0,0,1-.555-.827" transform="translate(-113.813 0)" fill="#177e9d"/>
        <path id="Trazado_260169" data-name="Trazado 260169" d="M232.038,52.492l-.047,0-45.435-3.116a.616.616,0,0,1-.573-.659.625.625,0,0,1,.667-.575l45.434,3.116a.615.615,0,0,1,.573.659.625.625,0,0,1-.618.576" transform="translate(-128.426 -33.242)" fill="#95dbe2"/>
        <path id="Trazado_260170" data-name="Trazado 260170" d="M191.65,188.962a1.559,1.559,0,0,1,1.45,1.526l.011,1.706a1.34,1.34,0,0,1-1.432,1.364l-88.844-4.785a1.666,1.666,0,0,1-1.593-1.605v-1.794a1.453,1.453,0,0,1,1.592-1.425Z" transform="translate(-69.91 -127.021)" fill="#9fd7e0"/>
        <path id="Trazado_260171" data-name="Trazado 260171" d="M102.089,489.39a1.553,1.553,0,0,0-1.6,1.521v1.816a1.585,1.585,0,0,0,1.6,1.549l94.762.685a1.432,1.432,0,0,0,1.44-1.451l-.01-1.726a1.484,1.484,0,0,0-1.459-1.474Z" transform="translate(-69.39 -337.94)" fill="#9fd7e0"/>
        <path id="Trazado_260172" data-name="Trazado 260172" d="M160.095,104.307a1.624,1.624,0,0,1,1.5,1.573l.068,17.645a1.376,1.376,0,0,1-1.494,1.38l-55.639-3.343a1.673,1.673,0,0,1-1.592-1.611V101.77a1.427,1.427,0,0,1,1.588-1.4Z" transform="translate(-71.083 -69.306)" fill="#9fd7e0"/>
        <path id="Trazado_260173" data-name="Trazado 260173" d="M197.459,218.116h-.023l-95.263-4.967a.431.431,0,1,1,.045-.861l95.263,4.967a.431.431,0,0,1-.022.862" transform="translate(-70.272 -146.591)" fill="#9fd7e0"/>
        <path id="Trazado_260174" data-name="Trazado 260174" d="M179.213,234.215a1.771,1.771,0,0,0-1.913,1.753l.028,18.061a1.985,1.985,0,0,0,1.921,1.93l69.3,2.719a1.69,1.69,0,0,0,1.771-1.716l-.11-17.387a1.906,1.906,0,0,0-1.79-1.871Z" transform="translate(-122.431 -161.732)" fill="#9fd7e0"/>
        <path id="Trazado_260175" data-name="Trazado 260175" d="M116.866,245.614h0l-.1,0-15.031-.644a2.276,2.276,0,0,1-2.2-2.206v-11.2a2.051,2.051,0,0,1,2.222-2.02l15.016.757a2.27,2.27,0,0,1,2.167,2.2l.013,11.09a1.98,1.98,0,0,1-.582,1.411,2.11,2.11,0,0,1-1.506.612M101.64,230.036a1.556,1.556,0,0,0-1.611,1.53v11.2a1.779,1.779,0,0,0,1.729,1.714l15.03.644a.706.706,0,0,0,.077,0,1.616,1.616,0,0,0,1.157-.468,1.487,1.487,0,0,0,.438-1.062l-.014-11.09a1.769,1.769,0,0,0-1.7-1.707l-15.016-.757-.093,0" transform="translate(-68.733 -158.507)" fill="#9fd7e0"/>
        <path id="Trazado_260176" data-name="Trazado 260176" d="M179.35,320.974a1.805,1.805,0,0,0-1.917,1.786l.028,18.123a1.956,1.956,0,0,0,1.925,1.91l69.412,1.763a1.721,1.721,0,0,0,1.774-1.746l-.109-17.445a1.879,1.879,0,0,0-1.793-1.852Z" transform="translate(-122.523 -221.642)" fill="#9fd7e0"/>
        <path id="Trazado_260177" data-name="Trazado 260177" d="M116.868,333.273H116.8l-15.057-.437a2.246,2.246,0,0,1-2.208-2.185V319.415a2.08,2.08,0,0,1,2.222-2.054l15.042.55a2.239,2.239,0,0,1,2.173,2.178l.014,11.128a2.011,2.011,0,0,1-.593,1.433,2.139,2.139,0,0,1-1.527.623m-15.195-15.421a1.587,1.587,0,0,0-1.644,1.562V330.65a1.751,1.751,0,0,0,1.729,1.693l15.057.437a1.654,1.654,0,0,0,1.23-.478,1.523,1.523,0,0,0,.449-1.084l-.014-11.129a1.742,1.742,0,0,0-1.7-1.686l-15.042-.551h-.067" transform="translate(-68.734 -219.147)" fill="#9fd7e0"/>
        <path id="Trazado_260178" data-name="Trazado 260178" d="M179.484,405.611a1.839,1.839,0,0,0-1.92,1.818l.029,18.184a1.928,1.928,0,0,0,1.928,1.89l69.524.828a1.754,1.754,0,0,0,1.776-1.776l-.11-17.5a1.854,1.854,0,0,0-1.8-1.835Z" transform="translate(-122.614 -280.087)" fill="#9fd7e0"/>
        <path id="Trazado_260179" data-name="Trazado 260179" d="M116.869,418.792h-.035l-15.083-.234a2.218,2.218,0,0,1-2.215-2.166V405.118a2.132,2.132,0,0,1,2.169-2.087h.054l15.067.349a2.21,2.21,0,0,1,2.18,2.158l.014,11.166a2.043,2.043,0,0,1-.6,1.454,2.169,2.169,0,0,1-1.547.633M101.7,403.524a1.619,1.619,0,0,0-1.675,1.594v11.274a1.723,1.723,0,0,0,1.729,1.673l15.11.235a1.679,1.679,0,0,0,1.2-.489,1.557,1.557,0,0,0,.46-1.105l-.014-11.166a1.715,1.715,0,0,0-1.7-1.667Z" transform="translate(-68.733 -278.306)" fill="#9fd7e0"/>
        <path id="Trazado_260180" data-name="Trazado 260180" d="M251.2,422.78h-.016l-61.417-1.266a.8.8,0,0,1,.033-1.6l61.417,1.266a.8.8,0,0,1-.017,1.6" transform="translate(-130.499 -289.964)" fill="#fff"/>
        <path id="Trazado_260181" data-name="Trazado 260181" d="M345.474,141.249l-.054,0-26.572-1.775a.8.8,0,0,1,.106-1.6l26.572,1.774a.8.8,0,0,1-.053,1.6" transform="translate(-219.659 -95.206)" fill="#9fd7e0"/>
        <path id="Trazado_260182" data-name="Trazado 260182" d="M359.705,154.044l-.053,0L339.123,152.7a.8.8,0,1,1,.1-1.6l20.529,1.346a.8.8,0,0,1-.052,1.6" transform="translate(-233.659 -104.337)" fill="#9fd7e0"/>
        <path id="Trazado_260183" data-name="Trazado 260183" d="M359.705,166.779l-.053,0-20.529-1.346a.8.8,0,1,1,.1-1.6l20.529,1.346a.8.8,0,0,1-.052,1.6" transform="translate(-233.659 -113.131)" fill="#9fd7e0"/>
        <path id="Trazado_260184" data-name="Trazado 260184" d="M116.236,251.87a1.761,1.761,0,0,1-1.292-.572c-1.315-1.37-1.256-5.33-1.207-6.511a.985.985,0,0,1,1.969.082,23.987,23.987,0,0,0,.051,2.455,5.733,5.733,0,0,0,.56,2.546c.276-.111,1.168-.613,3.158-2.857,1.314-1.481,2.425-2.958,2.436-2.972a.985.985,0,0,1,1.576,1.184c-.049.065-1.216,1.615-2.622,3.19-2.717,3.045-3.865,3.456-4.629,3.456" transform="translate(-78.526 -168.246)" fill="#1a8f12"/>
        <path id="Trazado_260185" data-name="Trazado 260185" d="M118.955,337.782a1.764,1.764,0,0,1-1.292-.572c-1.315-1.37-1.256-5.33-1.207-6.511a.985.985,0,0,1,1.969.082,23.766,23.766,0,0,0,.051,2.455,5.727,5.727,0,0,0,.559,2.546c.277-.11,1.168-.612,3.158-2.857,1.313-1.481,2.426-2.958,2.436-2.972a.985.985,0,1,1,1.576,1.183c-.049.065-1.215,1.614-2.622,3.191-2.717,3.045-3.865,3.455-4.629,3.455" transform="translate(-80.404 -227.572)" fill="#1a8f12"/>
        <path id="Trazado_260186" data-name="Trazado 260186" d="M119.5,422.064a1.763,1.763,0,0,1-1.292-.573c-1.315-1.37-1.256-5.33-1.207-6.512a.985.985,0,0,1,1.969.083,23.764,23.764,0,0,0,.051,2.455,5.743,5.743,0,0,0,.559,2.547c.277-.111,1.168-.613,3.158-2.857,1.314-1.482,2.425-2.957,2.436-2.972a.985.985,0,0,1,1.575,1.184c-.049.065-1.215,1.614-2.621,3.19-2.717,3.045-3.865,3.456-4.629,3.456" transform="translate(-80.779 -285.771)" fill="#1a8f12"/>
        <path id="Trazado_260187" data-name="Trazado 260187" d="M255.867,254.772h-.038l-65.151-3.079a.8.8,0,0,1,.076-1.6l65.151,3.079a.8.8,0,0,1-.037,1.6" transform="translate(-131.143 -172.696)" fill="#fff"/>
        <path id="Trazado_260188" data-name="Trazado 260188" d="M233.125,346.633H233.1l-44.4-1.416a.8.8,0,0,1,.051-1.6l44.4,1.416a.8.8,0,0,1-.025,1.6" transform="translate(-129.769 -237.278)" fill="#fff"/>
        <path id="Trazado_260189" data-name="Trazado 260189" d="M417.114,137.922a14.136,14.136,0,0,0-1.281-6.051c-2.792-5.527-7.8-2.429-7.8-2.429a1.252,1.252,0,0,0,1.519.822c.633.96,4.841.805,3.968,3.315-.079.227-2.347-2.134-3.27-2.289a1.2,1.2,0,0,0-1.266.393s3.245,2.564,4.06,4.717,4.072,1.523,4.072,1.523" transform="translate(-281.758 -88.786)" fill="#f0c0a7"/>
        <path id="Trazado_260190" data-name="Trazado 260190" d="M403.569,140.892s-1.8,1.6-2.079,1.861-.057.371.169.34,2.807-.42,2.807-.42l2.113-.956a4.638,4.638,0,0,0-1.565-1.42Z" transform="translate(-277.152 -96.88)" fill="#003853"/>
        <path id="Trazado_260191" data-name="Trazado 260191" d="M425.9,125.822l-8.253,3.9a7.316,7.316,0,0,1,1.594,1.338l7.421-3.478Z" transform="translate(-288.398 -86.884)" fill="#003853"/>
        <path id="Trazado_260192" data-name="Trazado 260192" d="M447.7,180.911a32.99,32.99,0,0,1-5.122.9c-7.462-6.775-13.625-25.8-13.625-25.8a7.639,7.639,0,0,1,3.589-.973c6.309,9.97,11.706,14.891,12.634,17.617,7.246-2.24,9.113-7.715,18.719-11.811l2.012,9.322Z" transform="translate(-296.203 -107.058)" fill="#9fd7e0"/>
        <path id="Trazado_260193" data-name="Trazado 260193" d="M587.477,610.042a16.62,16.62,0,0,1,.366,4.508l-3.651.087-.008-1.166-3.16,1.021-4.437.021s-.414-.722.238-.841c.185-.035,3.491-1.044,3.491-1.044l1.9-1.847s4.749-2.389,5.265-.738" transform="translate(-398.063 -420.853)" fill="#003853"/>
        <path id="Trazado_260194" data-name="Trazado 260194" d="M485.819,613.542l.085,3.206-3.969.117-.009-1.127-3.084,1.173-5.158-.178s-.4-.7.227-.816c.182-.034,3.9-1.128,3.9-1.128l1.714-1.941Z" transform="translate(-327.005 -423.192)" fill="#003853"/>
        <path id="Trazado_260195" data-name="Trazado 260195" d="M502.066,168.721l5.221-.422.364.783,1.2,1.775s6.177,7.8,5.923,12.619c-.435,8.263-5.321,29.459-5.321,29.459l-2.378,8.178-25.131-.252s-.293-6.346-.309-7.646c-.049-3.9.5-9.38,1.917-20.387,0,0,1.682-7.345,3.324-9.513,7.559-9.974,15.192-14.594,15.192-14.594" transform="translate(-332.581 -116.216)" fill="#fff"/>
        <path id="Trazado_260196" data-name="Trazado 260196" d="M484.784,422.882a51.312,51.312,0,0,0,8.661.727c-.158-18.72,6.119-32.619,1.976-42.811a4.608,4.608,0,0,1,.011-2.467c4.005-15.174,5.543-41.015,5.543-41.015l-18.506.168s-.047,39.22.1,42.284,2.134,13.384,2.214,43.114" transform="translate(-333.155 -232.928)" fill="#003853"/>
        <path id="Trazado_260197" data-name="Trazado 260197" d="M492.985,343.614,522.5,423.195s5.069-1.19,6.344-1.238c-4.729-18.82-3.329-36.269-10.139-42.3a6.564,6.564,0,0,1-1.163-2.5c-2.659-11.449,1.124-29.5-3.947-40.388-4.9.042-22.456.314-22.456.314Z" transform="translate(-339.15 -232.549)" fill="#144665"/>
        <path id="Trazado_260198" data-name="Trazado 260198" d="M502.1,184.942s-.869.269-1.831,1.867a2.948,2.948,0,0,0,.067,1.937s-6.66,6.864-8.841,15.334a146.706,146.706,0,0,0-3.851,21.906l3.259,4.3,3.735-4.517a112.744,112.744,0,0,1,.854-20.386,42.371,42.371,0,0,1,6.616-16.158s.219-.4,1.793-1.289a5.513,5.513,0,0,1-1.8-2.993" transform="translate(-336.733 -127.709)" fill="#1a8f12"/>
        <path id="Trazado_260199" data-name="Trazado 260199" d="M512.93,144.5c3.49.659,5.125,2.144,7.14,6.742,2.271,1.27,8.936-3.207,8.1-4.895a8.133,8.133,0,0,1-1.57-5.709c.176-3.037-2.231-5.939-3.2-5.968l-7.988,3-2.849,6.762s.339.066.365.066" transform="translate(-353.943 -92.993)" fill="#e1b39d"/>
        <path id="Trazado_260200" data-name="Trazado 260200" d="M542.47,168.459c.766,1.1,1.588,2.494,1.588,2.494l-8.422,6.635a6.261,6.261,0,0,1-3.076-4.056c4.75-1.4,9.362-3.94,9.91-5.073" transform="translate(-367.75 -116.327)" fill="#d2e8f2"/>
        <path id="Trazado_260201" data-name="Trazado 260201" d="M552.026,247.3s3.488-14.652,3.488-19.092-10.494.673-11.974,2.825-.875,8.207-2.017,10.36,10.5,5.907,10.5,5.907" transform="translate(-373.884 -156.369)" fill="#b1dee8"/>
        <path id="Trazado_260202" data-name="Trazado 260202" d="M490.5,263.07a1.706,1.706,0,0,1,.64,2.326l-13.98,24.591a2.437,2.437,0,0,1-2.828.858l-32.46-18.959a1.706,1.706,0,0,1-.639-2.326L453.642,245.4c.292-.512,2.373-1.243,2.92-1.286a1.705,1.705,0,0,1,.973.218Z" transform="translate(-304.528 -168.564)" fill="#144665"/>
        <path id="Trazado_260203" data-name="Trazado 260203" d="M474.493,290.692a1.8,1.8,0,0,1-.9-.213l-32.463-18.96a1.976,1.976,0,0,1-.737-2.691L452.8,244.676c.375-.66,2.577-1.388,3.138-1.431a1.983,1.983,0,0,1,1.127.252l32.961,18.74a1.974,1.974,0,0,1,.741,2.693l-13.98,24.59a2.777,2.777,0,0,1-2.3,1.172" transform="translate(-303.93 -167.964)" fill="#003853"/>
        <path id="Trazado_260204" data-name="Trazado 260204" d="M483.981,264.754a1.706,1.706,0,0,1,.64,2.326L470.64,291.671a1.707,1.707,0,0,1-2.326.64l-32.962-18.74a1.706,1.706,0,0,1-.639-2.326l13.981-24.59a1.706,1.706,0,0,1,2.325-.64Z" transform="translate(-300.029 -169.727)" fill="#177e9d"/>
        <path id="Trazado_260205" data-name="Trazado 260205" d="M469.509,262.944a1.684,1.684,0,0,1,.63,2.291l-11.427,20.1a1.685,1.685,0,0,1-2.291.63l-4.4-2.5a1.685,1.685,0,0,1-.63-2.291l11.428-20.1a1.685,1.685,0,0,1,2.291-.63Z" transform="translate(-311.547 -179.692)" fill="#fff"/>
        <path id="Trazado_260206" data-name="Trazado 260206" d="M488.005,340.457a1.181,1.181,0,0,1,.442,1.6l-1.3,2.286a1.18,1.18,0,0,1-1.6.441l-2.4-1.364a1.18,1.18,0,0,1-.441-1.6l1.3-2.286a1.179,1.179,0,0,1,1.6-.441Z" transform="translate(-333.217 -234.05)" fill="#9fd7e0"/>
        <path id="Trazado_260207" data-name="Trazado 260207" d="M499.72,319.854a1.18,1.18,0,0,1,.441,1.6l-1.3,2.285a1.179,1.179,0,0,1-1.6.441l-2.4-1.364a1.18,1.18,0,0,1-.442-1.6l1.3-2.285a1.179,1.179,0,0,1,1.6-.441Z" transform="translate(-341.306 -219.823)" fill="#9fd7e0"/>
        <path id="Trazado_260208" data-name="Trazado 260208" d="M511.431,299.26a1.179,1.179,0,0,1,.441,1.6l-1.3,2.284a1.18,1.18,0,0,1-1.6.441l-2.4-1.364a1.179,1.179,0,0,1-.442-1.6l1.3-2.283a1.179,1.179,0,0,1,1.6-.441Z" transform="translate(-349.393 -205.602)" fill="#9fd7e0"/>
        <path id="Trazado_260209" data-name="Trazado 260209" d="M523.141,278.66a1.18,1.18,0,0,1,.441,1.6l-1.3,2.285a1.179,1.179,0,0,1-1.6.442l-2.4-1.364a1.181,1.181,0,0,1-.441-1.6l1.3-2.285a1.18,1.18,0,0,1,1.6-.441Z" transform="translate(-357.479 -191.376)" fill="#9fd7e0"/>
        <path id="Trazado_260210" data-name="Trazado 260210" d="M508.6,352.166a1.18,1.18,0,0,1,.441,1.6l-1.3,2.285a1.18,1.18,0,0,1-1.6.441l-2.4-1.363a1.18,1.18,0,0,1-.442-1.6l1.3-2.286a1.18,1.18,0,0,1,1.6-.441Z" transform="translate(-347.437 -242.136)" fill="#9fd7e0"/>
        <path id="Trazado_260211" data-name="Trazado 260211" d="M520.313,331.563a1.18,1.18,0,0,1,.441,1.6l-1.3,2.285a1.181,1.181,0,0,1-1.6.441l-2.4-1.364a1.18,1.18,0,0,1-.441-1.6l1.3-2.285a1.18,1.18,0,0,1,1.6-.442Z" transform="translate(-355.527 -227.908)" fill="#fff"/>
        <path id="Trazado_260212" data-name="Trazado 260212" d="M532.025,310.968a1.18,1.18,0,0,1,.441,1.6l-1.3,2.284a1.179,1.179,0,0,1-1.6.441l-2.4-1.363a1.179,1.179,0,0,1-.441-1.6l1.3-2.284a1.179,1.179,0,0,1,1.6-.44Z" transform="translate(-363.615 -213.687)" fill="#fff"/>
        <path id="Trazado_260213" data-name="Trazado 260213" d="M529.541,315.118a1.443,1.443,0,0,1-.711-.188l-2.4-1.364a1.447,1.447,0,0,1-.542-1.97l1.3-2.284a1.45,1.45,0,0,1,1.259-.73,1.435,1.435,0,0,1,.711.188l2.4,1.363a1.447,1.447,0,0,1,.542,1.971l-1.3,2.283a1.448,1.448,0,0,1-1.259.73m-1.094-6a.912.912,0,0,0-.792.457l-1.3,2.284a.908.908,0,0,0,.34,1.237l2.4,1.364a.9.9,0,0,0,.445.118.913.913,0,0,0,.792-.458l1.3-2.284a.908.908,0,0,0-.34-1.237l-2.4-1.363a.9.9,0,0,0-.445-.118" transform="translate(-363.014 -213.086)" fill="#144665"/>
        <path id="Trazado_260214" data-name="Trazado 260214" d="M543.735,290.369a1.18,1.18,0,0,1,.441,1.6l-1.3,2.285a1.18,1.18,0,0,1-1.6.441l-2.4-1.364a1.179,1.179,0,0,1-.441-1.6l1.3-2.285a1.18,1.18,0,0,1,1.6-.441Z" transform="translate(-371.7 -199.462)" fill="#fff"/>
        <path id="Trazado_260215" data-name="Trazado 260215" d="M541.247,294.519a1.442,1.442,0,0,1-.711-.188l-2.4-1.364A1.446,1.446,0,0,1,537.6,291l1.3-2.285a1.448,1.448,0,0,1,1.97-.542l2.4,1.364a1.45,1.45,0,0,1,.542,1.971l-1.3,2.285a1.451,1.451,0,0,1-1.26.73m-1.091-6a.912.912,0,0,0-.793.457l-1.3,2.286a.912.912,0,0,0,.341,1.237l2.4,1.364a.9.9,0,0,0,.445.117.911.911,0,0,0,.792-.458l1.3-2.285A.91.91,0,0,0,543,290l-2.4-1.364a.9.9,0,0,0-.444-.117" transform="translate(-371.098 -198.86)" fill="#144665"/>
        <path id="Trazado_260216" data-name="Trazado 260216" d="M529.2,363.879a1.18,1.18,0,0,1,.441,1.6l-1.3,2.286a1.18,1.18,0,0,1-1.6.441l-2.4-1.364a1.18,1.18,0,0,1-.441-1.6l1.3-2.286a1.179,1.179,0,0,1,1.6-.441Z" transform="translate(-361.663 -250.223)" fill="#9fd7e0"/>
        <path id="Trazado_260217" data-name="Trazado 260217" d="M540.916,343.277a1.18,1.18,0,0,1,.441,1.6l-1.3,2.285a1.18,1.18,0,0,1-1.6.441l-2.4-1.364a1.18,1.18,0,0,1-.441-1.6l1.3-2.285a1.18,1.18,0,0,1,1.6-.442Z" transform="translate(-369.753 -235.997)" fill="#9fd7e0"/>
        <path id="Trazado_260218" data-name="Trazado 260218" d="M552.626,322.682a1.18,1.18,0,0,1,.441,1.6l-1.3,2.284a1.178,1.178,0,0,1-1.6.441l-2.4-1.364a1.18,1.18,0,0,1-.441-1.6l1.3-2.284a1.18,1.18,0,0,1,1.6-.442Z" transform="translate(-377.84 -221.775)" fill="#9fd7e0"/>
        <path id="Trazado_260219" data-name="Trazado 260219" d="M564.336,302.081a1.179,1.179,0,0,1,.442,1.6l-1.3,2.286a1.179,1.179,0,0,1-1.6.441l-2.4-1.364a1.179,1.179,0,0,1-.441-1.6l1.3-2.285a1.179,1.179,0,0,1,1.6-.441Z" transform="translate(-385.926 -207.549)" fill="#1a8f12"/>
        <path id="Trazado_260220" data-name="Trazado 260220" d="M496.651,346.129s-.829,1.11-.981,1.352c.165,1.939-2.243,4.179-2.243,4.179l-1.908,1.819a9.983,9.983,0,0,0,1.064.638,4.466,4.466,0,0,1-.752.707c-2.227,1.479-3.484-1.094-3.484-1.094a4.112,4.112,0,0,1-1.431-.561c-1.257-1.025.136-2.263.136-2.263s-2.534.367-2.031-1.083a16.778,16.778,0,0,0,4.449-1.625c1.612-1.244,3.314-2.28,3.314-2.28l1.367-1.879Z" transform="translate(-334.876 -237.571)" fill="#f0c0a7"/>
        <path id="Trazado_260221" data-name="Trazado 260221" d="M533.85,203.9a7.7,7.7,0,0,1,.916,2.466c.333,4.45-2.362,15.328-5.466,23.422s-14.992,20.959-14.992,20.959l-3.772-2.092,12.084-23.64s-.081-5.441-.635-14.261Z" transform="translate(-352.542 -140.802)" fill="#fff"/>
        <path id="Trazado_260222" data-name="Trazado 260222" d="M516.574,123.726s1.657-1.85,2.688.269-2.341,3.524-2.341,3.524-2.318,4.512-4.462,4.555a27.437,27.437,0,0,1-4.178-.3c-.213-.037-.558-.136-.582-.351s.612-6.647.612-6.647-1.2.027-.745-.706c1.953-3.159,2.537-4.45,3.183-5.311s4.358-4.227,5.469-2.455.357,7.421.357,7.421" transform="translate(-350.42 -79.962)" fill="#f0c0a7"/>
        <path id="Trazado_260223" data-name="Trazado 260223" d="M532.093,108.266a4.12,4.12,0,0,0-2.708-3.559c-2.1-1.091-6.563-1.31-8.652-4.668-2.125.229-4.247,4.323-1.175,6.39,2.354-.316,4.926,1.521,3.69,3.475-.275.644-1.251,2.2.18,3.095.98.426,1.483-1.586,3.357-.048,1.335,1.177-.25,5.227,3.529,5.219,1.013-4.2,4.017-8.037,1.779-9.9" transform="translate(-357.708 -69.08)" fill="#144665"/>
      </g>
    </g>
  </g>
</svg>
