<svg xmlns="http://www.w3.org/2000/svg" xmlns:xlink="http://www.w3.org/1999/xlink" width="190" height="162" viewBox="0 0 190 162">
  <defs>
    <clipPath id="clip-path">
      <rect id="Rect치ngulo_295757" data-name="Rect치ngulo 295757" width="190" height="162" transform="translate(495 505)" fill="#fff" stroke="#707070" stroke-width="1"/>
    </clipPath>
    <clipPath id="clip-path-2">
      <rect id="Rect치ngulo_294476" data-name="Rect치ngulo 294476" width="190" height="171.676" fill="none"/>
    </clipPath>
    <clipPath id="clip-path-3">
      <path id="Trazado_260227" data-name="Trazado 260227" d="M148.732.747c-.72.916-18.757,24.193-19.335,25.029a1.165,1.165,0,0,0,1.082,1.825c1.027-.029,7.768-.132,7.768-.132s1.106,20.979,4.887,32.259c5.769,17.21,12.274,30.1,10.53,37.08s-9.908,15.575-71.523,32.928c-4.107,1.156-5.668,1.5-9.242,2.779-1.365,4.947.152,14.695,4.094,18.936,13.477,14.5,95.993,9.677,94.05,7.6-4.968-5.3-5.619-10.591.5-17.326,15.264-16.791,42.5-23.789,27.257-46.883-4.633-7.017-16.82-18.074-27.567-38.033A123.9,123.9,0,0,1,162.555,27.3c.857,0,6.354-.038,7.421-.062a1.293,1.293,0,0,0,.9-2.188c-.768-.949-18.9-23.678-19.63-24.49A1.55,1.55,0,0,0,150.089,0a1.755,1.755,0,0,0-1.357.747" transform="translate(-72.408 0)" fill="none"/>
    </clipPath>
  </defs>
  <g id="Enmascarar_grupo_154276" data-name="Enmascarar grupo 154276" transform="translate(-495 -505)" clip-path="url(#clip-path)">
    <g id="Grupo_872058" data-name="Grupo 872058" transform="translate(495 505.414)">
      <g id="Grupo_872059" data-name="Grupo 872059" transform="translate(0 0)">
        <g id="Grupo_872058-2" data-name="Grupo 872058" clip-path="url(#clip-path-2)">
          <path id="Trazado_260224" data-name="Trazado 260224" d="M230.958,169.824c-7.27.171-62.251.261-83.416.261-20.343,0-58.233,1.14-67.47-28.654C69.55,107.5,67.579,37.613,114.842,24.186,155.293,12.695,221.357,17.43,230.495,66.81c7.169,38.747,2.852,98.195,2.6,100.136s-.772,2.846-2.133,2.879" transform="translate(-54.993 -14.118)" fill="#35b0c1"/>
          <path id="Trazado_260225" data-name="Trazado 260225" d="M149.705,116.924c1.744-6.978-4.761-19.869-10.53-37.08-3.781-11.279-4.887-32.259-4.887-32.259s-6.741.1-7.768.132a1.165,1.165,0,0,1-1.082-1.824c.395-.572,8.945-11.626,14.549-18.859C107.4,29.1,75.67,42.163,69.723,74.3c-4.506,24.352-2.348,56.88-.06,78.171q4.049-1.358,8.519-2.621C139.8,132.5,147.961,123.9,149.705,116.924" transform="translate(-49.92 -20.115)" fill="#35b0c1"/>
          <path id="Trazado_260226" data-name="Trazado 260226" d="M464.339,148.328c7.8-29.273,17.139-104.6-27.51-117.168a149.622,149.622,0,0,0-37.142-5.2c5.649,7.047,14.193,17.757,14.715,18.4a1.293,1.293,0,0,1-.9,2.188c-1.067.023-6.564.061-7.421.061a123.9,123.9,0,0,0,8.681,29.518c10.747,19.96,22.934,31.016,27.567,38.033,15.248,23.094-11.993,30.092-27.257,46.882-5.618,6.18-5.531,11.146-1.639,16.017,22.136-1.6,45.325-7.809,50.9-28.734" transform="translate(-297.409 -19.317)" fill="#35b0c1"/>
        </g>
      </g>
      <g id="Grupo_872061" data-name="Grupo 872061" transform="translate(18.529 0)">
        <g id="Grupo_872060" data-name="Grupo 872060" transform="translate(0 0)" clip-path="url(#clip-path-3)">
          <path id="Trazado_262842" data-name="Trazado 262842" d="M0,0H142.517V165.951H0Z" transform="translate(-0.874 0)" fill="#fef5e5"/>
        </g>
      </g>
      <g id="Grupo_872063" data-name="Grupo 872063" transform="translate(0 0)">
        <g id="Grupo_872062" data-name="Grupo 872062" clip-path="url(#clip-path-2)">
          <path id="Trazado_260228" data-name="Trazado 260228" d="M276.328,259.224c-1.242-.181-1.761-2.731-2.966-2.522s-1.289,2.61-2.348,3.074-2.851-.885-3.891-.039.36,2.738.176,3.878-3.018,1.318-3.005,2.457,2.281,1.537,2.627,2.872-1.526,2.782-.722,3.8,2.625-.139,3.858.526.685,3.065,1.891,3.36,1.957-2.082,3.291-2.061,2.143,1.991,3.61,1.344.36-2.662,1.2-3.681,3.051-.008,3.63-1.3-1.564-2.165-1.451-3.574,2.25-1.7,1.942-3.346-2.469-.887-3.41-1.79.435-3.137-.661-3.828-2.522,1.015-3.764.836m3.127,9.821a5.274,5.274,0,1,1-2.665-6.967,5.275,5.275,0,0,1,2.665,6.967" transform="translate(-196.663 -191.004)" fill="#144665"/>
          <path id="Trazado_260229" data-name="Trazado 260229" d="M308.579,327.634c-1.148-.167-1.629-2.526-2.743-2.332s-1.193,2.413-2.172,2.844-2.637-.819-3.6-.037.333,2.534.163,3.588-2.792,1.22-2.78,2.273,2.11,1.422,2.43,2.657-1.412,2.574-.668,3.516,2.429-.128,3.568.486.634,2.836,1.75,3.109,1.81-1.926,3.045-1.907,1.982,1.842,3.339,1.243.333-2.463,1.106-3.405,2.822-.008,3.359-1.207-1.448-2-1.343-3.307,2.082-1.571,1.8-3.1-2.285-.821-3.155-1.656.4-2.9-.612-3.541-2.334.939-3.483.773m2.893,9.087a4.88,4.88,0,1,1-2.466-6.446,4.879,4.879,0,0,1,2.466,6.446" transform="translate(-221.331 -242.05)" fill="#1a8f12"/>
          <path id="Trazado_260230" data-name="Trazado 260230" d="M337.072,459a49.157,49.157,0,0,0-11.658-2.794c-.309,2.187,1.612,1.7,3.8,3.071a38.642,38.642,0,0,1-9.6,4.159c-.538.154-.005,1.188-.005,1.188s-1.337,1.076-.263,1.363,6.309-1.151,6.309-1.151-3.706,1.656-4.075,1.742.318,1.412,3.342.682c1.15-.277,9.507-1.237,10.583-4.433.351-.038,2.95-1.188,2.95-1.188Z" transform="translate(-237.316 -339.463)" fill="#e1b39d"/>
          <path id="Trazado_260231" data-name="Trazado 260231" d="M523.566,545.8c-.077-1.545-.49-31.147-.49-31.147L509.362,516.9s-4.639,24.747-4.755,29.15c3.284.042,11.347.128,18.959-.256" transform="translate(-375.481 -382.954)" fill="#003853"/>
          <path id="Trazado_260232" data-name="Trazado 260232" d="M412.253,287.106s-2.537,23.508-2.88,28.763c-8.007,2.139-18.219,11.224-30.271,16.064,1.873,4.935,3.351,5.907,3.351,5.907s28.044-9.019,34.075-12.17,9.669-33.008,9.669-33.008Z" transform="translate(-282.092 -213.638)" fill="#144665"/>
          <path id="Trazado_260233" data-name="Trazado 260233" d="M575.039,490.589c3.268,11.942,2.991,27.787,2.87,30.124-4.608,2.727-18.365,4.135-28.472,4.135-.464-1.545-1.033-30.25-1.033-30.25s23.367-15.951,26.636-4.009" transform="translate(-408.071 -361.75)" fill="#144665"/>
          <path id="Trazado_260234" data-name="Trazado 260234" d="M506.183,208.523l-2.55-2.988-6.12,2.324-9.66,8.189,1.179,3.2a41.939,41.939,0,0,0-4.4,33.119c5.473,18.49,8.7,34.46,8.7,34.46l27.056-4.705Z" transform="translate(-359.389 -152.94)" fill="#fff"/>
          <path id="Trazado_260235" data-name="Trazado 260235" d="M493.182,254.962s-1.491,1.512-1.507,2.82a3.251,3.251,0,0,0,.363,2.044,43.338,43.338,0,0,0-3.738,19.9,280.34,280.34,0,0,1-1.195,36.214l8.189,5.361,4.456-7.641s-3.709-17.774-6.5-35.054c-1.93-11.935.532-18.408.532-18.408s1.241-1.841,2.534-3.381a13.739,13.739,0,0,0-3.129-1.854" transform="translate(-362.459 -189.719)" fill="#177e9d"/>
          <path id="Trazado_260236" data-name="Trazado 260236" d="M547.175,212.2s18.105,4.958,21.01,15.136-3.006,34.592-.138,54.036c3.368,3.255,5.577,8.411,9.88,20.9-11.84,5.559-14.737,2.028-21.924-4.6s-16.235-28.322-16.645-43.658c-.7-26.059,7.817-41.821,7.817-41.821" transform="translate(-401.31 -157.902)" fill="#144665"/>
          <path id="Trazado_260237" data-name="Trazado 260237" d="M486.216,164.607c2.72-.706,7.815,5.978,10.162,10.675,4.725-5,9.17-9.163,10.131-9.7-1.718-2.386-3.021-7.8-3.021-7.8s-17.253-22.414-17.272,6.821" transform="translate(-361.796 -111.3)" fill="#e1b39d"/>
          <path id="Trazado_260238" data-name="Trazado 260238" d="M514.774,216.878a23.977,23.977,0,0,0,5.566,3.135,81.965,81.965,0,0,1,9.052-12.688s-1.739-1.418-2.063-1.706c-4.309,3.339-12.555,11.259-12.555,11.259" transform="translate(-383.047 -153.003)" fill="#d2e8f2"/>
          <path id="Trazado_260239" data-name="Trazado 260239" d="M539.385,258.266c4.306-5.7,9.8-18.3,9.8-18.3l-2.471-3.556,2.356-2.24-.05-3.147-3.558-3.424s-5.613,12.351-6.076,30.663" transform="translate(-401.36 -169.361)" fill="#305d81"/>
          <path id="Trazado_260240" data-name="Trazado 260240" d="M468,151.633c2.08-.558,3.358-1.7,5.464-2.306,2.992-.859,2.66-4.5,2.66-4.5l.491-2.529s2.781-1.847,3.475-3.134c.278-.52,1.379-3.074-1.109-3.564-3.683-.724-2.207-9.8-2.207-9.8l-4.99-.485-3.854,2.951-4.367,13.275s.056.7.942.652,1.019.123,1.019.123.915,8.105,1.024,8.512a1.141,1.141,0,0,0,1.453.805" transform="translate(-344.937 -93.248)" fill="#f0c0a7"/>
          <path id="Trazado_260241" data-name="Trazado 260241" d="M490.442,115.94c-4.375-5.9-13.423-1.762-16.281-5.116a4.334,4.334,0,0,0-.209,7.38c3.822-1.023,7.54.316,6.892,3.038-.036.5-1.267,3.81-.5,5.7.3.976.6,1.394,1.747.724.456-1.279,1.559-3.425,4.109-2.538,1.485.529.229,3.939,6.745,4.124-.22-1.948,2.683-11.114-2.5-13.311" transform="translate(-351.212 -82.465)" fill="#144665"/>
          <path id="Trazado_260242" data-name="Trazado 260242" d="M469.342,158.626a2.866,2.866,0,0,1-.437-3.65c1.67-.005,2,1.948,2.928,2.73,5.092-1.338,6.522-4.4,5.95-6.64-.993-3.9,1.941-7.443,1.976-8.1.622-2.733-.37,6.323-.315,8.408a13.059,13.059,0,0,0,1.123,3.863,7.235,7.235,0,0,1,.822,4.466c-.725,3.705-6.686,5.712-10.245,5.834s-1.8-6.912-1.8-6.912" transform="translate(-348.557 -106.002)" fill="#144665"/>
          <path id="Trazado_260243" data-name="Trazado 260243" d="M626.118,535.075c-.3,2.989-3.855,5.459-8.269,5.745a11.237,11.237,0,0,1-6.059-1.2,5.168,5.168,0,0,1-2.982-4.11,4.2,4.2,0,0,1,.011-.686c.3-2.989,3.856-5.458,8.268-5.746a11.237,11.237,0,0,1,6.059,1.2,5.169,5.169,0,0,1,2.982,4.11,4.179,4.179,0,0,1-.011.686m-15.333-.051a2.079,2.079,0,0,0-.006.36,3.291,3.291,0,0,0,1.962,2.507,9.259,9.259,0,0,0,4.981.959c3.406-.221,6.23-1.966,6.431-3.972a2.188,2.188,0,0,0,.007-.362,3.291,3.291,0,0,0-1.963-2.506,9.244,9.244,0,0,0-4.98-.959c-3.405.221-6.23,1.966-6.431,3.972" transform="translate(-453.012 -393.672)" fill="#003853"/>
          <path id="Trazado_260244" data-name="Trazado 260244" d="M610.322,608.485a.911.911,0,0,1-.988.93c-1.037.047-36.032,2.161-36.032,2.161a1.864,1.864,0,0,1-1.649-1.833c-.155-1.735-.693-16.121-.693-16.12l19.643,2.308,18.788-4.753Z" transform="translate(-424.855 -439.899)" fill="#003853"/>
          <path id="Trazado_260245" data-name="Trazado 260245" d="M606.146,549.3c.047,2.422.184,7.472.2,9.776a2.491,2.491,0,0,1-2.689,2.747l-16.409,2.372-17.379-.368s-2.964.146-2.994-2.373c-.021-1.918-.193-7.629-.274-10.26a1.3,1.3,0,0,1,1.338-1.439c6.68-.415,35.388-2.2,36.383-2.187a1.68,1.68,0,0,1,1.82,1.733" transform="translate(-421.614 -407.446)" fill="#003853"/>
          <path id="Trazado_260246" data-name="Trazado 260246" d="M639.915,611.606l.046,1.742a2.437,2.437,0,0,1-2.428,2.484,2.507,2.507,0,0,1-2.567-2.4l-.049-1.744Z" transform="translate(-472.446 -455.1)" fill="#fff"/>
          <path id="Trazado_260247" data-name="Trazado 260247" d="M631.829,498.08a25.826,25.826,0,0,0-4.318,2.415,11.934,11.934,0,0,0-2.8,3.79,14.023,14.023,0,0,1,2.143-.72c-.384,2-1.524,2.853-2.013,3.734s1.188,2.171,2.26.92c.6-.707.923.563,1.8.355s1.859-.577,2.387-.182,1.048.091,1.485-.361,1.62.56,2.51-1.351a31.054,31.054,0,0,0,1.466-6.432l1.794-3.577-4.521-2.3Z" transform="translate(-464.852 -367.863)" fill="#f0c0a7"/>
          <path id="Trazado_260248" data-name="Trazado 260248" d="M597.89,238.581c9.416,6.159,25.536,30.965,28.236,37.708s-16.386,33.435-16.386,33.435-7.645-3.4-8.444-3.881c7.342-11.959,8.85-23.436,12.5-27.21-6.076-6.66-12.962-14.451-22.678-21.641s-2.639-24.569,6.776-18.41" transform="translate(-436.388 -176.564)" fill="#144665"/>
          <path id="Trazado_260249" data-name="Trazado 260249" d="M25.319,233.567c-9.388,6.141-22.4,28.053-25.094,34.776S19.9,302.316,19.9,302.316s6.24-4.384,7.037-4.862c-5.428-10.015-9.244-20.853-14.93-25.775,6.059-6.641,10.252-11.815,19.94-18.984s2.758-25.271-6.63-19.129" transform="translate(0 -172.868)" fill="#d2e8f2"/>
          <path id="Trazado_260250" data-name="Trazado 260250" d="M64.133,562.109c2.524-9.212-1.757-14.17-.247-20.215s5.767-4.443,5.767-4.443l7.029,25.83s-6.035-.235-12.549-1.173" transform="translate(-47.291 -399.778)" fill="#003853"/>
          <path id="Trazado_260251" data-name="Trazado 260251" d="M101.847,538.316c-1.727-14.264-6.045-32.443-6.045-32.443l-30.83-2.115S58,519.431,63.342,524.774c9.974,9.974,7.744,12.708,7.841,13.289,2.548.451,16.871,1.164,30.665.252" transform="translate(-45.633 -374.849)" fill="#144665"/>
          <path id="Trazado_260252" data-name="Trazado 260252" d="M96.952,241.215c-1.673-6.635-5.491-12.063-8.239-16.061-.176-.257,1.03-3.125.83-3.356-6.685-7.709-16.789-8.75-16.789-8.75s-.641,1.388-1.068,2.527l-.211.251c-2.371,1.339-13.459,9.683-14.286,12.864-1.975,7.606-.689,20.7,2.082,34.638a19.208,19.208,0,0,0,.584,2.278c1.256,9.888,2.2,15.545,2.2,15.545l-.867,6.341,30.767,2.164s9.711-29.727,4.992-48.441" transform="translate(-41.845 -158.53)" fill="#fff"/>
          <path id="Trazado_260253" data-name="Trazado 260253" d="M101.315,364.291c4.274,5.966,14.373,13.008,14.373,13.008s4.337.336,4.54.346l2.391-23.654s-5.374-2.367-7.606-6.416c-5.7-10.331-20.9-21.985-20.9-13.267-.009,15.364,2.146,22.917,7.208,29.982" transform="translate(-70.026 -246.485)" fill="#d2e8f2"/>
          <path id="Trazado_260254" data-name="Trazado 260254" d="M165.948,252.182a3.634,3.634,0,0,1,2.109,2.913,4.533,4.533,0,0,1-.157,2.589,46.649,46.649,0,0,1,7.1,20.6c1.983,19.125,2.695,33.3,2.695,33.3l-6,6.768-5.308-7.225a201.6,201.6,0,0,0,3.177-33.261c.187-13.01-3.449-19.517-3.449-19.517s-1.283-1.359-2.9-2.8a12.688,12.688,0,0,0,2.743-3.372" transform="translate(-121.442 -187.65)" fill="#1a8f12"/>
          <path id="Trazado_260255" data-name="Trazado 260255" d="M147.94,165.97c-2.938-.44-7.779,6.747-9.861,11.1a42.6,42.6,0,0,0-11.472-8.7c1.541-2.7,1.774-7.359,1.774-7.359s16.288-25.787,19.56,4.959" transform="translate(-94.209 -112.278)" fill="#e1b39d"/>
          <path id="Trazado_260256" data-name="Trazado 260256" d="M160.4,123.471s-1.745-3.544-4.231-.738,2.076,6.4,2.076,6.4,1.859,7.5,5.125,8.489a43.8,43.8,0,0,0,6.527,1.332c.343.033.915.031,1.043-.288s1.246-9.479,1.246-9.479,1.4-.026,1.043-1.348a82.556,82.556,0,0,1-2.145-10.725s-5.208-6.9-7.672-4.666-3.011,11.025-3.011,11.025" transform="translate(-115.655 -83.34)" fill="#f0c0a7"/>
          <path id="Trazado_260257" data-name="Trazado 260257" d="M145.768,117.061s-2.962,2.545-3.654.5-2.359-2.2-3.718-1.036-.472,4.978-1.786,6.894c-.86,1.254-4.408,1.97-5,2.008.2-3.4-2.109-15.794,1.578-18.063,2.284-1.407,8.3-6.209,14.3-5.681s9.42,3.193,5.555,7.832c-11.818-4.554-7.27,7.545-7.27,7.545" transform="translate(-97.535 -75.634)" fill="#144665"/>
          <path id="Trazado_260258" data-name="Trazado 260258" d="M131.384,223.244a12.186,12.186,0,0,1-5.289,4.137c-4-9.982-10.321-11.574-10.321-11.574s.648-1.647,1.248-2.751c4.477,1.8,14.362,10.188,14.362,10.188" transform="translate(-86.148 -158.536)" fill="#d2e8f2"/>
          <path id="Trazado_260259" data-name="Trazado 260259" d="M253.652,448.369s8.764,2.175,10.4,2.469a42.558,42.558,0,0,1,9.161-2.017c.377.786-.185,1.463-.9,1.937a20.221,20.221,0,0,1-2.644,1.45s10.112,3.825,10.635,4.1.2,1.472.2,1.472,1.393.839.26,1.153-7.1-1.108-7.1-1.108,3.933,1.72,4.324,1.807-.324,1.495-3.528.75c-1.219-.283-10.064-1.228-11.23-4.6-.372-.037-9.71-2.555-9.71-2.555Z" transform="translate(-188.649 -333.634)" fill="#f0c0a7"/>
          <path id="Trazado_260260" data-name="Trazado 260260" d="M74.713,268.98c2.622,6.084,12.046,25.029,13.481,30.41,9.724,1.024,13.9,8.7,28.234,11.5-.93,5.5-2.132,7.393-2.132,7.393s-22.041-4.475-28.946-6.507-21.69-28.113-24.095-33.548c-9.011-20.363,8.991-19.616,13.459-9.249" transform="translate(-43.727 -194.849)" fill="#fff"/>
        </g>
      </g>
    </g>
  </g>
</svg>
