<svg id="objetivo_2_" data-name="objetivo(2)" xmlns="http://www.w3.org/2000/svg" width="70.991" height="71.257" viewBox="0 0 70.991 71.257">
  <g id="Grupo_873572" data-name="Grupo 873572" transform="translate(16.802 19.644)">
    <g id="Grupo_873569" data-name="Grupo 873569">
      <g id="Grupo_873568" data-name="Grupo 873568">
        <path id="Trazado_262346" data-name="Trazado 262346" d="M123.07,143.927a1.391,1.391,0,1,1,1.365-1.119A1.4,1.4,0,0,1,123.07,143.927Z" transform="translate(-121.681 -141.147)" fill="#03386e"/>
      </g>
    </g>
    <g id="Grupo_873571" data-name="Grupo 873571" transform="translate(25.433 28.579)">
      <g id="Grupo_873570" data-name="Grupo 873570" transform="translate(0 0)">
        <path id="Trazado_262347" data-name="Trazado 262347" d="M305.818,349.273a1.391,1.391,0,1,1,1.374-1.174A1.4,1.4,0,0,1,305.818,349.273Z" transform="translate(-304.427 -346.494)" fill="#03386e"/>
      </g>
    </g>
  </g>
  <g id="Grupo_873574" data-name="Grupo 873574" transform="translate(0 0)">
    <g id="Grupo_873573" data-name="Grupo 873573" transform="translate(0 0)">
      <path id="Trazado_262348" data-name="Trazado 262348" d="M71.86,10.346a1.391,1.391,0,0,0-1.2-.9l-7.587-.568L62.5,1.288a1.392,1.392,0,0,0-2.372-.88L54.067,6.473a5.587,5.587,0,0,0-1.638,3.759q0,.038,0,.076l.083,4.647a31.7,31.7,0,1,0,4.538,4.49l4.593.074h.073a5.589,5.589,0,0,0,3.759-1.638l6.065-6.064a1.392,1.392,0,0,0,.321-1.468ZM56.036,8.441l3.919-3.919.383,5.12L55.29,14.7l-.078-4.4A2.812,2.812,0,0,1,56.036,8.441ZM32.628,68.474A28.887,28.887,0,1,1,51.9,18.089l-3.223,3.223a24.313,24.313,0,0,0-24.3-4.62,1.392,1.392,0,0,0,.946,2.618,21.533,21.533,0,0,1,21.381,3.974l-3.229,3.229a16.995,16.995,0,1,0-3.127,28.215,1.392,1.392,0,1,0-1.269-2.478A14.031,14.031,0,0,1,32.628,53.8,14.214,14.214,0,1,1,41.5,28.49l-3.247,3.246a9.674,9.674,0,1,0,2.005,1.931l3.235-3.235a14.2,14.2,0,0,1,2.629,13.625,1.392,1.392,0,0,0,2.642.878,16.985,16.985,0,0,0-3.3-16.476l3.224-3.224a21.551,21.551,0,1,1-33.479,1.67,1.392,1.392,0,0,0-2.248-1.642,24.336,24.336,0,1,0,37.7-2l3.221-3.221A28.872,28.872,0,0,1,32.628,68.474Zm6.879-28.887a6.884,6.884,0,1,1-3.258-5.846l-4.439,4.439a1.392,1.392,0,1,0,1.968,1.968l4.492-4.492A6.839,6.839,0,0,1,39.506,39.587Zm24-23.676a2.814,2.814,0,0,1-1.86.823l-4.382-.071,2.674-2.674c.03-.03.058-.061.084-.092l2.285-2.288,5.119.383Z" transform="translate(-0.956 -0.001)" fill="#03386e"/>
    </g>
  </g>
</svg>
