<svg xmlns="http://www.w3.org/2000/svg" xmlns:xlink="http://www.w3.org/1999/xlink" width="23.639" height="16" viewBox="0 0 23.639 16">
  <defs>
    <clipPath id="clip-path">
      <rect id="Rectángulo_291342" data-name="Rectángulo 291342" width="23.639" height="16" fill="#03386e"/>
    </clipPath>
  </defs>
  <g id="Grupo_879014" data-name="Grupo 879014" transform="translate(-708.361 -3193.701)">
    <g id="Grupo_871134" data-name="Grupo 871134" transform="translate(708.361 3193.701)">
      <g id="Grupo_871133" data-name="Grupo 871133" clip-path="url(#clip-path)">
        <path id="Trazado_255506" data-name="Trazado 255506" d="M243.043,27.971a1.446,1.446,0,0,0-1.464-1.195c-.63-.026-1.262-.012-1.892-.014a.518.518,0,0,0-.119.035,3.208,3.208,0,0,1,.615,2.188c-.012,3.193-.005,6.387-.005,9.58v.452a2.987,2.987,0,0,0,.809-1.339c.489-2.126.962-4.256,1.447-6.384.207-.905.429-1.807.644-2.71v-.554a.267.267,0,0,1-.034-.059" transform="translate(-219.437 -24.512)" fill="#03386e"/>
        <path id="Trazado_255507" data-name="Trazado 255507" d="M19.785,4.086A2.443,2.443,0,0,0,17.295,2q-3.439-.006-6.878,0H10.14L10.1,1.873A2.435,2.435,0,0,0,7.6,0C5.9,0,4.21,0,2.518,0A2.437,2.437,0,0,0,0,2.528Q0,8,0,13.468a3.013,3.013,0,0,0,.069.64A2.515,2.515,0,0,0,2.564,16c4.893-.02,9.786-.008,14.679-.009a2.993,2.993,0,0,0,.506-.03,2.431,2.431,0,0,0,2.063-2.484q.006-4.477,0-8.955a2.646,2.646,0,0,0-.027-.437" transform="translate(0 -0.001)" fill="#03386e"/>
      </g>
    </g>
  </g>
</svg>
