<svg xmlns="http://www.w3.org/2000/svg" xmlns:xlink="http://www.w3.org/1999/xlink" width="126.415" height="126.417" viewBox="0 0 126.415 126.417">
  <defs>
    <clipPath id="clip-path">
      <path id="Trazado_189538" data-name="Trazado 189538" d="M124.212,63.208a61,61,0,1,0-61,61,61.074,61.074,0,0,0,61-61M63.207,0A63.208,63.208,0,1,1,0,63.208,63.279,63.279,0,0,1,63.207,0Z" fill="#12a6be"/>
    </clipPath>
    <clipPath id="clip-path-2">
      <rect id="Rect치ngulo_291074" data-name="Rect치ngulo 291074" width="76.571" height="73.66" fill="#12a6be"/>
    </clipPath>
  </defs>
  <g id="Grupo_877522" data-name="Grupo 877522" transform="translate(0)">
    <g id="Grupo_870358" data-name="Grupo 870358" transform="translate(0)">
      <g id="Grupo_172087" data-name="Grupo 172087" clip-path="url(#clip-path)">
        <rect id="Rect치ngulo_49153" data-name="Rect치ngulo 49153" width="156.849" height="156.851" transform="translate(116.43 160.514) rotate(-163.677)" fill="#12a6be"/>
      </g>
    </g>
    <g id="Grupo_870359" data-name="Grupo 870359" transform="translate(24.844 26)">
      <g id="Grupo_870288" data-name="Grupo 870288" clip-path="url(#clip-path-2)">
        <path id="Trazado_255188" data-name="Trazado 255188" d="M18.655,50.853H30.034a1.38,1.38,0,0,0,1.38-1.38V27.8a7.077,7.077,0,0,0-9.925-6.718,6.94,6.94,0,0,0-2.494,1.961l-6.6,7.908H5.64a3.842,3.842,0,1,0,0,7.685h8.37a4.451,4.451,0,0,0,3-1.158l.268-.243V49.474a1.379,1.379,0,0,0,1.38,1.38m10-2.759h-8.62V34.73l5.127-4.65a1.38,1.38,0,0,0-1.855-2.043l-8.152,7.395a1.706,1.706,0,0,1-1.144.442H5.64a1.083,1.083,0,1,1,0-2.166h7.4a1.373,1.373,0,0,0,1.059-.5l7.014-8.4A4.242,4.242,0,0,1,22.6,23.6a4.306,4.306,0,0,1,1.773-.364A4.452,4.452,0,0,1,28.654,27.8Z" transform="translate(41.9 16.646)" fill="#12a6be"/>
        <path id="Trazado_255189" data-name="Trazado 255189" d="M8.638,25.743c.123,0,.248,0,.373-.011a6.55,6.55,0,0,0,4-11.423,6.551,6.551,0,0,0-9.249.517A6.551,6.551,0,0,0,8.638,25.743M8.65,15.4a3.772,3.772,0,1,1-.218.005c.074,0,.145-.005.218-.005" transform="translate(57.577 10.274)" fill="#12a6be"/>
        <path id="Trazado_255190" data-name="Trazado 255190" d="M25.485,50.853H36.864a1.379,1.379,0,0,0,1.38-1.38V37.232l.268.243a4.448,4.448,0,0,0,3,1.158h8.37a3.842,3.842,0,0,0,0-7.685H43.124l-6.6-7.908a6.96,6.96,0,0,0-2.494-1.961,7.087,7.087,0,0,0-2.91-.6A7.215,7.215,0,0,0,24.105,27.8V49.474a1.379,1.379,0,0,0,1.38,1.38m10-2.759h-8.62V27.8a4.45,4.45,0,0,1,4.276-4.559,3.94,3.94,0,0,1,3.265,1.57l7.012,8.4a1.379,1.379,0,0,0,1.061.5h7.4a1.083,1.083,0,0,1,0,2.166h-8.37a1.7,1.7,0,0,1-1.144-.442l-8.152-7.395a1.38,1.38,0,0,0-1.855,2.043l5.127,4.65Z" transform="translate(-20.847 16.646)" fill="#12a6be"/>
        <path id="Trazado_255191" data-name="Trazado 255191" d="M39.47,25.743a6.55,6.55,0,0,0,.363-13.091,6.55,6.55,0,1,0-.732,13.08c.123.007.248.011.37.011m3.782-6.34a3.791,3.791,0,1,1-3.573-4,3.765,3.765,0,0,1,3.573,4" transform="translate(-29.117 10.274)" fill="#12a6be"/>
        <path id="Trazado_255192" data-name="Trazado 255192" d="M12.622,38.123H45.675a1.38,1.38,0,0,0,1.38-1.38V30.35a1.38,1.38,0,0,0-1.38-1.38H12.622a1.38,1.38,0,0,0-1.38,1.38v6.394a1.38,1.38,0,0,0,1.38,1.38M44.3,35.364H14V31.729H44.3Z" transform="translate(9.136 23.548)" fill="#12a6be"/>
        <path id="Trazado_255193" data-name="Trazado 255193" d="M27.492,27.934a1.362,1.362,0,0,0,.491-.091,1.378,1.378,0,0,0,.888-1.289V20.913h2.217a1.379,1.379,0,0,0,1.363-1.175L35.193,1.586A1.381,1.381,0,0,0,33.828,0H8.653A1.382,1.382,0,0,0,7.281,1.521L9.139,19.675a1.377,1.377,0,0,0,1.372,1.238H20.605l5.857,6.561a1.381,1.381,0,0,0,1.03.46m2.409-9.78H27.492a1.38,1.38,0,0,0-1.38,1.38v3.4l-3.86-4.324a1.38,1.38,0,0,0-1.03-.46H11.757L10.18,2.759H32.226Z" transform="translate(28.177 0)" fill="#12a6be"/>
        <path id="Trazado_255194" data-name="Trazado 255194" d="M12.338,6.443H24.156a1.38,1.38,0,1,0,0-2.759H12.338a1.38,1.38,0,0,0,0,2.759" transform="translate(31.171 2.994)" fill="#12a6be"/>
        <path id="Trazado_255195" data-name="Trazado 255195" d="M12.338,9.183H24.156a1.38,1.38,0,0,0,0-2.759H12.338a1.38,1.38,0,0,0,0,2.759" transform="translate(31.171 5.221)" fill="#12a6be"/>
        <path id="Trazado_255196" data-name="Trazado 255196" d="M27.351,30.2a1.378,1.378,0,0,0,1.03-.46l5.857-6.561h10.1a1.38,1.38,0,0,0,0-2.759H33.622a1.377,1.377,0,0,0-1.03.46L28.731,25.2V21.8a1.378,1.378,0,0,0-1.38-1.38H24.942L22.618,5.026H37.286a1.38,1.38,0,1,0,0-2.759H21.015A1.381,1.381,0,0,0,19.65,3.851l2.741,18.154a1.38,1.38,0,0,0,1.363,1.175h2.217v5.642a1.38,1.38,0,0,0,.888,1.289,1.362,1.362,0,0,0,.491.091" transform="translate(-4.738 1.842)" fill="#12a6be"/>
        <path id="Trazado_255197" data-name="Trazado 255197" d="M24.478,8.711h10.36a1.38,1.38,0,1,0,0-2.759H24.478a1.38,1.38,0,0,0,0,2.759" transform="translate(-1.52 4.838)" fill="#12a6be"/>
        <path id="Trazado_255198" data-name="Trazado 255198" d="M23.958,11.45h11.3a1.38,1.38,0,1,0,0-2.759h-11.3a1.38,1.38,0,0,0,0,2.759" transform="translate(-1 7.064)" fill="#12a6be"/>
        <path id="Trazado_255199" data-name="Trazado 255199" d="M1.38,38.471H75.191a1.38,1.38,0,1,0,0-2.759H1.38a1.38,1.38,0,0,0,0,2.759" transform="translate(0 29.028)" fill="#12a6be"/>
        <path id="Trazado_255200" data-name="Trazado 255200" d="M1.38,41.869H75.191a1.38,1.38,0,1,0,0-2.759H1.38a1.38,1.38,0,0,0,0,2.759" transform="translate(0 31.79)" fill="#12a6be"/>
      </g>
    </g>
  </g>
</svg>
