<svg xmlns="http://www.w3.org/2000/svg" xmlns:xlink="http://www.w3.org/1999/xlink" width="126.415" height="126.417" viewBox="0 0 126.415 126.417">
  <defs>
    <clipPath id="clip-path">
      <path id="Trazado_189538" data-name="Trazado 189538" d="M2.2,63.208a61,61,0,1,1,61,61,61.074,61.074,0,0,1-61-61M63.208,0a63.208,63.208,0,1,0,63.207,63.208A63.279,63.279,0,0,0,63.208,0Z" fill="#12a6be"/>
    </clipPath>
    <clipPath id="clip-path-2">
      <rect id="Rect치ngulo_291073" data-name="Rect치ngulo 291073" width="74.166" height="73.66" fill="#12a6be"/>
    </clipPath>
  </defs>
  <g id="Grupo_877525" data-name="Grupo 877525" transform="translate(8860 3911.229)">
    <g id="Grupo_870361" data-name="Grupo 870361" transform="translate(-8860 -3911.229)">
      <g id="Grupo_172087" data-name="Grupo 172087" clip-path="url(#clip-path)">
        <rect id="Rect치ngulo_49153" data-name="Rect치ngulo 49153" width="156.849" height="156.851" transform="translate(-34.098 9.986) rotate(-16.323)" fill="#12a6be"/>
      </g>
    </g>
    <g id="Grupo_870362" data-name="Grupo 870362" transform="translate(-8834 -3885.229)">
      <g id="Grupo_870286" data-name="Grupo 870286" transform="translate(0 0)" clip-path="url(#clip-path-2)">
        <path id="Trazado_255177" data-name="Trazado 255177" d="M65.451,58.356H8.715A8.724,8.724,0,0,1,0,49.642V8.715A8.724,8.724,0,0,1,8.715,0H65.451a8.726,8.726,0,0,1,8.715,8.715V49.642a8.726,8.726,0,0,1-8.715,8.715M8.715,2.674A6.048,6.048,0,0,0,2.674,8.715V49.642a6.048,6.048,0,0,0,6.041,6.041H65.451a6.048,6.048,0,0,0,6.041-6.041V8.715a6.048,6.048,0,0,0-6.041-6.041Z" transform="translate(0 -0.001)" fill="#12a6be"/>
        <path id="Trazado_255178" data-name="Trazado 255178" d="M38.122,49.677H15.147a1.337,1.337,0,0,1-1.33-1.483L15.5,32.889A1.339,1.339,0,0,1,16.83,31.7H36.441a1.337,1.337,0,0,1,1.328,1.191l1.683,15.305a1.337,1.337,0,0,1-1.33,1.483M16.638,47H36.63L35.243,34.372H18.026Z" transform="translate(10.449 23.982)" fill="#12a6be"/>
        <path id="Trazado_255179" data-name="Trazado 255179" d="M57.875,43.085H7.287a1.337,1.337,0,1,1,0-2.674H57.875a1.337,1.337,0,1,1,0,2.674" transform="translate(4.502 30.575)" fill="#12a6be"/>
        <path id="Trazado_255180" data-name="Trazado 255180" d="M72.829,45.177H1.337A1.337,1.337,0,0,1,0,43.84V6.249A1.337,1.337,0,0,1,1.337,4.912H72.829a1.337,1.337,0,0,1,1.337,1.337V43.84a1.337,1.337,0,0,1-1.337,1.337M2.674,42.5H71.492V7.587H2.674Z" transform="translate(0 3.716)" fill="#12a6be"/>
        <path id="Trazado_255181" data-name="Trazado 255181" d="M59.054,31.053H8.775a1.337,1.337,0,0,1-1.337-1.337V9.879A1.337,1.337,0,0,1,8.775,8.542H59.054a1.336,1.336,0,0,1,1.337,1.337V29.716a1.336,1.336,0,0,1-1.337,1.337M10.112,28.379H57.717V11.216H10.112Z" transform="translate(5.628 6.462)" fill="#12a6be"/>
        <path id="Trazado_255182" data-name="Trazado 255182" d="M56,34.3H5.718a1.336,1.336,0,0,1-1.337-1.337V13.122a1.337,1.337,0,0,1,2.674,0v18.5H56A1.337,1.337,0,0,1,56,34.3" transform="translate(3.315 8.916)" fill="#12a6be"/>
        <path id="Trazado_255183" data-name="Trazado 255183" d="M33.936,16.863H30.242a1.337,1.337,0,1,1,0-2.674h3.694a1.337,1.337,0,0,1,0,2.674" transform="translate(21.87 10.735)" fill="#12a6be"/>
        <path id="Trazado_255184" data-name="Trazado 255184" d="M37.694,25.514H28.228a1.337,1.337,0,1,1,0-2.674h8.388a3.6,3.6,0,0,1,1.976-1.978V15.4a3.6,3.6,0,0,1-1.976-1.978H28.228a1.337,1.337,0,1,1,0-2.674h9.466a1.337,1.337,0,0,1,1.335,1.337.9.9,0,0,0,.9.9,1.336,1.336,0,0,1,1.335,1.339v7.62a1.336,1.336,0,0,1-1.335,1.337.9.9,0,0,0-.9.9,1.337,1.337,0,0,1-1.335,1.337" transform="translate(20.345 8.13)" fill="#12a6be"/>
        <path id="Trazado_255185" data-name="Trazado 255185" d="M17.522,16.863H13.828a1.337,1.337,0,0,1,0-2.674h3.694a1.337,1.337,0,1,1,0,2.674" transform="translate(9.451 10.735)" fill="#12a6be"/>
        <path id="Trazado_255186" data-name="Trazado 255186" d="M22.988,25.514H13.522a1.336,1.336,0,0,1-1.337-1.337.9.9,0,0,0-.9-.9,1.337,1.337,0,0,1-1.337-1.337v-7.62a1.338,1.338,0,0,1,1.337-1.339.9.9,0,0,0,.9-.9,1.336,1.336,0,0,1,1.337-1.337h9.466a1.337,1.337,0,1,1,0,2.674H14.6A3.6,3.6,0,0,1,12.621,15.4v5.465A3.6,3.6,0,0,1,14.6,22.84h8.39a1.337,1.337,0,0,1,0,2.674" transform="translate(7.526 8.13)" fill="#12a6be"/>
        <path id="Trazado_255187" data-name="Trazado 255187" d="M27.425,24.435H21.05A1.336,1.336,0,0,1,19.713,23.1v-.782a1.336,1.336,0,0,1,2.552-.555h3.822V19.142H21.05a1.336,1.336,0,0,1-1.337-1.337V12.513a1.336,1.336,0,0,1,1.337-1.337h6.375a1.337,1.337,0,0,1,1.337,1.337v.782a1.336,1.336,0,0,1-2.552.555H22.387v2.619h5.038a1.337,1.337,0,0,1,1.337,1.337V23.1a1.337,1.337,0,0,1-1.337,1.337" transform="translate(14.915 8.455)" fill="#12a6be"/>
      </g>
    </g>
  </g>
</svg>
