<svg xmlns="http://www.w3.org/2000/svg" width="85" height="59.435" viewBox="0 0 85 59.435">
  <g id="Grupo_875547" data-name="Grupo 875547" transform="translate(-1072.5 -8969.838)">
    <g id="Grupo_870472" data-name="Grupo 870472" transform="translate(1072.5 8969.838)">
      <path id="Trazado_255230" data-name="Trazado 255230" d="M5.921,0H57.727a5.932,5.932,0,0,1,5.921,5.921v7.187a18.524,18.524,0,0,0-4.44-.6V5.921a1.491,1.491,0,0,0-1.48-1.48H5.921a1.491,1.491,0,0,0-1.48,1.48v37a1.491,1.491,0,0,0,1.48,1.48H46.328a18.387,18.387,0,0,0,8.148,4.441H5.921A5.932,5.932,0,0,1,0,42.925v-37A5.932,5.932,0,0,1,5.921,0" transform="translate(0 0)" fill="#1f592a"/>
      <path id="Trazado_255231" data-name="Trazado 255231" d="M157.456,463.693a2.647,2.647,0,1,0,0,5.294h22.2a2.647,2.647,0,1,0,0-5.294Z" transform="translate(-136.734 -409.553)" fill="#1f592a"/>
      <path id="Trazado_255232" data-name="Trazado 255232" d="M373.487,133.695a12.171,12.171,0,1,1,0,17.213,12.171,12.171,0,0,1,0-17.213m-2.869-2.869a16.229,16.229,0,0,1,24.3,21.427l2.455,2.455-.007,0-.076.025-.009,0-.03.01-.057.02,0,0-.03.011-.058.022h0l-.03.012-.01,0-.059.024-.04.017-.061.026-.01,0-.03.013-.007,0-.045.021-.007,0-.029.014-.008,0-.048.023-.063.032-.025.013-.063.034-.037.021-.064.036-.024.014-.07.042-.024.015-.069.044-.015.01-.076.051-.009.006h0l-.005,0-.079.056-.012.009-.074.055-.011.009-.079.063,0,0,0,0-.078.065,0,0h0l-.082.072,0,0-.078.072,0,0-.079.077-.077.079,0,0-.072.078,0,0-.071.081h0l0,0-.065.077,0,0,0,0-.064.081-.006.008-.059.078-.008.011-.054.076-.011.015-.051.076-.01.016-.045.07-.018.029-.038.064-.016.027-.034.059-.022.04-.034.063-.013.024-.032.063-.022.045-.021.043-.025.055h0l-.013.03,0,.011-.021.049-.013.03-.013.03-.024.06-.012.03-.022.059v0l-.011.03,0,.005-.019.055-.01.03,0,.009c-.009.026-.017.052-.025.078l0,.005-2.454-2.455a16.229,16.229,0,0,1-21.427-24.3" transform="translate(-323.147 -111.353)" fill="#359547" fill-rule="evenodd"/>
      <path id="Trazado_255233" data-name="Trazado 255233" d="M621.688,381.9h0a3.052,3.052,0,0,1,4.3,0l6.439,6.439a3.052,3.052,0,0,1,0,4.3h0a3.052,3.052,0,0,1-4.3,0l-6.438-6.438a3.051,3.051,0,0,1,0-4.3" transform="translate(-548.316 -336.523)" fill="#1f592a" fill-rule="evenodd"/>
      <path id="Trazado_255234" data-name="Trazado 255234" d="M62.658,122.041a1.765,1.765,0,0,1,0-3.53h9.4a1.766,1.766,0,0,1,1.707,1.317l.918,2.61,4.035-15.051a1.763,1.763,0,0,1,3.427.088l3.194,11.479h6.983a1.765,1.765,0,0,1,0,3.53H84.006v-.005a1.76,1.76,0,0,1-1.7-1.291l-1.854-6.663-3.839,14.321h0a1.759,1.759,0,0,1-3.361.125l-2.437-6.929Z" transform="translate(-53.783 -93.694)" fill="#359547"/>
      <rect id="Rectángulo_291115" data-name="Rectángulo 291115" width="85" height="59.434" fill="none"/>
    </g>
  </g>
</svg>
