<svg xmlns="http://www.w3.org/2000/svg" xmlns:xlink="http://www.w3.org/1999/xlink" width="138.992" height="138.992" viewBox="0 0 138.992 138.992">
  <defs>
    <clipPath id="clip-path">
      <rect id="Rectángulo_291122" data-name="Rectángulo 291122" width="62.124" height="70.534" fill="#fff"/>
    </clipPath>
  </defs>
  <g id="Grupo_1072235" data-name="Grupo 1072235" transform="translate(-1144.004 -10876)">
    <g id="Trazado_609214" data-name="Trazado 609214" transform="translate(1144.004 10876)" fill="#0c5e46">
      <path d="M 69.49609375 136.9921875 C 60.38329315185547 136.9921875 51.54415512084961 135.2079010009766 43.22419357299805 131.6888275146484 C 39.22519302368164 129.9974212646484 35.36801528930664 127.9037704467773 31.75979423522949 125.4661102294922 C 28.1853141784668 123.0512542724609 24.82399368286133 120.2778701782227 21.7691535949707 117.2230529785156 C 18.71431350708008 114.168212890625 15.94095420837402 110.8068771362305 13.52609348297119 107.2324142456055 C 11.08841419219971 103.6241760253906 8.994793891906738 99.76699066162109 7.303353786468506 95.76801300048828 C 3.784293651580811 87.44803619384766 1.999993801116943 78.60889434814453 1.999993801116943 69.49609375 C 1.999993801116943 60.38329315185547 3.784293651580811 51.54415512084961 7.303353786468506 43.22419357299805 C 8.994793891906738 39.22519302368164 11.08841419219971 35.36801528930664 13.52609348297119 31.75979423522949 C 15.94095420837402 28.1853141784668 18.71431350708008 24.82399368286133 21.7691535949707 21.7691535949707 C 24.82399368286133 18.71431350708008 28.1853141784668 15.94095420837402 31.75979423522949 13.52609348297119 C 35.36801528930664 11.08841419219971 39.22519302368164 8.994793891906738 43.22419357299805 7.303353786468506 C 51.54415512084961 3.784293651580811 60.38329315185547 1.999993801116943 69.49609375 1.999993801116943 C 78.60889434814453 1.999993801116943 87.44803619384766 3.784293651580811 95.76801300048828 7.303353786468506 C 99.76699066162109 8.994793891906738 103.6241760253906 11.08841419219971 107.2324142456055 13.52609348297119 C 110.8068771362305 15.94095420837402 114.168212890625 18.71431350708008 117.2230529785156 21.7691535949707 C 120.2778701782227 24.82399368286133 123.0512542724609 28.1853141784668 125.4661102294922 31.75979423522949 C 127.9037704467773 35.36801528930664 129.9974212646484 39.22519302368164 131.6888275146484 43.22419357299805 C 135.2079010009766 51.54415512084961 136.9921875 60.38329315185547 136.9921875 69.49609375 C 136.9921875 78.60889434814453 135.2079010009766 87.44803619384766 131.6888275146484 95.76801300048828 C 129.9974212646484 99.76699066162109 127.9037704467773 103.6241760253906 125.4661102294922 107.2324142456055 C 123.0512542724609 110.8068771362305 120.2778701782227 114.168212890625 117.2230529785156 117.2230529785156 C 114.168212890625 120.2778701782227 110.8068771362305 123.0512542724609 107.2324142456055 125.4661102294922 C 103.6241760253906 127.9037704467773 99.76699066162109 129.9974212646484 95.76801300048828 131.6888275146484 C 87.44803619384766 135.2079010009766 78.60889434814453 136.9921875 69.49609375 136.9921875 Z" stroke="none"/>
      <path d="M 69.49609375 3.999984741210938 C 60.65242767333984 3.999984741210938 52.07540893554688 5.73114013671875 44.00328063964844 9.145370483398438 C 40.12323760986328 10.78648376464844 36.380615234375 12.81794738769531 32.87938690185547 15.18332672119141 C 29.41040802001953 17.52692413330078 26.14817810058594 20.21852874755859 23.18336486816406 23.18336486816406 C 20.21852874755859 26.14817810058594 17.52692413330078 29.41040802001953 15.18332672119141 32.87938690185547 C 12.81794738769531 36.380615234375 10.78648376464844 40.12323760986328 9.145370483398438 44.00328063964844 C 5.73114013671875 52.07540893554688 3.999984741210938 60.65242767333984 3.999984741210938 69.49609375 C 3.999984741210938 78.33975982666016 5.73114013671875 86.91677856445312 9.145370483398438 94.98890686035156 C 10.78648376464844 98.86894226074219 12.81794738769531 102.611572265625 15.18332672119141 106.1127777099609 C 17.52692413330078 109.5817794799805 20.21852874755859 112.843994140625 23.18336486816406 115.8088226318359 C 26.14817810058594 118.7736358642578 29.41040802001953 121.4652404785156 32.87938690185547 123.8088455200195 C 36.380615234375 126.1742172241211 40.12323760986328 128.2057037353516 44.00328063964844 129.8468017578125 C 52.07540893554688 133.2610321044922 60.65240478515625 134.9921722412109 69.49609375 134.9921722412109 C 78.33975982666016 134.9921722412109 86.91677856445312 133.2610321044922 94.98890686035156 129.8468017578125 C 98.86894226074219 128.2057037353516 102.611572265625 126.1742172241211 106.1127777099609 123.8088455200195 C 109.5817794799805 121.4652404785156 112.843994140625 118.7736358642578 115.8088226318359 115.8088226318359 C 118.7736358642578 112.843994140625 121.4652404785156 109.5817794799805 123.8088455200195 106.1127777099609 C 126.1742172241211 102.611572265625 128.2057037353516 98.86894226074219 129.8468017578125 94.98890686035156 C 133.2610321044922 86.91677856445312 134.9921722412109 78.33975982666016 134.9921722412109 69.49609375 C 134.9921722412109 60.65240478515625 133.2610321044922 52.07540893554688 129.8468017578125 44.00328063964844 C 128.2057037353516 40.12323760986328 126.1742172241211 36.380615234375 123.8088455200195 32.87938690185547 C 121.4652404785156 29.41040802001953 118.7736358642578 26.14817810058594 115.8088226318359 23.18336486816406 C 112.843994140625 20.21852874755859 109.5817794799805 17.52692413330078 106.1127777099609 15.18332672119141 C 102.611572265625 12.81794738769531 98.86894226074219 10.78648376464844 94.98890686035156 9.145370483398438 C 86.91677856445312 5.73114013671875 78.33975982666016 3.999984741210938 69.49609375 3.999984741210938 M 69.49609375 -1.52587890625e-05 C 107.8777160644531 -1.52587890625e-05 138.9921722412109 31.11447143554688 138.9921722412109 69.49609375 C 138.9921722412109 107.8777160644531 107.8777160644531 138.9921722412109 69.49609375 138.9921722412109 C 31.11447143554688 138.9921722412109 -1.52587890625e-05 107.8777160644531 -1.52587890625e-05 69.49609375 C -1.52587890625e-05 31.11447143554688 31.11447143554688 -1.52587890625e-05 69.49609375 -1.52587890625e-05 Z" stroke="none" fill="#fff"/>
    </g>
    <g id="Grupo_870480" data-name="Grupo 870480" transform="translate(1182.135 10910.44)">
      <g id="Grupo_870479" data-name="Grupo 870479" transform="translate(0)" clip-path="url(#clip-path)">
        <path id="Trazado_255243" data-name="Trazado 255243" d="M4.371,121.775A4.375,4.375,0,0,1,0,117.4V83.928a4.375,4.375,0,0,1,4.371-4.371h7.246a1.266,1.266,0,0,1,0,2.531H4.371a1.842,1.842,0,0,0-1.839,1.839V117.4a1.842,1.842,0,0,0,1.839,1.839H57.755a1.841,1.841,0,0,0,1.837-1.839V83.928a1.841,1.841,0,0,0-1.837-1.839h-7.4a1.266,1.266,0,1,1,0-2.531h7.4a4.374,4.374,0,0,1,4.369,4.371V117.4a4.374,4.374,0,0,1-4.369,4.371Z" transform="translate(0 -58.019)" fill="#fff"/>
        <path id="Trazado_255244" data-name="Trazado 255244" d="M96.794,235.464a1.267,1.267,0,0,1-1.266-1.266V227.42a1.267,1.267,0,0,1,1.266-1.266h7.87a1.266,1.266,0,0,1,1.265,1.266V234.2a1.266,1.266,0,0,1-1.265,1.266Zm1.265-2.386,5.483-.145-.145-4.392-5.339.142Z" transform="translate(-69.667 -164.93)" fill="#fff"/>
        <path id="Trazado_255245" data-name="Trazado 255245" d="M1.266,202.16a1.266,1.266,0,1,1,0-2.531H60.859a1.266,1.266,0,0,1,0,2.531Z" transform="translate(0 -145.586)" fill="#fff"/>
        <path id="Trazado_255246" data-name="Trazado 255246" d="M74.584,253.723a1.266,1.266,0,0,1,0-2.531h19.9a1.266,1.266,0,1,1,0,2.531Z" transform="translate(-53.47 -183.19)" fill="#fff"/>
        <path id="Trazado_255247" data-name="Trazado 255247" d="M152.2,10.762A1.266,1.266,0,0,1,150.933,9.5V1.266a1.265,1.265,0,0,1,2.162-.894l8.228,8.23a1.265,1.265,0,0,1-.894,2.16Zm1.265-2.386,4.258-.145-4.258-3.926Z" transform="translate(-110.073 0)" fill="#fff"/>
        <path id="Trazado_255248" data-name="Trazado 255248" d="M40.06,51.013a1.267,1.267,0,0,1-1.266-1.266V1.27A1.266,1.266,0,0,1,40.06,0H70.419a1.271,1.271,0,0,1,.894.371l8.229,8.23a1.271,1.271,0,0,1,.371.9V49.746a1.266,1.266,0,0,1-1.265,1.266Zm1.265-2.386,36.2-.145L77.382,9.964l-7.53-7.47-28.526.043Z" transform="translate(-28.292 -0.004)" fill="#fff"/>
        <path id="Trazado_255249" data-name="Trazado 255249" d="M58.734,126.069a1.266,1.266,0,0,1,0-2.532H87.212a1.266,1.266,0,1,1,0,2.532Z" transform="translate(-41.911 -90.094)" fill="#fff"/>
        <path id="Trazado_255250" data-name="Trazado 255250" d="M69.251,107.8a1.266,1.266,0,0,1-1.266-1.265V99.756a1.266,1.266,0,0,1,1.266-1.266h7.594a1.266,1.266,0,0,1,1.265,1.266v6.781a1.266,1.266,0,0,1-1.265,1.265Zm1.265-2.386,5.208-.145-.145-4.395-5.063.142Z" transform="translate(-49.58 -71.827)" fill="#fff"/>
        <path id="Trazado_255251" data-name="Trazado 255251" d="M97.3,95.526a1.266,1.266,0,0,1-1.266-1.265V82.923A1.267,1.267,0,0,1,97.3,81.657H104.9a1.266,1.266,0,0,1,1.265,1.266V94.261a1.266,1.266,0,0,1-1.265,1.265Zm1.265-2.386,5.208-.145-.145-8.952-5.063.142Z" transform="translate(-70.038 -59.551)" fill="#fff"/>
        <path id="Trazado_255252" data-name="Trazado 255252" d="M125.355,83.251a1.266,1.266,0,0,1-1.266-1.265V66.091a1.267,1.267,0,0,1,1.266-1.266h7.594a1.267,1.267,0,0,1,1.266,1.266V81.986a1.266,1.266,0,0,1-1.266,1.265Zm1.265-2.386,5.209-.145-.145-13.508-5.064.142Z" transform="translate(-90.496 -47.276)" fill="#fff"/>
      </g>
    </g>
  </g>
</svg>
