<svg xmlns="http://www.w3.org/2000/svg" xmlns:xlink="http://www.w3.org/1999/xlink" width="132.592" height="132.592" viewBox="0 0 132.592 132.592">
  <defs>
    <clipPath id="clip-path">
      <rect id="Rectángulo_291121" data-name="Rectángulo 291121" width="93.83" height="67.286" fill="#fff"/>
    </clipPath>
  </defs>
  <g id="Grupo_1072233" data-name="Grupo 1072233" transform="translate(-315.204 -10879.2)">
    <g id="Trazado_609212" data-name="Trazado 609212" transform="translate(315.204 10879.2)" fill="#0c5e46">
      <path d="M 66.29608154296875 130.5921783447266 C 57.61528015136719 130.5921783447266 49.19520950317383 128.8924865722656 41.26975250244141 125.540283203125 C 37.46039199829102 123.9290618896484 33.78608322143555 121.934700012207 30.34893608093262 119.6125869750977 C 26.94391822814941 117.3122100830078 23.74191856384277 114.6703033447266 20.83189964294434 111.7602844238281 C 17.9218635559082 108.8502426147461 15.27997207641602 105.6482620239258 12.97959041595459 102.2432479858398 C 10.65748119354248 98.80608367919922 8.663118362426758 95.13177490234375 7.051899909973145 91.32241058349609 C 3.699699640274048 83.39695739746094 2.000008821487427 74.97688293457031 2.000008821487427 66.29608154296875 C 2.000008821487427 57.61528015136719 3.699699640274048 49.19520950317383 7.051899909973145 41.26975250244141 C 8.663118362426758 37.46039199829102 10.65748119354248 33.78608322143555 12.97959041595459 30.34893608093262 C 15.27997207641602 26.94391822814941 17.9218635559082 23.74191856384277 20.83189964294434 20.83189964294434 C 23.74191856384277 17.9218635559082 26.94391822814941 15.27997207641602 30.34893608093262 12.97959041595459 C 33.78608322143555 10.65748119354248 37.46039199829102 8.663118362426758 41.26975250244141 7.051899909973145 C 49.19520950317383 3.699699640274048 57.61528015136719 2.000008821487427 66.29608154296875 2.000008821487427 C 74.97688293457031 2.000008821487427 83.39695739746094 3.699699640274048 91.32241058349609 7.051899909973145 C 95.13177490234375 8.663118362426758 98.80608367919922 10.65748119354248 102.2432479858398 12.97959041595459 C 105.6482620239258 15.27997207641602 108.8502426147461 17.9218635559082 111.7602844238281 20.83189964294434 C 114.6703033447266 23.74191856384277 117.3122100830078 26.94391822814941 119.6125869750977 30.34893608093262 C 121.934700012207 33.78608322143555 123.9290618896484 37.46039199829102 125.540283203125 41.26975250244141 C 128.8924865722656 49.19520950317383 130.5921783447266 57.61528015136719 130.5921783447266 66.29608154296875 C 130.5921783447266 74.97688293457031 128.8924865722656 83.39695739746094 125.540283203125 91.32241058349609 C 123.9290618896484 95.13177490234375 121.934700012207 98.80608367919922 119.6125869750977 102.2432479858398 C 117.3122100830078 105.6482620239258 114.6703033447266 108.8502426147461 111.7602844238281 111.7602844238281 C 108.8502426147461 114.6703033447266 105.6482620239258 117.3122100830078 102.2432479858398 119.6125869750977 C 98.80608367919922 121.934700012207 95.13177490234375 123.9290618896484 91.32241058349609 125.540283203125 C 83.39695739746094 128.8924865722656 74.97688293457031 130.5921783447266 66.29608154296875 130.5921783447266 Z" stroke="none"/>
      <path d="M 66.29608154296875 4 C 57.8843994140625 4 49.72646331787109 5.646537780761719 42.04885864257812 8.893898010253906 C 38.35842132568359 10.45481872558594 34.79868316650391 12.38702392578125 31.46854400634766 14.63681793212891 C 28.16899871826172 16.86594390869141 25.06612396240234 19.42607879638672 22.24610137939453 22.24610137939453 C 19.42607879638672 25.06612396240234 16.86594390869141 28.16899871826172 14.63681793212891 31.46854400634766 C 12.38702392578125 34.79868316650391 10.45481872558594 38.35842132568359 8.893898010253906 42.04885864257812 C 5.646537780761719 49.72646331787109 4 57.8843994140625 4 66.29608154296875 C 4 74.707763671875 5.646537780761719 82.86569976806641 8.893898010253906 90.54330444335938 C 10.45481872558594 94.23374176025391 12.38702392578125 97.79345703125 14.63681793212891 101.1236190795898 C 16.86594390869141 104.4231643676758 19.42607879638672 107.5260391235352 22.24610137939453 110.346061706543 C 25.06612396240234 113.1660842895508 28.16899871826172 115.726203918457 31.46854400634766 117.9553375244141 C 34.79868316650391 120.2051391601562 38.35842132568359 122.1373443603516 42.04885864257812 123.6982574462891 C 49.72646331787109 126.9456176757812 57.8843994140625 128.5921630859375 66.29608154296875 128.5921630859375 C 74.707763671875 128.5921630859375 82.86569976806641 126.9456176757812 90.54330444335938 123.6982574462891 C 94.23374176025391 122.1373443603516 97.79345703125 120.2051391601562 101.1236190795898 117.9553375244141 C 104.4231643676758 115.726203918457 107.5260391235352 113.1660842895508 110.346061706543 110.346061706543 C 113.1660842895508 107.5260391235352 115.726203918457 104.4231643676758 117.9553375244141 101.1236190795898 C 120.2051391601562 97.79345703125 122.1373443603516 94.23374176025391 123.6982574462891 90.54330444335938 C 126.9456176757812 82.86569976806641 128.5921630859375 74.707763671875 128.5921630859375 66.29608154296875 C 128.5921630859375 57.8843994140625 126.9456176757812 49.72646331787109 123.6982574462891 42.04885864257812 C 122.1373443603516 38.35842132568359 120.2051391601562 34.79868316650391 117.9553375244141 31.46854400634766 C 115.726203918457 28.16899871826172 113.1660842895508 25.06612396240234 110.346061706543 22.24610137939453 C 107.5260391235352 19.42607879638672 104.4231643676758 16.86594390869141 101.1236190795898 14.63681793212891 C 97.79345703125 12.38702392578125 94.23374176025391 10.45481872558594 90.54330444335938 8.893898010253906 C 82.86569976806641 5.646537780761719 74.707763671875 4 66.29608154296875 4 M 66.29608154296875 0 C 102.9103851318359 0 132.5921630859375 29.6817626953125 132.5921630859375 66.29608154296875 C 132.5921630859375 102.9103851318359 102.9103851318359 132.5921630859375 66.29608154296875 132.5921630859375 C 29.6817626953125 132.5921630859375 0 102.9103851318359 0 66.29608154296875 C 0 29.6817626953125 29.6817626953125 0 66.29608154296875 0 Z" stroke="none" fill="#fff"/>
    </g>
    <g id="Grupo_870478" data-name="Grupo 870478" transform="translate(335.151 10912.055)">
      <g id="Grupo_870477" data-name="Grupo 870477" clip-path="url(#clip-path)">
        <path id="Trazado_255239" data-name="Trazado 255239" d="M59.389,126.616a14.216,14.216,0,1,1,10.051-4.164,14.119,14.119,0,0,1-10.051,4.164m0-25.9a11.68,11.68,0,1,0,8.259,3.421,11.613,11.613,0,0,0-8.259-3.421" transform="translate(-32.929 -71.572)" fill="#fff"/>
        <path id="Trazado_255240" data-name="Trazado 255240" d="M24.973,105.932a4.3,4.3,0,0,1-4.3-4.295V99.294A15.565,15.565,0,0,1,16.362,97.6l-1.484,1.634a4.3,4.3,0,0,1-6.075,0l-2.1-2.1a4.3,4.3,0,0,1,0-6.075L8.357,89.4A15.524,15.524,0,0,1,6.5,85.152l-2.2.105A4.3,4.3,0,0,1,0,80.963V77.987a4.3,4.3,0,0,1,4.3-4.3H6.64a15.5,15.5,0,0,1,1.693-4.315L6.7,67.892a4.3,4.3,0,0,1,0-6.075l2.1-2.1a4.3,4.3,0,0,1,6.075,0l1.658,1.658a15.52,15.52,0,0,1,4.246-1.859l-.105-2.2a4.3,4.3,0,0,1,4.3-4.3h2.974a4.3,4.3,0,0,1,4.3,4.3v2.342a15.5,15.5,0,0,1,4.315,1.693l1.484-1.634a4.293,4.293,0,0,1,6.075,0l2.1,2.1a4.3,4.3,0,0,1,0,6.075L44.562,69.55A15.522,15.522,0,0,1,46.42,73.8l2.2-.105a4.3,4.3,0,0,1,4.295,4.3v2.976a4.3,4.3,0,0,1-4.295,4.295H46.279a15.5,15.5,0,0,1-1.693,4.315l1.635,1.486a4.3,4.3,0,0,1,0,6.073l-2.1,2.1a4.3,4.3,0,0,1-6.075,0l-1.658-1.658a15.591,15.591,0,0,1-4.246,1.856l.105,2.2a4.3,4.3,0,0,1-4.3,4.295ZM16.252,94.8a1.27,1.27,0,0,1,.666.189,18.066,18.066,0,0,0,5.312,2.2,1.277,1.277,0,0,1,.981,1.3v3.151a1.764,1.764,0,0,0,1.762,1.76h2.974a1.764,1.764,0,0,0,1.762-1.76V98.51a1.26,1.26,0,0,1,.972-1.316A18.067,18.067,0,0,0,36,94.989a1.27,1.27,0,0,1,.666-.189,1.257,1.257,0,0,1,.895.371l2.271,2.273a1.813,1.813,0,0,0,2.492,0l2.1-2.1a1.766,1.766,0,0,0,0-2.492l-2.271-2.271a1.26,1.26,0,0,1-.184-1.561,18.062,18.062,0,0,0,2.2-5.305,1.271,1.271,0,0,1,1.239-.99l3.209,0a1.762,1.762,0,0,0,1.76-1.76V77.987a1.764,1.764,0,0,0-1.76-1.761H45.484a1.276,1.276,0,0,1-1.3-.935,18.2,18.2,0,0,0-2.213-5.358,1.262,1.262,0,0,1,.184-1.563l2.27-2.27a1.769,1.769,0,0,0,0-2.492l-2.1-2.1a1.811,1.811,0,0,0-2.492,0l-2.271,2.271A1.263,1.263,0,0,1,36,63.96a18.023,18.023,0,0,0-5.319-2.2,1.263,1.263,0,0,1-.973-1.234v-3.21a1.765,1.765,0,0,0-1.762-1.762H24.973a1.765,1.765,0,0,0-1.762,1.762v3.21a1.263,1.263,0,0,1-.973,1.234,18.023,18.023,0,0,0-5.319,2.2,1.263,1.263,0,0,1-1.561-.183l-2.271-2.271a1.768,1.768,0,0,0-2.492,0l-2.1,2.1a1.764,1.764,0,0,0,0,2.492l2.271,2.271a1.26,1.26,0,0,1,.184,1.561,18.107,18.107,0,0,0-2.2,5.319,1.262,1.262,0,0,1-1.234.974H4.3a1.764,1.764,0,0,0-1.76,1.761v2.976a1.762,1.762,0,0,0,1.76,1.76H7.508a1.264,1.264,0,0,1,1.234.975,18.02,18.02,0,0,0,2.2,5.318,1.262,1.262,0,0,1-.184,1.563L8.49,92.849a1.762,1.762,0,0,0,0,2.49l2.1,2.1a1.766,1.766,0,0,0,2.492,0l2.271-2.271a1.257,1.257,0,0,1,.895-.371" transform="translate(0 -38.647)" fill="#fff"/>
        <path id="Trazado_255241" data-name="Trazado 255241" d="M233.517,59.242a12.2,12.2,0,1,1,11.327-7.63,12.1,12.1,0,0,1-11.327,7.63m.028-21.86a9.653,9.653,0,1,0,3.606.7,9.631,9.631,0,0,0-3.606-.7" transform="translate(-161.345 -25.401)" fill="#fff"/>
        <path id="Trazado_255242" data-name="Trazado 255242" d="M202.288,43.287a3.8,3.8,0,0,1-1.434-.28l-2.328-.941a3.831,3.831,0,0,1-2.115-4.978l.693-1.713a12.218,12.218,0,0,1-2.681-2.507l-1.53.763a3.822,3.822,0,0,1-5.015-2.025l-.982-2.311a3.831,3.831,0,0,1,2.025-5.015l1.7-.722a12.28,12.28,0,0,1-.121-3.668l-1.622-.542a3.827,3.827,0,0,1-2.115-4.978l.942-2.33a3.814,3.814,0,0,1,4.976-2.114l1.713.693A12.254,12.254,0,0,1,196.9,7.938l-.763-1.53a3.823,3.823,0,0,1,2.025-5.015l2.312-.982a3.824,3.824,0,0,1,5.013,2.025l.722,1.7a6.714,6.714,0,0,1,1.911-.209q.879,0,1.757.088l.542-1.622A3.822,3.822,0,0,1,215.4.279l2.329.941A3.824,3.824,0,0,1,219.844,6.2l-.69,1.713a12.218,12.218,0,0,1,2.68,2.507l1.53-.763a3.823,3.823,0,0,1,5.015,2.025l.982,2.312a3.823,3.823,0,0,1-2.025,5.013l-1.7.722a12.161,12.161,0,0,1,.121,3.668l1.622.542a3.83,3.83,0,0,1,2.115,4.978l-.941,2.33a3.826,3.826,0,0,1-4.978,2.114l-1.713-.691a12.228,12.228,0,0,1-2.507,2.679l.763,1.53a3.829,3.829,0,0,1-2.025,5.015l-2.312.982a3.776,3.776,0,0,1-1.489.3,3.824,3.824,0,0,1-3.525-2.33l-.723-1.7a6.615,6.615,0,0,1-1.9.209q-.881,0-1.763-.088l-.542,1.622a3.833,3.833,0,0,1-3.545,2.395m-7.4-13.149a1.274,1.274,0,0,1,1.022.515,15.106,15.106,0,0,0,3.422,3.361,1.262,1.262,0,0,1,.443,1.508l-1.014,2.514a1.293,1.293,0,0,0,.711,1.678l2.33.94a1.3,1.3,0,0,0,.484.094,1.289,1.289,0,0,0,1.194-.807l1.014-2.513a1.278,1.278,0,0,1,1.177-.793,17.806,17.806,0,0,0,2.461.185,15.074,15.074,0,0,0,2.529-.213h.056a1.308,1.308,0,0,1,1.358.841l1.022,2.408a1.292,1.292,0,0,0,1.19.785,1.267,1.267,0,0,0,.5-.1l2.312-.982a1.292,1.292,0,0,0,.683-1.689l-1.03-2.425a1.261,1.261,0,0,1,.383-1.585,15.025,15.025,0,0,0,3.364-3.424,1.272,1.272,0,0,1,1.036-.534,1.257,1.257,0,0,1,.473.091l2.514,1.016A1.27,1.27,0,0,0,225,31.1a1.287,1.287,0,0,0,1.2-.807l.941-2.328a1.292,1.292,0,0,0-.713-1.678l-2.513-1.016a1.263,1.263,0,0,1-.78-1.365,15.038,15.038,0,0,0-.041-4.8,1.329,1.329,0,0,1,.837-1.412l2.412-1.025a1.29,1.29,0,0,0,.683-1.69l-.982-2.312a1.294,1.294,0,0,0-1.69-.683l-2.425,1.03a1.483,1.483,0,0,1-.564.134,1.274,1.274,0,0,1-1.022-.517,14.991,14.991,0,0,0-3.422-3.362,1.263,1.263,0,0,1-.443-1.508l1.015-2.515a1.285,1.285,0,0,0-.712-1.678l-2.328-.941a1.288,1.288,0,0,0-1.678.711L211.76,5.856a1.264,1.264,0,0,1-1.177.794,17.891,17.891,0,0,0-2.466-.186,14.949,14.949,0,0,0-2.52.213h-.06a1.312,1.312,0,0,1-1.319-.754l-1.06-2.495a1.288,1.288,0,0,0-1.689-.683l-2.312.982a1.289,1.289,0,0,0-.682,1.689l1.059,2.5a1.262,1.262,0,0,1-.414,1.516,15.08,15.08,0,0,0-3.361,3.422,1.268,1.268,0,0,1-1.035.535,1.284,1.284,0,0,1-.476-.092l-2.512-1.015a1.288,1.288,0,0,0-1.678.711l-.942,2.33A1.289,1.289,0,0,0,189.828,17l2.513,1.014a1.267,1.267,0,0,1,.78,1.366,15.067,15.067,0,0,0,.041,4.8,1.265,1.265,0,0,1-.754,1.379l-2.5,1.059a1.29,1.29,0,0,0-.681,1.689l.982,2.312a1.29,1.29,0,0,0,1.691.683l2.494-1.06a1.249,1.249,0,0,1,.494-.1" transform="translate(-135.94)" fill="#fff"/>
      </g>
    </g>
  </g>
</svg>
