<svg xmlns="http://www.w3.org/2000/svg" xmlns:xlink="http://www.w3.org/1999/xlink" width="126.415" height="126.417" viewBox="0 0 126.415 126.417">
  <defs>
    <clipPath id="clip-path">
      <path id="Trazado_189538" data-name="Trazado 189538" d="M2.2,63.208a61,61,0,1,1,61,61,61.074,61.074,0,0,1-61-61M63.208,0a63.208,63.208,0,1,0,63.207,63.208A63.279,63.279,0,0,0,63.208,0Z" fill="#12a6be"/>
    </clipPath>
    <clipPath id="clip-path-2">
      <rect id="Rect치ngulo_291072" data-name="Rect치ngulo 291072" width="73.852" height="73.66" fill="#12a6be"/>
    </clipPath>
  </defs>
  <g id="Grupo_879016" data-name="Grupo 879016" transform="translate(8562.415 4128.917)">
    <g id="Grupo_877528" data-name="Grupo 877528" transform="translate(456.585 -604.058)">
      <g id="Grupo_870375" data-name="Grupo 870375" transform="translate(-9019 -3524.859)">
        <g id="Grupo_172087" data-name="Grupo 172087" clip-path="url(#clip-path)">
          <rect id="Rect치ngulo_49153" data-name="Rect치ngulo 49153" width="156.849" height="156.851" transform="translate(-34.098 9.986) rotate(-16.323)" fill="#12a6be"/>
        </g>
      </g>
      <g id="Grupo_870385" data-name="Grupo 870385" transform="translate(-8993 -3498.859)">
        <g id="Grupo_870284" data-name="Grupo 870284" transform="translate(0 0)" clip-path="url(#clip-path-2)">
          <path id="Trazado_255168" data-name="Trazado 255168" d="M40.175,63.448q-.053,0-.105-.005a1.327,1.327,0,0,1-.975-.546l-5.529-7.632a14.011,14.011,0,0,0-1.443-1.693l-16.3-16.3a14.048,14.048,0,0,0-1.693-1.445L6.493,30.294a1.33,1.33,0,0,1-.161-2.021l5.285-5.284a16.526,16.526,0,0,1,18.341-3.474L33.1,16.371A56.833,56.833,0,0,1,67.932.006a1.335,1.335,0,0,1,1.452,1.452A56.843,56.843,0,0,1,53.018,36.288l-3.144,3.144A16.53,16.53,0,0,1,46.4,57.773l-5.284,5.285a1.334,1.334,0,0,1-.942.391M9.321,29.052l6.368,4.613A16.849,16.849,0,0,1,17.7,35.383l16.3,16.3A16.818,16.818,0,0,1,35.725,53.7l4.613,6.368,4.178-4.18a13.878,13.878,0,0,0,2.566-16.134,1.331,1.331,0,0,1,.245-1.545L51.134,34.4A54.162,54.162,0,0,0,66.552,2.837,54.161,54.161,0,0,0,34.986,18.255L31.18,22.063a1.336,1.336,0,0,1-1.546.245A13.873,13.873,0,0,0,13.5,24.873Z" transform="translate(4.463 -0.001)" fill="#12a6be"/>
          <path id="Trazado_255169" data-name="Trazado 255169" d="M33.62,18.222A5.2,5.2,0,1,1,37.3,16.7a5.192,5.192,0,0,1-3.683,1.522m0-7.746a2.542,2.542,0,1,0,1.8.743,2.537,2.537,0,0,0-1.8-.743" transform="translate(21.347 5.868)" fill="#12a6be"/>
          <path id="Trazado_255170" data-name="Trazado 255170" d="M28.214,23.633A5.211,5.211,0,1,1,31.9,22.106a5.173,5.173,0,0,1-3.683,1.527m0-7.751a2.542,2.542,0,0,0-1.8,4.34,2.6,2.6,0,0,0,3.6,0,2.541,2.541,0,0,0-1.8-4.34" transform="translate(17.283 9.929)" fill="#12a6be"/>
          <path id="Trazado_255171" data-name="Trazado 255171" d="M22.808,29.039a5.208,5.208,0,1,1,3.683-1.525,5.178,5.178,0,0,1-3.683,1.525m0-7.751a2.544,2.544,0,0,0-1.8,4.341,2.607,2.607,0,0,0,3.6,0,2.543,2.543,0,0,0-1.8-4.341" transform="translate(13.222 13.99)" fill="#12a6be"/>
          <path id="Trazado_255172" data-name="Trazado 255172" d="M21.914,56.374c-.163,0-.326-.005-.49-.014a6.729,6.729,0,0,1-5.805-4.077c-4.037.469-7.063-.361-9-2.473-2.6-2.828-2.375-7.1-2.066-9.192-4.4-1.66-4.725-5.037-4.494-7A8.716,8.716,0,0,1,6.2,26.406L16.849,23.07a1.333,1.333,0,1,1,.8,2.545L6.991,28.949A6.055,6.055,0,0,0,2.7,33.93c-.172,1.459.028,3.51,3.718,4.488a1.333,1.333,0,0,1,.949,1.618c-.012.051-1.289,5.259,1.217,7.977,1.466,1.592,4.058,2.089,7.706,1.482a1.333,1.333,0,0,1,1.518,1.019,4.232,4.232,0,0,0,3.77,3.184,6.249,6.249,0,0,0,6.147-4.478l3.224-10.3a1.332,1.332,0,1,1,2.543.8l-3.224,10.3a8.863,8.863,0,0,1-8.355,6.357" transform="translate(0 17.285)" fill="#12a6be"/>
          <path id="Trazado_255173" data-name="Trazado 255173" d="M7.471,40.976A1.333,1.333,0,0,1,6.528,38.7l8.858-8.858a1.332,1.332,0,1,1,1.884,1.884L8.413,40.586a1.326,1.326,0,0,1-.942.391" transform="translate(4.611 22.126)" fill="#12a6be"/>
          <path id="Trazado_255174" data-name="Trazado 255174" d="M44.859,16.1a1.525,1.525,0,0,1-.2-.014A14.816,14.816,0,0,1,32.127,3.549a1.332,1.332,0,1,1,2.636-.392,12.163,12.163,0,0,0,10.29,10.289,1.333,1.333,0,0,1-.194,2.651" transform="translate(24.125 1.516)" fill="#12a6be"/>
          <path id="Trazado_255175" data-name="Trazado 255175" d="M14.768,23.8a1.333,1.333,0,0,1-.942-2.275l9.839-9.84a1.332,1.332,0,0,1,1.884,1.884l-9.84,9.84a1.319,1.319,0,0,1-.94.391" transform="translate(10.093 8.488)" fill="#12a6be"/>
          <path id="Trazado_255176" data-name="Trazado 255176" d="M25.064,34.1a1.333,1.333,0,0,1-.942-2.275l9.84-9.84a1.332,1.332,0,0,1,1.884,1.884l-9.84,9.84a1.326,1.326,0,0,1-.942.391" transform="translate(17.828 16.223)" fill="#12a6be"/>
        </g>
      </g>
    </g>
  </g>
</svg>
