<svg xmlns="http://www.w3.org/2000/svg" xmlns:xlink="http://www.w3.org/1999/xlink" width="190" height="162" viewBox="0 0 190 162">
  <defs>
    <clipPath id="clip-path">
      <rect id="Rect치ngulo_295758" data-name="Rect치ngulo 295758" width="190" height="162" transform="translate(810 505)" fill="#fff" stroke="#707070" stroke-width="1"/>
    </clipPath>
    <clipPath id="clip-path-2">
      <rect id="Rect치ngulo_294479" data-name="Rect치ngulo 294479" width="189.92" height="164.542" fill="none"/>
    </clipPath>
  </defs>
  <g id="Enmascarar_grupo_154274" data-name="Enmascarar grupo 154274" transform="translate(-810 -505)" clip-path="url(#clip-path)">
    <g id="Grupo_872064" data-name="Grupo 872064" transform="translate(810 505.414)">
      <g id="Grupo_872064-2" data-name="Grupo 872064" transform="translate(0 0)" clip-path="url(#clip-path-2)">
        <path id="Trazado_260261" data-name="Trazado 260261" d="M171.567,158.565c-7.553.178-72.768.622-94.757.622-21.134,0-42.4,6.335-52.986-29.907C13.472,93.851.329,19.1,49.432,5.149,91.458-6.79,173.571-.541,176.678,51.54c1.69,28.331-2.629,102.018-2.895,104.034s-.8,2.957-2.216,2.991" transform="translate(-10.335 0)" fill="#35b0c1"/>
        <path id="Trazado_260262" data-name="Trazado 260262" d="M95.8,40.049a3.955,3.955,0,0,1,1.964-3.494c.627-.355,3.653-2.354,4.444-2.3L202.5,46.334a4.565,4.565,0,0,1,4.121,4.547L205.2,153.887c0,1.6.137,11.829,1.012,14.745-.674.189-10.981,6.122-11.71,6.071l-91.2,4.913h-3.252a5,5,0,0,1-4.259-4.859Z" transform="translate(-70.329 -25.148)" fill="#144665"/>
        <path id="Trazado_260263" data-name="Trazado 260263" d="M109.389,38.37a3.818,3.818,0,0,1,4.039-3.973l98.994,7.047a4.53,4.53,0,0,1,4.04,4.547l1.209,128.92a3.818,3.818,0,0,1-4.04,3.973l-100.2.542a4.532,4.532,0,0,1-4.039-4.547Z" transform="translate(-80.307 -25.245)" fill="#fff"/>
        <path id="Trazado_260264" data-name="Trazado 260264" d="M263,16.625c.59-3.59,2.35-7.708-6.09-8.687-.242-.028-3.25-.182-3.508-.2-8.655-.763-7.531,3.615-7.365,8.03.006.154-.314.371-.6.347s-16.035-1.089-16.035-1.089l.011,6.351c0,3.206,2.369,5.913,6.864,6.429l37.446,2.578c3.69.2,6.378-1.446,6.287-5.347l-.061-6.578s-16.236-1.1-16.47-1.119a.546.546,0,0,1-.477-.71" transform="translate(-168.409 -5.614)" fill="#177e9d"/>
        <path id="Trazado_260265" data-name="Trazado 260265" d="M290.122,59.525h-.04L251.05,56.846a.529.529,0,0,1-.493-.566.536.536,0,0,1,.573-.494l39.031,2.677a.528.528,0,0,1,.492.567.537.537,0,0,1-.531.5" transform="translate(-183.944 -40.954)" fill="#95dbe2"/>
        <path id="Trazado_260266" data-name="Trazado 260266" d="M243.484,195.9a1.34,1.34,0,0,1,1.246,1.311l.009,1.465a1.152,1.152,0,0,1-1.231,1.172l-76.324-4.11a1.431,1.431,0,0,1-1.368-1.379v-1.541a1.248,1.248,0,0,1,1.367-1.225Z" transform="translate(-121.733 -140.656)" fill="#9fd7e0"/>
        <path id="Trazado_260267" data-name="Trazado 260267" d="M166.439,497.036a1.334,1.334,0,0,0-1.376,1.307v1.56a1.362,1.362,0,0,0,1.377,1.33l81.408.588a1.23,1.23,0,0,0,1.237-1.246l-.009-1.483a1.274,1.274,0,0,0-1.254-1.266Z" transform="translate(-121.18 -364.896)" fill="#9fd7e0"/>
        <path id="Trazado_260268" data-name="Trazado 260268" d="M216.616,111.4a1.4,1.4,0,0,1,1.292,1.351l.058,15.159a1.182,1.182,0,0,1-1.284,1.185l-47.8-2.872a1.437,1.437,0,0,1-1.367-1.384v-15.62a1.226,1.226,0,0,1,1.365-1.2Z" transform="translate(-122.981 -79.297)" fill="#9fd7e0"/>
        <path id="Trazado_260269" data-name="Trazado 260269" d="M248.549,224.94h-.02l-81.838-4.267a.37.37,0,1,1,.038-.739l81.838,4.267a.37.37,0,0,1-.019.74" transform="translate(-122.118 -161.462)" fill="#9fd7e0"/>
        <path id="Trazado_260270" data-name="Trazado 260270" d="M165.923,236.411a1.521,1.521,0,0,0-1.644,1.506l.024,15.516a1.705,1.705,0,0,0,1.651,1.658l80.161,3.785a1.452,1.452,0,0,0,1.521-1.474l-.094-14.937A1.637,1.637,0,0,0,246,240.857Z" transform="translate(-120.604 -173.558)" fill="#9fd7e0"/>
        <path id="Trazado_260271" data-name="Trazado 260271" d="M166.059,325.17a1.551,1.551,0,0,0-1.646,1.535l.024,15.569a1.68,1.68,0,0,0,1.653,1.641l80.259,2.431a1.478,1.478,0,0,0,1.523-1.5l-.093-14.987a1.615,1.615,0,0,0-1.541-1.591Z" transform="translate(-120.703 -238.721)" fill="#9fd7e0"/>
        <path id="Trazado_260272" data-name="Trazado 260272" d="M165.717,409.933a1.58,1.58,0,0,0-1.649,1.562l.024,15.622a1.656,1.656,0,0,0,1.656,1.623l80.483,1.595a1.507,1.507,0,0,0,1.525-1.525l-.094-15.036a1.593,1.593,0,0,0-1.543-1.576Z" transform="translate(-120.45 -300.95)" fill="#9fd7e0"/>
        <path id="Trazado_260273" data-name="Trazado 260273" d="M319.257,429.522h-.014l-52.762-1.088a.688.688,0,0,1,.029-1.375l52.761,1.087a.688.688,0,0,1-.015,1.376" transform="translate(-195.142 -313.523)" fill="#fff"/>
        <path id="Trazado_260274" data-name="Trazado 260274" d="M406.192,148.419l-.047,0-22.827-1.525a.688.688,0,0,1,.091-1.372l22.828,1.524a.688.688,0,0,1-.045,1.374" transform="translate(-280.939 -106.832)" fill="#9fd7e0"/>
        <path id="Trazado_260275" data-name="Trazado 260275" d="M421.274,161.274h-.046l-17.636-1.156a.688.688,0,1,1,.09-1.373l17.636,1.156a.688.688,0,0,1-.045,1.374" transform="translate(-295.823 -116.54)" fill="#9fd7e0"/>
        <path id="Trazado_260276" data-name="Trazado 260276" d="M421.274,174.009l-.046,0-17.636-1.156a.688.688,0,1,1,.09-1.373l17.636,1.156a.688.688,0,0,1-.045,1.374" transform="translate(-295.823 -125.889)" fill="#9fd7e0"/>
        <path id="Trazado_260277" data-name="Trazado 260277" d="M257.388,257.94h-.033l-72.9-3.932a.688.688,0,0,1,.065-1.374l72.9,3.933a.688.688,0,0,1-.032,1.375" transform="translate(-134.936 -185.468)" fill="#fff"/>
        <path id="Trazado_260278" data-name="Trazado 260278" d="M281.365,353.821h-.022l-58.771-2.133a.688.688,0,0,1,.044-1.375l58.771,2.134a.688.688,0,0,1-.021,1.375" transform="translate(-162.911 -257.18)" fill="#fff"/>
        <path id="Trazado_260279" data-name="Trazado 260279" d="M321.538,443.192a52.59,52.59,0,0,0-12.473-2.989c-.331,2.34,1.725,1.816,4.061,3.285a41.324,41.324,0,0,1-10.265,4.45c-.576.164-.006,1.271-.006,1.271s-1.43,1.151-.282,1.459,6.75-1.232,6.75-1.232-3.964,1.771-4.36,1.864.34,1.51,3.575.729c1.231-.3,10.171-1.324,11.323-4.743.376-.041,3.156-1.271,3.156-1.271Z" transform="translate(-221.805 -323.173)" fill="#e1b39d"/>
        <path id="Trazado_260280" data-name="Trazado 260280" d="M504.155,528.809c-.077-1.547-.491-31.177-.491-31.177l-13.727,2.255s-4.643,24.77-4.76,29.178c3.287.042,11.357.128,18.978-.256" transform="translate(-356.19 -365.334)" fill="#003853"/>
        <path id="Trazado_260281" data-name="Trazado 260281" d="M397.443,278.407s-2.539,23.53-2.883,28.79c-8.014,2.142-18.237,11.234-30.3,16.08,1.875,4.94,3.354,5.912,3.354,5.912s28.071-9.027,34.108-12.182,9.678-33.04,9.678-33.04Z" transform="translate(-267.419 -204.391)" fill="#144665"/>
        <path id="Trazado_260282" data-name="Trazado 260282" d="M554.035,474.618c3.271,11.954,2.994,27.813,2.873,30.153-4.613,2.73-18.383,4.138-28.5,4.138-.464-1.547-1.034-30.279-1.034-30.279s23.389-15.967,26.661-4.013" transform="translate(-387.169 -345.179)" fill="#144665"/>
        <path id="Trazado_260283" data-name="Trazado 260283" d="M487.567,202.807l-2.552-2.991-6.126,2.327-9.669,8.2,1.18,3.2a41.979,41.979,0,0,0-4.4,33.151c5.479,18.508,8.709,34.494,8.709,34.494l27.082-4.71Z" transform="translate(-340.894 -146.694)" fill="#fff"/>
        <path id="Trazado_260284" data-name="Trazado 260284" d="M474.4,247.437s-1.493,1.513-1.508,2.823a3.25,3.25,0,0,0,.363,2.046,43.376,43.376,0,0,0-3.741,19.917,280.594,280.594,0,0,1-1.2,36.249l8.2,5.367,4.46-7.649S477.26,288.4,474.462,271.1c-1.932-11.946.533-18.426.533-18.426s1.241-1.842,2.536-3.384a13.749,13.749,0,0,0-3.132-1.856" transform="translate(-343.811 -181.655)" fill="#177e9d"/>
        <path id="Trazado_260285" data-name="Trazado 260285" d="M526.485,206.24s18.053,4.168,20.961,14.355-2.939,35.42-.069,54.883c3.371,3.258,5.582,8.419,9.889,20.922-11.851,5.564-14.751,2.03-21.944-4.6s-16.251-28.349-16.661-43.7c-.7-26.084,7.824-41.861,7.824-41.861" transform="translate(-380.742 -151.41)" fill="#144665"/>
        <path id="Trazado_260286" data-name="Trazado 260286" d="M467.459,160.948c2.722-.706,7.822,5.984,10.171,10.685,4.73-5,9.179-9.172,10.14-9.7-1.72-2.389-3.023-7.807-3.023-7.807s-17.27-22.436-17.288,6.827" transform="translate(-343.182 -107.112)" fill="#e1b39d"/>
        <path id="Trazado_260287" data-name="Trazado 260287" d="M494.972,211.166a24,24,0,0,0,5.571,3.138,82.045,82.045,0,0,1,9.061-12.7s-1.74-1.419-2.065-1.708c-4.313,3.342-12.567,11.27-12.567,11.27" transform="translate(-363.381 -146.753)" fill="#d2e8f2"/>
        <path id="Trazado_260288" data-name="Trazado 260288" d="M518.683,251.77c4.31-5.7,9.809-18.313,9.809-18.313l-2.473-3.56,2.358-2.243-.05-3.15-3.562-3.427s-5.618,12.363-6.083,30.692" transform="translate(-380.788 -162.303)" fill="#305d81"/>
        <path id="Trazado_260289" data-name="Trazado 260289" d="M450.071,148.872c2.082-.559,3.361-1.7,5.469-2.309,3-.859,2.663-4.508,2.663-4.508l.491-2.532s2.783-1.849,3.478-3.137c.279-.52,1.381-3.077-1.11-3.568-3.687-.724-2.209-9.8-2.209-9.8l-5-.486L450,125.481l-4.371,13.288s.056.7.942.653,1.02.124,1.02.124.915,8.113,1.025,8.52a1.143,1.143,0,0,0,1.454.806" transform="translate(-327.157 -89.953)" fill="#f0c0a7"/>
        <path id="Trazado_260290" data-name="Trazado 260290" d="M472.222,113.688c-4.379-5.9-13.435-1.763-16.3-5.12a4.338,4.338,0,0,0-.209,7.386c3.826-1.024,7.547.316,6.9,3.041-.036.5-1.268,3.813-.5,5.7.3.977.6,1.395,1.749.724.456-1.28,1.561-3.429,4.112-2.541,1.487.529.23,3.943,6.752,4.127-.221-1.95,2.685-11.125-2.507-13.323" transform="translate(-333.121 -79.705)" fill="#144665"/>
        <path id="Trazado_260291" data-name="Trazado 260291" d="M451.236,155.229a2.87,2.87,0,0,1-.438-3.654c1.672-.005,2,1.95,2.931,2.732,5.1-1.339,6.528-4.4,5.956-6.647-.995-3.9,1.943-7.451,1.977-8.107.622-2.736-.37,6.329-.315,8.416a13.069,13.069,0,0,0,1.124,3.867,7.241,7.241,0,0,1,.823,4.471c-.726,3.709-6.692,5.717-10.255,5.84s-1.8-6.918-1.8-6.918" transform="translate(-330.598 -102.078)" fill="#144665"/>
        <path id="Trazado_260292" data-name="Trazado 260292" d="M604.576,481.806a25.9,25.9,0,0,0-4.658,2.427,4.675,4.675,0,0,0-1.274,2.027c-.631,1.285-2.465,3.7-2.437,3.943.643.6,1.787.124,2.265-.521a10.748,10.748,0,0,1-.889,1.351c-.508.87,1.119,1.992,2.39.942.726-.6.88.343,1.784.332s1.543-.517,2.071-.122,1.356-.111,1.883-.454c.443-.288,1.434.594,2.324-1.318a31.06,31.06,0,0,0,1.468-6.438l1.8-3.58-4.525-2.305Z" transform="translate(-437.702 -350.989)" fill="#f0c0a7"/>
        <path id="Trazado_260293" data-name="Trazado 260293" d="M575.259,228.91c9.425,6.165,25.688,31.77,28.39,38.518s-16.4,33.466-16.4,33.466-7.653-3.4-8.453-3.885c7.348-11.97,8.858-23.458,12.508-27.236-6.082-6.667-12.974-14.465-22.7-21.662s-2.768-25.367,6.656-19.2" transform="translate(-413.991 -167.132)" fill="#144665"/>
        <path id="Trazado_260294" data-name="Trazado 260294" d="M26.143,233.37c-9.4,6.147-23.231,25.448-25.926,32.177s20.5,36.639,20.5,36.639,6.247-4.388,7.044-4.867c-5.433-10.024-10.061-23.5-15.752-28.431,6.064-6.648,11.07-9.194,20.767-16.37s2.761-25.295-6.637-19.148" transform="translate(0.001 -170.408)" fill="#d2e8f2"/>
        <path id="Trazado_260295" data-name="Trazado 260295" d="M60.824,544.29c2.526-9.221-1.759-14.183-.247-20.234s5.772-4.448,5.772-4.448l7.036,25.855s-6.041-.235-12.561-1.174" transform="translate(-44.228 -381.326)" fill="#003853"/>
        <path id="Trazado_260296" data-name="Trazado 260296" d="M98.659,521.731c-1.729-14.278-6.051-32.474-6.051-32.474l-30.859-2.118s-6.981,15.689-1.633,21.037c9.983,9.983,7.752,12.72,7.849,13.3,2.55.452,16.887,1.165,30.694.253" transform="translate(-42.653 -357.631)" fill="#144665"/>
        <path id="Trazado_260297" data-name="Trazado 260297" d="M93.95,235.249c-1.675-6.641-5.5-12.075-8.247-16.076-.177-.258,1.031-3.128.831-3.359-6.692-7.716-16.806-8.759-16.806-8.759s-.641,1.389-1.069,2.529l-.211.251c-2.374,1.34-13.473,9.691-14.3,12.876-1.978,7.613-.69,20.721,2.084,34.671a19.228,19.228,0,0,0,.585,2.281c1.257,9.9,2.205,15.56,2.205,15.56l-.868,6.347,30.8,2.166s9.72-29.756,5-48.488" transform="translate(-39.052 -152.008)" fill="#fff"/>
        <path id="Trazado_260298" data-name="Trazado 260298" d="M96.9,354.009c4.278,5.971,14.386,13.02,14.386,13.02s4.341.336,4.544.347L118.22,343.7s-5.379-2.37-7.613-6.422c-5.7-10.341-20.92-22.006-20.925-13.279-.01,15.379,2.148,22.939,7.214,30.011" transform="translate(-65.839 -235.614)" fill="#d2e8f2"/>
        <path id="Trazado_260299" data-name="Trazado 260299" d="M159,244.759a3.639,3.639,0,0,1,2.111,2.915,4.532,4.532,0,0,1-.157,2.592,46.688,46.688,0,0,1,7.1,20.62c1.984,19.143,2.7,33.333,2.7,33.333l-6.01,6.774-5.313-7.232a201.8,201.8,0,0,0,3.18-33.293c.187-13.023-3.452-19.536-3.452-19.536s-1.284-1.36-2.9-2.8A12.711,12.711,0,0,0,159,244.759" transform="translate(-114.714 -179.689)" fill="#1a8f12"/>
        <path id="Trazado_260300" data-name="Trazado 260300" d="M142.348,162.263c-2.941-.44-7.786,6.754-9.87,11.111a42.642,42.642,0,0,0-11.483-8.709c1.543-2.7,1.775-7.366,1.775-7.366s16.3-25.812,19.578,4.963" transform="translate(-88.827 -108.043)" fill="#e1b39d"/>
        <path id="Trazado_260301" data-name="Trazado 260301" d="M153.738,121.182s-1.747-3.547-4.235-.739,2.078,6.4,2.078,6.4,1.861,7.512,5.131,8.5a43.788,43.788,0,0,0,6.533,1.333c.344.033.915.031,1.044-.288s1.248-9.488,1.248-9.488,1.4-.026,1.044-1.349a82.634,82.634,0,0,1-2.147-10.735s-5.214-6.911-7.68-4.671-3.014,11.035-3.014,11.035" transform="translate(-109.211 -80.536)" fill="#f0c0a7"/>
        <path id="Trazado_260302" data-name="Trazado 260302" d="M140.006,115.155s-2.965,2.547-3.658.5-2.361-2.2-3.721-1.037-.472,4.983-1.788,6.9c-.861,1.256-4.412,1.972-5.006,2.01.2-3.4-2.111-15.809,1.58-18.081,2.286-1.408,8.305-6.215,14.309-5.686s9.43,3.2,5.561,7.84c-11.829-4.559-7.277,7.552-7.277,7.552" transform="translate(-91.988 -73.211)" fill="#144665"/>
        <path id="Trazado_260303" data-name="Trazado 260303" d="M126.18,217.261a12.193,12.193,0,0,1-5.293,4.141c-4-9.991-10.331-11.585-10.331-11.585s.648-1.649,1.248-2.753c4.481,1.8,14.376,10.2,14.376,10.2" transform="translate(-81.164 -152.015)" fill="#d2e8f2"/>
        <path id="Trazado_260304" data-name="Trazado 260304" d="M243.4,433.774s8.773,2.177,10.41,2.471a42.594,42.594,0,0,1,9.17-2.019c.378.786-.186,1.464-.9,1.939a20.251,20.251,0,0,1-2.647,1.451s10.122,3.829,10.645,4.106.2,1.474.2,1.474,1.394.84.26,1.154-7.1-1.109-7.1-1.109,3.937,1.721,4.329,1.809-.324,1.5-3.532.75c-1.22-.283-10.074-1.229-11.241-4.6-.372-.038-9.719-2.558-9.719-2.558Z" transform="translate(-178.596 -318.453)" fill="#f0c0a7"/>
        <path id="Trazado_260305" data-name="Trazado 260305" d="M71.595,261.209c2.624,6.09,12.058,25.052,13.493,30.439,9.733,1.025,13.917,8.709,28.261,11.511-.931,5.51-2.135,7.4-2.135,7.4s-22.063-4.48-28.974-6.513-21.711-28.14-24.118-33.58c-9.019-20.383,9-19.635,13.472-9.258" transform="translate(-40.841 -186.53)" fill="#fff"/>
      </g>
    </g>
  </g>
</svg>
