<svg xmlns="http://www.w3.org/2000/svg" xmlns:xlink="http://www.w3.org/1999/xlink" width="65" height="65" viewBox="0 0 65 65">
  <defs>
    <clipPath id="clip-path">
      <rect id="Rectángulo_291067" data-name="Rectángulo 291067" width="35.254" height="45.73" fill="#12263f"/>
    </clipPath>
  </defs>
  <g id="Grupo_1072216" data-name="Grupo 1072216" transform="translate(-265 -6967)">
    <circle id="Elipse_4749" data-name="Elipse 4749" cx="32.5" cy="32.5" r="32.5" transform="translate(265 6967)" fill="#eba325"/>
    <g id="Grupo_877496" data-name="Grupo 877496" transform="translate(281.467 6978.2)">
      <g id="Grupo_870273" data-name="Grupo 870273" transform="translate(0 0)" clip-path="url(#clip-path)">
        <path id="Trazado_255097" data-name="Trazado 255097" d="M20.894,45.686H4.026a.8.8,0,0,1-.708-1.172,19.7,19.7,0,0,0,1.722-5.1A22.184,22.184,0,0,0,2.506,24.253a15.812,15.812,0,0,1-1.933-8.51,15.4,15.4,0,0,1,.25-2.062.8.8,0,0,1,1.572.3,14.25,14.25,0,0,0,1.513,9.5,23.784,23.784,0,0,1,2.7,16.256,23.331,23.331,0,0,1-1.318,4.349H20.094V38.109a.8.8,0,0,1,.8-.8h3.094a5.607,5.607,0,0,0,5.6-5.6V25.484a.8.8,0,0,1,.8-.8h2.89a.348.348,0,0,0,.29-.539c-.015-.022-.027-.044-.04-.067l-1.974-3.756a7.885,7.885,0,0,1-.892-3.668A14.243,14.243,0,0,0,18.022,2.462.8.8,0,0,1,18.2.871,15.837,15.837,0,0,1,32.263,16.629a6.307,6.307,0,0,0,.708,2.948L34.929,23.3a1.947,1.947,0,0,1-1.651,2.982h-2.09v5.424a7.209,7.209,0,0,1-7.2,7.2H21.694v5.977a.8.8,0,0,1-.8.8" transform="translate(0.028 0.045)" fill="#12263f"/>
        <path id="Trazado_255098" data-name="Trazado 255098" d="M22.821,37.129H15.994a.8.8,0,1,1,0-1.6h6.827a.8.8,0,1,1,0,1.6" transform="translate(0.78 1.825)" fill="#12263f"/>
        <path id="Trazado_255099" data-name="Trazado 255099" d="M18.137,25.507H14.029a.8.8,0,0,1-.8-.8v-1.67l-1.181,1.181a.8.8,0,0,1-1.131,0L8.011,21.312a.8.8,0,0,1,0-1.131L9.192,19H7.522a.8.8,0,0,1-.8-.8v-4.11a.8.8,0,0,1,.8-.8h1.67l-1.181-1.18a.8.8,0,0,1,0-1.132l2.906-2.9a.8.8,0,0,1,1.131,0l1.181,1.181V7.586a.8.8,0,0,1,.8-.8h4.109a.8.8,0,0,1,.8.8V9.255l1.181-1.18a.8.8,0,0,1,1.131,0l2.906,2.9a.8.8,0,0,1,0,1.132l-1.181,1.18h1.67a.8.8,0,0,1,.8.8V18.2a.8.8,0,0,1-.8.8h-1.67l1.181,1.18a.8.8,0,0,1,0,1.131l-2.906,2.906a.8.8,0,0,1-1.131,0l-1.181-1.18v1.668a.8.8,0,0,1-.8.8m-3.309-1.6h2.509V22.889a1.41,1.41,0,0,1,.887-1.318L18.4,21.5a1.406,1.406,0,0,1,1.566.3l.721.721,1.774-1.775-.72-.72a1.409,1.409,0,0,1-.3-1.569c.024-.056.048-.112.07-.169a1.411,1.411,0,0,1,1.318-.887h1.019v-2.51H22.825A1.408,1.408,0,0,1,21.508,14c-.023-.057-.047-.114-.071-.169a1.409,1.409,0,0,1,.3-1.569l.72-.72L20.684,9.772l-.721.721a1.409,1.409,0,0,1-1.569.3c-.057-.025-.114-.049-.17-.071A1.41,1.41,0,0,1,17.337,9.4V8.386H14.829V9.4a1.41,1.41,0,0,1-.887,1.318l-.17.071a1.41,1.41,0,0,1-1.568-.3l-.721-.721L9.709,11.546l.72.72a1.407,1.407,0,0,1,.3,1.569c-.024.056-.047.112-.07.169a1.41,1.41,0,0,1-1.318.887H8.323V17.4H9.341a1.41,1.41,0,0,1,1.318.887c.023.057.046.114.07.168a1.409,1.409,0,0,1-.3,1.57l-.72.72,1.774,1.775L12.2,21.8a1.406,1.406,0,0,1,1.57-.3c.054.023.11.047.167.069a1.412,1.412,0,0,1,.888,1.319Z" transform="translate(0.345 0.349)" fill="#12263f"/>
        <path id="Trazado_255100" data-name="Trazado 255100" d="M15.856,20.622a4.7,4.7,0,1,1,4.7-4.7,4.709,4.709,0,0,1-4.7,4.7m0-7.807a3.1,3.1,0,1,0,3.1,3.1,3.107,3.107,0,0,0-3.1-3.1" transform="translate(0.573 0.576)" fill="#12263f"/>
        <path id="Trazado_255101" data-name="Trazado 255101" d="M4.97,14.485a.8.8,0,0,1-.566-.234L2.765,12.612a.8.8,0,0,1,0-1.131l.81-.81H2.43a.8.8,0,0,1-.8-.8V6.36a.8.8,0,0,1,.8-.8H3.575l-.81-.81a.8.8,0,0,1,0-1.132L5.249,1.135a.8.8,0,0,1,1.131,0l.81.81V.8a.8.8,0,0,1,.8-.8H11.5a.8.8,0,0,1,.8.8V1.945l.81-.81a.8.8,0,0,1,1.132,0l2.482,2.482a.8.8,0,0,1,0,1.132L15.714,5.761A.8.8,0,0,1,14.583,4.63l.446-.446L13.676,2.832l-.489.49A1.47,1.47,0,0,1,10.7,2.292V1.6H8.79v.692A1.47,1.47,0,0,1,6.3,3.322l-.489-.49L4.462,4.184l.49.489A1.469,1.469,0,0,1,3.922,7.16H3.23V9.071h.692a1.469,1.469,0,0,1,1.029,2.486l-.489.489L5.536,13.12a.8.8,0,0,1-.566,1.366" transform="translate(0.084 0)" fill="#12263f"/>
        <path id="Trazado_255102" data-name="Trazado 255102" d="M6.626,10.324a.8.8,0,0,1-.7-.415,4.137,4.137,0,0,1,6.792-4.653.8.8,0,1,1-1.224,1.031A2.536,2.536,0,0,0,7.326,9.139a.8.8,0,0,1-.318,1.086.79.79,0,0,1-.383.1" transform="translate(0.278 0.195)" fill="#12263f"/>
        <path id="Trazado_255103" data-name="Trazado 255103" d="M30.506,43.575H.8a.8.8,0,0,1,0-1.6H30.506a.8.8,0,0,1,0,1.6" transform="translate(0 2.156)" fill="#12263f"/>
      </g>
    </g>
  </g>
</svg>
