<svg xmlns="http://www.w3.org/2000/svg" xmlns:xlink="http://www.w3.org/1999/xlink" width="65" height="65" viewBox="0 0 65 65">
  <defs>
    <clipPath id="clip-path">
      <rect id="Rectángulo_291070" data-name="Rectángulo 291070" width="38.358" height="41.179" fill="#12263f"/>
    </clipPath>
  </defs>
  <g id="Grupo_1072213" data-name="Grupo 1072213" transform="translate(-1020 -6967)">
    <circle id="Elipse_4752" data-name="Elipse 4752" cx="32.5" cy="32.5" r="32.5" transform="translate(1020 6967)" fill="#eba325"/>
    <g id="Grupo_877498" data-name="Grupo 877498" transform="translate(1033.289 6976.751)">
      <g id="Grupo_870280" data-name="Grupo 870280" transform="translate(0 0)" clip-path="url(#clip-path)">
        <path id="Trazado_255144" data-name="Trazado 255144" d="M34.151,41.526H4.206A4.21,4.21,0,0,1,0,37.321V18.27a4.211,4.211,0,0,1,4.206-4.207h.87a.742.742,0,1,1,0,1.484h-.87A2.725,2.725,0,0,0,1.484,18.27V37.321a2.725,2.725,0,0,0,2.721,2.721H34.151a2.724,2.724,0,0,0,2.721-2.721V18.27a2.724,2.724,0,0,0-2.721-2.722h-.87a.742.742,0,1,1,0-1.484h.87a4.211,4.211,0,0,1,4.206,4.207V37.321a4.21,4.21,0,0,1-4.206,4.206" transform="translate(0 -0.347)" fill="#12263f"/>
        <path id="Trazado_255145" data-name="Trazado 255145" d="M34.111,37.7H4.428a.743.743,0,0,1-.742-.742V18.832a.743.743,0,0,1,.742-.742h.78a.742.742,0,0,1,0,1.484c-.038,0-.038,16.639-.038,16.639h28.2V19.574a.751.751,0,0,1-.779-.742.742.742,0,0,1,.742-.742h.779a.743.743,0,0,1,.742.742V36.956a.743.743,0,0,1-.742.742" transform="translate(-0.091 -0.446)" fill="#12263f"/>
        <path id="Trazado_255146" data-name="Trazado 255146" d="M7.722,31.278a.743.743,0,0,1-.742-.742V12.268a.742.742,0,1,1,1.484,0V30.536a.743.743,0,0,1-.742.742" transform="translate(-0.172 -0.284)" fill="#12263f"/>
        <path id="Trazado_255147" data-name="Trazado 255147" d="M10.766,31.278a.743.743,0,0,1-.742-.742V12.268a.742.742,0,1,1,1.484,0V30.536a.743.743,0,0,1-.742.742" transform="translate(-0.247 -0.284)" fill="#12263f"/>
        <path id="Trazado_255148" data-name="Trazado 255148" d="M14.656,31.238a.743.743,0,0,1-.742-.742V10.619a.742.742,0,0,1,1.484,0V30.5a.743.743,0,0,1-.742.742" transform="translate(-0.343 -0.244)" fill="#12263f"/>
        <path id="Trazado_255149" data-name="Trazado 255149" d="M17.7,31.238a.743.743,0,0,1-.742-.742V10.619a.742.742,0,1,1,1.484,0V30.5a.743.743,0,0,1-.742.742" transform="translate(-0.418 -0.244)" fill="#12263f"/>
        <path id="Trazado_255150" data-name="Trazado 255150" d="M21.59,31.2a.743.743,0,0,1-.742-.742V9.161a.742.742,0,1,1,1.484,0v21.3a.743.743,0,0,1-.742.742" transform="translate(-0.514 -0.208)" fill="#12263f"/>
        <path id="Trazado_255151" data-name="Trazado 255151" d="M24.634,31.2a.743.743,0,0,1-.742-.742V9.161a.742.742,0,1,1,1.484,0v21.3a.743.743,0,0,1-.742.742" transform="translate(-0.589 -0.208)" fill="#12263f"/>
        <path id="Trazado_255152" data-name="Trazado 255152" d="M28.523,31.156a.743.743,0,0,1-.742-.742V7.322a.742.742,0,0,1,1.484,0V30.414a.743.743,0,0,1-.742.742" transform="translate(-0.685 -0.162)" fill="#12263f"/>
        <path id="Trazado_255153" data-name="Trazado 255153" d="M31.567,31.156a.743.743,0,0,1-.742-.742V7.322a.742.742,0,0,1,1.484,0V30.414a.743.743,0,0,1-.742.742" transform="translate(-0.76 -0.162)" fill="#12263f"/>
        <path id="Trazado_255154" data-name="Trazado 255154" d="M33.211,5.8H31.186a.742.742,0,1,1,0-1.484h.5L29.83,1.933,27.97,4.315h.5a.742.742,0,1,1,0,1.484H26.448a.743.743,0,0,1-.585-1.2L29.244.27a.77.77,0,0,1,1.171,0L33.8,4.6a.743.743,0,0,1-.584,1.2" transform="translate(-0.634 0)" fill="#12263f"/>
        <path id="Trazado_255155" data-name="Trazado 255155" d="M31.924,31.74H6.729a.742.742,0,1,1,0-1.484H31.924a.742.742,0,0,1,0,1.484" transform="translate(-0.148 -0.746)" fill="#12263f"/>
      </g>
    </g>
  </g>
</svg>
