<svg id="Grupo_872511" data-name="Grupo 872511" xmlns="http://www.w3.org/2000/svg" xmlns:xlink="http://www.w3.org/1999/xlink" width="610" height="425.639" viewBox="0 0 610 425.639">
  <defs>
    <clipPath id="clip-path">
      <rect id="Rectángulo_294694" data-name="Rectángulo 294694" width="610" height="425.639" fill="none"/>
    </clipPath>
    <clipPath id="clip-path-2">
      <rect id="Rectángulo_294693" data-name="Rectángulo 294693" width="609.999" height="425.638" fill="none"/>
    </clipPath>
    <clipPath id="clip-path-3">
      <rect id="Rectángulo_294692" data-name="Rectángulo 294692" width="610" height="422.986" fill="none"/>
    </clipPath>
  </defs>
  <g id="Grupo_872510" data-name="Grupo 872510" clip-path="url(#clip-path)">
    <g id="Grupo_872509" data-name="Grupo 872509" transform="translate(0 0.001)">
      <g id="Grupo_872508" data-name="Grupo 872508" clip-path="url(#clip-path-2)">
        <g id="Grupo_872507" data-name="Grupo 872507" transform="translate(0 -0.001)" opacity="0.1">
          <g id="Grupo_872506" data-name="Grupo 872506">
            <g id="Grupo_872505" data-name="Grupo 872505" clip-path="url(#clip-path-3)">
              <path id="Trazado_261318" data-name="Trazado 261318" d="M52.275,422.988h533.42c44.213-36.882,21.461-147.864-15.469-170.362C530.473,228.409,593.6,144.655,532.361,117.47c-39.982-17.75-103.572,1.6-95.019-45.892C449.2,5.726,310.567-11.146,208.431,6.6,98.01,25.8,198.847,120.15,77.415,139.16,14.974,148.936,27.04,232.57,32.862,249.852c5.071,15.053,38.619,38.929-8.006,71.808C-43.512,369.874,50.663,422.1,52.275,422.988" transform="translate(0 -0.002)" fill="#9bc1f9"/>
            </g>
          </g>
        </g>
        <path id="Trazado_261319" data-name="Trazado 261319" d="M1990.017,603.28s-8.733,19.01-14.609,27.041-11.473,15.709-16.162,38-3.885,24.528-5.168,30.285-9.634,29.08-9.683,33.357-16.878,28.624-21.188,40.019-11.948,27.673-11.518,35.96l1.918-.487a89.154,89.154,0,0,1,14.867-38.853c13.3-19.529,11.4-23.216,26.509-33.249s24.866-37.746,24.866-37.746,15.368-30.1,14.654-45.75,3.365-29.761-4.486-48.576" transform="translate(-1463.927 -461.983)" fill="#256653"/>
        <path id="Trazado_261320" data-name="Trazado 261320" d="M1935.555,478.446s-.508,12.487-4.537,19.906-7.5,11.924-8.229,19.95-3.261,28.718-14.493,38.82-12.667,40.371-21.217,49.527-9.667,15.738-8.088,31.442,6.943,37.468-5.46,65.876l-2.8-7.065s8.874-23.371,6.725-37.055-9.623-34.361-6.887-44.279-7.437-11.854-1.311-26.853,3.61-20.21,11.949-33.179c0,0,.855-.607,3.048-11.579s19.868-31.083,28.014-37.946,19.885-17.861,23.29-27.564" transform="translate(-1429.915 -366.387)" fill="#256653"/>
        <path id="Trazado_261321" data-name="Trazado 261321" d="M1924.8,742.428s-9.754,16.7-9.893,27.45,1.026,19.492-3.909,34.212,4.86,24.025,2.038,32.152-3.042,17.749-2.956,25.046-11.173,31.445-12.886,43.672.476,12.268.476,12.268,1.866-16.143,4.458-21.481,10.468-23.741,12.308-30.861,6.829-11.69,11.132-23.749,10.419-22.215,9.953-39.325,6.418-35.171-10.718-59.383" transform="translate(-1452.335 -568.54)" fill="#3c8f7c"/>
        <path id="Trazado_261322" data-name="Trazado 261322" d="M1924.186,1172.92s4.549-21.195,23.73-23.311,30.449,1.676,44-13.809,21.421-40.058,25.75-44.288c0,0-6.808-3.5-18.127,7.08s-19.27,18.609-25.822,24.771-11.875,2.144-18.793,6.206c-5.8,3.4-13.3,13.242-16.6,18.4a23.287,23.287,0,0,1-3.805,4.558c-1.33,1.227-2.912,2.73-3.927,3.836-2.031,2.213-7.889,16.637-7.889,16.637Z" transform="translate(-1472.375 -835.437)" fill="#3c8f7c"/>
        <path id="Trazado_261323" data-name="Trazado 261323" d="M1775.48,1051.621s6.76-25.92,2.232-38.6-18.7-22.071-18.134-30.039,9.671-29.5,2.25-45.537c0,0-2.819,14.3-5.6,17.483s-21.869,16.011-18.486,32.955,21.94,20.9,26.51,25.893,10.739,4.982,10.779,8.3,1.243,15.376-.807,27.276Z" transform="translate(-1330.429 -717.878)" fill="#3c8f7c"/>
        <path id="Trazado_261324" data-name="Trazado 261324" d="M1904.779,884.937l9.5-27.356s5.579-22,8.812-40.352,1.711-74.8,1.711-74.8-9.754,16.7-9.894,27.45,1.025,19.493-3.909,34.212,4.861,24.025,2.037,32.152-3.042,17.749-2.956,25.046-11.173,31.445-12.887,43.672c-.938,6.7-.706,9.735-.3,11.116-1.523-10.694,7.891-31.139,7.891-31.139" transform="translate(-1452.336 -568.54)" fill="#327f6b"/>
        <path id="Trazado_261325" data-name="Trazado 261325" d="M1971.6,1137.354c-8.472,1.692-16.047,1.115-26.1,8.6a84.147,84.147,0,0,0-15.972,15.48s-4.521,8.079-6.39,12.338c-.27.651-.427,1.039-.427,1.039l1.483-.075s4.549-21.195,23.73-23.311,30.449,1.676,44-13.809,21.421-40.058,25.75-44.288c0,0-14.413,11.212-23.318,21.135s-14.28,21.2-22.751,22.891" transform="translate(-1472.375 -837.254)" fill="#327f6b"/>
        <path id="Trazado_261326" data-name="Trazado 261326" d="M1756.228,954.924c-2.781,3.181-21.87,16.011-18.486,32.955s21.94,20.9,26.51,25.893,10.74,4.982,10.778,8.3,1.243,15.377-.806,27.276l.548.993a151.9,151.9,0,0,0,2.845-17.087c.738-8.722-.676-12.332-3.479-19.4s-20.221-21.456-24.587-29.022,8.417-20.213,11.253-26.319,1.023-21.074,1.023-21.074-2.819,14.3-5.6,17.483" transform="translate(-1330.428 -717.878)" fill="#327f6b"/>
        <path id="Trazado_261327" data-name="Trazado 261327" d="M1904.69,1326.875l2.982-7.207c2.313-5.3,8.234-7.831,13.223-5.653,12.573,5.489,18.039,20.765,12.209,34.121l-4.262,9.765a12.261,12.261,0,0,0,1.3,12.3,10.831,10.831,0,0,1,1.075,10.836l-2.247,5.148a20.473,20.473,0,0,1-12.781,11.4,12.416,12.416,0,0,0-7.717,6.973l-3.182,7.289c-3.518,8.059-12.519,11.906-20.1,8.6l-4.329-1.889c-7.586-3.312-10.884-12.529-7.366-20.587,5.689-9.635,5.235-16.827,3.219-21.7a29.177,29.177,0,0,1,.277-22.769l.45-1.03a28.974,28.974,0,0,1,17.7-16.019c3.436-1.094,7.017-3.766,9.552-9.574" transform="translate(-1433.61 -1005.654)" fill="#50bfa5"/>
        <path id="Trazado_261328" data-name="Trazado 261328" d="M1782.084,1554.349c6.1-7.911,39.559-50.292,61.375-57.355,24.081-7.8,1.385,23.167,1.385,23.167s42.719-46.712,58.4-42.5c14.37,3.86,0,32.815,0,32.815s16.185-16.033,35.812-16.033c19.1,0-13.346,56.863-15.1,59.907Z" transform="translate(-1364.691 -1131.364)" fill="#96d9c9"/>
        <path id="Trazado_261329" data-name="Trazado 261329" d="M2205.308,1362.623a281.512,281.512,0,0,0-37.476,89.711l-1.2-.321a283.308,283.308,0,0,1,37.331-88.954c4.049-6.328,8.423-13.836,16.005-16.3.146-.048.2.174.062.227-6.926,2.609-10.937,9.724-14.726,15.641" transform="translate(-1659.175 -1031.318)" fill="#3c8f7c"/>
        <path id="Trazado_261330" data-name="Trazado 261330" d="M2189.71,1565.628a351.758,351.758,0,0,1,71.411-72.355c.281-.213.662.278.378.5a351.414,351.414,0,0,0-70.306,72.257Z" transform="translate(-1676.844 -1143.485)" fill="#3c8f7c"/>
        <path id="Trazado_261331" data-name="Trazado 261331" d="M2334.244,1324.261c.449.661,2.17,2.385,2.675,4.648a9.576,9.576,0,0,1,.085,4.743,10.333,10.333,0,0,0,2.652-4.589c.858-2.734.257-6.526-.809-7.783-1.843-2.84-5.06-3.129-5.685-1.751-.663,1.368.178,3.229,1.081,4.732" transform="translate(-1786.516 -1009.862)" fill="#3c8f7c"/>
        <path id="Trazado_261332" data-name="Trazado 261332" d="M2325.858,1427.083c-.652-.462-2.341-2.216-4.6-2.766a9.567,9.567,0,0,0-4.739-.178,10.322,10.322,0,0,1,4.641-2.562c2.75-.8,6.53-.128,7.766.963,2.8,1.9,3.028,5.12,1.638,5.718-1.381.636-3.225-.242-4.71-1.175" transform="translate(-1773.954 -1088.352)" fill="#3c8f7c"/>
        <path id="Trazado_261333" data-name="Trazado 261333" d="M2298.955,1472.614c-.652-.462-2.341-2.216-4.595-2.765a9.572,9.572,0,0,0-4.74-.179,10.33,10.33,0,0,1,4.641-2.561c2.75-.8,6.531-.128,7.766.963,2.8,1.9,3.028,5.12,1.639,5.717-1.381.636-3.225-.242-4.71-1.175" transform="translate(-1753.352 -1123.218)" fill="#3c8f7c"/>
        <path id="Trazado_261334" data-name="Trazado 261334" d="M2394.92,1578.223c-.652-.463-2.341-2.216-4.595-2.766a9.571,9.571,0,0,0-4.74-.178,10.329,10.329,0,0,1,4.641-2.562c2.75-.8,6.531-.128,7.766.963,2.8,1.9,3.027,5.12,1.638,5.718-1.381.636-3.225-.242-4.71-1.174" transform="translate(-1826.841 -1204.092)" fill="#3c8f7c"/>
        <path id="Trazado_261335" data-name="Trazado 261335" d="M2443.948,1535.031c-.652-.462-2.341-2.216-4.595-2.766a9.572,9.572,0,0,0-4.74-.178,10.331,10.331,0,0,1,4.64-2.562c2.751-.8,6.531-.128,7.766.963,2.8,1.9,3.028,5.12,1.638,5.718-1.381.636-3.225-.242-4.71-1.174" transform="translate(-1864.386 -1171.016)" fill="#3c8f7c"/>
        <path id="Trazado_261336" data-name="Trazado 261336" d="M2294.665,1375.61c.548.581,2.518,2.012,3.374,4.169a9.586,9.586,0,0,1,.832,4.67,10.342,10.342,0,0,0,1.9-4.95c.416-2.835-.775-6.486-2.027-7.558-2.266-2.514-5.489-2.292-5.889-.833-.439,1.455.685,3.161,1.814,4.5" transform="translate(-1755.753 -1049.143)" fill="#3c8f7c"/>
        <path id="Trazado_261337" data-name="Trazado 261337" d="M2251.695,1423.763c.779.414,3.5,1.163,4.874,3.2a8.269,8.269,0,0,1,1.644,4.854,13.7,13.7,0,0,0,1.852-6.339c.193-3.343-1.792-6.905-3.541-7.564-3.24-1.833-7.385-.2-7.724,1.6-.392,1.813,1.271,3.234,2.9,4.246" transform="translate(-1722.05 -1085.202)" fill="#3c8f7c"/>
        <path id="Trazado_261338" data-name="Trazado 261338" d="M2208.038,1501.032c.838.277,3.65.558,5.343,2.337a8.269,8.269,0,0,1,2.439,4.509,13.725,13.725,0,0,0,.759-6.561c-.372-3.328-2.927-6.506-4.764-6.861-3.5-1.261-7.313,1.047-7.345,2.878-.081,1.853,1.8,2.974,3.569,3.7" transform="translate(-1688.145 -1144.155)" fill="#3c8f7c"/>
        <path id="Trazado_261339" data-name="Trazado 261339" d="M2335.745,1560.775c.611.381,2.784,1.147,3.783,2.883a6.74,6.74,0,0,1,1.061,4.042,11.184,11.184,0,0,0,1.867-5.051c.347-2.708-1.065-5.719-2.451-6.355-2.531-1.675-6-.582-6.374.863-.422,1.453.849,2.7,2.114,3.618" transform="translate(-1786.994 -1191.138)" fill="#3c8f7c"/>
        <path id="Trazado_261340" data-name="Trazado 261340" d="M2389.438,1348.984a7.368,7.368,0,0,0-2.6-1.837,5.687,5.687,0,0,0-2.8-.313,6.138,6.138,0,0,1,2.858-1.312,6.007,6.007,0,0,1,4.551.909c1.576,1.245,1.567,3.161.719,3.454-.845.316-1.9-.284-2.734-.9" transform="translate(-1825.661 -1030.295)" fill="#3c8f7c"/>
        <path id="Trazado_261341" data-name="Trazado 261341" d="M2386.927,1318.177a7.376,7.376,0,0,1-.13,3.178,5.687,5.687,0,0,1-1.459,2.406,6.141,6.141,0,0,0,2.783-1.463,6.011,6.011,0,0,0,2.059-4.16c-.025-2.008-1.547-3.171-2.3-2.678-.766.476-.933,1.677-.956,2.717" transform="translate(-1826.651 -1007.273)" fill="#3c8f7c"/>
        <path id="Trazado_261342" data-name="Trazado 261342" d="M2492.146,1498.511a7.368,7.368,0,0,0-2.6-1.838,5.676,5.676,0,0,0-2.8-.313,6.131,6.131,0,0,1,2.857-1.312,6.009,6.009,0,0,1,4.552.909c1.576,1.245,1.567,3.162.719,3.454-.845.316-1.9-.284-2.735-.9" transform="translate(-1904.314 -1144.801)" fill="#3c8f7c"/>
        <path id="Trazado_261343" data-name="Trazado 261343" d="M2488.064,1467.077a7.356,7.356,0,0,1,.131,3.179,5.68,5.68,0,0,1-1.257,2.517,6.131,6.131,0,0,0,2.654-1.685,6.011,6.011,0,0,0,1.712-4.315c-.189-2-1.8-3.033-2.509-2.481-.725.537-.793,1.747-.731,2.785" transform="translate(-1904.455 -1121.218)" fill="#3c8f7c"/>
        <path id="Trazado_261344" data-name="Trazado 261344" d="M2271.894,1692.8c-17.823,1.954-34.421,9.82-50.4,17.492-10.776,5.173-10.232,6.647-12.428,7.417a.442.442,0,0,1-.538-.6c.844-1.672,3.058-2.8,4.6-3.765a59.641,59.641,0,0,1,5.567-3.032c4.067-1.975,8.24-3.752,12.386-5.553a179.634,179.634,0,0,1,25.915-9.445,91.045,91.045,0,0,1,14.886-2.655.073.073,0,0,1,.012.145" transform="translate(-1691.22 -1296.211)" fill="#3c8f7c"/>
        <path id="Trazado_261345" data-name="Trazado 261345" d="M2406.07,1654.47a11.512,11.512,0,0,1,.407,4.951,8.869,8.869,0,0,1-1.8,4.009,9.574,9.574,0,0,0,4.033-2.8c1.8-1.954,2.79-5.369,2.393-6.843-.422-3.107-3.007-4.618-4.073-3.71-1.1.885-1.125,2.777-.96,4.393" transform="translate(-1841.459 -1263.402)" fill="#3c8f7c"/>
        <path id="Trazado_261346" data-name="Trazado 261346" d="M2339.033,1678.472a11.509,11.509,0,0,1,.408,4.951,8.864,8.864,0,0,1-1.8,4.009,9.57,9.57,0,0,0,4.034-2.8c1.8-1.954,2.79-5.369,2.392-6.843-.423-3.107-3.007-4.618-4.073-3.71-1.1.885-1.125,2.777-.96,4.393" transform="translate(-1790.124 -1281.783)" fill="#3c8f7c"/>
        <path id="Trazado_261347" data-name="Trazado 261347" d="M2270.919,1708.833a11.494,11.494,0,0,1,.408,4.951,8.872,8.872,0,0,1-1.8,4.009,9.57,9.57,0,0,0,4.033-2.8c1.8-1.953,2.791-5.369,2.393-6.843-.423-3.107-3.007-4.618-4.074-3.709-1.1.885-1.125,2.777-.961,4.393" transform="translate(-1737.963 -1305.032)" fill="#3c8f7c"/>
        <path id="Trazado_261348" data-name="Trazado 261348" d="M2410.935,1711.918a10.644,10.644,0,0,0-2.463-3.876,8.192,8.192,0,0,0-3.564-1.95,8.854,8.854,0,0,1,4.536-.188c2.415.437,5.052,2.4,5.582,3.708,1.423,2.526.362,5.081-.932,5.008-1.3-.041-2.378-1.418-3.159-2.7" transform="translate(-1841.638 -1306.181)" fill="#3c8f7c"/>
        <path id="Trazado_261349" data-name="Trazado 261349" d="M2341.208,1736.6a10.63,10.63,0,0,0-2.463-3.876,8.192,8.192,0,0,0-3.564-1.95,8.848,8.848,0,0,1,4.536-.188c2.415.436,5.053,2.4,5.582,3.707,1.422,2.526.362,5.081-.931,5.008-1.3-.041-2.379-1.418-3.16-2.7" transform="translate(-1788.242 -1325.081)" fill="#3c8f7c"/>
        <path id="Trazado_261350" data-name="Trazado 261350" d="M2468.858,1695.2a6.82,6.82,0,0,0-2.058-2.109,5.27,5.27,0,0,0-2.495-.753,5.668,5.668,0,0,1,2.823-.717,5.566,5.566,0,0,1,3.995,1.591c1.227,1.4.9,3.142.077,3.267-.823.146-1.682-.576-2.341-1.279" transform="translate(-1887.124 -1295.409)" fill="#3c8f7c"/>
        <path id="Trazado_261351" data-name="Trazado 261351" d="M2467.9,1666.4a6.824,6.824,0,0,1-.65,2.874,5.26,5.26,0,0,1-1.733,1.948,5.683,5.683,0,0,0,2.781-.866,5.567,5.567,0,0,0,2.572-3.446c.314-1.833-.878-3.149-1.644-2.825-.778.306-1.131,1.371-1.326,2.315" transform="translate(-1888.053 -1274.295)" fill="#3c8f7c"/>
        <path id="Trazado_261352" data-name="Trazado 261352" d="M369.284,893.138c-20.942-18.673-31.71-45.49-37.055-64.7a191.359,191.359,0,0,1-6.656-37.662l-1.138-.07a192.712,192.712,0,0,0,6.7,37.925c5.4,19.4,16.277,46.491,37.478,65.4Z" transform="translate(-248.446 -605.511)" fill="#3c8f7c"/>
        <path id="Trazado_261353" data-name="Trazado 261353" d="M307.886,733.083a16.433,16.433,0,0,1-2.033,12.612,19.245,19.245,0,0,1-7.2-11.412,16.433,16.433,0,0,1,2.033-12.612,19.245,19.245,0,0,1,7.2,11.412" transform="translate(-228.375 -552.645)" fill="#3c8f7c"/>
        <path id="Trazado_261354" data-name="Trazado 261354" d="M273.058,813.085a19.212,19.212,0,0,1,6.126,12.012,16.713,16.713,0,0,1-11.927-4.784,19.21,19.21,0,0,1-6.126-12.012,16.712,16.712,0,0,1,11.927,4.784" transform="translate(-199.97 -618.974)" fill="#3c8f7c"/>
        <path id="Trazado_261355" data-name="Trazado 261355" d="M265.271,887.609a18.375,18.375,0,0,1,10.338,8.323,14.321,14.321,0,0,1-12.1,1.284,18.375,18.375,0,0,1-10.338-8.323,14.321,14.321,0,0,1,12.1-1.284" transform="translate(-193.877 -679.133)" fill="#3c8f7c"/>
        <path id="Trazado_261356" data-name="Trazado 261356" d="M302.362,962.285a13.477,13.477,0,0,1,8,7.6,10.163,10.163,0,0,1-9.771,2,13.478,13.478,0,0,1-8-7.6,10.165,10.165,0,0,1,9.771-2" transform="translate(-224.061 -736.528)" fill="#3c8f7c"/>
        <path id="Trazado_261357" data-name="Trazado 261357" d="M347.372,846.488a12.287,12.287,0,0,1,10.081-3.629,13.773,13.773,0,0,1-3.9,10.451,12.286,12.286,0,0,1-10.081,3.629,13.773,13.773,0,0,1,3.9-10.451" transform="translate(-263.006 -645.395)" fill="#3c8f7c"/>
        <path id="Trazado_261358" data-name="Trazado 261358" d="M361.207,899.365a12.286,12.286,0,0,1,10.081-3.629,13.774,13.774,0,0,1-3.9,10.451,12.286,12.286,0,0,1-10.081,3.629,13.772,13.772,0,0,1,3.9-10.451" transform="translate(-273.601 -685.888)" fill="#3c8f7c"/>
        <path id="Trazado_261359" data-name="Trazado 261359" d="M248.286,1196.46c-19.339-2.819-35.889-14.276-46.367-23.391A133.267,133.267,0,0,1,183.6,1153.73l-.689.4a134.219,134.219,0,0,0,18.445,19.476c10.58,9.207,27.3,20.78,46.88,23.633Z" transform="translate(-140.069 -883.508)" fill="#50bfa5"/>
        <path id="Trazado_261360" data-name="Trazado 261360" d="M155.864,1125.18a11.448,11.448,0,0,1,3.658,8.112,13.4,13.4,0,0,1-8.562-3.873,11.446,11.446,0,0,1-3.658-8.111,13.4,13.4,0,0,1,8.562,3.872" transform="translate(-112.801 -858.68)" fill="#50bfa5"/>
        <path id="Trazado_261361" data-name="Trazado 261361" d="M161.649,1181.68a13.381,13.381,0,0,1,8.17,4.632,11.64,11.64,0,0,1-8.769,1.8,13.382,13.382,0,0,1-8.17-4.632,11.64,11.64,0,0,1,8.769-1.8" transform="translate(-117.073 -904.767)" fill="#50bfa5"/>
        <path id="Trazado_261362" data-name="Trazado 261362" d="M188.271,1219.147a12.8,12.8,0,0,1,9.2.872,9.975,9.975,0,0,1-6.54,5.388,12.8,12.8,0,0,1-9.2-.871,9.974,9.974,0,0,1,6.54-5.389" transform="translate(-139.167 -933.234)" fill="#50bfa5"/>
        <path id="Trazado_261363" data-name="Trazado 261363" d="M239.04,1251.31a9.388,9.388,0,0,1,7.569,1.35,7.079,7.079,0,0,1-4.913,4.911,9.388,9.388,0,0,1-7.569-1.35,7.079,7.079,0,0,1,4.913-4.912" transform="translate(-179.291 -958.001)" fill="#50bfa5"/>
        <path id="Trazado_261364" data-name="Trazado 261364" d="M229.154,1161.608a8.557,8.557,0,0,1,4.468-5.977,9.593,9.593,0,0,1,1.74,7.573,8.558,8.558,0,0,1-4.468,5.978,9.594,9.594,0,0,1-1.74-7.574" transform="translate(-175.344 -884.963)" fill="#50bfa5"/>
        <path id="Trazado_261365" data-name="Trazado 261365" d="M257.487,1187.036a8.559,8.559,0,0,1,4.468-5.978,9.593,9.593,0,0,1,1.74,7.573,8.558,8.558,0,0,1-4.468,5.978,9.594,9.594,0,0,1-1.741-7.573" transform="translate(-197.04 -904.436)" fill="#50bfa5"/>
        <path id="Trazado_261366" data-name="Trazado 261366" d="M200.376,1534.823c-22.308,8.468-46.864,4-63.536-1.248A159.084,159.084,0,0,1,105.634,1520l-.494.945a160.214,160.214,0,0,0,31.421,13.678c16.835,5.3,41.645,9.815,64.229,1.241Z" transform="translate(-80.514 -1163.991)" fill="#96d9c9"/>
        <path id="Trazado_261367" data-name="Trazado 261367" d="M58.052,1497.215a16.108,16.108,0,0,1,8.8,8.218,14.01,14.01,0,0,1-11.463.349,16.109,16.109,0,0,1-8.8-8.218,14.012,14.012,0,0,1,11.463-.349" transform="translate(-35.677 -1145.737)" fill="#96d9c9"/>
        <path id="Trazado_261368" data-name="Trazado 261368" d="M102.276,1551.553a14.274,14.274,0,0,1,11.5.881,13.707,13.707,0,0,1-8.258,7.823,14.273,14.273,0,0,1-11.5-.881,13.709,13.709,0,0,1,8.258-7.823" transform="translate(-71.997 -1187.531)" fill="#96d9c9"/>
        <path id="Trazado_261369" data-name="Trazado 261369" d="M160.788,1576.717a13.539,13.539,0,0,1,10.332-4.64,14.8,14.8,0,0,1-3.712,11.082,13.537,13.537,0,0,1-10.332,4.639,14.8,14.8,0,0,1,3.712-11.081" transform="translate(-120.247 -1203.87)" fill="#96d9c9"/>
        <path id="Trazado_261370" data-name="Trazado 261370" d="M222.1,1596.171a13.537,13.537,0,0,1,10.332-4.639,14.8,14.8,0,0,1-3.712,11.081,13.538,13.538,0,0,1-10.332,4.639,14.8,14.8,0,0,1,3.712-11.082" transform="translate(-167.196 -1218.768)" fill="#96d9c9"/>
        <path id="Trazado_261371" data-name="Trazado 261371" d="M165.774,1513.814a15.749,15.749,0,0,1-3.309-10.608,13.671,13.671,0,0,1,9.048,5.485,15.748,15.748,0,0,1,3.309,10.608,13.67,13.67,0,0,1-9.049-5.484" transform="translate(-124.384 -1151.131)" fill="#96d9c9"/>
        <path id="Trazado_261372" data-name="Trazado 261372" d="M228.978,1533.872A15.8,15.8,0,0,1,225.5,1523.3a13.606,13.606,0,0,1,9.118,5.336,15.8,15.8,0,0,1,3.473,10.569,13.6,13.6,0,0,1-9.118-5.335" transform="translate(-172.67 -1166.521)" fill="#96d9c9"/>
        <path id="Trazado_261373" data-name="Trazado 261373" d="M313.572,1605.824a5.558,5.558,0,0,1,3.506-3.319,6.37,6.37,0,0,1,.205,5.062,5.555,5.555,0,0,1-3.506,3.318,6.368,6.368,0,0,1-.205-5.061" transform="translate(-239.8 -1227.173)" fill="#96d9c9"/>
        <path id="Trazado_261374" data-name="Trazado 261374" d="M257.729,1151.683s28.422-112.408,19-123.7c-13.025-15.609-23.77,36.173-24.824,31.775-9.956-41.537-12.608-94.682-44.727-100.307-18.258-3.2,4.217,39.521,2.865,51.074s-34.255-26.805-54.249-46.9-30.32-7.373-17.687,17.9c12.216,24.436,51.736,51.138,43.59,54.306s-57.6-28.388-63.658-14.9c-7.425,16.54,66.76,39.049,59.774,42.765s-42.442-8.521-41.473,4.127,48.631,12.177,47.817,17.74c-1.319,9.009-32.843-11.382-34.229,1.083-1.417,12.749,41.473,10.423,40.73,20.367-.427,5.714-9.63-2.9-10.986,5.01-3.092,18.047,53.448,40.033,53.448,40.033Z" transform="translate(-89.989 -730.333)" fill="#3c8f7c"/>
        <path id="Trazado_261375" data-name="Trazado 261375" d="M445.341,1604.243s-27.049-41.472-40.065-49.3c-13.869-8.344-3.31,16.636-3.31,16.636s-28.342-33.725-36.22-26.872-.728,14.787-.728,14.787-25.444-7.54-30.017,1.8c-7.027,14.351,34.863,26.252,34.863,26.252s-17.983-.19-14.674,9.5c4.99,14.612,90.152,7.2,90.152,7.2" transform="translate(-255.929 -1182.205)" fill="#50bfa5"/>
        <path id="Trazado_261376" data-name="Trazado 261376" d="M337.6,1559.714c4.573-9.339,30.017-1.8,30.017-1.8s-7.151-7.935.728-14.787,30.551,13.659,30.551,13.659-2.376-16.914,14.7-2.014c12.194,10.643,34.349,47.9,34.349,47.9Z" transform="translate(-258.527 -1180.629)" fill="#96d9c9"/>
        <path id="Trazado_261377" data-name="Trazado 261377" d="M565.84,855.393l1.214-.829c-22.023-33.354-28.745-72.952-30.507-100.3-1.911-29.677,1.444-51.733,1.478-51.952l-1.5-.437c-.034.221-3.415,22.425-1.5,52.278,1.772,27.578,8.558,67.529,30.816,101.238" transform="translate(-409.262 -537.486)" fill="#96d9c9"/>
        <path id="Trazado_261378" data-name="Trazado 261378" d="M528.332,622.833c.048,6.7-2.276,12.24-5.987,15.563a29.856,29.856,0,0,1-6.228-17.961c-.048-6.7,2.277-12.24,5.987-15.563a29.851,29.851,0,0,1,6.228,17.961" transform="translate(-395.234 -463.202)" fill="#96d9c9"/>
        <path id="Trazado_261379" data-name="Trazado 261379" d="M470.841,708.733a29.187,29.187,0,0,1,4.688,18.283c-5.153-1.466-10.34-5.431-14.094-11.355a29.186,29.186,0,0,1-4.688-18.284c5.153,1.466,10.34,5.431,14.094,11.355" transform="translate(-349.671 -534.042)" fill="#96d9c9"/>
        <path id="Trazado_261380" data-name="Trazado 261380" d="M439.552,809.4a29.32,29.32,0,0,1,11.1,15.284c-4.752,1.326-10.531.238-15.934-3.521a29.317,29.317,0,0,1-11.1-15.284c4.752-1.326,10.531-.238,15.934,3.52" transform="translate(-324.4 -616.718)" fill="#96d9c9"/>
        <path id="Trazado_261381" data-name="Trazado 261381" d="M499.75,952.425a12.229,12.229,0,0,1,5.066,6.084,7.853,7.853,0,0,1-6.724-.951,12.23,12.23,0,0,1-5.066-6.084,7.855,7.855,0,0,1,6.724.951" transform="translate(-377.551 -728.327)" fill="#96d9c9"/>
        <path id="Trazado_261382" data-name="Trazado 261382" d="M507.928,1002.11a12.228,12.228,0,0,1,5.066,6.084,7.854,7.854,0,0,1-6.724-.951,12.23,12.23,0,0,1-5.066-6.084,7.854,7.854,0,0,1,6.724.951" transform="translate(-383.814 -766.375)" fill="#96d9c9"/>
        <path id="Trazado_261383" data-name="Trazado 261383" d="M545.859,799.188a15.266,15.266,0,0,1,13.962-.4A16.225,16.225,0,0,1,552,810.73a15.264,15.264,0,0,1-13.961.4,16.226,16.226,0,0,1,7.823-11.943" transform="translate(-412.019 -610.556)" fill="#96d9c9"/>
        <path id="Trazado_261384" data-name="Trazado 261384" d="M549.57,874.033a15.265,15.265,0,0,1,13.961-.4,16.225,16.225,0,0,1-7.823,11.943,15.264,15.264,0,0,1-13.961.4,16.225,16.225,0,0,1,7.823-11.943" transform="translate(-414.861 -667.871)" fill="#96d9c9"/>
        <path id="Trazado_261385" data-name="Trazado 261385" d="M554.813,983.316a9.936,9.936,0,0,1,9.087-.261,10.561,10.561,0,0,1-5.092,7.773,9.933,9.933,0,0,1-9.087.261,10.56,10.56,0,0,1,5.092-7.773" transform="translate(-420.967 -752.064)" fill="#96d9c9"/>
        <path id="Trazado_261386" data-name="Trazado 261386" d="M1873.872,1341.208a5.666,5.666,0,0,1,2.737.877,48.352,48.352,0,0,0,5.008-2.268s13.661-6.742,14.385-7.134l9.86-12.405,7.6,3.5s-11.089,13.189-11.791,13.771-20.289,7.449-21.992,8.112c0,0-1.717,1.57-2.828,2.518a11.764,11.764,0,0,1-2.953,1.54,12.378,12.378,0,0,1-3.01,1.056c-1.492.325-.249-.689-.249-.689s2.641-1.115,2.511-1.316c-.1-.155-1.5.542-3.152.919-.423.1-.842.191-1.227.274-1.011.219-1.455-.36-.439-.763a9.816,9.816,0,0,1,1.414-.458,8.174,8.174,0,0,0,1.3-.51,10.673,10.673,0,0,0,1.334-.534c-.041-.036.071-.209-.383-.121a25.124,25.124,0,0,1-2.459.689c-.462.052-1.42.222-1.42.222s-1.694.162-1.706-.075c-.026-.519,1.018-.809,1.659-.8a6.666,6.666,0,0,1,1.417-.355s1.966-.776,1.852-1.067a13.938,13.938,0,0,0-2.5.149c-1.335.092-2.3.091-2.373-.167-.113-.41.949-.566.949-.566s.937-.136,1.243-.206c.36-.082,1.415-.413,1.415-.413s3.615-1.328,3.484-1.594-.727-.825-.982-.824-.711.255-.966.257-.8-.047-.841-.368,1.377-.985,1.377-.985a4,4,0,0,1,1.726-.272" transform="translate(-1429.266 -1011.049)" fill="#f8a492"/>
        <path id="Trazado_261387" data-name="Trazado 261387" d="M2005.562,1307.239s2.46,2.235,3.483,2.97c.85.612,5,2.608,5,2.608s4.124-6.315,5.927-9.481c2.188-3.842,3.7-9.555,3.185-9.71a7.571,7.571,0,0,0-5.291.146c-6.381,2.929-12.3,13.467-12.3,13.467" transform="translate(-1535.827 -990.326)" fill="#355389"/>
        <path id="Trazado_261388" data-name="Trazado 261388" d="M1899.636,1420.335a2.362,2.362,0,0,1-2.7-1.037c-.11,1.189,1.692,1.778,2.7,1.037" transform="translate(-1452.64 -1086.876)" fill="#fe875e"/>
        <path id="Trazado_261389" data-name="Trazado 261389" d="M479.373,1184.4a22.355,22.355,0,0,0-2.026-10.733c-1.41-2.945-4.9-4.617-8.078-4.621-10.1-.013-11.384,13.388-17.813,18.557-1.964,1.58-4.16,2.866-6.019,4.57-6.864,6.29-3.772,17.933,2.53,23.447,4.374,3.827,11.248,6,16.638,3.01a17,17,0,0,0,6.471-7c2.16-4.036,3.552-8.693,5.088-12.995a48.671,48.671,0,0,0,3.207-14.234" transform="translate(-338.131 -895.24)" fill="#13375b"/>
        <path id="Trazado_261390" data-name="Trazado 261390" d="M586.157,1279.834c-3.155-9.57-7.319-9.42-7.319-9.42l3.365,20.377c1.948-.532,4.485-1.718,6.43-2.268a87.673,87.673,0,0,0-2.476-8.689" transform="translate(-443.265 -972.863)" fill="#f7cc7f"/>
        <path id="Trazado_261391" data-name="Trazado 261391" d="M613.1,1370.568l-11.533-8.8s-1.16-8.208-2.714-15.491c-1.946.55-3.7,2.076-5.65,2.608l2.933,16.311,15.116,7.8,4.27,5.487.971-5.633Z" transform="translate(-454.267 -1030.959)" fill="#f48c7f"/>
        <path id="Trazado_261392" data-name="Trazado 261392" d="M722.814,1044.067a19.868,19.868,0,0,1,9.847,2.594,10.415,10.415,0,0,0,1.19.574c8.862,3.64,18.56-3.1,18.56-12.682V987.435H705.293c-9.581,0-16.321-9.7-12.682-18.56a10.459,10.459,0,0,1,.574-1.19,19.978,19.978,0,1,0-34.9-.248,11.122,11.122,0,0,1,.567,1.211A13.807,13.807,0,0,1,645.9,987.435H599.192V1094.8a45.857,45.857,0,0,0,45.857,45.856H752.411v-46.961a13.659,13.659,0,0,0-18.647-12.783,10.68,10.68,0,0,0-1.2.57,19.978,19.978,0,1,1-9.755-37.412" transform="translate(-458.852 -718.199)" fill="#f47458"/>
        <path id="Trazado_261393" data-name="Trazado 261393" d="M1208.9,1174.413a19.873,19.873,0,0,1,3.052-9.715,10.468,10.468,0,0,0,.629-1.162c4.049-8.683-2.231-18.684-11.8-19.132l-47.067-2.2-2.2,47.067c-.448,9.57-10.449,15.851-19.132,11.8a10.415,10.415,0,0,1-1.162-.629,19.978,19.978,0,1,0-1.878,34.855,11.067,11.067,0,0,1,1.236-.51,13.807,13.807,0,0,1,18.162,13.806l-2.181,46.662,107.245,5.013a45.856,45.856,0,0,0,47.948-43.665l5.013-107.245-46.91-2.193a13.659,13.659,0,0,0-13.64,18.029,10.573,10.573,0,0,0,.514,1.221,19.978,19.978,0,1,1-37.828,8" transform="translate(-842.813 -874.682)" fill="#7c6e0f"/>
        <path id="Trazado_261394" data-name="Trazado 261394" d="M674.707,550.333a19.863,19.863,0,0,1-2.1,9.965,10.41,10.41,0,0,0-.513,1.217c-3.19,9.034,4.029,18.381,13.6,17.9l47.059-2.366-2.366-47.059c-.481-9.568,8.865-16.788,17.9-13.6a10.437,10.437,0,0,1,1.218.513A19.978,19.978,0,1,0,748,482.031a11.06,11.06,0,0,1-1.181.627,13.806,13.806,0,0,1-19.413-11.982l-2.346-46.654-107.227,5.392a45.857,45.857,0,0,0-43.5,48.1l5.392,107.227,46.9-2.358a13.659,13.659,0,0,0,11.83-19.265,10.617,10.617,0,0,0-.629-1.165,19.978,19.978,0,1,1,36.875-11.621" transform="translate(-439.772 -324.71)" fill="#0c5e46"/>
        <path id="Trazado_261395" data-name="Trazado 261395" d="M1317.536,536.627a19.865,19.865,0,0,1-9.847-2.595,10.426,10.426,0,0,0-1.19-.574c-8.863-3.64-18.56,3.1-18.56,12.682v47.118h47.118c9.581,0,16.321,9.7,12.682,18.56a10.426,10.426,0,0,1-.574,1.19,19.978,19.978,0,1,0,34.905.248,11.054,11.054,0,0,1-.567-1.211,13.806,13.806,0,0,1,12.942-18.787h46.712V485.9A45.857,45.857,0,0,0,1395.3,440.04H1287.939V487a13.659,13.659,0,0,0,18.646,12.783,10.675,10.675,0,0,0,1.2-.57,19.978,19.978,0,1,1,9.755,37.413" transform="translate(-986.283 -336.976)" fill="#03386e"/>
        <path id="Trazado_261396" data-name="Trazado 261396" d="M455.155,1740.091s-.711,4.947-1.936,6.543a12.62,12.62,0,0,0-1.654,2.182,6.431,6.431,0,0,0,.223,4.987c.29.635-.02.633.641.837a4.059,4.059,0,0,0,4.874-2.294,11.67,11.67,0,0,0,.956-4.215,15.291,15.291,0,0,1,1.6-6.775Z" transform="translate(-345.483 -1332.534)" fill="#f7a491"/>
        <path id="Trazado_261397" data-name="Trazado 261397" d="M557.038,1749.751s.439,5.578.083,7.391c-.191.971-1.254,2.969-.766,3.882a2.45,2.45,0,0,0,1.045,1.142l12.641.2c.689.011.234-.433-.321-.842a25.433,25.433,0,0,0-4.545-2.52c-.189-.092-.879-.531-1.127-.683a8.76,8.76,0,0,1-1.808-1.6c-.908-1.013-.987-5.925-.987-5.925Z" transform="translate(-425.95 -1339.932)" fill="#f7a491"/>
        <path id="Trazado_261398" data-name="Trazado 261398" d="M562.394,1428.62s1.592,9.057.547,14.994-6.062,60.971-6.062,60.971l-5.575.316s-1.168-22.99-.959-26.186a49.646,49.646,0,0,1,1.863-8.547l-.555-18.561,7.035-24.384Z" transform="translate(-421.425 -1092.944)" fill="#355389"/>
        <path id="Trazado_261399" data-name="Trazado 261399" d="M480.89,1418.338s-4.39,6.622-5.435,12.1.767,22.323-1.243,29.505c-1.088,3.888-5.213,9.892-5.841,14.916s-3.087,18.183-3.087,18.183l5.573,1.107,12.951-32.865,10.158-29.705,2.6-15.3Z" transform="translate(-356.307 -1084.567)" fill="#466eb6"/>
        <path id="Trazado_261400" data-name="Trazado 261400" d="M519.122,1264.121s-5.812-.371-8.112,2.141,5.1,22.383,5.519,25.58-2.131,11.7-2.131,11.7,13.654,2.754,17.556.166c0,0,.418-22.989,0-25.273s-3.9-11.571-4.739-12.484-8.093-1.827-8.093-1.827" transform="translate(-390.985 -968.029)" fill="#f7cc7f"/>
        <path id="Trazado_261401" data-name="Trazado 261401" d="M548.379,1230.524s-.03.172-.084.464a44.315,44.315,0,0,1-1.931,7.324c-.815,1.544,2.789,6.466,6.257,5.865,1.033-.179-.873-4.524-.781-4.984.175-.881.413-2.083.656-3.315.137-.7.276-1.4.407-2.062.371-1.883.674-3.423.674-3.423Z" transform="translate(-418.307 -942.216)" fill="#f7a491"/>
        <path id="Trazado_261402" data-name="Trazado 261402" d="M554.475,1230.989c.054-.292.084-.463.084-.463l5.2-.13s-.3,1.54-.674,3.423l-.4,2.051a4.87,4.87,0,0,1-2.482-1.247,6.577,6.577,0,0,1-1.88-2.8c.064-.329.117-.613.158-.83" transform="translate(-424.487 -942.217)" fill="#f47458"/>
        <path id="Trazado_261403" data-name="Trazado 261403" d="M551.655,1180.346a4.679,4.679,0,0,0-3.986,1.707c-1.535,1.991-3.191,8.147.624,11.493s7.584-.441,8.143-4.458.776-8.887-4.781-8.742" transform="translate(-418.085 -903.88)" fill="#f7a491"/>
        <path id="Trazado_261404" data-name="Trazado 261404" d="M588.683,1210.288c-.455.887-1.219,1.378-1.707,1.1s-.513-1.229-.058-2.116,1.219-1.378,1.707-1.1.514,1.229.058,2.116" transform="translate(-449.203 -925.139)" fill="#f7a491"/>
        <path id="Trazado_261405" data-name="Trazado 261405" d="M544.438,1177.378s-3.273,5.854-5.614,6.125-2.649,3.381-2.649,3.381.837-7.168,3.155-8.55a8.6,8.6,0,0,1,5.108-.956" transform="translate(-410.594 -901.57)" fill="#13375b"/>
        <path id="Trazado_261406" data-name="Trazado 261406" d="M456.279,1779.83a6.222,6.222,0,0,1-6.109-2.559c-.772,1.51-1.149,3.763-.581,5,.5,1.093,1.961,1.061,3.112,1.1a3,3,0,0,0,2.761-1.694,10.17,10.17,0,0,0,.816-1.856" transform="translate(-344.079 -1361.006)" fill="#f47458"/>
        <path id="Trazado_261407" data-name="Trazado 261407" d="M563.953,1785.426a11.417,11.417,0,0,1-7.2-.284c-.357,1.013-.829,2.283-.579,3.016.307.9.744,1.1,1.13,1.11,3.054.08,11.186.19,13.514.22a.382.382,0,0,0,.3-.627c-.578-.691-6.915-3.284-7.165-3.436" transform="translate(-425.858 -1367.033)" fill="#f47458"/>
        <path id="Trazado_261408" data-name="Trazado 261408" d="M542.1,1204.612c.19,1.039-.193,1.993-.856,2.129s-1.355-.6-1.545-1.635.193-1.993.855-2.129,1.354.6,1.545,1.635" transform="translate(-413.254 -921.208)" fill="#f7a491"/>
        <path id="Trazado_261409" data-name="Trazado 261409" d="M566.43,1225.384l2.955.134a1.293,1.293,0,0,1-1.42,1.1c-1.587-.026-1.535-1.232-1.535-1.232" transform="translate(-433.763 -938.38)" fill="#fff"/>
        <path id="Trazado_261410" data-name="Trazado 261410" d="M1630.873,219.259c.368.015,1.376.353,2.851,3.14,1.884,3.559,4.636,14.31,4.636,14.31l-8.216,3.06-1.056-2.244-1.738-17.276s3.421-.994,3.523-.989" transform="translate(-1246.198 -167.906)" fill="#dd513a"/>
        <path id="Trazado_261411" data-name="Trazado 261411" d="M1548.381,212.642a50.186,50.186,0,0,1,10.861,1.55s1.982,17.035-1.785,29.98c-.843,2.9.7,12.012.7,12.012l-24.344-.321s2.884-22.034,1.8-25.593-1.112-15.963-1.112-15.963.166-.026,5.469-.942a55.127,55.127,0,0,1,8.417-.723" transform="translate(-1174.567 -162.838)" fill="#f47458"/>
        <path id="Trazado_261412" data-name="Trazado 261412" d="M1561.288,533.543s.539,6.216,1.529,7.938-.052,4.648-.1,5.049-2.085.976-5.316.631-3.179-1.09-2.918-2.3,1.98-2.754,2.084-3.9a29.94,29.94,0,0,0-.99-5.279Z" transform="translate(-1190.311 -408.579)" fill="#f7a491"/>
        <path id="Trazado_261413" data-name="Trazado 261413" d="M1554.05,375.4s16.805-.933,20.558,1.339-2.666,13.427-2.666,13.427-11.694-.539-34.6.783c-5.424.313-5.891-14.142-4.877-15.338s21.583-.211,21.583-.211" transform="translate(-1173.209 -287.18)" fill="#e0973f"/>
        <path id="Trazado_261414" data-name="Trazado 261414" d="M1556.347,574.818c-3.327-.355-2.916-1.989-2.648-3.23.168-.777,1.122-1.693,1.692-2.559a5.544,5.544,0,0,0,2.226,1.082c1.5.443,3.557-.434,4.868-.983a16.06,16.06,0,0,1,.445,4.292c-.053.414-3.255,1.753-6.583,1.4" transform="translate(-1189.663 -435.754)" fill="#dd513a"/>
        <path id="Trazado_261415" data-name="Trazado 261415" d="M1531.781,387.964c.671,5.081,4,30.372,4,30.372l-7.714.956s-9.485-33.012-9-38.061,4.037-5.474,4.037-5.474,6.9-1.242,8.68,12.206" transform="translate(-1163.261 -287.726)" fill="#f7cc7f"/>
        <path id="Trazado_261416" data-name="Trazado 261416" d="M1523.193,227.751c2.276-.854,3.389,19.655,3.7,28.1a99.185,99.185,0,0,0,12.806-.128c.823-.062,2.719-.757,3.538-.864a8.19,8.19,0,0,1,2.011-.1,37.962,37.962,0,0,1,4.712,2.121c.446.467,1.65,1.646,1.447,2.156s-2.317-1.42-2.317-1.42l-1.033-.58c1.286,1.257,3.74,2.911,3.386,3.514s-2.557-1.092-4.135-2.236c1.353,1.222,3.033,3.409,2.646,3.749-.348.307-2.259-2.225-4.3-2.954-.757-.27-1.512.478-2.108.568a4.28,4.28,0,0,1-1.543.086l-2.212-.627c-.754.068-.773.514-1.533.676-.884.188-2.333.386-3.459.661-6.478,1.583-8.64,2.318-10.623,2.317-6.008,0-6.357-33.022-.977-35.039" transform="translate(-1163.529 -174.389)" fill="#f7a491"/>
        <path id="Trazado_261417" data-name="Trazado 261417" d="M1516.624,240.739c-.427-8.647-.364-19.3,4.483-21.122,1.912-.718,5.284,3.6,4.677,21.3a36.423,36.423,0,0,1-9.16-.176" transform="translate(-1161.279 -168.123)" fill="#dd513a"/>
        <path id="Trazado_261418" data-name="Trazado 261418" d="M1660.447,556.244a4.2,4.2,0,0,0,.532,3.585c1.205,1.427,6.213,2.827,6.87,3.6a2.166,2.166,0,0,1,.608,1.431l-14.055-.387.153-4.245.647-3.05Z" transform="translate(-1266.914 -425.963)" fill="#f7a491"/>
        <path id="Trazado_261419" data-name="Trazado 261419" d="M1659.281,573.531s-3.612,1.461-5.356.6-1.692-1.1-2.2-.782-.686,4.3-.686,4.3l15.8.464c1.1-.026,1.656-.835.762-1.529a12.9,12.9,0,0,0-1.723-1.025,49.418,49.418,0,0,0-6.606-2.027" transform="translate(-1264.342 -438.954)" fill="#dd513a"/>
        <path id="Trazado_261420" data-name="Trazado 261420" d="M1660.8,380.508c1.086-2.286,3.557-5.263,7.9-3.47,4.146,1.71,5.259,5.912,3.951,10.215s-9.919,29.6-10.22,33.075l-6.876.046s1.25-20.029,1.556-24.87a46.879,46.879,0,0,1,3.685-15" transform="translate(-1267.801 -288.31)" fill="#f7cc7f"/>
        <path id="Trazado_261421" data-name="Trazado 261421" d="M1579.245,294.18H1556.26a1.5,1.5,0,0,0-1.387.933l-7.077,17.32h-12.672a.643.643,0,0,0,0,1.286h36.065a2.516,2.516,0,0,0,2.3-1.491l7.126-15.928a1.5,1.5,0,0,0-1.367-2.12" transform="translate(-1175.082 -225.279)"/>
        <path id="Trazado_261422" data-name="Trazado 261422" d="M1664.617,331.758a1.266,1.266,0,1,1-.948-1.655,1.352,1.352,0,0,1,.948,1.655" transform="translate(-1272.829 -252.771)" fill="#fff"/>
        <path id="Trazado_261423" data-name="Trazado 261423" d="M1577.515,118.049a17.566,17.566,0,0,1-2.033-.814,10.206,10.206,0,0,0-2.319-.874c-1.282-.2-3.486-.066-4.7,1.254-1.516,1.645-4.21.3-3.667,8.911.614,9.75,6.035,8.68,6.167,8.515s4.835-6.237,4.835-6.237,1.644,3.6,1.644,3.465,8.4-11.417.076-14.22" transform="translate(-1198.238 -89.051)" fill="#0e2e35"/>
        <path id="Trazado_261424" data-name="Trazado 261424" d="M1583.568,181.491l.468,3.484s1.048,5.019-.3,5.987-5.735-6.13-5.735-6.13l.463-8.827Z" transform="translate(-1208.407 -134.782)" fill="#f7a491"/>
        <path id="Trazado_261425" data-name="Trazado 261425" d="M1579.339,178.865a10,10,0,0,0,5.651,5.58l-.4-2.954-5.1-5.487Z" transform="translate(-1209.432 -134.782)" fill="#f47458"/>
        <path id="Trazado_261426" data-name="Trazado 261426" d="M1581.331,134.8a4.646,4.646,0,0,1,5.35,4.7,35.418,35.418,0,0,1-.392,4.468c-.621,4.021-3.365,7.563-5.179,7.247s-6.379-3.785-5.575-9.508c.5-3.533,2.8-6.421,5.8-6.9" transform="translate(-1206.447 -103.18)" fill="#f7a491"/>
        <path id="Trazado_261427" data-name="Trazado 261427" d="M1572.587,161.353a1.353,1.353,0,1,1-1.028-1.829,1.5,1.5,0,0,1,1.028,1.829" transform="translate(-1202.24 -122.149)" fill="#f7a491"/>
        <path id="Trazado_261428" data-name="Trazado 261428" d="M1574.565,136.19s2.193.545,3.007-.866,3.725-4.455,7.425-3.193-3.256-3.069-3.552-3.069-3.848-.025-3.848-.025-2.738,2.253-2.837,2.5-.888,2.945-.888,2.945Z" transform="translate(-1205.246 -98.815)" fill="#0e2e35"/>
        <path id="Trazado_261429" data-name="Trazado 261429" d="M1593.915,184.71l3.991.763a1.777,1.777,0,0,1-2.146,1.219c-2.152-.347-1.845-1.982-1.845-1.982" transform="translate(-1220.583 -141.449)" fill="#fff"/>
        <path id="Trazado_261430" data-name="Trazado 261430" d="M1305.693,1363.538a4.134,4.134,0,0,0,.435,1.053,40.027,40.027,0,0,0,4.156,5.529l2.247-5.061s-.367-1.589-1-3.861c-2.17.566-4.236.894-5.836,2.339" transform="translate(-999.878 -1042.384)" fill="#f8a492"/>
        <path id="Trazado_261431" data-name="Trazado 261431" d="M1301.417,1294.584s-12.53,5.4-12.935,5.293c-.261-.067-5.14-8.232-5.192-15.911-.024-3.547,3.659-7.813,7.769-6.969,2.069.425,2.037,1,5.1,5.448s5.259,12.14,5.259,12.14" transform="translate(-982.723 -977.821)" fill="#13375b"/>
        <path id="Trazado_261432" data-name="Trazado 261432" d="M1403.608,1765.472s-.3,4.921-.3,4.931a26.988,26.988,0,0,0-.54,2.736c0,2.134,10.132-1.812,7.861-2.757-.206-.085-1.282-.733-1.35-1.459-.1-1.119-.368-3.383-.368-3.383Z" transform="translate(-1074.218 -1351.971)" fill="#f7a491"/>
        <path id="Trazado_261433" data-name="Trazado 261433" d="M1409.432,1786.065s-2.379.653-3.6.816-2.825-1.211-3.687-.84c-.948.408-.911,4.085-.911,4.085s12.756,1.046,16.343-.036c1.421-.429-3.285-2.505-8.148-4.026" transform="translate(-1073.044 -1367.673)" fill="#dd513a"/>
        <path id="Trazado_261434" data-name="Trazado 261434" d="M1315.117,1765.472s-.3,4.921-.3,4.931a26.983,26.983,0,0,0-.539,2.736c0,2.134,10.132-1.812,7.861-2.757-.206-.085-1.6-1.216-1.669-1.942-.1-1.119-.048-2.9-.048-2.9Z" transform="translate(-1006.453 -1351.971)" fill="#f7a491"/>
        <path id="Trazado_261435" data-name="Trazado 261435" d="M1320.7,1786.065s-2.379.653-3.6.816-2.824-1.211-3.687-.84c-.948.408-.986,4.085-.986,4.085s12.814,1.22,16.418-.036c1.4-.488-3.286-2.505-8.148-4.026" transform="translate(-1005.035 -1367.673)" fill="#dd513a"/>
        <path id="Trazado_261436" data-name="Trazado 261436" d="M1331.079,1256.506l8.924-12.5c.037-.109.118-.333.243-.676.449-1.24,1.385-3.821,2.2-6.389l.009-.028c.255-.9.8-2.463,1.323-3.978.584-1.684,1.307-3.773,1.333-4.129-.022-.061-.064-.17-.12-.315a28.873,28.873,0,0,1-.926-3.752c-.1-.56-.2-1.921.466-1.921,1.047,0,.548,1.36,1.031,2.209a21.383,21.383,0,0,0,.725-2.833l.175-2.658c.034-.2-.179-1.667.555-1.667h.035c.659.048.645,1.607.919,4.243.086-.3.174-.669.239-1.005a9.606,9.606,0,0,1,.223-1.391c-.133-.735-.056-1.893.727-1.784.391.055.359,1.672.359,1.672,0,.222-.027,1.931-.015,2.27.08-.574.394-3.021,1.008-3.021.509,0,.55.658.539,1.18-.006.308-.326,2.959-.344,3.267.24-.4.523-2.738.761-2.738.992,0,.634,3.322.269,4.187a3.792,3.792,0,0,0-.112.463,8.174,8.174,0,0,1-.851,2.471c-.624,1.066-1.483,2.761-1.614,3.021-.1.529-.395,2.433-.771,4.828-.16,1.025-.336,2.149-.52,3.313h-.01c-.034.252-.22,1.053-.926,4.058a35.775,35.775,0,0,1-1.109,4.365c-.419.743-10.041,13.809-10.449,14.364l-.242.328Z" transform="translate(-1019.319 -932.626)" fill="#f7a491"/>
        <path id="Trazado_261437" data-name="Trazado 261437" d="M1395.358,1252.058s-.724-1.852-2.014-1.856a1.484,1.484,0,0,1,1.339.229,2.552,2.552,0,0,1,.676,1.626" transform="translate(-1067 -957.332)" fill="#f47458"/>
        <path id="Trazado_261438" data-name="Trazado 261438" d="M1318.119,1241.68l-1.149,7.265s4.377,3.514,6.929,2.773c2.14-.623.673-3.421.673-3.421s-1.141-3.878-.791-5.911-5.662-.706-5.662-.706" transform="translate(-1008.514 -950.533)" fill="#f7a491"/>
        <path id="Trazado_261439" data-name="Trazado 261439" d="M1321.977,1243.877a17.873,17.873,0,0,0,4.954,1.4,9.64,9.64,0,0,1-.117-2.887c.161-.938-1.032-1.16-2.364-1.128-1.743.149-3.3.422-3.3.422l-.221,1.4a3.6,3.6,0,0,0,1.046.8" transform="translate(-1011.547 -950.535)" fill="#fe875e"/>
        <path id="Trazado_261440" data-name="Trazado 261440" d="M1298.252,1194.526c-.181,0,1.73,8.116,4.687,9.512s7.367.668,8.195-1.517c.915-2.418-2.424-10.7-6.583-11.749s-6.3,3.754-6.3,3.754" transform="translate(-994.171 -911.759)" fill="#f7a491"/>
        <path id="Trazado_261441" data-name="Trazado 261441" d="M1289.881,1174.2a9.308,9.308,0,0,0-3.811,4.211c-1.109.526-2.45,1.664-3.094,4.73-.792,3.769,2.023,6.675,5.007,7.549s3.445,2.849,3.445,2.849l.339-2.125a8.413,8.413,0,0,0-1.662-2.777c-1-.926.473-2.276.6-3.376.1-.848-.524-2.494-.389-3.885,0,0,1.658-2.513,3.293-3.134,2.787-1.059-.7-5.79-3.73-4.042" transform="translate(-982.379 -898.891)" fill="#13375b"/>
        <path id="Trazado_261442" data-name="Trazado 261442" d="M1310.692,1224.273c.386.937.229,1.868-.353,2.079s-1.366-.379-1.753-1.316-.228-1.868.353-2.078,1.366.378,1.752,1.316" transform="translate(-1001.932 -936.489)" fill="#f7a491"/>
        <path id="Trazado_261443" data-name="Trazado 261443" d="M1365.3,1358.392l17.213-2.807s-1.959-4.93-2.658-4.93-13.015,5.376-13.015,5.376l-.979,1.967Z" transform="translate(-1045.522 -1034.311)" fill="#f8a492"/>
        <path id="Trazado_261444" data-name="Trazado 261444" d="M1318.065,1431.5s-1.717,8.3-1.018,14.6.755,28.653.755,28.653l-2.67,35.775,6.336.138s7.513-35.757,7.373-34.839,2.519-25.177,2.519-25.177l-8.957-19.932Z" transform="translate(-1007.107 -1095.619)" fill="#184655"/>
        <path id="Trazado_261445" data-name="Trazado 261445" d="M1333.438,1423.391s-1.119,7.474.28,10.753,12,35.443,12.143,38.066,3.666,31.61,3.666,31.61l7.367-.207,1.593-32.228-3.337-40.505-3.24-10.241Z" transform="translate(-1020.8 -1087.901)" fill="#13375b"/>
        <path id="Trazado_261446" data-name="Trazado 261446" d="M1316.969,1266.4a6.615,6.615,0,0,0,3.511,1.054,11.673,11.673,0,0,0,4.09-1.7l-.333-1.129s-4.383-.638-4.494-.569-2.774,2.345-2.774,2.345" transform="translate(-1008.513 -967.99)" fill="#f7a491"/>
        <path id="Trazado_261447" data-name="Trazado 261447" d="M1399.639,1329.7s6.511,6.144,9.45,5.095,4.155-4.635-3.016-9.881c-6.417-4.7-6.434,4.786-6.434,4.786" transform="translate(-1071.821 -1013.599)" fill="#f8a492"/>
        <path id="Trazado_261448" data-name="Trazado 261448" d="M1320.875,1296.86c-.967-5.262-7.977-21.636-8.537-24.653-.272-1.467-4.053-1.5-7.655-1.308-3.8.2-7.583.684-7.583.684s-3.367.552-4.849,1.942-1.875,5.228.255,12.516c1.682,5.754,3.766,8.913,4.8,13.1.209,1.406.388,2.793.625,4.413.379,6.266,0,14.545,0,14.545s18.333,3.8,25.19-1.968c0,0-1.249-13.885-2.239-19.275" transform="translate(-988.646 -973.172)" fill="#355389"/>
        <path id="Trazado_261449" data-name="Trazado 261449" d="M1371.368,1286.232s-7.194,5.938-7.613,5.938c-.271,0-10.266-7.353-12.573-13.393-1.275-3.339,1.4-7.075,4.456-7.063,2.118.009,3.06.555,7.258,4.1s8.472,10.423,8.472,10.423" transform="translate(-1034.464 -973.858)" fill="#466eb6"/>
        <path id="Trazado_261450" data-name="Trazado 261450" d="M889.9,176.634c1.179-2.837,2.378-5.68,5.436-7.116a6.843,6.843,0,0,1,7.26.929c6.232,4.686.8,9.849,7.9,18.735,2.2,2.761,4.872,4.991,6.193,8.226,1.849,4.529-.353,6.7-3.882,8.873-16.885,10.379-25.736-10.931-25.418-15.805.236-3.626,1.756-12.016,2.515-13.842" transform="translate(-679.536 -129.315)" fill="#13375b"/>
        <path id="Trazado_261451" data-name="Trazado 261451" d="M822.465,319.458c.712-.113,2.441-1.351,3.051-1.464.473-.087,1.5-.242,1.932-.308.534-1.994,3.246-12.866,3.55-16.052.329-3.452,2.771-18.388,2.771-18.388l6.322,1.149s-2.625,11.489-3.352,17.061c-.623,4.785-5.874,15.544-6.541,16.68,0,.028,0,.054,0,.083-.1,1.689-.915,1.126-.915,1.126l-1.322.338s-4.678.45-4.983.563-1.22-.676-.509-.788" transform="translate(-629.628 -216.907)" fill="#f7a491"/>
        <path id="Trazado_261452" data-name="Trazado 261452" d="M872.2,245.969c-4.469,1.515-7.01,13.665-7.01,13.665s7.011,1.957,8.808.931c0,0,2.039-9.038,2.769-8.722Z" transform="translate(-662.552 -188.36)" fill="#6a97ce"/>
        <path id="Trazado_261453" data-name="Trazado 261453" d="M708.347,527.474a47.814,47.814,0,0,0-2.141,7.5c-.03.2.255,1.182.228,1.392-2.745,3.744-6.69,4.563-10.071,4.8,1.723-1.682,4.254-3.277,4.375-3.809a66.085,66.085,0,0,0,1.747-9.859c2.1.973,3.531.2,5.862-.026" transform="translate(-533.263 -403.932)" fill="#f7a491"/>
        <path id="Trazado_261454" data-name="Trazado 261454" d="M763.724,355.216l6.04,17.01s-9.706,1.827-13.334,2.492-23.9,1.551-24.415,1.911c-.381.267-4.569,13.812-6.44,21.28a17.571,17.571,0,0,1-7.688-.76c1.044-10.686,4.816-27.616,6.023-29.459,1.967-3,39.813-12.474,39.813-12.474" transform="translate(-549.747 -272.019)" fill="#256653"/>
        <path id="Trazado_261455" data-name="Trazado 261455" d="M782.756,559.31a47.8,47.8,0,0,0-.7,7.769c.008.2.472,1.114.485,1.325-1.994,4.192-5.716,5.736-8.993,6.6,1.378-1.976,3.565-4.016,3.585-4.562A66.178,66.178,0,0,0,777,560.434c2.248.562,3.506-.463,5.753-1.124" transform="translate(-592.372 -428.311)" fill="#f7a491"/>
        <path id="Trazado_261456" data-name="Trazado 261456" d="M820.454,358.986l2.342,4a11.465,11.465,0,0,1-5.748,16.482l-.1.041c-3.44,1.333-23.187,6-23.624,6.452-.324.334-1.9,14.423-2.338,22.11a17.57,17.57,0,0,1-7.694.694c-.977-10.693-.445-28.029.4-30.066,1.37-3.317,36.77-19.714,36.77-19.714" transform="translate(-599.426 -274.906)" fill="#327f6b"/>
        <path id="Trazado_261457" data-name="Trazado 261457" d="M774.416,592.755c.526-.581,2.456,2.615,2.938,3.3a1.524,1.524,0,0,1,.323,1.465c-.171.316-10.35,6.3-12.833,6.731a1.249,1.249,0,0,1-.743-.2c-.97-.859,3.5-7.2,5.5-8.034a9.627,9.627,0,0,0,4.813-3.261" transform="translate(-585.033 -453.869)" fill="#13375b"/>
        <path id="Trazado_261458" data-name="Trazado 261458" d="M696.707,559.846c.625-.472,1.922,3.029,2.268,3.789a1.525,1.525,0,0,1,.043,1.5c-.228.279-11.348,4.254-13.867,4.208a1.249,1.249,0,0,1-.693-.334c-.792-1.026,4.783-6.418,6.909-6.86a9.627,9.627,0,0,0,5.34-2.3" transform="translate(-524.089 -428.688)" fill="#13375b"/>
        <path id="Trazado_261459" data-name="Trazado 261459" d="M884.663,244.979h0a1.676,1.676,0,0,1-.451-.093,7.783,7.783,0,0,0-4.057.23c-1.717.724-4.378,7.494-4.22,14.443.064,1.062.128,2.013.183,2.676.434,5.249,1.939,15.1,2.021,15.15,2.048,1.318,14.408-3.793,15.258-4.916s1.35-14.766,1.763-15.446l.812-11.865c-1.433-.428-9.111-.195-11.309-.179" transform="translate(-670.772 -187.405)" fill="#9bc1f9"/>
        <path id="Trazado_261460" data-name="Trazado 261460" d="M913.746,220.146a31.643,31.643,0,0,0-.637,5.74c.159,1.624-.607,6.856-4.044,6.874s-.652-6.653-.329-8.244a60.861,60.861,0,0,0,.4-6.516Z" transform="translate(-694.846 -166.941)" fill="#f7a491"/>
        <path id="Trazado_261461" data-name="Trazado 261461" d="M914.626,220.47c.053-1.347.071-2.471.071-2.471l4.609,2.147s-.163.842-.326,1.914a4.024,4.024,0,0,1-4.353-1.59" transform="translate(-700.406 -166.941)" fill="#f47458"/>
        <path id="Trazado_261462" data-name="Trazado 261462" d="M915.276,176.885a5.709,5.709,0,0,1,2.425,3.12c.65,2.135-.09,7.645-4.677,8.975s-6.574-3.034-5.63-6.445,3-7.731,7.882-5.651" transform="translate(-694.692 -135.04)" fill="#f7a491"/>
        <path id="Trazado_261463" data-name="Trazado 261463" d="M905.651,191.4c.09.916.6,1.616,1.129,1.564s.893-.838.8-1.754-.6-1.617-1.129-1.564-.893.837-.8,1.754" transform="translate(-693.522 -145.228)" fill="#f7a491"/>
        <path id="Trazado_261464" data-name="Trazado 261464" d="M939.5,177.474s.832,6.147,2.819,7.256,1.156,3.836,1.156,3.836,1.8-6.331.231-8.365a8.748,8.748,0,0,0-4.206-2.727" transform="translate(-719.454 -135.907)" fill="#13375b"/>
        <path id="Trazado_261465" data-name="Trazado 261465" d="M945.194,209.167c-.539.8-.537,1.745,0,2.11s1.417.01,1.956-.791.537-1.745,0-2.11-1.417-.01-1.956.79" transform="translate(-723.505 -159.462)" fill="#f7a491"/>
        <path id="Trazado_261466" data-name="Trazado 261466" d="M917.89,213.68l3.233.814a1.469,1.469,0,0,1-1.821.912c-1.747-.385-1.412-1.725-1.412-1.725" transform="translate(-702.886 -163.633)" fill="#fff"/>
        <path id="Trazado_261467" data-name="Trazado 261467" d="M986.506,433.373l13.938-.7s-5.719,4.11-5.836,4.11-4.555-1.752-4.749-1.752-3.353-1.658-3.353-1.658" transform="translate(-755.45 -331.334)" fill="#50bfa5"/>
        <path id="Trazado_261468" data-name="Trazado 261468" d="M2155.886,1766.331s.272,4.835.274,4.845c.1.614.5,2.13.5,2.688,0,2.1-9.3-1.779-7.216-2.708.188-.084,1.177-.72,1.239-1.434.1-1.1.338-3.323.338-3.323Z" transform="translate(-1645.772 -1352.629)" fill="#f7a491"/>
        <path id="Trazado_261469" data-name="Trazado 261469" d="M2124.824,1786.738a33.509,33.509,0,0,0,3.3.8c1.119.16,2.593-1.19,3.383-.825.871.4.837,4.014.837,4.014s-11.71,1.028-15-.035c-1.3-.422,3.016-2.461,7.479-3.955" transform="translate(-1621.247 -1368.189)" fill="#f7cc7f"/>
        <path id="Trazado_261470" data-name="Trazado 261470" d="M2222.011,1765.262s.273,4.835.275,4.844c.1.614.495,2.13.495,2.688,0,2.1-9.3-1.779-7.215-2.708.188-.084,1.47-1.2,1.532-1.909.095-1.1.045-2.848.045-2.848Z" transform="translate(-1696.411 -1351.809)" fill="#f7a491"/>
        <path id="Trazado_261471" data-name="Trazado 261471" d="M2191.382,1785.494a33.484,33.484,0,0,0,3.3.8c1.118.16,2.591-1.19,3.384-.825.87.4.9,4.014.9,4.014s-11.625.478-15.07-.035c-1.355-.2,3.015-2.462,7.479-3.955" transform="translate(-1672.205 -1367.237)" fill="#f7cc7f"/>
        <path id="Trazado_261472" data-name="Trazado 261472" d="M2192.4,1434.878s1.576,8.155.934,14.339-.692,28.15-.692,28.15l2.963,35.136-6.328.148s-6.9-35.13-6.767-34.229-2.312-24.735-2.312-24.735l8.221-19.582Z" transform="translate(-1669.562 -1098.214)" fill="#355389"/>
        <path id="Trazado_261473" data-name="Trazado 261473" d="M2163.209,1414.918s7.14,7.521,4.485,15.736c-1.067,3.3-11.019,34.822-11.147,37.4s-3.365,31.056-3.365,31.056l-6.763-.2-1.463-31.663,1.932-42.662,4.1-7.2Z" transform="translate(-1642.573 -1083.522)" fill="#466eb6"/>
        <path id="Trazado_261474" data-name="Trazado 261474" d="M2036.921,1277.77a62.536,62.536,0,0,1,7.427-6.321s3.032-2.589,4.268-3.016c1.819-.627,4.935-2.3,9.441,4.53,3.225,4.888,23.575,30.2,26.915,31.047l-21.814,10.437c-.6-4.985-11.379-14.4-12.931-16.158-3.468-3.927-15.52-18.048-13.306-20.518" transform="translate(-1559.635 -970.853)" fill="#f47458"/>
        <path id="Trazado_261475" data-name="Trazado 261475" d="M2030.992,1265.131l6.8,3.978s.191,5.8-2.031,7.307c-1.864,1.264-3.283-1.77-3.283-1.77s-2.527-3.5-4.446-4.592,2.964-4.923,2.964-4.923" transform="translate(-1552.688 -968.817)" fill="#f7a491"/>
        <path id="Trazado_261476" data-name="Trazado 261476" d="M2032.133,1267.685a14.231,14.231,0,0,1-1.763,4.4,11.017,11.017,0,0,0-2.34-2.031c-.886-.5-.322-1.591.541-2.616,1.219-1.269,2.423-2.307,2.423-2.307l1.306.764a6.118,6.118,0,0,1-.166,1.788" transform="translate(-1552.689 -968.818)" fill="#f47458"/>
        <path id="Trazado_261477" data-name="Trazado 261477" d="M2002.643,1221.6c.114-.142,5.7,6.812,5.011,10.074s-4.066,6.238-6.412,5.419c-2.6-.9-7.424-9.091-5.692-13.065s7.093-2.427,7.093-2.427" transform="translate(-1527.879 -935.251)" fill="#f7a491"/>
        <path id="Trazado_261478" data-name="Trazado 261478" d="M1991.276,1209.289a10.575,10.575,0,0,1,9.375-.189c3.649,1.91,4.48,6.717,3.338,9.649s.166,4.59.166,4.59l-1.936-1.131a9.21,9.21,0,0,1-1.278-3.171c-.148-1.406-2.2-1.158-3.2-1.8-.772-.491-1.756-2.087-3-2.915,0,0-3.142-.386-4.687.482-2.635,1.478-2.26-3.579,1.228-5.519" transform="translate(-1522.628 -925.139)" fill="#13375b"/>
        <path id="Trazado_261479" data-name="Trazado 261479" d="M2035.216,1246.044c-.018,1.043.475,1.9,1.1,1.907s1.149-.827,1.167-1.87-.475-1.9-1.1-1.907-1.148.827-1.166,1.87" transform="translate(-1558.535 -952.769)" fill="#f7a491"/>
        <path id="Trazado_261480" data-name="Trazado 261480" d="M2010.79,1268.568l2.957-2.211a1.634,1.634,0,0,1-.49,2.206c-1.551,1.232-2.467.005-2.467.005" transform="translate(-1539.83 -969.756)" fill="#fff"/>
        <path id="Trazado_261481" data-name="Trazado 261481" d="M1951.3,1355.56c.741-1.082,1.064-2.644,2.089-3.835a9.138,9.138,0,0,1,1.515-1.3c4.927-2.882,17.762-10.313,18.262-10.89.592-.683,9.352-15.238,9.352-15.238l-7.868-1.783-7.689,13.578c-.642.509-12.847,9.53-12.847,9.53s-2.427,1.9-3.753,2.784a10.49,10.49,0,0,1-1.89.842,12.009,12.009,0,0,0-2.356,1.172c-.321.282-.962.885-1.343,1.254s-.844.784-1.023,1a2.7,2.7,0,0,1-.694.441.454.454,0,0,0,.076.842,1.965,1.965,0,0,0,1.192-.276c.883-.415,1.963-1.536,2.02-1.4s-1.038,2.54-1.146,2.822a32.132,32.132,0,0,0-1.431,3.705c-.065.624.312.768.591.54.241-.2,2.265-3.933,2.265-3.933s.259-.476.36-.2-1.731,3.669-1.91,4.227-.036,1.015.479.819c.627-.238,2.358-3.984,2.358-3.984s.225-.466.379-.3-1.452,3.026-1.47,3.356a.431.431,0,0,0,.714.38c.51-.325,2.027-3.682,2.027-3.682s.187-.222.246-.066-1.136,2.7-1.047,3.067a.3.3,0,0,0,.355.25c.625,0,1.447-2.632,2.188-3.714" transform="translate(-1487.766 -1012.76)" fill="#f8a492"/>
        <path id="Trazado_261482" data-name="Trazado 261482" d="M2070.115,1289.547s-2.563-.815-4.206-1.568c-1.1-.5-5.9-2.893-5.9-2.893s2.07-8.732,3.469-11.871c5.136-11.522,10.971-3.576,11.763-1.724,1.771,4.143-5.124,18.056-5.124,18.056" transform="translate(-1577.519 -970.323)" fill="#355389"/>
        <path id="Trazado_261483" data-name="Trazado 261483" d="M1339.04,1228.169l2.438-1.823a1.347,1.347,0,0,1-.4,1.819c-1.279,1.016-2.034,0-2.034,0" transform="translate(-1025.415 -939.116)" fill="#fff"/>
        <path id="Trazado_261484" data-name="Trazado 261484" d="M704.8,1802.953H138.3a1.685,1.685,0,0,0,0,3.273H704.8a1.685,1.685,0,0,0,0-3.273" transform="translate(-104.929 -1380.673)" fill="#184655"/>
        <path id="Trazado_261485" data-name="Trazado 261485" d="M973.627,316.73c-.058-.147-.187-.15-.318-.154a32.515,32.515,0,0,1-3.826-.286,2.757,2.757,0,0,1-.615-.157,1.6,1.6,0,0,0-1.058-.039,2.147,2.147,0,0,1-.588.063c-.643,0-2.478-.627-3.421-.792a.554.554,0,0,1-.44-.412c-.928-3.668-2.917-11.9-3.175-14.6-.33-3.461-2.72-19.063-2.72-19.063l-6.394,1.783s2.632,11.517,3.359,17.1c.562,4.312,4.871,13.463,6.222,16.094a2.7,2.7,0,0,0,2.485,2.055.8.8,0,0,1,.507.271,3.565,3.565,0,0,0,.807.7,1.894,1.894,0,0,1,.551.548c.271.4.515.811.755,1.227.159.276.326.363.563.3a.5.5,0,0,0,.37-.566,2.531,2.531,0,0,0-.382-1.26.685.685,0,0,1,.051-.913,2.9,2.9,0,0,1,.48-.534.828.828,0,0,1,.654-.238,10.526,10.526,0,0,0,1.395.26l.387.079c.014,0,.211.045.211.045.033.008.713.083.946.083.187,0,.49.013.748.025a4.13,4.13,0,0,0,.744-.111.9.9,0,0,0,.6-.239c.069-.062.136-.132.1-.238a.237.237,0,0,0-.208-.156,9,9,0,0,1-.939-.158c.236,0,.974-.017,1.21-.024a1.109,1.109,0,0,0,.812-.357c.087-.093.187-.185.129-.333" transform="translate(-728.316 -215.405)" fill="#f7a491"/>
        <path id="Trazado_261486" data-name="Trazado 261486" d="M942.812,246.422c3.156-.574,5.759,13.545,5.759,13.545s-7.012,1.957-8.808.931c0,0-2.039-9.038-2.77-8.722Z" transform="translate(-717.534 -188.694)" fill="#9bc1f9"/>
        <path id="Trazado_261487" data-name="Trazado 261487" d="M539.6,1301.449c.209-.6-2.7-1.082-2.856-1.687s3.675-.652,3.812-1.184c.253-.979-4.2-.206-4.11-.665s4.637-1.481,4.146-2.267-4.607,1.553-4.732,1.02,4.023-1.832,3.948-3c-.04-.625-6.807,3.117-7.592,2.777s.844-3.277.219-3.713-2.418,5.971-2.849,6.185-9.573,5.431-12.826,6.26c-.395-1.089-1.249-2.559-1.6-3.589-1.825,1.3-3.18,1.951-5.064,3.135,1.365,3.419,3.307,7.165,4.258,7.594,2.895,1.308,14.091-7.978,16.326-9.567s3.517-1.075,5.03-1.577,3.678.878,3.887.279" transform="translate(-390.622 -989.935)" fill="#f7a491"/>
        <path id="Trazado_261488" data-name="Trazado 261488" d="M501.489,1286.9s-2.506-11.067-2.071-14.278,4.251-6.2,6.895-5.093,3.843,16.561,3.843,16.561Z" transform="translate(-382.407 -970.471)" fill="#f7cc7f"/>
      </g>
    </g>
  </g>
</svg>
